<svg id="Calque_1" data-name="Calque 1" xmlns="http://www.w3.org/2000/svg" viewBox="0 0 470.49 100.9"><defs><style>.cls-1{fill:#e61f52;}.cls-2{fill:#f6f6f6;}</style></defs><path class="cls-1" d="M16.15,9.41h.24a3.13,3.13,0,0,0,1.25,2.29q3.52,5.84,12.29,9.2a2.87,2.87,0,0,0,1.28.2c.5,0,.91-.35,1.25-1v-.61c0-.27-1-1.25-2.93-2.93Q26.23,13,26,11.9l.41-.2q1,1.92,6.9,3.57A10.11,10.11,0,0,1,35,15c.7.29,1,.5,1,.64l1.48-.21h.61a71.52,71.52,0,0,1,8.55.41,16.91,16.91,0,0,1,2.33-.2,16.16,16.16,0,0,1,11.45,4.58c1.31.29,3,2.25,5.23,5.86a42,42,0,0,0,2.09,6.07l.84,4.17v.41A2.42,2.42,0,0,1,68.17,38,28.91,28.91,0,0,0,68.58,41c0,.11-.07.67-.2,1.68,0,.54.13,2.07.4,4.58a3.53,3.53,0,0,0-.4,1.65v1.49c0,.69.15,1,.4,1l-.2,1v2.7a35.52,35.52,0,0,1-2.29,11.08L64.4,69.15v.2l.84.84v1.45c.36,0,.92,1,1.69,3.13a5.9,5.9,0,0,0,1.65,1.89v.6c0,.21-.2.42-.61.64l-1.48-.2-1.25.2-5-.4c-2.94.27-4.61.4-5,.4l-1-.2a5.77,5.77,0,0,1-1.45.2,1.43,1.43,0,0,1-.2-.64h-1L49,77.7A23.13,23.13,0,0,1,41,76.46q-5.19-1.35-10.24-8.16l-1.45-4.38q-.91,0-1.89-9.4V53q0-2.35.2-7.07a1.67,1.67,0,0,1-.2-.64.37.37,0,0,0,.41-.41v-.44a.36.36,0,0,0-.41-.4,5.76,5.76,0,0,0,.2-.84q0-4.22-6.47-10a18.85,18.85,0,0,0-2.29-3.13v-.64q5.27,4,8,5.62h.61c.32,0,.53-.83.64-2.49a3.26,3.26,0,0,0-1.89-2.49q-6.33-5.8-7.1-8.36l-1.89-4a61.94,61.94,0,0,1-1.45-6.47V9.81C15.79,9.55,15.93,9.41,16.15,9.41Zm2.09,19,.24.41v.23h-.24c-.27,0-.4-.14-.4-.44Zm21.33,7.31c0,.27.07.41.2.41a79.46,79.46,0,0,1-.84,9.2,44.86,44.86,0,0,1,.4,7.1v1.66a16.79,16.79,0,0,1-.2,2.32l.64,1v.21a.18.18,0,0,1-.2.2q1.08,4.55,3.54,6.27a11.74,11.74,0,0,0,3.53,1.68,1.34,1.34,0,0,0,.64-.24,9.26,9.26,0,0,0,1.89.24h.41v-.24a10.15,10.15,0,0,0-1.45-2.89q-2.84-7.92-4.18-8l-.2-.41v-.64c0-.2.2-.41.6-.64l1.49.24L47.28,53c2.59.29,4.26.44,5,.44a25,25,0,0,1,2.9-.2,3.44,3.44,0,0,1,.64,1.65v.2c0,.29-.13.44-.4.44l.2,1.24h.84a11.44,11.44,0,0,1,.2-1.68l-.2-1.25a34.92,34.92,0,0,0,.2-3.74V48.05a1.68,1.68,0,0,0-.2-.84c.14-1,.27-1.48.41-1.48a1.5,1.5,0,0,1-.21-.61l.21-1.48a1.48,1.48,0,0,1-.21-.81h.21l-.21-.44V39.06a13.79,13.79,0,0,1-.43-1.65V34.88q-1-3.87-3.14-5.42a7.83,7.83,0,0,0-5.18-1.89v-.2q-4.32.94-5.23,2.29a9.55,9.55,0,0,0-2.93,5.66Z" transform="translate(-15.75 -9.41)"/><path class="cls-2" d="M79.16,16.65a12.86,12.86,0,0,0,1.28.21,1.69,1.69,0,0,0,.84-.21c2.94.14,4.94.27,6,.41a2.61,2.61,0,0,1,1.28-.41H90c.25,0,.46.35.64,1.05a6.71,6.71,0,0,1-1.48,1.92c0,.49.06,1.71.2,3.64l-.2,1.92.2,1.28L89,29.05a2.52,2.52,0,0,1,.41,1.28V31a12.25,12.25,0,0,1-.2,1.92,1.67,1.67,0,0,1,.2.64,11.74,11.74,0,0,0-.2,1.28c.13,1.24.2,1.95.2,2.13l-.2,1.51a13.92,13.92,0,0,1,.2,2.33A2.33,2.33,0,0,1,89,41.86a17.25,17.25,0,0,1,.41,3.2A10.78,10.78,0,0,1,89,47.21a15.25,15.25,0,0,1,.41,3h-.2l.2.4v1.08a19.22,19.22,0,0,1-.2,2.36,1.8,1.8,0,0,1,.2.84l-.2,1.28q2,9,7.27,9h1.28a.18.18,0,0,1,.21.2,9.08,9.08,0,0,1,2.36-.44v.24c2.26-1.68,3.4-2.75,3.4-3.2l1.72-4.72-.21-.44a12.86,12.86,0,0,0,.21-1.28q-.21-1.52-.21-1.71l.21-1.49a15.62,15.62,0,0,1-.44-3,9.77,9.77,0,0,1,.44-2.12,16.06,16.06,0,0,1-.44-2.56,1.46,1.46,0,0,1,.23-.64L105,42.73v-.44a2.42,2.42,0,0,1,.44-1.28,32.29,32.29,0,0,1-.44-5.12l.23-.44a1.55,1.55,0,0,1-.23-.84,3.36,3.36,0,0,1,.44-1.72,8.82,8.82,0,0,0-.44-2.36,14.78,14.78,0,0,0,.23-2.35V26.26a16.18,16.18,0,0,0-.23-2.77,22.09,22.09,0,0,0,.44-2.79,7.58,7.58,0,0,0-1.72-3v-.2c0-.34,1.21-.62,3.64-.85.11,0,.54.07,1.28.21a1.72,1.72,0,0,0,.87-.21c2.95.14,4.93.27,6,.41a2.61,2.61,0,0,1,1.28-.41h1.51c.25,0,.46.35.64,1.05,0,.2-.5.84-1.51,1.92,0,.49.08,1.71.23,3.64l-.23,1.92.23,1.28-.44,2.59a2.32,2.32,0,0,1,.44,1.28V31a10.66,10.66,0,0,1-.23,1.92,1.5,1.5,0,0,1,.23.64c-.15.74-.23,1.17-.23,1.28.15,1.24.23,1.95.23,2.13l-.23,1.51.23,1.48c0,.32-.08,1.11-.23,2.36.15,1.42.23,2.49.23,3.2l-.23.85.23,1.07-.23,1.08.23,1.28-.23.84a3.41,3.41,0,0,1,.43,1.29,2.46,2.46,0,0,0-.43,1.28v2.35q-.78,9-2.56,11.12,0,1.95-6.41,7.68a16,16,0,0,1-9.19,3.24c0,.13-.28.2-.85.2A24.63,24.63,0,0,1,90,76.49Q85.32,75,80.64,69l-2.56-6.4Q77.44,61,76.8,48.93c.29-1.08.44-1.65.44-1.72a16.06,16.06,0,0,1-.44-2.56A1.62,1.62,0,0,1,77,44l-.2-1.28v-.44A2.42,2.42,0,0,1,77.24,41a32.29,32.29,0,0,1-.44-5.12l.2-.44a1.74,1.74,0,0,1-.2-.84,3.36,3.36,0,0,1,.44-1.72,11.66,11.66,0,0,0-.44-2.36,18.49,18.49,0,0,0,.2-2.35V26.26a19.85,19.85,0,0,0-.2-2.77,22.09,22.09,0,0,0,.44-2.79,7.58,7.58,0,0,0-1.72-3v-.2C75.52,17.16,76.73,16.88,79.16,16.65Z" transform="translate(-15.75 -9.41)"/><path class="cls-2" d="M124.4,16.62a6.74,6.74,0,0,1,1.49.2c2.13-.13,3.92-.2,5.35-.2h.85a18.49,18.49,0,0,1,2.35.2,2.27,2.27,0,0,1,1.08-.2l1.49.2a19.08,19.08,0,0,1,2.35-.2,14.26,14.26,0,0,0,2.56.44,9,9,0,0,1,1.72-.44l1.48.2c.3,0,.44-.06.44-.2q2.63.21,11.76.44c.29,1,.51,1.48.64,1.48l-.44,4.08a6.92,6.92,0,0,1,.44,2.56l-.2,1.08a12.23,12.23,0,0,1,.2,2.12v.84c0,.23-.21.44-.64.64h-.44c-1.14-1.12-1.85-1.68-2.12-1.68-.58.11-.88.24-.88.4l-1-.2a7.63,7.63,0,0,0-1.72.2l-1.28-.2-1.51.2a2.5,2.5,0,0,0-1.28-.4h-.85c-1,0-1.48.18-1.48.4a37.22,37.22,0,0,0-4.51-.4l-1.05.2a2.26,2.26,0,0,0-1.08-.2c0,.27-.14.4-.43.4l.43,5.36a4.68,4.68,0,0,0-.43,1.92,19.26,19.26,0,0,0,.43,3l-.43,8.32a1.5,1.5,0,0,1,.64.23q0-.7,6.19-3.43a5.28,5.28,0,0,0,2.16-1.28c.67,0,1.89-.71,3.64-2.13a18.91,18.91,0,0,1,4.28-1.92h.64c.31,0,.53.35.64,1.05A2.51,2.51,0,0,0,155.4,41v8.35l.44,1.49q-.84,1.92-1.08,1.92h-.44c-.9-1-1.54-1.48-1.92-1.48q-.06.84-3,1.92c-1.73,1.28-2.94,1.92-3.64,1.92-.47.47-2.45,1.53-6,3.2a4.3,4.3,0,0,1-1.92,1.07.21.21,0,0,1-.23.24l.23,2.12v1.92l-.23,2.56.43.24a18.53,18.53,0,0,1,2.77-.44l1.07.2L143,66l1.92.2c.43-.13.64-.27.64-.4l4.28.64c4.43-.34,6.64-.84,6.64-1.52l.64-.4h.2c.43.13.64.56.64,1.28v3a7.31,7.31,0,0,0,.2,1.72c-.15,3.44-.37,5.16-.64,5.16l.24.4v.88c0,.56-1.15.84-3.44.84a10.48,10.48,0,0,1-2.36-.2c-1.34.13-2.62.2-3.84.2h-1.71q-3.34,0-6.84-.2a15.67,15.67,0,0,1-2.77.2c-.76-.13-1.19-.2-1.28-.2a1.67,1.67,0,0,0-.64.2l-1.92-.2c-2.47.13-3.89.2-4.28.2-1.93-.13-3.35-.2-4.28-.2l-.23-.44v-.44c1.14-1.62,1.72-2.83,1.72-3.64-.14-1.66-.21-2.87-.21-3.64h.21c-.14-.69-.28-1-.44-1l.23-2.16V60.45a9.65,9.65,0,0,0-.23-1.92,8.57,8.57,0,0,0,.44-2.79,2.4,2.4,0,0,1-.44-1.28l.44-1.49a5.25,5.25,0,0,0-.44-2.36,3.4,3.4,0,0,0,.44-1.71,86.9,86.9,0,0,0-.44-9,9.34,9.34,0,0,0,.23-1.71c0-.27-.07-1.55-.23-3.84a22.84,22.84,0,0,1,.44-2.36,7.45,7.45,0,0,0-.44-2.16q.24-5.66.64-9a6.91,6.91,0,0,0-2.12-3A2.49,2.49,0,0,1,124.4,16.62Z" transform="translate(-15.75 -9.41)"/><path class="cls-2" d="M184.48,16.62a19.57,19.57,0,0,1,8.12,2.09q.93,0,3.53,2.49,1.76.51,4.59,5.22a9.75,9.75,0,0,1,1.44,2.3v.6c0,.29-1.52,1.41-4.58,3.34,0,.29-.55.5-1.65.64,0,.49-.69,1-2.09,1.45,0,.56-.35,1-1,1.24l-.41-.2a2.55,2.55,0,0,1-1.24.4l-.24-.4a12.63,12.63,0,0,1,.44-1.89q-2.35-4.38-4.58-4.38c-1.22-.38-1.91-.73-2.09-1l-2.49.24H180.7q-4.14,1.68-4.14,3.33c-.14,1.21-.2,2-.2,2.29q4.6,4,8.12,5l.4-.2c.56,0,2.16.89,4.78,2.69q1.65,0,6.47,3.54.51,0,3.54,3.33c1.15.48,2.39,2.85,3.74,7.11v2.5a24.34,24.34,0,0,1-2.49,10.41,14.52,14.52,0,0,1-3.54,4.17q0,1.35-6.47,4a3,3,0,0,0-2,.84l-1.05-.2a23.36,23.36,0,0,1-3.77.4l-2.06-.2-.84.2q-4.3,0-11-3.74-4.78-3.3-4.78-5.22c-.18,0-.81-1-1.89-3.13v-.21q.17-.43,7.07-5.62c.18-.47,1.16-1.3,2.94-2.5a1.31,1.31,0,0,1,1.24-.84c0,.2.22.42.64.64l-.23,1.45V60q0,1.54,2.73,3.54c0,.47.76,1,2.29,1.48,0,.38,1.39.73,4.17,1,3.46-1.39,5.19-2.72,5.19-4,.29-.34.44-.55.44-.64v-.61a1.5,1.5,0,0,0-.24-.84,1.53,1.53,0,0,0,.24-.84V58.9c-.52-2.06-1.29-3.1-2.32-3.1,0-.51-1.39-1.36-4.15-2.52q-.94-.89-6.87-2.7c-.11,0-2.14-1.32-6.07-4-.53,0-1.22-.62-2.05-1.86a9.58,9.58,0,0,1-3.77-5.22c-.7-.52-1.18-2.87-1.45-7.07,0-.12.69-2.34,2.09-6.68.2,0,.89-.76,2.08-2.29a9.71,9.71,0,0,1,3.74-2.93q.81-1.24,7.08-3.1a1.68,1.68,0,0,0,.84.2A2.22,2.22,0,0,0,180.3,17H183Z" transform="translate(-15.75 -9.41)"/><path class="cls-2" d="M248.15,16.62l.64.84v1.28a31.92,31.92,0,0,0,.24,3.84l-.44,1.92.44,5.13-.44.23h-.84A5.1,5.1,0,0,1,246,28.34l-1.92.24c-.83,0-2.54-.08-5.12-.24l-1.52.24a11.21,11.21,0,0,1-2.12-.44l-.84.64.2,1.49v1.92a2.4,2.4,0,0,0,.44,1.28l-.24,1.92.24,1.07-.44,2.77a3.39,3.39,0,0,1,.44,1.28,3.58,3.58,0,0,0-.44,1.72,21.11,21.11,0,0,1,.44,3v.21l-.44,1.48.44,2.8a11.38,11.38,0,0,0-.24,1.28,9.6,9.6,0,0,1,.24,1.92c-.29,0-.44.19-.44.43l.2,1.28c-.13,1.2-.2,2.12-.2,2.77a30.2,30.2,0,0,1,.44,3,4.05,4.05,0,0,1-.44,1.28,8.57,8.57,0,0,0,.44,2.32,15.55,15.55,0,0,0-.24,2.36v1.92a16.08,16.08,0,0,0,.24,2.76,22.41,22.41,0,0,0-.44,2.8,7.2,7.2,0,0,0,1.72,3V77c0,.34-1.21.62-3.64.84-.74-.13-1.17-.2-1.28-.2a1.74,1.74,0,0,0-.84.2c-2.95-.13-4.94-.28-6-.44a2.4,2.4,0,0,1-1.28.44h-1.48c-.25,0-.46-.36-.64-1.08a6.71,6.71,0,0,1,1.48-1.92c0-.47-.07-1.67-.2-3.6l.2-1.92-.2-1.28.44-2.56a2.31,2.31,0,0,1-.44-1.08c.13-3.55.28-5.32.44-5.32a3.43,3.43,0,0,1-.44-1.52l.2-1.28a20.82,20.82,0,0,1-.2-2.56,9.07,9.07,0,0,0,.44-1.28,20.31,20.31,0,0,1-.44-2.56,15.88,15.88,0,0,1,.44-2.56l-.44-4.48a6.62,6.62,0,0,0,.44-2.36l-.44-2.77c.13-2,.2-3.25.2-3.84l-.2-1.48c.42-2.24.64-3.52.64-3.84a.39.39,0,0,1-.44-.44c-2.2.29-3.55.51-4,.64a12,12,0,0,0-1.92-.2h-3.2a5.93,5.93,0,0,0-3.85,1.48l-1.07-.64.23-1.48V27.7a2.45,2.45,0,0,0-.44-1.28l.44-2.76a10.72,10.72,0,0,1-.23-2.12V21.3a8.21,8.21,0,0,1,.43-1.92,11.8,11.8,0,0,1-.2-1.92c.2,0,.42-.21.64-.64l1.49.24h.2a1.92,1.92,0,0,0,1.08-.24,6.48,6.48,0,0,1,.84.24l1.92-.24a52.36,52.36,0,0,0,5.76.44c0-.29.19-.44.44-.44s1.08.08,2.56.24l2.56-.24,2.56.24c1.26-.16,2-.24,2.36-.24a7.62,7.62,0,0,1,1.68.44l2.16-.2,2.56.2.84-.2,1.08.2c1.84-.11,2.76-.26,2.76-.44l1.08.24h.84A19.25,19.25,0,0,0,248.15,16.62Z" transform="translate(-15.75 -9.41)"/><path class="cls-2" d="M257.72,16.76A11.74,11.74,0,0,1,259,17a1.74,1.74,0,0,0,.84-.2c3,.13,4.94.28,6,.43a2.49,2.49,0,0,1,1.28-.43h1.48c.25,0,.46.35.64,1.07,0,.21-.49.85-1.48,1.92,0,.48.07,1.69.2,3.64l-.2,1.92.2,1.28-.4,2.56a2.65,2.65,0,0,1,.4,1.28v.64a10.78,10.78,0,0,1-.2,1.92,1.5,1.5,0,0,1,.2.64,11.37,11.37,0,0,1-.2,1.28c0,.18.07.9.2,2.16l-.2,1.48a13.11,13.11,0,0,1,.2,2.36,2.28,2.28,0,0,1-.4,1.05,17.16,17.16,0,0,1,.4,3.23,10.6,10.6,0,0,1-.4,2.12,18,18,0,0,1,.4,2.56,1.47,1.47,0,0,1-.2.64l.2,1.28v.44a2.62,2.62,0,0,1-.4,1.28l.2,1.08c-.13,1.21-.2,2.13-.2,2.76.27,1.71.4,2.71.4,3a3.73,3.73,0,0,1-.4,1.28A11,11,0,0,0,268,64a18.51,18.51,0,0,0-.2,2.33v2A20.16,20.16,0,0,0,268,71a23.7,23.7,0,0,0-.4,2.76,7.48,7.48,0,0,0,1.68,3V77q0,.47-3.6.84c-.76-.13-1.2-.2-1.31-.2a1.81,1.81,0,0,0-.85.2q-4.41-.2-6-.44a2.4,2.4,0,0,1-1.28.44h-1.49c-.24,0-.46-.36-.64-1.08a6.87,6.87,0,0,1,1.49-1.92c0-.47-.07-1.68-.21-3.64l.21-1.92L255.36,68l.44-2.56a2.23,2.23,0,0,1-.44-1.08c.14-3.54.28-5.32.44-5.32a3.53,3.53,0,0,1-.44-1.51l.21-1.28a18.75,18.75,0,0,1-.21-2.57,9.07,9.07,0,0,0,.44-1.28,16.52,16.52,0,0,1-.44-3,10.38,10.38,0,0,1,.44-2.13,17.19,17.19,0,0,1-.44-2.56,1.55,1.55,0,0,1,.21-.64l-.21-1.28v-.44a2.54,2.54,0,0,1,.44-1.28,33,33,0,0,1-.44-5.12l.21-.44a1.64,1.64,0,0,1-.21-.84A3.47,3.47,0,0,1,255.8,33a11.41,11.41,0,0,0-.44-2.35,17.07,17.07,0,0,0,.21-2.33V26.36a19,19,0,0,0-.21-2.77,22.55,22.55,0,0,0,.44-2.76,7.3,7.3,0,0,0-1.72-3V17.6C254.08,17.28,255.3,17,257.72,16.76Z" transform="translate(-15.75 -9.41)"/><path class="cls-2" d="M294.31,16.62a15.89,15.89,0,0,1,10.75,4.51q1.31,0,4.07,4.08.89,0,2.4,5.8c.51.58,1.09,2.44,1.71,5.59v.88a2.52,2.52,0,0,1-.43,1.28l.43,3L313,43.27l.44,4.51L313,48.86c.16,2.65.23,4.88.23,6.67q-.8,9-2.59,11.16,0,1.95-6.43,7.74A16.29,16.29,0,0,1,295,77.67c0,.13-.28.2-.84.2a24.75,24.75,0,0,1-8.39-1.28,19.31,19.31,0,0,1-9.87-8.39,19.29,19.29,0,0,0-2-4.71,60.28,60.28,0,0,1-1.28-10.11c0-1.37.07-3.6.21-6.67a1.7,1.7,0,0,1-.21-.85.38.38,0,0,0,.44-.43c0-.43-.08-.64-.23-.64l.23-2.16V41.35a14.52,14.52,0,0,0-.44-2.8q1.51-10.74,2.6-10.74a10.33,10.33,0,0,1,3.2-4.52c1.35-1.1,2.06-1.89,2.15-2.36,1.87-1.43,3.37-2.15,4.52-2.15,1.12-1.44,4-2.16,8.59-2.16Zm-9.67,20.22.24.4c-.16.45-.31.67-.44.67l.2.85c0,3.72-.21,5.59-.64,5.59a1.62,1.62,0,0,0,.2.64l-.2,1.28a37.2,37.2,0,0,1,.44,5.59v.88a1.53,1.53,0,0,1-.24.84,1.59,1.59,0,0,1,.24.88q0,.13-.24,2.79a19.69,19.69,0,0,1,1.52,4.52Q288.58,66,292,66.05h2l2.12-.21v.21c2.87-1.76,4.31-3.47,4.31-5.16a6.66,6.66,0,0,0,1.08-3.44l-.24-.87c.16-.43.31-.64.44-.64l-.2-1.48V51.22a.18.18,0,0,1,.2-.2c0-.16-.07-.24-.2-.24a7.29,7.29,0,0,0,.2-.84,12.67,12.67,0,0,0-.2-2.16c.13-1.34.2-2.63.2-3.87l-.2-1.52a7.91,7.91,0,0,0,.2-1.92V40a11.92,11.92,0,0,0-.44-1.72V36.6c0-2.2-1.06-4.35-3.2-6.44a9.41,9.41,0,0,0-5-1.71v-.24q-4.57,0-7.51,5.19A30.36,30.36,0,0,0,284.64,36.84Z" transform="translate(-15.75 -9.41)"/><path class="cls-2" d="M353.3,16.62c.09,0,.52.07,1.28.2a1.7,1.7,0,0,0,.85-.2c2.94.14,4.93.28,6,.44a2.51,2.51,0,0,1,1.28-.44h1.52c.22,0,.43.36.64,1.08,0,.2-.51.84-1.52,1.92q0,.7.24,3.6l-.24,1.92.24,1.28L363.11,29a2.49,2.49,0,0,1,.44,1.28v.64a9.77,9.77,0,0,1-.24,1.92,1.55,1.55,0,0,1,.24.64,11.83,11.83,0,0,1-.24,1.28c0,.18.08.89.24,2.15l-.24,1.48a11.89,11.89,0,0,1,.24,2.36,2.22,2.22,0,0,1-.44,1,16.21,16.21,0,0,1,.44,3.2,10.11,10.11,0,0,1-.44,2.15,17.45,17.45,0,0,1,.44,2.57,1.42,1.42,0,0,1-.24.64l.24,1.28v.43a2.49,2.49,0,0,1-.44,1.28l.2,1c-.13,1.21-.2,2.14-.2,2.79.29,1.69.44,2.68.44,3a3.69,3.69,0,0,1-.44,1.28,8.32,8.32,0,0,0,.44,2.36,15,15,0,0,0-.24,2.36v1.92a16.43,16.43,0,0,0,.24,2.76,19.66,19.66,0,0,0-.44,2.76,7.46,7.46,0,0,0,1.72,3v.2c0,.34-1.22.63-3.64.88a11.83,11.83,0,0,0-1.28-.24,1.48,1.48,0,0,0-.84.24c-2.95-.16-4.95-.3-6-.44a2.51,2.51,0,0,1-1.28.44h-1.48c-.25,0-.47-.36-.65-1.08A6.79,6.79,0,0,1,351,74.87a32.17,32.17,0,0,1-3.21-5.32l-2.15-2.36a1.85,1.85,0,0,0-1-1.92c-.29,0-.43-.35-.43-1h.2a36.85,36.85,0,0,0-2.56-4.92q-.88-1.11-4.68-7.89h.2q0-.54-2.77-3.84a12,12,0,0,0-1.71-3.64h-.41v.85a9,9,0,0,1-.44,2.56,15.88,15.88,0,0,1,.44,2.56,1.5,1.5,0,0,1-.23.64l.23,1.28v.44a2.45,2.45,0,0,1-.44,1.28l.21,1.07a25.66,25.66,0,0,0-.21,2.77,27.2,27.2,0,0,1,.44,3,3.8,3.8,0,0,1-.44,1.28,8.57,8.57,0,0,0,.44,2.32,15.32,15.32,0,0,0-.23,2.36v1.92a16.07,16.07,0,0,0,.23,2.76,22.41,22.41,0,0,0-.44,2.8,7.2,7.2,0,0,0,1.72,3V77c0,.34-1.21.62-3.64.84-.74-.13-1.16-.2-1.28-.2a1.8,1.8,0,0,0-.84.2q-4.41-.2-6-.44a2.37,2.37,0,0,1-1.28.44h-1.48c-.25,0-.46-.36-.64-1.08A6.71,6.71,0,0,1,320,74.87c0-.47-.06-1.67-.2-3.6l.2-1.92-.2-1.28.44-2.56a2.42,2.42,0,0,1-.44-1.08c.14-3.55.28-5.32.44-5.32a3.57,3.57,0,0,1-.44-1.52l.2-1.28a20.82,20.82,0,0,1-.2-2.56,9.07,9.07,0,0,0,.44-1.28,16.48,16.48,0,0,1-.44-3,10.11,10.11,0,0,1,.44-2.15,17.4,17.4,0,0,1-.44-2.56,1.62,1.62,0,0,1,.2-.64l-.2-1.28v-.44a2.51,2.51,0,0,1,.44-1.28,33.1,33.1,0,0,1-.44-5.12l.2-.41a1.83,1.83,0,0,1-.2-.87,3.41,3.41,0,0,1,.44-1.69,11,11,0,0,0-.44-2.36,16.81,16.81,0,0,0,.2-2.36V26.42a18.88,18.88,0,0,0-.2-2.76,21.42,21.42,0,0,0,.44-2.76,7.58,7.58,0,0,0-1.72-3v-.2c0-.34,1.21-.63,3.64-.88.09,0,.52.08,1.28.24a1.53,1.53,0,0,0,.84-.24q4.41.24,6,.44a2.49,2.49,0,0,1,1.28-.44H333c.25,0,.46.36.64,1.08a6.59,6.59,0,0,1-1.28,1.72v.2l3.84,6.84c0,.43.78,1.63,2.33,3.61a13.29,13.29,0,0,1,1.92,3.84,9.32,9.32,0,0,1,2.36,4.07c.51.09,1.22,1.29,2.12,3.61.38,0,1,.85,1.92,2.56q1.92,2.05,1.92,2.79c0,.93.7,2.14,1.95,3.64l.64-3.64a16.63,16.63,0,0,1-.43-2.56,1.5,1.5,0,0,1,.2-.64l-.2-1.28v-.43a2.46,2.46,0,0,1,.43-1.28,33.15,33.15,0,0,1-.43-5.13l.2-.43a1.7,1.7,0,0,1-.2-.85,3.53,3.53,0,0,1,.43-1.71A10.9,10.9,0,0,0,351,30.5a19.22,19.22,0,0,0,.2-2.36V26.22a19.71,19.71,0,0,0-.2-2.76,21.31,21.31,0,0,0,.43-2.8,7.09,7.09,0,0,0-1.72-3v-.24C349.66,17.13,350.88,16.84,353.3,16.62Z" transform="translate(-15.75 -9.41)"/><path class="cls-2" d="M373.52,16.76a11.74,11.74,0,0,1,1.28.2,1.8,1.8,0,0,0,.84-.2c2.94.13,4.94.28,6,.43a2.49,2.49,0,0,1,1.28-.43h1.48c.25,0,.46.35.64,1.07,0,.21-.49.85-1.48,1.92,0,.48.07,1.69.2,3.64l-.2,1.92.2,1.28-.4,2.56a2.65,2.65,0,0,1,.4,1.28v.64a11.8,11.8,0,0,1-.2,1.92,1.67,1.67,0,0,1,.2.64c0,.12-.07.54-.2,1.28,0,.18.07.9.2,2.16l-.2,1.48a14.09,14.09,0,0,1,.2,2.36,2.28,2.28,0,0,1-.4,1.05,17.16,17.16,0,0,1,.4,3.23,10.6,10.6,0,0,1-.4,2.12,18,18,0,0,1,.4,2.56,1.62,1.62,0,0,1-.2.64l.2,1.28v.44a2.62,2.62,0,0,1-.4,1.28l.2,1.08a25.48,25.48,0,0,0-.2,2.76c.27,1.71.4,2.71.4,3a3.73,3.73,0,0,1-.4,1.28,11,11,0,0,0,.4,2.36,18.51,18.51,0,0,0-.2,2.33v2a20.16,20.16,0,0,0,.2,2.76,23.7,23.7,0,0,0-.4,2.76,7.36,7.36,0,0,0,1.68,3V77q0,.47-3.6.84c-.77-.13-1.2-.2-1.32-.2a1.8,1.8,0,0,0-.84.2q-4.41-.2-6-.44a2.37,2.37,0,0,1-1.28.44h-1.48c-.25,0-.46-.36-.64-1.08a6.71,6.71,0,0,1,1.48-1.92c0-.47-.06-1.68-.2-3.64l.2-1.92-.2-1.28.44-2.56a2.23,2.23,0,0,1-.44-1.08c.14-3.54.28-5.32.44-5.32a3.53,3.53,0,0,1-.44-1.51l.2-1.28a20.27,20.27,0,0,1-.2-2.57,9.07,9.07,0,0,0,.44-1.28,16.52,16.52,0,0,1-.44-3,10.38,10.38,0,0,1,.44-2.13,17.19,17.19,0,0,1-.44-2.56,1.67,1.67,0,0,1,.2-.64l-.2-1.28v-.44a2.54,2.54,0,0,1,.44-1.28,33,33,0,0,1-.44-5.12l.2-.44a1.74,1.74,0,0,1-.2-.84A3.47,3.47,0,0,1,371.6,33a11.41,11.41,0,0,0-.44-2.35,16.79,16.79,0,0,0,.2-2.33V26.36a18.92,18.92,0,0,0-.2-2.77,22.55,22.55,0,0,0,.44-2.76,7.3,7.3,0,0,0-1.72-3V17.6C369.88,17.28,371.09,17,373.52,16.76Z" transform="translate(-15.75 -9.41)"/><path class="cls-2" d="M423.21,16.62c.09,0,.52.07,1.28.2a1.7,1.7,0,0,0,.85-.2c2.94.14,4.93.28,6,.44a2.51,2.51,0,0,1,1.28-.44h1.52c.22,0,.43.36.64,1.08,0,.2-.51.84-1.52,1.92q0,.7.24,3.6l-.24,1.92.24,1.28L433,29a2.49,2.49,0,0,1,.44,1.28v.64a9.77,9.77,0,0,1-.24,1.92,1.55,1.55,0,0,1,.24.64,11.83,11.83,0,0,1-.24,1.28c0,.18.08.89.24,2.15l-.24,1.48a11.89,11.89,0,0,1,.24,2.36,2.22,2.22,0,0,1-.44,1,16.21,16.21,0,0,1,.44,3.2,10.11,10.11,0,0,1-.44,2.15,17.45,17.45,0,0,1,.44,2.57,1.42,1.42,0,0,1-.24.64l.24,1.28v.43a2.49,2.49,0,0,1-.44,1.28l.2,1c-.13,1.21-.2,2.14-.2,2.79.29,1.69.44,2.68.44,3a3.69,3.69,0,0,1-.44,1.28,8.32,8.32,0,0,0,.44,2.36,15,15,0,0,0-.24,2.36v1.92a16.43,16.43,0,0,0,.24,2.76,19.66,19.66,0,0,0-.44,2.76,7.46,7.46,0,0,0,1.72,3v.2c0,.34-1.22.63-3.64.88a11.83,11.83,0,0,0-1.28-.24,1.53,1.53,0,0,0-.85.24c-2.94-.16-4.94-.3-6-.44a2.51,2.51,0,0,1-1.28.44h-1.48c-.25,0-.47-.36-.65-1.08a6.79,6.79,0,0,1,1.29-1.72,31.48,31.48,0,0,1-3.21-5.32l-2.15-2.36a1.85,1.85,0,0,0-1.05-1.92c-.29,0-.43-.35-.43-1h.2a36.85,36.85,0,0,0-2.56-4.92q-.89-1.11-4.69-7.89h.21q0-.54-2.77-3.84a12,12,0,0,0-1.71-3.64h-.41v.85a9.34,9.34,0,0,1-.44,2.56,17.19,17.19,0,0,1,.44,2.56,1.42,1.42,0,0,1-.24.64l.24,1.28v.44a2.54,2.54,0,0,1-.44,1.28l.2,1.07c-.13,1.2-.2,2.12-.2,2.77a30.2,30.2,0,0,1,.44,3,4.05,4.05,0,0,1-.44,1.28,8.57,8.57,0,0,0,.44,2.32,15.55,15.55,0,0,0-.24,2.36v1.92a16.08,16.08,0,0,0,.24,2.76,22.41,22.41,0,0,0-.44,2.8,7.2,7.2,0,0,0,1.72,3V77c0,.34-1.21.62-3.64.84-.74-.13-1.17-.2-1.28-.2a1.8,1.8,0,0,0-.84.2q-4.41-.2-6-.44a2.37,2.37,0,0,1-1.28.44h-1.48c-.25,0-.46-.36-.64-1.08a6.71,6.71,0,0,1,1.48-1.92c0-.47-.06-1.67-.2-3.6l.2-1.92-.2-1.28.44-2.56a2.42,2.42,0,0,1-.44-1.08c.14-3.55.28-5.32.44-5.32a3.57,3.57,0,0,1-.44-1.52l.2-1.28a20.82,20.82,0,0,1-.2-2.56,9.07,9.07,0,0,0,.44-1.28,16.48,16.48,0,0,1-.44-3,10.11,10.11,0,0,1,.44-2.15,17.4,17.4,0,0,1-.44-2.56,1.62,1.62,0,0,1,.2-.64l-.2-1.28v-.44a2.51,2.51,0,0,1,.44-1.28,33.1,33.1,0,0,1-.44-5.12l.2-.41a1.83,1.83,0,0,1-.2-.87,3.41,3.41,0,0,1,.44-1.69,11,11,0,0,0-.44-2.36,16.81,16.81,0,0,0,.2-2.36V26.42a18.88,18.88,0,0,0-.2-2.76,21.42,21.42,0,0,0,.44-2.76,7.58,7.58,0,0,0-1.72-3v-.2c0-.34,1.21-.63,3.64-.88.09,0,.52.08,1.28.24a1.53,1.53,0,0,0,.84-.24q4.41.24,6,.44a2.49,2.49,0,0,1,1.28-.44h1.51c.25,0,.46.36.64,1.08a6.89,6.89,0,0,1-1.28,1.72v.2l3.84,6.84c0,.43.78,1.63,2.33,3.61a13.29,13.29,0,0,1,1.92,3.84,9.32,9.32,0,0,1,2.36,4.07c.51.09,1.22,1.29,2.12,3.61.38,0,1,.85,1.92,2.56q1.92,2.05,1.92,2.79c0,.93.69,2.14,1.95,3.64l.64-3.64a16.63,16.63,0,0,1-.43-2.56,1.5,1.5,0,0,1,.2-.64l-.2-1.28v-.43a2.46,2.46,0,0,1,.43-1.28,33.15,33.15,0,0,1-.43-5.13l.2-.43a1.7,1.7,0,0,1-.2-.85,3.53,3.53,0,0,1,.43-1.71,10.9,10.9,0,0,0-.43-2.33,19.22,19.22,0,0,0,.2-2.36V26.22a19.71,19.71,0,0,0-.2-2.76,21.31,21.31,0,0,0,.43-2.8,7.09,7.09,0,0,0-1.72-3v-.24C419.57,17.13,420.79,16.84,423.21,16.62Z" transform="translate(-15.75 -9.41)"/><path class="cls-2" d="M461.08,16.62c2.32.14,4.39.2,6.24.2a21.16,21.16,0,0,1,8.15,3.24L477,22q2.49,0,5.79,5.19V28q0,.24-5.15,3.43c-3.85,2.59-6.07,3.88-6.68,3.88a2.14,2.14,0,0,1-.43-.64c.09-1.3.23-2,.43-2-.56-1.57-2.27-2.85-5.15-3.84a26.83,26.83,0,0,0-3.67-.67l-.41.24-.43-.24q-4.59,0-7.52,5.19a31.53,31.53,0,0,0-.87,3.44l.2.4c-.14.45-.27.67-.41.67a6.64,6.64,0,0,0,.21.85c0,3.72-.22,5.59-.64,5.59a1.47,1.47,0,0,0,.2.64l-.2,1.28a37.17,37.17,0,0,1,.43,5.59v.88a1.52,1.52,0,0,1-.23.84,1.58,1.58,0,0,1,.23.88c0,.09-.07,1-.23,2.79A20,20,0,0,1,454,61.77a12.26,12.26,0,0,0,2.6,3.43L457,65a6.4,6.4,0,0,0,3.24,1.08h.2a1.76,1.76,0,0,0,.88-.21,1.64,1.64,0,0,0,.84.21,9.85,9.85,0,0,0,6-1.72c.13,0,.2.08.2.23a8.39,8.39,0,0,0,3.44-6.9c.15,0,.3-.86.44-2.56,0-.61-.64-1-1.93-1.08-1.28.13-2.06.2-2.35.2l-.88-.4q-4.27.93-4.28,1.92c0,.13-.08.2-.23.2h-.64c-.34,0-.55-.36-.64-1.08l.43-1.48c-.15-2.18-.23-3.69-.23-4.52,0-.18.08-.89.23-2.15a3.46,3.46,0,0,1-.43-1.72v-.44a3.57,3.57,0,0,1,.43-1.72l2.13.24H469a2.16,2.16,0,0,1,1.05.2l1.31-.2h4.08l1.28.2a1.87,1.87,0,0,1,.88-.2l.4.2.44-.2,1.28.2,1.95-.2c1.46.13,2.61.2,3.44.2a1.62,1.62,0,0,1,.64-.2l.44.64a3.46,3.46,0,0,1-1.72,2.56,1.62,1.62,0,0,0,.2.64c-.13,2.76-.2,4.56-.2,5.39l.2,1.52-.64,2.56a3.43,3.43,0,0,1,.44,1.71c-.59,4-1.58,7.12-3,9.24l-3,4.11c-.34,0-1.12.7-2.36,2.12q-6.06,3.87-11.19,3.87c0,.21-1.42.35-4.27.44q-10.78,0-16.78-8.39-.62,0-2.16-5.15-1.35-1.08-1.92-10.95c0-1.37.07-3.6.2-6.67a1.81,1.81,0,0,1-.2-.85.38.38,0,0,0,.44-.43c0-.43-.08-.64-.24-.64l.24-2.16V41.35a14.52,14.52,0,0,0-.44-2.8,27.22,27.22,0,0,1,3.44-12.46,9,9,0,0,1,2.36-2.8c1.34-1.1,2.06-1.89,2.15-2.36,1.87-1.43,3.37-2.15,4.52-2.15q1.68-2.16,8.59-2.16Z" transform="translate(-15.75 -9.41)"/><path class="cls-2" d="M15.75,88.47h.06c.27.45.45.67.54.67a5,5,0,0,0,1.4,1.54,11.59,11.59,0,0,0,2.52,1.46l.47.06a.45.45,0,0,0,.47-.27v-.26c0-.12-.32-.39-.86-.8-.85-.87-1.27-1.38-1.27-1.53v-.07h.06a5.33,5.33,0,0,0,2.27,1.07,2.83,2.83,0,0,1,.53-.07c.13,0,.2.09.2.14l.33-.07h.07a.47.47,0,0,0,.27.13l.53-.06.34.13a3.46,3.46,0,0,1,.92-.13h.14c1.2,0,1.79.09,1.79.27v.12a2,2,0,0,1-.33.4v.14c.18.55.47,1.72.87,3.52.1,0,.17.16.2.47H27.2a8,8,0,0,1,.54,1.93,17.63,17.63,0,0,1,.79,3.06s.09.07.13.21l-.06.33a17.52,17.52,0,0,1,.87,2.86,1.45,1.45,0,0,1,.27.66v.08s0,.06-.08.06a8.31,8.31,0,0,1,.6,1.86l-.06.33a5.81,5.81,0,0,1,.4,1.14h-.07a2.55,2.55,0,0,0,.33.59,2.24,2.24,0,0,0-.06.48c0,.17.26.51.79,1-.08.2-.17.32-.26.34l-.47-.07-.33.07-.79-.07-.94.07a.12.12,0,0,0-.14-.14H28.6a3.33,3.33,0,0,0-.53.14H26.74c-.07,0-.13-.07-.21-.21v-.26c.41-.25.61-.45.61-.6q-.27,0-.54-1.8a7.09,7.09,0,0,1-.53-1.59c-.09,0-.14-.07-.14-.2l.08-.47h-.14A8.09,8.09,0,0,1,24,106.65a9.67,9.67,0,0,1-1.54,1.27,4.78,4.78,0,0,0-1.12.93,2.53,2.53,0,0,1-.54.26v.14a1.09,1.09,0,0,0,.4.66V110c0,.1-.23.16-.67.21a1.34,1.34,0,0,0-.53-.14.8.8,0,0,1-.4.14h-.47a5.07,5.07,0,0,1-.86-.07l-.4.07-.59-.07-.27.13q-.81-.15-.81-.27v-.26a3.1,3.1,0,0,0,.67-.6l-.07-.14V109a6.78,6.78,0,0,0,.54-1.87,2.48,2.48,0,0,0,.19-.92c.1,0,.26-.56.48-1.67.07,0,.18-.24.33-.73l-.07-.14v-.27a7.26,7.26,0,0,0,.67-1.92s.07,0,.07-.14,0-.16-.07-.4a6,6,0,0,1,.4-1l-.07-.12v-.73l.07-.41A5.58,5.58,0,0,0,18,96.07a5.47,5.47,0,0,1-.54-1.27,16.42,16.42,0,0,0,2.2,1.86h.2c.18,0,.27-.27.27-.8-.07,0-.16-.17-.27-.53a8.27,8.27,0,0,1-3.27-3.86c-.15,0-.35-.55-.59-1.66l-.2-.67Zm1.46,6.13h.08a.13.13,0,0,1,.12.14v.06C17.35,94.8,17.28,94.73,17.21,94.6Zm6.6,3v.34c-.36,1.39-.54,2.15-.54,2.26s-.13.07-.19.2v.26a4.28,4.28,0,0,1-.61,2.14v.13h.21c0-.21.53-.58,1.59-1.13a1.28,1.28,0,0,1,.74-.53v-.13l-.41-.74.08-.47c-.18,0-.4-.77-.67-2.33Z" transform="translate(-15.75 -9.41)"/><path class="cls-2" d="M45.56,90.77A5.09,5.09,0,0,1,49,92.2c.27,0,.7.43,1.3,1.3.18,0,.43.62.75,1.85a5.07,5.07,0,0,1,.53,1.77v.28a.9.9,0,0,1-.12.41l.12,1-.06.48.14,1.44-.14.33q.06,1.26.06,2.13a19.76,19.76,0,0,1-.26,2.18,8,8,0,0,1-1,2.25v.13c.15,0,.23.21.26.62l.76,1.37c.17.06.26.13.26.2v.27c0,.09,0,.14-.12.14a3.85,3.85,0,0,1-.55-.06l-.35.06-1.5-.14-1.63.14-.35-.06a2.24,2.24,0,0,1-.48.06.49.49,0,0,1-.06-.2h-.27c-.45.09-.7.14-.76.14a7.83,7.83,0,0,1-2.66-.41,6.21,6.21,0,0,1-3.15-2.67,5.79,5.79,0,0,0-.61-1.5,19.63,19.63,0,0,1-.41-3.21c0-.43,0-1.14.07-2.12a.5.5,0,0,1-.07-.27c.1,0,.14,0,.14-.14s0-.2-.07-.2L38.8,99v-.41a4.31,4.31,0,0,0-.14-.89c.32-2.27.59-3.4.82-3.4a3.38,3.38,0,0,1,1-1.44c.42-.35.65-.6.68-.75a2.67,2.67,0,0,1,1.44-.68q.52-.69,2.73-.69ZM42.49,97.2l.06.12c0,.14-.08.21-.13.21l.07.28q0,1.77-.21,1.77a.4.4,0,0,0,.07.2l-.07.41a10.85,10.85,0,0,1,.14,1.78v.27a.47.47,0,0,1-.07.27.53.53,0,0,1,.07.28s0,.32-.07.88a7.44,7.44,0,0,1,.48,1.44,2.48,2.48,0,0,0,2,1.37h.81c-.2-.55-.33-.82-.4-.82a4,4,0,0,1-.41-1.16l-.75-1.36c-.18-.07-.27-.15-.27-.22v-.27c0-.09.05-.14.13-.14a3.3,3.3,0,0,1,.54.08l.35-.08,1.57.14c.4,0,.74-.06,1-.06a2,2,0,0,1,.2.61l-.2.14.2.41a.46.46,0,0,1,.21-.08.35.35,0,0,1-.08-.2c0-.14.1-.2.14-.2l-.06-.48v-1a.05.05,0,0,1,.06-.06s0-.07-.06-.07a2.39,2.39,0,0,0,.06-.28,4,4,0,0,0-.06-.67c0-.43.06-.84.06-1.24L47.82,99a2.74,2.74,0,0,0,.06-.61v-.14a4.48,4.48,0,0,0-.14-.55v-.55a2.9,2.9,0,0,0-1-2.05,3,3,0,0,0-1.57-.54v-.07a2.74,2.74,0,0,0-2.39,1.64A9.82,9.82,0,0,0,42.49,97.2Z" transform="translate(-15.75 -9.41)"/><path class="cls-2" d="M54.41,90.78l.41.07a.5.5,0,0,0,.27-.07c.94,0,1.57.09,1.91.13a.92.92,0,0,1,.41-.13h.47c.08,0,.15.11.2.34a2.16,2.16,0,0,1-.47.61c0,.16,0,.54.07,1.16l-.07.61.07.41-.13.83a.85.85,0,0,1,.13.4v.21a3.15,3.15,0,0,1-.07.61.43.43,0,0,1,.07.2,3.51,3.51,0,0,0-.07.41c0,.4.07.62.07.68l-.07.48a3.71,3.71,0,0,1,.07.74.85.85,0,0,1-.13.35,6.12,6.12,0,0,1,.13,1,4.08,4.08,0,0,1-.13.69,5.36,5.36,0,0,1,.13,1h-.07l.07.13V102a5,5,0,0,1-.07.76.5.5,0,0,1,.07.27l-.07.4c.42,1.92,1.19,2.87,2.32,2.87h.41a.06.06,0,0,1,.07.07,2.42,2.42,0,0,1,.75-.14v.07q1.08-.81,1.08-1l.55-1.5-.06-.14c0-.24.06-.37.06-.41,0-.32-.06-.51-.06-.55l.06-.47a5.56,5.56,0,0,1-.14-1,3.39,3.39,0,0,1,.14-.67,6,6,0,0,1-.14-.82.43.43,0,0,1,.08-.2l-.08-.41V99a.84.84,0,0,1,.14-.41,11,11,0,0,1-.14-1.63l.08-.14a.5.5,0,0,1-.08-.27,1.15,1.15,0,0,1,.14-.55,2.58,2.58,0,0,0-.14-.75,5.06,5.06,0,0,0,.08-.75v-.62a5.33,5.33,0,0,0-.08-.88,7.44,7.44,0,0,0,.14-.89,2.41,2.41,0,0,0-.55-.95v-.07c0-.11.39-.2,1.16-.27l.41.07a.51.51,0,0,0,.28-.07c.94,0,1.57.09,1.9.13a.92.92,0,0,1,.41-.13h.48c.08,0,.15.11.21.34,0,.06-.16.26-.49.61,0,.16,0,.54.08,1.16l-.08.61.08.41-.14.83a.77.77,0,0,1,.14.4v.21a3.29,3.29,0,0,1-.08.61.48.48,0,0,1,.08.2c-.05.24-.08.38-.08.41.05.4.08.62.08.68l-.08.48.08.48c0,.1,0,.35-.08.75s.08.79.08,1l-.08.27.08.34-.08.34.08.41-.08.27a1,1,0,0,1,.14.41.84.84,0,0,0-.14.41v.75c-.16,1.9-.43,3.09-.81,3.54,0,.42-.68,1.24-2,2.45a5.12,5.12,0,0,1-2.94,1s-.09.07-.27.07a7.87,7.87,0,0,1-2.66-.41,6.69,6.69,0,0,1-3-2.38l-.81-2a25.1,25.1,0,0,1-.41-4.37c.09-.34.14-.52.14-.54a6,6,0,0,1-.14-.82.49.49,0,0,1,.06-.2l-.06-.41V99a.84.84,0,0,1,.14-.41,11,11,0,0,1-.14-1.63l.06-.14a.6.6,0,0,1-.06-.27A1.15,1.15,0,0,1,53.8,96a3.6,3.6,0,0,0-.14-.75,6.14,6.14,0,0,0,.06-.75v-.62a6.62,6.62,0,0,0-.06-.88,7.44,7.44,0,0,0,.14-.89,2.41,2.41,0,0,0-.55-.95v-.07C53.25,90.94,53.64,90.85,54.41,90.78Z" transform="translate(-15.75 -9.41)"/><path class="cls-2" d="M68.84,90.77a1.78,1.78,0,0,1,.47.07c.68,0,1.25-.07,1.71-.07h.27a4.83,4.83,0,0,1,.75.07.59.59,0,0,1,.34-.07l.48.07a4.83,4.83,0,0,1,.75-.07,3.9,3.9,0,0,0,.81.14,3.16,3.16,0,0,1,.55-.14l.47.07c.1,0,.14,0,.14-.07.56,0,1.81.09,3.75.14.1.32.16.47.21.47l-.14,1.3a2.58,2.58,0,0,1,.14.82l-.07.34a3.34,3.34,0,0,1,.07.68v.27c0,.07-.07.14-.21.2h-.14c-.36-.35-.59-.53-.67-.53s-.28.08-.28.13l-.34-.07a2,2,0,0,0-.54.07L77,94.52l-.49.07a.73.73,0,0,0-.4-.13h-.27c-.32,0-.47.05-.47.13a9.87,9.87,0,0,0-1.44-.13l-.34.06a.77.77,0,0,0-.34-.06.12.12,0,0,1-.14.13l.14,1.7a1.59,1.59,0,0,0-.14.62,6.58,6.58,0,0,0,.14,1l-.14,2.66a.4.4,0,0,1,.2.07c0-.15.66-.52,2-1.1a1.7,1.7,0,0,0,.69-.4,2.65,2.65,0,0,0,1.16-.68,5.87,5.87,0,0,1,1.36-.61h.21c.1,0,.16.11.2.33a.84.84,0,0,0-.14.41v2.66l.14.48c-.18.4-.29.61-.34.61h-.14c-.29-.32-.49-.47-.62-.47,0,.17-.33.38-1,.61a2.57,2.57,0,0,1-1.16.61,11.37,11.37,0,0,1-1.9,1,1.35,1.35,0,0,1-.62.34s0,.08-.07.08l.07.68v.61l-.07.81.14.08a6.12,6.12,0,0,1,.88-.14l.34.06.35-.06.61.06c.14,0,.2-.08.2-.12l1.37.2c1.41-.11,2.11-.27,2.11-.48l.21-.13h.06c.14,0,.21.18.21.41v.94a2.44,2.44,0,0,0,.06.55c0,1.09-.12,1.64-.2,1.64l.07.13V110c0,.18-.36.27-1.09.27a2.9,2.9,0,0,1-.76-.07,10.33,10.33,0,0,1-1.22.07h-.55c-.71,0-1.43,0-2.18-.07a4.16,4.16,0,0,1-.88.07l-.41-.07a.53.53,0,0,0-.2.07l-.61-.07-1.37.07c-.61,0-1.07-.07-1.36-.07l-.08-.13v-.14a2.42,2.42,0,0,0,.55-1.16c0-.53-.06-.92-.06-1.16h.06c0-.23-.09-.34-.14-.34l.08-.69v-1.83a3.1,3.1,0,0,0-.08-.61,2.69,2.69,0,0,0,.14-.9.77.77,0,0,1-.14-.4l.14-.48a1.7,1.7,0,0,0-.14-.75,1.12,1.12,0,0,0,.14-.55,28.18,28.18,0,0,0-.14-2.85,3.38,3.38,0,0,0,.08-.55c0-.09,0-.5-.08-1.23,0-.06,0-.31.14-.75a2.33,2.33,0,0,0-.14-.69c0-1.2.12-2.15.2-2.85a2.17,2.17,0,0,0-.67-1A.74.74,0,0,1,68.84,90.77Z" transform="translate(-15.75 -9.41)"/><path class="cls-2" d="M88,90.77a6.14,6.14,0,0,1,2.59.67c.2,0,.58.26,1.13.79.37.11.86.67,1.46,1.67a3,3,0,0,1,.46.73v.19c0,.1-.49.45-1.46,1.07,0,.09-.18.16-.53.2,0,.16-.22.31-.66.46,0,.18-.11.31-.34.4l-.12-.07a.81.81,0,0,1-.4.13L90,96.88a4.6,4.6,0,0,1,.14-.6c-.5-.93-1-1.39-1.46-1.39s-.61-.24-.66-.34l-.8.08h-.47c-.88.36-1.32.71-1.32,1.06s-.07.63-.07.73A7,7,0,0,0,88,98l.13-.06a4.92,4.92,0,0,1,1.53.86,5,5,0,0,1,2.06,1.13c.11,0,.48.35,1.13,1.06.36.15.76.9,1.19,2.27v.79a7.74,7.74,0,0,1-.8,3.32,4.68,4.68,0,0,1-1.12,1.33q0,.44-2.07,1.26a1,1,0,0,0-.65.27l-.34-.07a7,7,0,0,1-1.2.13l-.65-.06-.27.06a7.88,7.88,0,0,1-3.53-1.19c-1-.7-1.52-1.26-1.52-1.67a3.44,3.44,0,0,1-.6-1v-.06a20.55,20.55,0,0,1,2.25-1.79,3,3,0,0,1,.94-.8.42.42,0,0,1,.4-.27c0,.07.06.14.2.21l-.08.46v.4c0,.33.29.7.87,1.12,0,.15.25.31.73.48,0,.12.45.23,1.34.33,1.1-.44,1.65-.87,1.65-1.27.09-.1.14-.17.14-.2v-.19a.56.56,0,0,1,0-.54v-.07c-.16-.66-.41-1-.74-1q0-.26-1.32-.81a8.17,8.17,0,0,0-2.19-.86s-.68-.42-1.94-1.27c-.17,0-.39-.19-.65-.59a3,3,0,0,1-1.21-1.66c-.22-.17-.37-.92-.46-2.26,0,0,.22-.74.67-2.13.06,0,.28-.24.66-.73a3,3,0,0,1,1.2-.93A5.07,5.07,0,0,1,86,91a.6.6,0,0,0,.27.07.73.73,0,0,0,.4-.21h.86Z" transform="translate(-15.75 -9.41)"/><path class="cls-2" d="M108.29,90.77l.21.27v.41a10.33,10.33,0,0,0,.07,1.22l-.14.62.14,1.63-.14.07h-.27a1.52,1.52,0,0,1-.54-.48l-.62.08c-.26,0-.8,0-1.63-.08l-.48.08a3.9,3.9,0,0,1-.68-.14l-.27.2.07.47v.62a.69.69,0,0,0,.14.4l-.08.62.08.34L104,98a1.14,1.14,0,0,1,.14.41,1,1,0,0,0-.14.55,7,7,0,0,1,.14,1V100l-.14.47.14.89c-.05.24-.08.37-.08.41a3.19,3.19,0,0,1,.08.61c-.1,0-.14.06-.14.14l.06.41c0,.38-.06.67-.06.88.09.54.14.86.14,1a1.33,1.33,0,0,1-.14.4,2.67,2.67,0,0,0,.14.75,5.06,5.06,0,0,0-.08.75v.61a5.24,5.24,0,0,0,.08.88,5.9,5.9,0,0,0-.14.89,2.23,2.23,0,0,0,.55.95V110c0,.11-.39.2-1.16.27l-.41-.06a.6.6,0,0,0-.27.06c-.94,0-1.58-.09-1.91-.14a.8.8,0,0,1-.41.14h-.47c-.08,0-.15-.11-.21-.34,0-.07.16-.27.47-.61,0-.16,0-.54-.06-1.15l.06-.62-.06-.4.14-.82a.82.82,0,0,1-.14-.34,7.07,7.07,0,0,1,.14-1.7,1.19,1.19,0,0,1-.14-.49l.06-.4a7,7,0,0,1-.06-.82,3.06,3.06,0,0,0,.14-.41,8.22,8.22,0,0,1-.14-.81,5.79,5.79,0,0,1,.14-.82l-.14-1.43a2.12,2.12,0,0,0,.14-.75l-.14-.88q.06-.95.06-1.23l-.06-.47a11.47,11.47,0,0,0,.2-1.22.13.13,0,0,1-.14-.14c-.7.09-1.13.16-1.28.2a4,4,0,0,0-.62-.06h-1a1.86,1.86,0,0,0-1.22.47l-.35-.21.08-.47v-.07a.8.8,0,0,0-.14-.41l.14-.88a3.31,3.31,0,0,1-.08-.68v-.07a2.77,2.77,0,0,1,.14-.62,3.78,3.78,0,0,1-.06-.61c.06,0,.13-.07.2-.2l.48.07h.06a.59.59,0,0,0,.34-.07l.27.07.61-.07a17.6,17.6,0,0,0,1.84.14c0-.1.06-.14.14-.14l.82.07.81-.07.82.07c.4,0,.65-.07.75-.07a2,2,0,0,1,.54.14l.69-.07L105,91l.27-.07.35.07c.58,0,.88-.09.88-.14l.34.07h.27A5.64,5.64,0,0,0,108.29,90.77Z" transform="translate(-15.75 -9.41)"/><path class="cls-2" d="M111.34,90.82l.41.06a.6.6,0,0,0,.27-.06c.94,0,1.58.08,1.91.13a.81.81,0,0,1,.41-.13h.47c.08,0,.15.11.21.34a2.24,2.24,0,0,1-.47.61c0,.15,0,.54.06,1.16l-.06.61.06.41-.13.82a.78.78,0,0,1,.13.41v.2a3.78,3.78,0,0,1-.06.61.57.57,0,0,1,.06.21s0,.17-.06.41c0,0,0,.28.06.68l-.06.48a4.56,4.56,0,0,1,.06.75.67.67,0,0,1-.13.33,5.21,5.21,0,0,1,.13,1,3.19,3.19,0,0,1-.13.68,5.35,5.35,0,0,1,.13.81.57.57,0,0,1-.06.21l.06.41v.14a.78.78,0,0,1-.13.4l.07.35a7.27,7.27,0,0,0-.07.88,9.14,9.14,0,0,1,.13,1,1.15,1.15,0,0,1-.13.4,3.47,3.47,0,0,0,.13.76,5.86,5.86,0,0,0-.06.74v.62a6.62,6.62,0,0,0,.06.88,6.78,6.78,0,0,0-.13.88,2.42,2.42,0,0,0,.54,1V110c0,.1-.38.19-1.15.27l-.42-.06a.6.6,0,0,0-.27.06c-.94,0-1.57-.09-1.91-.14a.78.78,0,0,1-.41.14h-.47c-.08,0-.15-.11-.21-.34,0-.07.16-.27.48-.61,0-.16,0-.54-.07-1.16l.07-.62-.07-.41.14-.81a.76.76,0,0,1-.14-.35,7.76,7.76,0,0,1,.14-1.69,1.19,1.19,0,0,1-.14-.49l.07-.4a5.32,5.32,0,0,1-.07-.82,2,2,0,0,0,.14-.41,5.48,5.48,0,0,1-.14-1,3.44,3.44,0,0,1,.14-.68,5.79,5.79,0,0,1-.14-.82.4.4,0,0,1,.07-.2l-.07-.41V99a.84.84,0,0,1,.14-.41,10.88,10.88,0,0,1-.14-1.63l.07-.14a.5.5,0,0,1-.07-.27,1.15,1.15,0,0,1,.14-.55,3.24,3.24,0,0,0-.14-.75,4.72,4.72,0,0,0,.07-.74v-.62a5.3,5.3,0,0,0-.07-.88,5.9,5.9,0,0,0,.14-.89,2.23,2.23,0,0,0-.55-1v-.08C110.18,91,110.57,90.89,111.34,90.82Z" transform="translate(-15.75 -9.41)"/><path class="cls-2" d="M123,90.77a5.06,5.06,0,0,1,3.43,1.44c.28,0,.71.44,1.3,1.3.18,0,.44.62.76,1.85a5.23,5.23,0,0,1,.55,1.78v.28a.84.84,0,0,1-.14.41l.14,1-.08.48.14,1.44-.14.34c.05.85.08,1.56.08,2.13-.17,1.91-.45,3.1-.83,3.56,0,.41-.68,1.23-2,2.47a5.25,5.25,0,0,1-3,1s-.09.06-.26.06a7.67,7.67,0,0,1-2.68-.41,6.16,6.16,0,0,1-3.15-2.67,6.4,6.4,0,0,0-.62-1.51,19.63,19.63,0,0,1-.41-3.22c0-.43,0-1.14.07-2.13a.44.44,0,0,1-.07-.26.12.12,0,0,0,.14-.14c0-.14,0-.21-.07-.21l.07-.68v-.41a4,4,0,0,0-.14-.89c.32-2.29.6-3.43.83-3.43a3.36,3.36,0,0,1,1-1.44q.65-.53.69-.75a2.63,2.63,0,0,1,1.44-.69c.36-.46,1.27-.69,2.74-.69Zm-3.08,6.45.07.13c0,.14-.09.21-.14.21l.07.27c0,1.19-.07,1.78-.21,1.78a.46.46,0,0,0,.07.21l-.07.41a10.85,10.85,0,0,1,.14,1.78v.28a.5.5,0,0,1-.07.27.51.51,0,0,1,.07.28s0,.32-.07.89a6.88,6.88,0,0,1,.48,1.44,2.5,2.5,0,0,0,2,1.36h.62l.68-.06v.06c.91-.56,1.37-1.11,1.37-1.64a2.15,2.15,0,0,0,.35-1.1l-.08-.28c0-.13.1-.2.14-.2l-.06-.47v-1a.05.05,0,0,1,.06-.06s0-.08-.06-.08a2.08,2.08,0,0,0,.06-.26,4,4,0,0,0-.06-.69c0-.43.06-.84.06-1.24l-.06-.48a2.62,2.62,0,0,0,.06-.61v-.14a4.48,4.48,0,0,0-.14-.55v-.55a2.9,2.9,0,0,0-1-2,3,3,0,0,0-1.58-.55v-.07a2.74,2.74,0,0,0-2.39,1.65A9.28,9.28,0,0,0,119.93,97.22Z" transform="translate(-15.75 -9.41)"/><path class="cls-2" d="M141.82,90.77l.41.07a.5.5,0,0,0,.27-.07c.93,0,1.57.09,1.9.14a.8.8,0,0,1,.41-.14h.48c.07,0,.14.12.2.35a2.33,2.33,0,0,1-.48.61c0,.15,0,.53.08,1.15l-.08.61.08.41-.14.81a.84.84,0,0,1,.14.41v.21a3.19,3.19,0,0,1-.08.61.53.53,0,0,1,.08.2,4,4,0,0,1-.08.41c0,.06,0,.29.08.69l-.08.47a3.82,3.82,0,0,1,.08.75.78.78,0,0,1-.14.34,5.37,5.37,0,0,1,.14,1,3.31,3.31,0,0,1-.14.68,6,6,0,0,1,.14.82.51.51,0,0,1-.08.21l.08.4v.14a.84.84,0,0,1-.14.41l.06.33q-.06.59-.06.9c.09.53.14.85.14.94a1.2,1.2,0,0,1-.14.41,2.58,2.58,0,0,0,.14.75,5.06,5.06,0,0,0-.08.75v.62a5.43,5.43,0,0,0,.08.88,5.5,5.5,0,0,0-.14.88,2.28,2.28,0,0,0,.54,1V110c0,.11-.38.2-1.16.28l-.4-.08a.5.5,0,0,0-.27.08c-.94,0-1.58-.1-1.92-.14a.8.8,0,0,1-.4.14h-.48c-.08,0-.14-.12-.2-.35a2.22,2.22,0,0,1,.41-.54,9.75,9.75,0,0,1-1-1.7l-.69-.75a.6.6,0,0,0-.33-.62c-.1,0-.14-.11-.14-.33H139a11.69,11.69,0,0,0-.81-1.57,28.32,28.32,0,0,1-1.5-2.51h.07a5,5,0,0,0-.88-1.23,4.08,4.08,0,0,0-.55-1.16h-.13v.27a3.12,3.12,0,0,1-.14.82,5.79,5.79,0,0,1,.14.82.48.48,0,0,1-.08.2l.08.41v.14a.84.84,0,0,1-.14.41l.06.34c0,.38-.06.67-.06.88.09.54.14.86.14,1a1.33,1.33,0,0,1-.14.4,2.67,2.67,0,0,0,.14.75,5.06,5.06,0,0,0-.08.75v.61a5.24,5.24,0,0,0,.08.88,7.76,7.76,0,0,0-.14.89,2.34,2.34,0,0,0,.55.95V110c0,.11-.39.2-1.16.27l-.41-.06a.6.6,0,0,0-.27.06c-.94,0-1.58-.09-1.91-.14a.8.8,0,0,1-.41.14h-.47c-.08,0-.15-.11-.21-.34,0-.07.16-.27.48-.61,0-.16,0-.54-.07-1.15l.07-.62-.07-.4.14-.82a.82.82,0,0,1-.14-.34,7.07,7.07,0,0,1,.14-1.7,1.19,1.19,0,0,1-.14-.49l.07-.4a5.53,5.53,0,0,1-.07-.82,3.06,3.06,0,0,0,.14-.41,5.4,5.4,0,0,1-.14-.94,3.37,3.37,0,0,1,.14-.69,5.79,5.79,0,0,1-.14-.82.4.4,0,0,1,.07-.2l-.07-.41V99a.84.84,0,0,1,.14-.41,10.77,10.77,0,0,1-.14-1.63l.07-.13a.51.51,0,0,1-.07-.28,1.14,1.14,0,0,1,.14-.54,3.94,3.94,0,0,0-.14-.75,6.5,6.5,0,0,0,.07-.75V93.9a6.65,6.65,0,0,0-.07-.88,7.74,7.74,0,0,0,.14-.88,2.34,2.34,0,0,0-.55-1v-.06c0-.11.39-.2,1.16-.28l.41.07a.5.5,0,0,0,.27-.07c.94,0,1.57.09,1.9.14a.74.74,0,0,1,.41-.14h.48c.08,0,.15.11.21.34a2.38,2.38,0,0,1-.41.55v.06L136.37,94a3.62,3.62,0,0,0,.75,1.15,4.6,4.6,0,0,1,.61,1.23,3,3,0,0,1,.75,1.3c.16,0,.39.41.68,1.15.12,0,.32.27.61.81s.61.74.61.89a2.16,2.16,0,0,0,.62,1.16l.21-1.16a4.65,4.65,0,0,1-.14-.81.57.57,0,0,1,.06-.21l-.06-.4v-.14a.72.72,0,0,1,.14-.41,9.7,9.7,0,0,1-.14-1.63l.06-.14a.6.6,0,0,1-.06-.27,1,1,0,0,1,.14-.55,3.6,3.6,0,0,0-.14-.74,6.45,6.45,0,0,0,.06-.75v-.62a6.62,6.62,0,0,0-.06-.88,7.44,7.44,0,0,0,.14-.89,2.29,2.29,0,0,0-.55-.94V91C140.66,90.93,141.05,90.84,141.82,90.77Z" transform="translate(-15.75 -9.41)"/><path class="cls-2" d="M148.27,90.82l.4.06a.6.6,0,0,0,.27-.06c.94,0,1.58.08,1.91.13a.81.81,0,0,1,.41-.13h.48c.07,0,.14.11.2.34a2.24,2.24,0,0,1-.47.61c0,.15,0,.54.06,1.16l-.06.61.06.41-.13.82a.78.78,0,0,1,.13.41v.2a3.78,3.78,0,0,1-.06.61.57.57,0,0,1,.06.21s0,.17-.06.41c0,0,0,.28.06.68l-.06.48a4.56,4.56,0,0,1,.06.75.67.67,0,0,1-.13.33,5.21,5.21,0,0,1,.13,1,3.19,3.19,0,0,1-.13.68,5.35,5.35,0,0,1,.13.81.57.57,0,0,1-.06.21l.06.41v.14a.78.78,0,0,1-.13.4l.07.35a7.27,7.27,0,0,0-.07.88,9.14,9.14,0,0,1,.13,1,1.15,1.15,0,0,1-.13.4,4.26,4.26,0,0,0,.13.76,5.86,5.86,0,0,0-.06.74v.62a6.62,6.62,0,0,0,.06.88c-.08.48-.13.77-.13.88a2.42,2.42,0,0,0,.54,1V110c0,.1-.38.19-1.15.27l-.42-.06a.6.6,0,0,0-.27.06c-.94,0-1.57-.09-1.91-.14a.78.78,0,0,1-.41.14h-.47c-.08,0-.15-.11-.2-.34,0-.07.15-.27.47-.61,0-.16,0-.54-.07-1.16l.07-.62-.07-.41.14-.81a.76.76,0,0,1-.14-.35,7.76,7.76,0,0,1,.14-1.69,1.19,1.19,0,0,1-.14-.49l.07-.4a5.32,5.32,0,0,1-.07-.82,2,2,0,0,0,.14-.41,5.48,5.48,0,0,1-.14-1,3.44,3.44,0,0,1,.14-.68,5.79,5.79,0,0,1-.14-.82.4.4,0,0,1,.07-.2l-.07-.41V99a.84.84,0,0,1,.14-.41,10.88,10.88,0,0,1-.14-1.63l.07-.14a.5.5,0,0,1-.07-.27,1.15,1.15,0,0,1,.14-.55,3.24,3.24,0,0,0-.14-.75,4.72,4.72,0,0,0,.07-.74v-.62a5.3,5.3,0,0,0-.07-.88,5.9,5.9,0,0,0,.14-.89,2.33,2.33,0,0,0-.54-1v-.08C147.11,91,147.49,90.89,148.27,90.82Z" transform="translate(-15.75 -9.41)"/><path class="cls-2" d="M164.11,90.77l.41.07a.5.5,0,0,0,.27-.07c.93,0,1.57.09,1.9.14a.8.8,0,0,1,.41-.14h.48c.07,0,.14.12.2.35a2.33,2.33,0,0,1-.48.61c0,.15,0,.53.08,1.15l-.08.61.08.41-.14.81a.84.84,0,0,1,.14.41v.21a3.19,3.19,0,0,1-.08.61.53.53,0,0,1,.08.2,4,4,0,0,1-.08.41c0,.06,0,.29.08.69l-.08.47a3.82,3.82,0,0,1,.08.75.78.78,0,0,1-.14.34,5.37,5.37,0,0,1,.14,1,3.31,3.31,0,0,1-.14.68,6,6,0,0,1,.14.82.51.51,0,0,1-.08.21l.08.4v.14a.84.84,0,0,1-.14.41l.06.33q-.06.59-.06.9c.09.53.14.85.14.94a1.2,1.2,0,0,1-.14.41,2.58,2.58,0,0,0,.14.75,5.06,5.06,0,0,0-.08.75v.62a5.43,5.43,0,0,0,.08.88,5.5,5.5,0,0,0-.14.88,2.28,2.28,0,0,0,.54,1V110c0,.11-.38.2-1.16.28l-.4-.08a.5.5,0,0,0-.27.08c-.94,0-1.58-.1-1.92-.14a.8.8,0,0,1-.4.14h-.48c-.07,0-.14-.12-.2-.35a2.22,2.22,0,0,1,.41-.54,9.75,9.75,0,0,1-1-1.7l-.69-.75a.6.6,0,0,0-.33-.62c-.1,0-.14-.11-.14-.33h.06a11.69,11.69,0,0,0-.81-1.57,28.32,28.32,0,0,1-1.5-2.51H159a5,5,0,0,0-.88-1.23,4.08,4.08,0,0,0-.55-1.16h-.13v.27a3.12,3.12,0,0,1-.14.82,5.79,5.79,0,0,1,.14.82.48.48,0,0,1-.08.2l.08.41v.14a.84.84,0,0,1-.14.41l.06.34c0,.38-.06.67-.06.88.09.54.14.86.14,1a1.33,1.33,0,0,1-.14.4,2.67,2.67,0,0,0,.14.75,5.06,5.06,0,0,0-.08.75v.61a5.24,5.24,0,0,0,.08.88,7.76,7.76,0,0,0-.14.89,2.34,2.34,0,0,0,.55.95V110c0,.11-.39.2-1.16.27l-.41-.06a.6.6,0,0,0-.27.06c-.94,0-1.58-.09-1.91-.14a.8.8,0,0,1-.41.14h-.47c-.08,0-.15-.11-.21-.34,0-.07.16-.27.48-.61,0-.16,0-.54-.07-1.15l.07-.62-.07-.4.14-.82a.82.82,0,0,1-.14-.34,7.07,7.07,0,0,1,.14-1.7,1.19,1.19,0,0,1-.14-.49l.07-.4a5.53,5.53,0,0,1-.07-.82,3.06,3.06,0,0,0,.14-.41,5.4,5.4,0,0,1-.14-.94,3.37,3.37,0,0,1,.14-.69,5.79,5.79,0,0,1-.14-.82.4.4,0,0,1,.07-.2l-.07-.41V99a.84.84,0,0,1,.14-.41,10.77,10.77,0,0,1-.14-1.63l.07-.13a.51.51,0,0,1-.07-.28,1.14,1.14,0,0,1,.14-.54,3.94,3.94,0,0,0-.14-.75,6.5,6.5,0,0,0,.07-.75V93.9a6.65,6.65,0,0,0-.07-.88,7.74,7.74,0,0,0,.14-.88,2.34,2.34,0,0,0-.55-1v-.06c0-.11.39-.2,1.16-.28l.41.07a.5.5,0,0,0,.27-.07c.94,0,1.57.09,1.9.14a.74.74,0,0,1,.41-.14h.48c.08,0,.15.11.21.34a2.38,2.38,0,0,1-.41.55v.06L158.66,94a3.62,3.62,0,0,0,.75,1.15,4.6,4.6,0,0,1,.61,1.23,3,3,0,0,1,.75,1.3c.16,0,.39.41.68,1.15.12,0,.32.27.61.81s.61.74.61.89a2.16,2.16,0,0,0,.62,1.16l.21-1.16a4.65,4.65,0,0,1-.14-.81.57.57,0,0,1,.06-.21l-.06-.4v-.14a.72.72,0,0,1,.14-.41,9.7,9.7,0,0,1-.14-1.63l.06-.14a.6.6,0,0,1-.06-.27,1,1,0,0,1,.14-.55,3.6,3.6,0,0,0-.14-.74,6.45,6.45,0,0,0,.06-.75v-.62a6.62,6.62,0,0,0-.06-.88,7.44,7.44,0,0,0,.14-.89,2.29,2.29,0,0,0-.55-.94V91C163,90.93,163.34,90.84,164.11,90.77Z" transform="translate(-15.75 -9.41)"/><path class="cls-2" d="M176.18,90.77c.74,0,1.4.07,2,.07a6.72,6.72,0,0,1,2.6,1l.48.61c.53,0,1.15.55,1.85,1.65v.27a12,12,0,0,1-1.64,1.1,8.76,8.76,0,0,1-2.13,1.23.77.77,0,0,1-.14-.2c0-.42.08-.62.14-.62-.18-.5-.73-.91-1.64-1.23a8.8,8.8,0,0,0-1.17-.21l-.13.07-.14-.07a2.75,2.75,0,0,0-2.4,1.65c-.18.66-.28,1-.28,1.1l.07.13c0,.14-.09.21-.13.21a2.48,2.48,0,0,0,.06.27c0,1.19-.06,1.78-.2,1.78a.57.57,0,0,0,.06.21l-.06.41a12.07,12.07,0,0,1,.14,1.78v.28a.5.5,0,0,1-.08.27.51.51,0,0,1,.08.28s0,.32-.08.89a6,6,0,0,1,.49,1.44,4.08,4.08,0,0,0,.82,1.09l.13-.07a2,2,0,0,0,1,.34H176a.61.61,0,0,0,.28-.06.6.6,0,0,0,.27.06,3.1,3.1,0,0,0,1.92-.55s.06,0,.06.08a2.66,2.66,0,0,0,1.1-2.2c.05,0,.1-.28.14-.82,0-.19-.2-.31-.61-.34l-.75.06-.28-.13c-.91.2-1.37.41-1.37.61s0,.07-.07.07h-.21c-.1,0-.17-.12-.2-.35l.14-.47c0-.69-.08-1.17-.08-1.44,0,0,0-.28.08-.69a1.09,1.09,0,0,1-.14-.54v-.14a1.15,1.15,0,0,1,.14-.55l.68.07h1.65a.68.68,0,0,1,.33.07l.42-.07h1.3l.41.07a.61.61,0,0,1,.28-.07l.13.07.14-.07.41.07.62-.07a10.52,10.52,0,0,0,1.09.07.63.63,0,0,1,.21-.07l.14.21a1.11,1.11,0,0,1-.55.82.53.53,0,0,0,.06.2c0,.88-.06,1.45-.06,1.72l.06.48-.2.82a1.12,1.12,0,0,1,.14.55,7.13,7.13,0,0,1-1,2.94l-1,1.31c-.11,0-.36.23-.75.68a6.77,6.77,0,0,1-3.57,1.23c0,.07-.46.11-1.37.14a6.18,6.18,0,0,1-5.34-2.67q-.19,0-.69-1.65c-.29-.23-.49-1.39-.61-3.49q0-.64.06-2.13a.53.53,0,0,1-.06-.26c.09,0,.13,0,.13-.14s0-.21-.07-.21l.07-.68v-.41a4.45,4.45,0,0,0-.13-.89,8.68,8.68,0,0,1,1.09-4,3,3,0,0,1,.75-.89q.64-.53.69-.75a2.63,2.63,0,0,1,1.44-.69c.36-.46,1.27-.69,2.74-.69Z" transform="translate(-15.75 -9.41)"/><path class="cls-2" d="M197.51,90.84c0,.09.07.14.2.14l.41-.07a.5.5,0,0,1,.27.07,12.75,12.75,0,0,1,1.29-.07c1.13,0,1.69.09,1.69.27a2.68,2.68,0,0,0-.4.68,22.47,22.47,0,0,1,.88,3.32,30.36,30.36,0,0,1,.88,3.19,13,13,0,0,1,.55,2.17c.09,0,.14.09.14.28l-.08.26a18.61,18.61,0,0,1,1,3.06c.08,0,.14.29.2.88.1,0,.26.52.47,1.56a.57.57,0,0,0-.06.21,11.08,11.08,0,0,1,.47,1.49c.09,0,.13,0,.13.13V109c0,.19.25.51.75.94-.08.21-.17.33-.27.35l-.4-.08-.35.08-.74-.08-1,.08c0-.1-.06-.14-.2-.14a2.61,2.61,0,0,1-.61.14h-1.22c-.06,0-.13-.07-.2-.21v-.2c.41-.28.61-.48.61-.61-.17,0-.37-.68-.61-2a4.17,4.17,0,0,1-.41-1.29.12.12,0,0,1-.14-.13l.08-.47-.14-.08a7,7,0,0,1-1.84,1.49,12.2,12.2,0,0,1-2.23,1.77,2.42,2.42,0,0,1-.88.75v.06c0,.16.13.36.4.61V110c0,.09-.22.16-.67.21a1.37,1.37,0,0,0-.49-.14.77.77,0,0,1-.4.14H194a3.39,3.39,0,0,1-.68-.08,1.84,1.84,0,0,1-.48.08l-.47-.08a.64.64,0,0,1-.34.14c-.5-.1-.74-.19-.74-.27v-.28c.4-.21.61-.41.61-.6a11.93,11.93,0,0,1,.47-1.69,6.75,6.75,0,0,1,.47-1.84,11,11,0,0,1,.48-1.76,16.64,16.64,0,0,1,.68-2.31l-.07-.48c.19,0,.48-1,.88-3a14.58,14.58,0,0,0,.82-2.78c.09,0,.16-.27.2-.81a3.42,3.42,0,0,0,.41-1.09l-.07-.14v-.06a12.71,12.71,0,0,1,.48-1.43q-.48-.45-.48-.54.1-.27.21-.27h.13A9.75,9.75,0,0,0,197.51,90.84Zm1.15,7v.27a8.1,8.1,0,0,1-.48,1.78l.08.12a3.28,3.28,0,0,0-.34,1.37c-.24,1-.42,1.56-.55,1.56v.12h.2c0-.19.57-.62,1.7-1.28l.55-.4v-.08a2.6,2.6,0,0,1-.41-1.35,8.57,8.57,0,0,1-.55-2.11Z" transform="translate(-15.75 -9.41)"/><path class="cls-2" d="M208.07,90.77l.47.07a9.29,9.29,0,0,0,1-.07.4.4,0,0,1,.2.07,2.73,2.73,0,0,1,.53-.07c.28,0,.84,0,1.65.13l.4-.06a6.22,6.22,0,0,0,.86.06l.46-.06a1.18,1.18,0,0,0,.4.13l.53-.07a9.24,9.24,0,0,0,1.79.54A5.82,5.82,0,0,1,218.93,94a5.55,5.55,0,0,0,.33,1.12v1.2a4,4,0,0,1-.79,2.18c0,.2-.18.48-.53.86a14.62,14.62,0,0,1,2.12,3.37,5,5,0,0,0,.39,1.33c0,.66.07,1,.2,1a5.67,5.67,0,0,1-1.52,3.91l-1.19.73a5.1,5.1,0,0,0-1.59.46h-.86a.6.6,0,0,1-.27-.06,10,10,0,0,1-2.32.19l-.32-.06c-.09,0-.14,0-.14.06l-.8-.06h-1.11a9.81,9.81,0,0,0-1,.06,2.55,2.55,0,0,0-.59-.06l-.87.06-.2-.27v-.13a2.94,2.94,0,0,0,.47-1.46v-.65a6.51,6.51,0,0,1,.06-.93,3.85,3.85,0,0,1-.06-.66,3.65,3.65,0,0,1,.06-.53l-.13-1.13c0-.51.09-1.48.13-2.91a3.77,3.77,0,0,1-.06-.6,2.71,2.71,0,0,1,.12-.59l-.06-.4c0-.05,0-.28.06-.66-.08,0-.12,0-.12-.13v-.86a2.35,2.35,0,0,0-.07-.54,2.19,2.19,0,0,0,.07-.53V97.2c0-.28,0-.62-.07-1a4.94,4.94,0,0,0,.13-.8l-.13-.86c0-.17.08-.26.13-.26s0-.22-.06-.53,0-1,.12-1.72c0-.1-.19-.37-.59-.8V91Zm4.18,4.17-.07.14v.46a2.19,2.19,0,0,0,.13.86l-.13,2.51.13.07c1.62-.71,2.55-1.48,2.78-2.32v-.72a2.35,2.35,0,0,0-1.33-1l-.92.06A3.77,3.77,0,0,0,212.25,94.94Zm2.64,7a5.49,5.49,0,0,1-1.45.94l-1.19.86V105l-.07.39a.72.72,0,0,1,.07.34v.19l-.07.67s.07,0,.07.06l.65-.06h.27l.4.06c1.5-.23,2.25-.52,2.25-.86a1.75,1.75,0,0,0,.72-1.59c-.15,0-.26-.29-.32-.86a1.5,1.5,0,0,1-.67-1A1.09,1.09,0,0,0,214.89,102Z" transform="translate(-15.75 -9.41)"/><path class="cls-2" d="M229.18,90.77a5.05,5.05,0,0,1,3.42,1.44c.28,0,.71.44,1.3,1.3.19,0,.44.62.76,1.85a5,5,0,0,1,.55,1.78v.28a.74.74,0,0,1-.14.41l.14,1-.07.48.14,1.44-.14.34c.05.85.07,1.56.07,2.13a8,8,0,0,1-.82,3.56c0,.41-.69,1.23-2.06,2.47a5.22,5.22,0,0,1-3,1s-.09.06-.27.06a7.65,7.65,0,0,1-2.67-.41,6.08,6.08,0,0,1-3.15-2.67,6.86,6.86,0,0,0-.62-1.51,18.58,18.58,0,0,1-.41-3.22q0-.64.06-2.13a.53.53,0,0,1-.06-.26.13.13,0,0,0,.14-.14c0-.14,0-.21-.08-.21l.08-.68v-.41a4.66,4.66,0,0,0-.14-.89c.32-2.29.6-3.43.82-3.43a3.3,3.3,0,0,1,1-1.44c.42-.35.65-.6.68-.75a2.69,2.69,0,0,1,1.44-.69c.36-.46,1.27-.69,2.74-.69Zm-3.09,6.45.08.13c0,.14-.1.21-.14.21l.06.27c0,1.19-.07,1.78-.2,1.78a.57.57,0,0,0,.06.21l-.06.41A12.07,12.07,0,0,1,226,102v.28a.5.5,0,0,1-.08.27.51.51,0,0,1,.08.28s0,.32-.08.89a6,6,0,0,1,.49,1.44,2.48,2.48,0,0,0,2,1.36h.63l.67-.06v.06c.92-.56,1.38-1.11,1.38-1.64a2.13,2.13,0,0,0,.34-1.1l-.07-.28c0-.13.09-.2.14-.2l-.07-.47v-1s0-.06.07-.06,0-.08-.07-.08a1.42,1.42,0,0,0,.07-.26,3.23,3.23,0,0,0-.07-.69,10.67,10.67,0,0,0,.07-1.24l-.07-.48a2.13,2.13,0,0,0,.07-.61v-.14a4.48,4.48,0,0,0-.14-.55v-.55a2.9,2.9,0,0,0-1-2,3.07,3.07,0,0,0-1.58-.55v-.07a2.74,2.74,0,0,0-2.4,1.65C226.19,96.78,226.09,97.15,226.09,97.22Z" transform="translate(-15.75 -9.41)"/><path class="cls-2" d="M238.05,90.78a2.92,2.92,0,0,0,.41.07.5.5,0,0,0,.27-.07c.93,0,1.57.09,1.91.13a.89.89,0,0,1,.41-.13h.47c.08,0,.14.11.2.34a2.42,2.42,0,0,1-.47.61c0,.16,0,.54.06,1.16l-.06.61.06.41-.12.83a.83.83,0,0,1,.12.4v.21a4,4,0,0,1-.06.61.53.53,0,0,1,.06.2c0,.24-.06.38-.06.41,0,.4.06.62.06.68l-.06.48a4.62,4.62,0,0,1,.06.74.8.8,0,0,1-.12.35,5.92,5.92,0,0,1,.12,1,3.74,3.74,0,0,1-.12.69,5.17,5.17,0,0,1,.12,1h-.06l.06.13V102a6.43,6.43,0,0,1-.06.76.6.6,0,0,1,.06.27l-.06.4c.41,1.92,1.19,2.87,2.32,2.87H244s.06,0,.06.07a2.6,2.6,0,0,1,.75-.14v.07c.73-.54,1.09-.88,1.09-1l.55-1.5-.07-.14a3.19,3.19,0,0,0,.07-.41c-.05-.32-.07-.51-.07-.55l.07-.47a4.71,4.71,0,0,1-.14-1,2.77,2.77,0,0,1,.14-.67,4.71,4.71,0,0,1-.14-.82.4.4,0,0,1,.07-.2l-.07-.41V99a.74.74,0,0,1,.14-.41,9.79,9.79,0,0,1-.14-1.63l.07-.14a.5.5,0,0,1-.07-.27,1,1,0,0,1,.14-.55,3,3,0,0,0-.14-.75,4.83,4.83,0,0,0,.07-.75v-.62a5.3,5.3,0,0,0-.07-.88,7.44,7.44,0,0,0,.14-.89,2.41,2.41,0,0,0-.55-.95v-.07c0-.11.39-.2,1.16-.27l.41.07a.51.51,0,0,0,.28-.07c.94,0,1.57.09,1.9.13a.89.89,0,0,1,.41-.13h.48c.08,0,.15.11.2.34a2.33,2.33,0,0,1-.48.61c0,.16,0,.54.08,1.16l-.08.61.08.41-.14.83a.77.77,0,0,1,.14.4v.21a3.29,3.29,0,0,1-.08.61.48.48,0,0,1,.08.2c0,.24-.08.38-.08.41,0,.4.08.62.08.68l-.08.48.08.48c0,.1,0,.35-.08.75s.08.79.08,1l-.08.27.08.34-.08.34.08.41-.08.27a1.14,1.14,0,0,1,.14.41.84.84,0,0,0-.14.41v.75c-.16,1.9-.44,3.09-.82,3.54,0,.42-.68,1.24-2,2.45a5.07,5.07,0,0,1-2.93,1s-.09.07-.27.07a7.87,7.87,0,0,1-2.66-.41,6.69,6.69,0,0,1-3-2.38l-.82-2a26.92,26.92,0,0,1-.4-4.37c.09-.34.14-.52.14-.54a4.71,4.71,0,0,1-.14-.82.49.49,0,0,1,.06-.2l-.06-.41V99a.74.74,0,0,1,.14-.41,9.79,9.79,0,0,1-.14-1.63l.06-.14a.6.6,0,0,1-.06-.27,1,1,0,0,1,.14-.55,3.6,3.6,0,0,0-.14-.75,6.14,6.14,0,0,0,.06-.75v-.62a6.62,6.62,0,0,0-.06-.88,7.44,7.44,0,0,0,.14-.89,2.41,2.41,0,0,0-.55-.95v-.07C236.89,90.94,237.28,90.85,238.05,90.78Z" transform="translate(-15.75 -9.41)"/><path class="cls-2" d="M265,90.77l.2.27v.41a10.4,10.4,0,0,0,.08,1.22l-.14.62.14,1.63-.14.07h-.27a1.63,1.63,0,0,1-.55-.48l-.61.08c-.26,0-.81,0-1.63-.08l-.49.08a3.94,3.94,0,0,1-.67-.14l-.27.2.06.47v.62a.77.77,0,0,0,.14.4l-.07.62.07.34-.14.88a1,1,0,0,1,.14.41,1.15,1.15,0,0,0-.14.55,5.63,5.63,0,0,1,.14,1V100l-.14.47.14.89a3.19,3.19,0,0,0-.07.41,3.07,3.07,0,0,1,.07.61c-.09,0-.14.06-.14.14l.07.41c0,.38-.07.67-.07.88a7.79,7.79,0,0,1,.14,1,1.09,1.09,0,0,1-.14.4,3.12,3.12,0,0,0,.14.75,4.83,4.83,0,0,0-.07.75v.61a5.22,5.22,0,0,0,.07.88,7.76,7.76,0,0,0-.14.89,2.34,2.34,0,0,0,.55.95V110c0,.11-.38.2-1.16.27l-.41-.06a.6.6,0,0,0-.27.06c-.93,0-1.57-.09-1.91-.14a.78.78,0,0,1-.41.14h-.47c-.08,0-.15-.11-.2-.34,0-.07.16-.27.47-.61,0-.16,0-.54-.06-1.15l.06-.62-.06-.4.14-.82a.7.7,0,0,1-.14-.34,7.07,7.07,0,0,1,.14-1.7,1.05,1.05,0,0,1-.14-.49l.06-.4a7,7,0,0,1-.06-.82,3.06,3.06,0,0,0,.14-.41,5.82,5.82,0,0,1-.14-.81,4.56,4.56,0,0,1,.14-.82l-.14-1.43a2.12,2.12,0,0,0,.14-.75l-.14-.88q.06-.95.06-1.23l-.06-.47c.13-.72.2-1.12.2-1.22a.13.13,0,0,1-.14-.14c-.7.09-1.13.16-1.29.2a3.88,3.88,0,0,0-.61-.06h-1a1.86,1.86,0,0,0-1.23.47l-.34-.21.08-.47v-.07a.8.8,0,0,0-.14-.41l.14-.88a3.31,3.31,0,0,1-.08-.68v-.07a2.77,2.77,0,0,1,.14-.62,3.78,3.78,0,0,1-.06-.61c.06,0,.13-.07.2-.2l.47.07h.07a.62.62,0,0,0,.34-.07l.27.07.61-.07a17.23,17.23,0,0,0,1.84.14c0-.1.06-.14.14-.14l.81.07.82-.07.82.07c.4,0,.65-.07.75-.07a2,2,0,0,1,.54.14l.68-.07.82.07.27-.07.34.07c.59,0,.88-.09.88-.14l.35.07h.27A5.64,5.64,0,0,0,265,90.77Z" transform="translate(-15.75 -9.41)"/><path class="cls-2" d="M286.47,90.79l.41.08a.5.5,0,0,0,.27-.08c.94,0,1.57.1,1.9.14a.84.84,0,0,1,.41-.14h.48c.08,0,.15.12.21.35a2.1,2.1,0,0,1-.49.61c0,.15,0,.53.08,1.15l-.08.61.08.41-.14.82a.78.78,0,0,1,.14.34,8.87,8.87,0,0,1-.14,1.7,1.08,1.08,0,0,1,.14.47l-.08.41a5.49,5.49,0,0,1,.08.81,3.06,3.06,0,0,1-.14.41,5.56,5.56,0,0,1,.14,1,3.59,3.59,0,0,1-.14.68,5.75,5.75,0,0,1,.14.81.51.51,0,0,1-.08.21l.08.4v.13a.78.78,0,0,1-.14.41,11.1,11.1,0,0,1,.14,1.63l-.08.14a.5.5,0,0,1,.08.27,1.12,1.12,0,0,1-.14.55,2.56,2.56,0,0,0,.14.74,5.33,5.33,0,0,0-.08.75v.62a5.33,5.33,0,0,0,.08.88,7.74,7.74,0,0,0-.14.88,2.41,2.41,0,0,0,.55,1V110c0,.11-.39.2-1.16.28l-.41-.08a.5.5,0,0,0-.27.08c-.94,0-1.57-.1-1.9-.14a.84.84,0,0,1-.41.14h-.48a.07.07,0,0,1-.07-.08l-.14.08H285c-.06,0-.13-.07-.2-.21v-.2c.13-.27.27-.41.41-.41a18.06,18.06,0,0,0-1.29-3.13,11.16,11.16,0,0,1-.82-1.77,4.91,4.91,0,0,1-.61-1.35,7.36,7.36,0,0,1-.82-1.63c-.19-.53-.28-.8-.28-.82h-.06a4.79,4.79,0,0,0-.82,1.7,1.36,1.36,0,0,0-.27.67c-.17,0-.31.23-.41.69l.07.13a12.53,12.53,0,0,0-.74,1.63,3.38,3.38,0,0,0-.89,1.7c-.19.11-.35.52-.48,1.22a5.19,5.19,0,0,1-.33.76v.06l.4.61-.21.35-.33-.08-.14.08-.13-.08-1,.14-.41-.06a.64.64,0,0,0-.28.06c-.93,0-1.56-.09-1.9-.14a.8.8,0,0,1-.41.14h-.47c-.08,0-.15-.11-.2-.34,0-.07.15-.27.47-.61,0-.16,0-.54-.06-1.15l.06-.62-.06-.4.14-.82a.74.74,0,0,1-.14-.41v-.2a4,4,0,0,1,.06-.62.49.49,0,0,1-.06-.2s0-.17.06-.41c0,0,0-.28-.06-.67l.06-.48a4.74,4.74,0,0,1-.06-.75.67.67,0,0,1,.14-.34,4.58,4.58,0,0,1-.14-1,2.87,2.87,0,0,1,.14-.69,4.56,4.56,0,0,1-.14-.82.58.58,0,0,1,.06-.2l-.06-.41V99a.74.74,0,0,1,.14-.41l-.08-.34a7.78,7.78,0,0,0,.08-.88,7.79,7.79,0,0,1-.14-1,1,1,0,0,1,.14-.4,3.76,3.76,0,0,0-.14-.75,6.14,6.14,0,0,0,.06-.75v-.61a6.62,6.62,0,0,0-.06-.88,7.4,7.4,0,0,0,.14-.88,2.45,2.45,0,0,0-.55-1v-.06c0-.11.38-.2,1.16-.27l.41.06a.53.53,0,0,0,.26-.06c.94,0,1.58.08,1.91.13a.78.78,0,0,1,.4-.13H277c.08,0,.14.11.2.33,0,.07-.16.27-.47.61,0,.15,0,.54.06,1.16l-.06.62.06.4-.13.81a.77.77,0,0,1,.13.34,7.53,7.53,0,0,1-.13,1.7,1.15,1.15,0,0,1,.13.48l-.06.41a6.71,6.71,0,0,1,.06.81.69.69,0,0,1-.13.34,9.52,9.52,0,0,1,.13,1.09,3.62,3.62,0,0,1-.13.61,2,2,0,0,1,.07.55.49.49,0,0,1,.2.06c.77-1.64,1.22-2.69,1.36-3.12.16,0,.39-.36.68-1,.09,0,.16-.28.21-.82a2.84,2.84,0,0,0,.74-1.7,2.32,2.32,0,0,1-.13-.54,2.44,2.44,0,0,1,.82-.2l.47.07h1.63c.14,0,.21.08.21.26a1.42,1.42,0,0,1-.21.55A13.48,13.48,0,0,0,284,97.59,1.78,1.78,0,0,0,284.7,99a1,1,0,0,0,.49.81v.08s0,.06-.08.06l.48,1.29h.13a3.39,3.39,0,0,1,.14-.67,6,6,0,0,1-.14-.82.51.51,0,0,1,.08-.21l-.08-.4V99a.84.84,0,0,1,.14-.41l-.06-.33c0-.39.06-.68.06-.89-.09-.54-.14-.86-.14-.95a1.2,1.2,0,0,1,.14-.41,2.76,2.76,0,0,0-.14-.75,5.08,5.08,0,0,0,.08-.74v-.61a5.35,5.35,0,0,0-.08-.89,5.72,5.72,0,0,0,.14-.89,2.19,2.19,0,0,0-.55-.94v-.07C285.31,91,285.7,90.87,286.47,90.79Z" transform="translate(-15.75 -9.41)"/><path class="cls-2" d="M303.39,90.77l.41.07a.5.5,0,0,0,.27-.07c.94,0,1.57.09,1.9.14a.84.84,0,0,1,.41-.14h.48c.07,0,.14.12.21.35,0,.06-.16.26-.49.61,0,.15,0,.53.08,1.15l-.08.61.08.41-.14.81a.84.84,0,0,1,.14.41v.21a3.19,3.19,0,0,1-.08.61.53.53,0,0,1,.08.2,4,4,0,0,1-.08.41c0,.06,0,.29.08.69l-.08.47a3.82,3.82,0,0,1,.08.75.78.78,0,0,1-.14.34,5.37,5.37,0,0,1,.14,1,3.31,3.31,0,0,1-.14.68,6,6,0,0,1,.14.82.51.51,0,0,1-.08.21l.08.4v.14a.84.84,0,0,1-.14.41l.06.33q-.06.59-.06.9c.09.53.14.85.14.94a1.2,1.2,0,0,1-.14.41,2.58,2.58,0,0,0,.14.75,5.06,5.06,0,0,0-.08.75v.62a5.43,5.43,0,0,0,.08.88,7.1,7.1,0,0,0-.14.88,2.41,2.41,0,0,0,.55,1V110c0,.11-.39.2-1.16.28l-.41-.08a.5.5,0,0,0-.27.08c-.94,0-1.57-.1-1.91-.14a.84.84,0,0,1-.41.14h-.47c-.08,0-.15-.12-.21-.35a2.17,2.17,0,0,1,.48-.61c0-.15,0-.54-.07-1.16l.07-.61-.07-.41.14-.82a.71.71,0,0,1-.14-.33,7.21,7.21,0,0,1,.14-1.71,1.08,1.08,0,0,1-.14-.47l.07-.41a5.31,5.31,0,0,1-.07-.81l.14-.48V102c0-.07-.07-.13-.2-.21a2.33,2.33,0,0,1-1,.62,2.67,2.67,0,0,1-1.15.61,4.2,4.2,0,0,1-1.3.69,8.82,8.82,0,0,1-2.25,1.22h-.2a.47.47,0,0,1-.07.2,3.12,3.12,0,0,0,.14.75,4.83,4.83,0,0,0-.07.75v.61a5.22,5.22,0,0,0,.07.88,7.76,7.76,0,0,0-.14.89,2.34,2.34,0,0,0,.55.95V110c0,.11-.39.2-1.16.27l-.41-.06a.6.6,0,0,0-.27.06c-.93,0-1.57-.09-1.91-.14a.78.78,0,0,1-.41.14h-.47c-.08,0-.15-.11-.2-.34,0-.07.15-.27.47-.61,0-.16,0-.54-.07-1.15l.07-.62-.07-.4.14-.82a.82.82,0,0,1-.14-.34,7.81,7.81,0,0,1,.14-1.7,1.19,1.19,0,0,1-.14-.49l.07-.4a7.33,7.33,0,0,1-.07-.82,2,2,0,0,0,.14-.41,5.4,5.4,0,0,1-.14-.94,3.37,3.37,0,0,1,.14-.69,5.79,5.79,0,0,1-.14-.82.53.53,0,0,1,.07-.2l-.07-.41V99a.84.84,0,0,1,.14-.41A10.77,10.77,0,0,1,292.7,97l.07-.13a.61.61,0,0,1-.07-.28,1.14,1.14,0,0,1,.14-.54,3.24,3.24,0,0,0-.14-.75,4.83,4.83,0,0,0,.07-.75V93.9a5.3,5.3,0,0,0-.07-.88,5.85,5.85,0,0,0,.14-.88,2.33,2.33,0,0,0-.54-1v-.06c0-.11.38-.2,1.16-.28l.41.07a.46.46,0,0,0,.26-.07c.94,0,1.58.09,1.9.14a.77.77,0,0,1,.41-.14h.49c.08,0,.14.11.2.34a2.17,2.17,0,0,1-.48.61c0,.15,0,.54.07,1.16l-.07.62.07.4-.14.82a.74.74,0,0,1,.14.41v.2a3,3,0,0,1-.07.61.46.46,0,0,1,.07.21,2.92,2.92,0,0,0-.07.41c.05.39.07.62.07.67l-.07.48a3.81,3.81,0,0,1,.07.75.67.67,0,0,1-.14.34,4.51,4.51,0,0,1,.14,1,2.82,2.82,0,0,1-.14.68,2,2,0,0,1,.07.55,12.67,12.67,0,0,0,3-1.57,2.49,2.49,0,0,0,1.09-.47,3,3,0,0,0,1-.62,3.71,3.71,0,0,1,1-.48l-.07-.82V97a.56.56,0,0,0,0-.54,1.15,1.15,0,0,1,.14-.55,3.6,3.6,0,0,0-.14-.74,6.91,6.91,0,0,0,.07-.75v-.62a6.65,6.65,0,0,0-.07-.88,7.44,7.44,0,0,0,.14-.89,2.19,2.19,0,0,0-.55-.94V91C302.23,90.93,302.62,90.84,303.39,90.77Z" transform="translate(-15.75 -9.41)"/><path class="cls-2" d="M316.13,90.77a5.06,5.06,0,0,1,3.43,1.44c.28,0,.71.44,1.3,1.3.19,0,.44.62.76,1.85a5,5,0,0,1,.55,1.78v.28a.84.84,0,0,1-.14.41l.14,1-.07.48.14,1.44-.14.34c0,.85.07,1.56.07,2.13-.17,1.91-.45,3.1-.83,3.56,0,.41-.68,1.23-2,2.47a5.22,5.22,0,0,1-3,1s-.09.06-.27.06a7.74,7.74,0,0,1-2.68-.41,6.1,6.1,0,0,1-3.14-2.67,6.32,6.32,0,0,0-.63-1.51,19.87,19.87,0,0,1-.4-3.22q0-.64.06-2.13a.53.53,0,0,1-.06-.26.13.13,0,0,0,.14-.14c0-.14,0-.21-.08-.21l.08-.68v-.41a4.66,4.66,0,0,0-.14-.89c.32-2.29.59-3.43.82-3.43a3.36,3.36,0,0,1,1-1.44q.65-.53.69-.75a2.69,2.69,0,0,1,1.44-.69c.36-.46,1.27-.69,2.74-.69Zm-3.08,6.45.08.13c-.05.14-.1.21-.14.21l.06.27c0,1.19-.07,1.78-.2,1.78a.57.57,0,0,0,.06.21l-.06.41A12.07,12.07,0,0,1,313,102v.28a.5.5,0,0,1-.08.27.51.51,0,0,1,.08.28s0,.32-.08.89a5.76,5.76,0,0,1,.48,1.44,2.51,2.51,0,0,0,2,1.36H316l.68-.06v.06c.92-.56,1.38-1.11,1.38-1.64a2.13,2.13,0,0,0,.34-1.1l-.07-.28c0-.13.09-.2.13-.2l-.06-.47v-1a.05.05,0,0,1,.06-.06s0-.08-.06-.08a2.08,2.08,0,0,0,.06-.26,4,4,0,0,0-.06-.69c0-.43.06-.84.06-1.24L318.4,99a2.62,2.62,0,0,0,.06-.61v-.14a3.59,3.59,0,0,0-.13-.55v-.55a2.88,2.88,0,0,0-1-2,3,3,0,0,0-1.57-.55v-.07a2.74,2.74,0,0,0-2.4,1.65A9.28,9.28,0,0,0,313.05,97.22Z" transform="translate(-15.75 -9.41)"/><path class="cls-2" d="M343.44,90.79l.41.08a.5.5,0,0,0,.27-.08c.94,0,1.57.1,1.9.14a.8.8,0,0,1,.41-.14h.48c.08,0,.15.12.2.35a2.17,2.17,0,0,1-.48.61c0,.15,0,.53.08,1.15l-.08.61.08.41-.14.82a.78.78,0,0,1,.14.34,8.87,8.87,0,0,1-.14,1.7,1.08,1.08,0,0,1,.14.47l-.08.41a5.49,5.49,0,0,1,.08.81,3.06,3.06,0,0,1-.14.41,5.56,5.56,0,0,1,.14,1,3.59,3.59,0,0,1-.14.68,5.75,5.75,0,0,1,.14.81.51.51,0,0,1-.08.21l.08.4v.13a.78.78,0,0,1-.14.41,11.1,11.1,0,0,1,.14,1.63l-.08.14a.5.5,0,0,1,.08.27,1.12,1.12,0,0,1-.14.55,2.56,2.56,0,0,0,.14.74,5.33,5.33,0,0,0-.08.75v.62a5.33,5.33,0,0,0,.08.88,5.85,5.85,0,0,0-.14.88,2.28,2.28,0,0,0,.54,1V110c0,.11-.38.2-1.16.28l-.4-.08a.5.5,0,0,0-.27.08c-.94,0-1.58-.1-1.9-.14a.84.84,0,0,1-.41.14h-.49s-.06,0-.06-.08l-.14.08H342q-.1,0-.21-.21v-.2c.14-.27.28-.41.41-.41a18.06,18.06,0,0,0-1.29-3.13,10.71,10.71,0,0,1-.81-1.77,4.76,4.76,0,0,1-.62-1.35,7.58,7.58,0,0,1-.81-1.63c-.19-.53-.28-.8-.28-.82h-.07a4.54,4.54,0,0,0-.81,1.7,1.28,1.28,0,0,0-.27.67c-.17,0-.31.23-.41.69l.06.13a15.92,15.92,0,0,0-.74,1.63,3.46,3.46,0,0,0-.89,1.7c-.18.11-.34.52-.47,1.22-.12.31-.23.56-.33.76v.06l.39.61-.2.35-.33-.08-.14.08-.13-.08-1,.14-.41-.06a.61.61,0,0,0-.28.06c-.93,0-1.56-.09-1.9-.14a.84.84,0,0,1-.41.14h-.47c-.08,0-.15-.11-.21-.34,0-.07.16-.27.48-.61,0-.16,0-.54-.07-1.15l.07-.62-.07-.4.14-.82a.84.84,0,0,1-.14-.41v-.2a3.16,3.16,0,0,1,.07-.62.4.4,0,0,1-.07-.2,3.19,3.19,0,0,1,.07-.41s0-.28-.07-.67l.07-.48a3.81,3.81,0,0,1-.07-.75.78.78,0,0,1,.14-.34,5.29,5.29,0,0,1-.14-1,3.5,3.5,0,0,1,.14-.69,5.79,5.79,0,0,1-.14-.82.47.47,0,0,1,.07-.2l-.07-.41V99a.84.84,0,0,1,.14-.41l-.07-.34a7.27,7.27,0,0,0,.07-.88c-.09-.54-.14-.86-.14-1a1.17,1.17,0,0,1,.14-.4,3.76,3.76,0,0,0-.14-.75,6.5,6.5,0,0,0,.07-.75v-.61a6.65,6.65,0,0,0-.07-.88,7.4,7.4,0,0,0,.14-.88,2.34,2.34,0,0,0-.55-1v-.06c0-.11.39-.2,1.16-.27l.41.06a.6.6,0,0,0,.27-.06c.94,0,1.57.08,1.9.13a.81.81,0,0,1,.41-.13h.47q.12,0,.21.33c0,.07-.16.27-.48.61,0,.15,0,.54.07,1.16l-.07.62.07.4-.13.81a.77.77,0,0,1,.13.34,8.39,8.39,0,0,1-.13,1.7,1.15,1.15,0,0,1,.13.48l-.07.41a5.31,5.31,0,0,1,.07.81.69.69,0,0,1-.13.34,9.52,9.52,0,0,1,.13,1.09,3.62,3.62,0,0,1-.13.61,2.51,2.51,0,0,1,.06.55.57.57,0,0,1,.21.06c.76-1.64,1.22-2.69,1.35-3.12q.26,0,.69-1c.09,0,.15-.28.2-.82a2.78,2.78,0,0,0,.74-1.7,2.7,2.7,0,0,1-.12-.54,2.43,2.43,0,0,1,.81-.2l.47.07h1.64c.13,0,.2.08.2.26a1.53,1.53,0,0,1-.2.55A13.86,13.86,0,0,0,341,97.59a1.79,1.79,0,0,0,.68,1.36,1,1,0,0,0,.48.81v.08s0,.06-.07.06l.48,1.29h.13a3.39,3.39,0,0,1,.14-.67,6,6,0,0,1-.14-.82.46.46,0,0,1,.07-.21l-.07-.4V99a.84.84,0,0,1,.14-.41l-.07-.33a7.27,7.27,0,0,0,.07-.89c-.09-.54-.14-.86-.14-.95a1.2,1.2,0,0,1,.14-.41,3.24,3.24,0,0,0-.14-.75,4.82,4.82,0,0,0,.07-.74v-.61a5.34,5.34,0,0,0-.07-.89,7.44,7.44,0,0,0,.14-.89,2.29,2.29,0,0,0-.55-.94v-.07C342.28,91,342.67,90.87,343.44,90.79Z" transform="translate(-15.75 -9.41)"/><path class="cls-2" d="M349.4,90.77a1.67,1.67,0,0,1,.47.07c.69,0,1.25-.07,1.71-.07h.27a4.73,4.73,0,0,1,.75.07.63.63,0,0,1,.35-.07l.47.07a5,5,0,0,1,.75-.07,3.86,3.86,0,0,0,.82.14,2.77,2.77,0,0,1,.55-.14l.47.07c.09,0,.14,0,.14-.07.56,0,1.81.09,3.75.14.09.32.16.47.2.47l-.14,1.3a2.29,2.29,0,0,1,.14.82l-.06.34a4.18,4.18,0,0,1,.06.68v.27c0,.07-.07.14-.2.2h-.14c-.37-.35-.59-.53-.68-.53s-.28.08-.28.13l-.33-.07a2,2,0,0,0-.55.07l-.41-.07-.48.07a.76.76,0,0,0-.41-.13h-.27c-.31,0-.47.05-.47.13a9.87,9.87,0,0,0-1.44-.13l-.33.06a.82.82,0,0,0-.35-.06c0,.08,0,.13-.14.13l.14,1.7a1.59,1.59,0,0,0-.14.62,6.58,6.58,0,0,0,.14,1l-.14,2.66a.46.46,0,0,1,.21.07c0-.15.66-.52,2-1.1a1.59,1.59,0,0,0,.69-.4,2.6,2.6,0,0,0,1.16-.68A5.85,5.85,0,0,1,359,97.8h.2c.1,0,.17.11.2.33a.84.84,0,0,0-.14.41v2.66l.14.48c-.17.4-.29.61-.34.61h-.14c-.28-.32-.49-.47-.61-.47,0,.17-.33.38-1,.61a2.57,2.57,0,0,1-1.16.61,10.91,10.91,0,0,1-1.9,1,1.36,1.36,0,0,1-.61.34.07.07,0,0,1-.08.08l.08.68v.61l-.08.81.14.08a6.33,6.33,0,0,1,.88-.14l.35.06.34-.06.61.06q.21-.06.21-.12l1.36.2c1.41-.11,2.12-.27,2.12-.48l.2-.13h.07c.13,0,.2.18.2.41v.94a2,2,0,0,0,.07.55c-.05,1.09-.12,1.64-.21,1.64l.08.13V110c0,.18-.37.27-1.1.27a2.77,2.77,0,0,1-.75-.07,10.62,10.62,0,0,1-1.23.07h-.54c-.71,0-1.44,0-2.18-.07a4.28,4.28,0,0,1-.88.07l-.41-.07a.63.63,0,0,0-.21.07l-.61-.07-1.36.07c-.62,0-1.07-.07-1.37-.07l-.07-.13v-.14a2.47,2.47,0,0,0,.54-1.16c0-.53-.06-.92-.06-1.16h.06c0-.23-.09-.34-.13-.34l.07-.69v-1.83a3.93,3.93,0,0,0-.07-.61,3.23,3.23,0,0,0,.13-.9.75.75,0,0,1-.13-.4l.13-.48a1.71,1.71,0,0,0-.13-.75,1.12,1.12,0,0,0,.13-.55,28.3,28.3,0,0,0-.13-2.85,4.48,4.48,0,0,0,.07-.55c0-.09,0-.5-.07-1.23a6.93,6.93,0,0,1,.13-.75,2.91,2.91,0,0,0-.13-.69c0-1.2.11-2.15.2-2.85a2.21,2.21,0,0,0-.68-1A.84.84,0,0,1,349.4,90.77Z" transform="translate(-15.75 -9.41)"/><path class="cls-2" d="M368.74,90.77a6.94,6.94,0,0,1,.75.14,3.07,3.07,0,0,1,.61-.07h.35a.44.44,0,0,1,.26.07,1.75,1.75,0,0,1,.55-.14c.18,0,.27.08.27.14l.89-.14,1.16.14.55-.14a8.1,8.1,0,0,0,1.71.41c0,.22.25.35.75.41,1.05.92,1.57,1.56,1.57,1.91a4.88,4.88,0,0,1,.82,3.15,8.5,8.5,0,0,1-.41,2.52v.48a3.8,3.8,0,0,1-.62,1.09,2.06,2.06,0,0,1-.61,1.16,5.43,5.43,0,0,0-1.23,1.1,9.16,9.16,0,0,1,.95,2,5.87,5.87,0,0,1,1,2c.1,0,.31.43.62,1.23l.74,1.37c.19.06.28.13.28.2v.27a.12.12,0,0,1-.14.14,3.9,3.9,0,0,1-.54-.06l-.34.06-1.5-.14-1.65.14-.34-.06a2.23,2.23,0,0,1-.47.06.84.84,0,0,1-.14-.41c.32-.17.48-.37.48-.61v-.07a18.38,18.38,0,0,1-1.64-3.55c-.09,0-.18-.18-.27-.55l-.14-.06a11.9,11.9,0,0,1-1.44.88s0,.07-.06.07a11.39,11.39,0,0,1,.14,1.84c0,.19,0,.6-.08,1.24a2.16,2.16,0,0,0,.55.81V110q0,.27-1,.27a4,4,0,0,1-.67-.06l-.28.06a6.14,6.14,0,0,0-.76-.06l-.75.06-.27-.06a4,4,0,0,1-.68.06h-.34a.13.13,0,0,1-.14-.14,1.06,1.06,0,0,1,.55-.88l-.14-.34.14-1.3a.84.84,0,0,1-.14-.41c0-.27.06-.41.14-.41a3,3,0,0,1-.07-.55,7.41,7.41,0,0,1,.07-.89c-.09-.44-.14-.69-.14-.75,0-.24.05-1,.14-2.39-.11-1.41-.17-2.18-.2-2.32a7.38,7.38,0,0,0,.13-1.43l-.13-.27a1.27,1.27,0,0,0,.13-.55v-.35l-.07-.4a1,1,0,0,0,.14-.55.84.84,0,0,1-.14-.41c0-.57,0-1.28.07-2.12l-.13-.81a.92.92,0,0,0,.13-.41v-.48a3.05,3.05,0,0,0-.48-1.1V91c0-.1.06-.14.14-.14h.68A3.44,3.44,0,0,0,368.74,90.77Zm2.79,3.83v.2a2.51,2.51,0,0,0,.14.61l-.14.35.14.89a8.35,8.35,0,0,0-.14,1.36l.14.27-.14,1a7.2,7.2,0,0,1,.14,1c-.09,0-.14.06-.14.13v.14l.08.34h.06a6.94,6.94,0,0,0,2.6-2.26,4.74,4.74,0,0,0,.61-1.36c0-1.36-.41-2.18-1.16-2.46a2.64,2.64,0,0,0-1.16-.34h-.48a.5.5,0,0,1-.27-.07C371.62,94.46,371.53,94.53,371.53,94.6Z" transform="translate(-15.75 -9.41)"/><path class="cls-2" d="M381.41,90.77a1.79,1.79,0,0,1,.48.07c.68,0,1.25-.07,1.7-.07h.27a4.84,4.84,0,0,1,.76.07.59.59,0,0,1,.34-.07l.47.07a5,5,0,0,1,.75-.07,4,4,0,0,0,.82.14,3,3,0,0,1,.55-.14l.47.07c.09,0,.14,0,.14-.07.56,0,1.81.09,3.75.14.09.32.16.47.2.47l-.14,1.3a2.29,2.29,0,0,1,.14.82l-.06.34a4.18,4.18,0,0,1,.06.68v.27c0,.07-.06.14-.2.2h-.14c-.37-.35-.59-.53-.68-.53s-.28.08-.28.13l-.33-.07a2,2,0,0,0-.55.07l-.41-.07-.48.07a.76.76,0,0,0-.41-.13h-.27c-.31,0-.47.05-.47.13a9.87,9.87,0,0,0-1.44-.13l-.33.06a.77.77,0,0,0-.34-.06.12.12,0,0,1-.14.13l.14,1.7a1.43,1.43,0,0,0-.14.62,5.37,5.37,0,0,0,.14,1l-.14,2.66a.43.43,0,0,1,.2.07c0-.15.66-.52,2-1.1a1.63,1.63,0,0,0,.68-.4,2.55,2.55,0,0,0,1.16-.68A5.85,5.85,0,0,1,391,97.8h.2q.15,0,.21.33a.74.74,0,0,0-.14.41v2.66l.14.48c-.18.4-.3.61-.35.61H391c-.28-.32-.49-.47-.61-.47,0,.17-.33.38-1,.61a2.53,2.53,0,0,1-1.16.61,10.91,10.91,0,0,1-1.9,1,1.3,1.3,0,0,1-.61.34s0,.08-.07.08l.07.68v.61l-.07.81.14.08a6.12,6.12,0,0,1,.88-.14l.34.06.34-.06.62.06c.13,0,.2-.08.2-.12l1.36.2c1.42-.11,2.12-.27,2.12-.48l.21-.13h.06c.14,0,.2.18.2.41v.94a2.43,2.43,0,0,0,.07.55c-.05,1.09-.12,1.64-.21,1.64l.08.13V110c0,.18-.37.27-1.1.27a2.87,2.87,0,0,1-.75-.07,10.58,10.58,0,0,1-1.22.07h-.55c-.71,0-1.44,0-2.18-.07a4.22,4.22,0,0,1-.88.07l-.41-.07a.63.63,0,0,0-.21.07l-.61-.07-1.36.07c-.62,0-1.07-.07-1.37-.07l-.07-.13v-.14a2.52,2.52,0,0,0,.55-1.16c-.05-.53-.07-.92-.07-1.16h.07c-.05-.23-.09-.34-.14-.34l.07-.69v-1.83a3,3,0,0,0-.07-.61,3,3,0,0,0,.14-.9.69.69,0,0,1-.14-.4l.14-.48a1.7,1.7,0,0,0-.14-.75,1.12,1.12,0,0,0,.14-.55,28.18,28.18,0,0,0-.14-2.85,3.09,3.09,0,0,0,.07-.55c0-.09,0-.5-.07-1.23a5.79,5.79,0,0,1,.14-.75,2.73,2.73,0,0,0-.14-.69c.05-1.2.12-2.15.2-2.85a2.21,2.21,0,0,0-.68-1A.84.84,0,0,1,381.41,90.77Z" transform="translate(-15.75 -9.41)"/><path class="cls-2" d="M400,90.84c0,.09.07.14.2.14l.41-.07a.5.5,0,0,1,.27.07c.5,0,.93-.07,1.29-.07,1.13,0,1.7.09,1.7.27a2.92,2.92,0,0,0-.41.68,21.14,21.14,0,0,1,.88,3.32,28.07,28.07,0,0,1,.88,3.19,12.11,12.11,0,0,1,.55,2.17c.09,0,.14.09.14.28l-.08.26a18.61,18.61,0,0,1,1,3.06c.08,0,.15.29.2.88q.15,0,.48,1.56a.46.46,0,0,0-.07.21,11.08,11.08,0,0,1,.47,1.49c.09,0,.13,0,.13.13V109c0,.19.25.51.76.94-.09.21-.18.33-.27.35l-.41-.08-.35.08c-.4,0-.64-.08-.74-.08l-.95.08c0-.1-.07-.14-.21-.14a2.51,2.51,0,0,1-.61.14H404q-.1,0-.21-.21v-.2c.41-.28.62-.48.62-.61-.18,0-.38-.68-.62-2a4.29,4.29,0,0,1-.4-1.29c-.1,0-.14-.05-.14-.13l.07-.47-.14-.08a6.82,6.82,0,0,1-1.84,1.49,12.2,12.2,0,0,1-2.23,1.77,2.33,2.33,0,0,1-.88.75v.06c0,.16.13.36.41.61V110c0,.09-.23.16-.68.21a1.39,1.39,0,0,0-.48-.14.8.8,0,0,1-.41.14h-.6a3.4,3.4,0,0,1-.69-.08,1.84,1.84,0,0,1-.47.08l-.48-.08a.61.61,0,0,1-.34.14c-.49-.1-.74-.19-.74-.27v-.28c.41-.21.61-.41.61-.6a11.93,11.93,0,0,1,.47-1.69,6.52,6.52,0,0,1,.48-1.84,10.37,10.37,0,0,1,.47-1.76,15.93,15.93,0,0,1,.69-2.31l-.08-.48c.19,0,.48-1,.88-3a14.58,14.58,0,0,0,.82-2.78c.09,0,.16-.27.2-.81.06,0,.2-.37.41-1.09l-.06-.14v-.06a11.39,11.39,0,0,1,.47-1.43c-.32-.3-.47-.48-.47-.54s.13-.27.2-.27H399A9.75,9.75,0,0,0,400,90.84Zm1.15,7v.27a8.07,8.07,0,0,1-.47,1.78l.07.12a3.28,3.28,0,0,0-.34,1.37c-.24,1-.42,1.56-.55,1.56v.12h.21c0-.19.56-.62,1.69-1.28l.55-.4v-.08a2.69,2.69,0,0,1-.41-1.35,8.57,8.57,0,0,1-.55-2.11Z" transform="translate(-15.75 -9.41)"/><path class="cls-2" d="M412,90.77l1.09.07a15.24,15.24,0,0,1,1.57-.07q.69.15.69.27v.08a2.29,2.29,0,0,0-.55.95,2.71,2.71,0,0,0,.14.82,7.86,7.86,0,0,0-.08,1v.62a5.06,5.06,0,0,0,.08.75,2.58,2.58,0,0,0-.14.75,1.19,1.19,0,0,1,.14.48,9.27,9.27,0,0,0-.14,1c0,.11,0,.36.06.76a2.16,2.16,0,0,0-.06.47.14.14,0,0,1,.14.14,3.38,3.38,0,0,1-.08.55c.05.23.08.37.08.4a7.77,7.77,0,0,0-.14,1,.84.84,0,0,1,.14.41v.07c0,.06-.05.42-.14,1.09.09.29.14.45.14.48l-.14.35.14.88-.08.41a.61.61,0,0,0,.08.34l-.14,1.71.2.14a.5.5,0,0,0,.27-.08l.35.08a6.75,6.75,0,0,0,1.36-.14,1.12,1.12,0,0,0,.55.14h.28a.8.8,0,0,0,.4-.14l.55.06.34-.06a2.42,2.42,0,0,0,.54.06.64.64,0,0,0,.28-.06l.34.14c.08,0,.31-.19.68-.55h.14c.07,0,.14.07.21.2v.27a3.4,3.4,0,0,1-.08.69l.08.41a3,3,0,0,1-.14.75l.14,1.22-.21.55c-2.07.06-3.3.11-3.69.14a.57.57,0,0,0-.21-.06,3.9,3.9,0,0,1-.54.06,2.66,2.66,0,0,0-.62-.14,5.84,5.84,0,0,1-.75.14l-.68-.06a3.9,3.9,0,0,1-.54.06.64.64,0,0,1-.28-.06,6.15,6.15,0,0,1-.74.06h-.28q-.69,0-1.71-.06a2.23,2.23,0,0,1-.47.06.74.74,0,0,1-.14-.41,3.45,3.45,0,0,0,.68-.89c-.09-.79-.16-1.75-.21-2.87l.14-.67-.14-.89c.05-.64.07-1,.07-1.23l-.07-.42c.09-.91.14-1.93.14-3.07a1.36,1.36,0,0,0-.14-.41,1.7,1.7,0,0,0,.14-.75,5.2,5.2,0,0,0-.14-.54,3.47,3.47,0,0,1,.14-.42c0-.5-.08-.75-.14-.75l.07-.68V94.46a3.16,3.16,0,0,0-.07-.62c.05-.22.1-.34.14-.34l-.07-.13c0-.16,0-.55.07-1.17a2.59,2.59,0,0,0-.55-1.08V91c0-.1.06-.14.14-.14C410.84,90.84,411.29,90.82,412,90.77Z" transform="translate(-15.75 -9.41)"/><path class="cls-2" d="M423.82,90.77a1.2,1.2,0,0,1,.41.14.53.53,0,0,0,.28-.07c.59,0,1.07.07,1.43.07a6.64,6.64,0,0,0,1.1-.14.79.79,0,0,1,.75.41v.14l-.14.47a7.08,7.08,0,0,1,1,1.91c.14,0,.32.43.55,1.16q.3,0,1,1.92h.14a7.43,7.43,0,0,1,1.1-2.12,5.3,5.3,0,0,1,.61-1.29,6.15,6.15,0,0,1,.82-1.58,1.25,1.25,0,0,1-.07-.27c.14-.5.36-.75.68-.75a6.52,6.52,0,0,0,1.1.14c.4,0,.85,0,1.36-.07l.34.07a1.11,1.11,0,0,1,.48-.14c.58.17.88.28.89.35-.82.66-1.23,1.23-1.23,1.7q-1.61,3.18-2.19,4.71a4.51,4.51,0,0,0-.81,1.78,9.71,9.71,0,0,0-1,1.91c-.09.18-.16.27-.2.27l.06.48v.14a.78.78,0,0,1-.13.4l.07.35a7.13,7.13,0,0,0-.07.89,9.49,9.49,0,0,1,.13,1,1.12,1.12,0,0,1-.13.41,3.9,3.9,0,0,0,.13.75,6.14,6.14,0,0,0-.06.76v.61a6.77,6.77,0,0,0,.06.89,6.55,6.55,0,0,0-.13.88,2.33,2.33,0,0,0,.54,1V110c0,.1-.38.19-1.16.27l-.41-.06a.57.57,0,0,0-.27.06c-.94,0-1.58-.09-1.92-.14a.77.77,0,0,1-.4.14H428c-.08,0-.14-.11-.2-.34,0-.07.16-.27.47-.61,0-.16,0-.54-.06-1.16l.06-.62-.06-.41.14-.82a.67.67,0,0,1-.14-.34,7.16,7.16,0,0,1,.14-1.7,1.05,1.05,0,0,1-.14-.49l.06-.41a6.71,6.71,0,0,1-.06-.81,3.06,3.06,0,0,0,.14-.41,14.27,14.27,0,0,0-1.17-2.87,7.65,7.65,0,0,1-.41-1,9.44,9.44,0,0,1-1.16-2.52,14.57,14.57,0,0,1-1.23-2.46c-.1,0-.26-.4-.48-1.16a6.15,6.15,0,0,0-1-1C422.87,91,423.19,90.92,423.82,90.77Z" transform="translate(-15.75 -9.41)"/><path class="cls-2" d="M450.93,90.84c0,.09.07.14.2.14l.41-.07a.5.5,0,0,1,.27.07,12.75,12.75,0,0,1,1.29-.07c1.13,0,1.69.09,1.69.27a2.68,2.68,0,0,0-.4.68,22.47,22.47,0,0,1,.88,3.32,30.36,30.36,0,0,1,.88,3.19,13,13,0,0,1,.55,2.17c.09,0,.14.09.14.28l-.08.26a19.73,19.73,0,0,1,1,3.06c.08,0,.14.29.2.88.1,0,.26.52.47,1.56a.57.57,0,0,0-.06.21,11.08,11.08,0,0,1,.47,1.49c.09,0,.13,0,.13.13V109c0,.19.25.51.75.94-.08.21-.17.33-.27.35l-.4-.08-.35.08-.74-.08-1,.08c0-.1-.06-.14-.2-.14a2.61,2.61,0,0,1-.61.14h-1.22c-.06,0-.13-.07-.2-.21v-.2c.41-.28.61-.48.61-.61-.17,0-.37-.68-.61-2a4.17,4.17,0,0,1-.41-1.29.12.12,0,0,1-.14-.13l.08-.47-.14-.08a7,7,0,0,1-1.84,1.49,12.2,12.2,0,0,1-2.23,1.77,2.42,2.42,0,0,1-.88.75v.06c0,.16.13.36.4.61V110c0,.09-.22.16-.67.21a1.37,1.37,0,0,0-.49-.14.77.77,0,0,1-.4.14h-.61a3.39,3.39,0,0,1-.68-.08,1.84,1.84,0,0,1-.48.08l-.47-.08a.64.64,0,0,1-.34.14c-.5-.1-.74-.19-.74-.27v-.28c.4-.21.61-.41.61-.6a11.93,11.93,0,0,1,.47-1.69,6.75,6.75,0,0,1,.47-1.84,11,11,0,0,1,.48-1.76,16.64,16.64,0,0,1,.68-2.31l-.07-.48c.18,0,.48-1,.88-3a14.58,14.58,0,0,0,.82-2.78c.09,0,.16-.27.2-.81a3.42,3.42,0,0,0,.41-1.09l-.07-.14v-.06a12.71,12.71,0,0,1,.48-1.43q-.48-.45-.48-.54.1-.27.21-.27h.13A9.75,9.75,0,0,0,450.93,90.84Zm1.15,7v.27a8.1,8.1,0,0,1-.48,1.78l.08.12a3.28,3.28,0,0,0-.34,1.37c-.24,1-.42,1.56-.55,1.56v.12h.2c0-.19.57-.62,1.7-1.28l.55-.4v-.08a2.6,2.6,0,0,1-.41-1.35,8.57,8.57,0,0,1-.55-2.11Z" transform="translate(-15.75 -9.41)"/><path class="cls-2" d="M462.8,90.77a6.94,6.94,0,0,1,.75.14,3.07,3.07,0,0,1,.61-.07h.35a.46.46,0,0,1,.26.07,1.75,1.75,0,0,1,.55-.14c.18,0,.27.08.27.14l.89-.14,1.16.14.55-.14a8,8,0,0,0,1.71.41c0,.22.25.35.75.41,1.05.92,1.57,1.56,1.57,1.91a4.88,4.88,0,0,1,.81,3.15,8.48,8.48,0,0,1-.4,2.52v.48a3.8,3.8,0,0,1-.62,1.09,2.12,2.12,0,0,1-.61,1.16,5.2,5.2,0,0,0-1.23,1.1,9.16,9.16,0,0,1,.95,2,5.87,5.87,0,0,1,1,2c.1,0,.31.43.62,1.23l.74,1.37c.19.06.28.13.28.2v.27a.12.12,0,0,1-.14.14,4.16,4.16,0,0,1-.55-.06l-.33.06-1.5-.14-1.65.14-.34-.06a2.23,2.23,0,0,1-.47.06.74.74,0,0,1-.14-.41c.32-.17.48-.37.48-.61v-.07a18.38,18.38,0,0,1-1.64-3.55c-.09,0-.18-.18-.27-.55l-.14-.06a11.9,11.9,0,0,1-1.44.88s0,.07-.06.07a11.39,11.39,0,0,1,.14,1.84c0,.19,0,.6-.08,1.24a2.16,2.16,0,0,0,.55.81V110q0,.27-1,.27a4,4,0,0,1-.67-.06l-.28.06a6.14,6.14,0,0,0-.76-.06l-.75.06-.27-.06a4,4,0,0,1-.68.06h-.34a.13.13,0,0,1-.14-.14,1.06,1.06,0,0,1,.55-.88l-.14-.34.14-1.3a.84.84,0,0,1-.14-.41c0-.27.06-.41.14-.41a3,3,0,0,1-.07-.55,7.41,7.41,0,0,1,.07-.89c-.09-.44-.14-.69-.14-.75,0-.24.05-1,.14-2.39-.11-1.41-.17-2.18-.2-2.32a7.38,7.38,0,0,0,.13-1.43l-.13-.27a1.27,1.27,0,0,0,.13-.55v-.35l-.07-.4a1.15,1.15,0,0,0,.14-.55.84.84,0,0,1-.14-.41c0-.57,0-1.28.07-2.12l-.13-.81a.92.92,0,0,0,.13-.41v-.48a3.05,3.05,0,0,0-.48-1.1V91c0-.1.06-.14.14-.14h.68A3.51,3.51,0,0,0,462.8,90.77Zm2.79,3.83v.2a2.51,2.51,0,0,0,.14.61l-.14.35.14.89a8.35,8.35,0,0,0-.14,1.36l.14.27-.14,1a7.2,7.2,0,0,1,.14,1c-.09,0-.14.06-.14.13v.14l.08.34h.06a6.94,6.94,0,0,0,2.6-2.26,5,5,0,0,0,.61-1.36c0-1.36-.41-2.18-1.16-2.46a2.64,2.64,0,0,0-1.16-.34h-.48a.5.5,0,0,1-.27-.07C465.68,94.46,465.59,94.53,465.59,94.6Z" transform="translate(-15.75 -9.41)"/><path class="cls-2" d="M475.47,90.77a1.79,1.79,0,0,1,.48.07c.68,0,1.25-.07,1.7-.07h.27a4.63,4.63,0,0,1,.75.07.66.66,0,0,1,.35-.07l.47.07a5,5,0,0,1,.75-.07,4,4,0,0,0,.82.14,3,3,0,0,1,.55-.14l.47.07c.09,0,.14,0,.14-.07.56,0,1.81.09,3.75.14.09.32.16.47.2.47l-.14,1.3a2.29,2.29,0,0,1,.14.82l-.06.34a4.18,4.18,0,0,1,.06.68v.27c0,.07-.07.14-.2.2h-.14c-.37-.35-.59-.53-.68-.53s-.28.08-.28.13l-.33-.07a2,2,0,0,0-.55.07l-.41-.07-.48.07a.76.76,0,0,0-.41-.13h-.27c-.31,0-.47.05-.47.13a9.87,9.87,0,0,0-1.44-.13l-.33.06a.82.82,0,0,0-.35-.06c0,.08,0,.13-.14.13l.14,1.7a1.59,1.59,0,0,0-.14.62,6.58,6.58,0,0,0,.14,1l-.14,2.66a.46.46,0,0,1,.21.07c0-.15.66-.52,2-1.1a1.63,1.63,0,0,0,.68-.4,2.6,2.6,0,0,0,1.16-.68,5.85,5.85,0,0,1,1.37-.61h.2q.15,0,.21.33a.74.74,0,0,0-.14.41v2.66l.14.48c-.18.4-.3.61-.35.61H485c-.28-.32-.49-.47-.61-.47,0,.17-.33.38-1,.61a2.53,2.53,0,0,1-1.16.61,10.91,10.91,0,0,1-1.9,1,1.36,1.36,0,0,1-.61.34.07.07,0,0,1-.08.08l.08.68v.61l-.08.81.14.08a6.39,6.39,0,0,1,.89-.14l.34.06.34-.06.61.06q.21-.06.21-.12l1.36.2c1.41-.11,2.12-.27,2.12-.48l.2-.13H486c.13,0,.2.18.2.41v.94a2,2,0,0,0,.07.55c-.05,1.09-.12,1.64-.21,1.64l.08.13V110c0,.18-.37.27-1.1.27a2.87,2.87,0,0,1-.75-.07,10.58,10.58,0,0,1-1.22.07h-.55c-.71,0-1.44,0-2.18-.07a4.22,4.22,0,0,1-.88.07l-.41-.07a.63.63,0,0,0-.21.07l-.61-.07-1.36.07c-.62,0-1.07-.07-1.37-.07l-.07-.13v-.14a2.52,2.52,0,0,0,.55-1.16c-.05-.53-.07-.92-.07-1.16H476c-.05-.23-.09-.34-.14-.34l.07-.69v-1.83a3,3,0,0,0-.07-.61,3,3,0,0,0,.14-.9.69.69,0,0,1-.14-.4l.14-.48a1.7,1.7,0,0,0-.14-.75,1.12,1.12,0,0,0,.14-.55,28.18,28.18,0,0,0-.14-2.85,3.09,3.09,0,0,0,.07-.55c0-.09,0-.5-.07-1.23a5.79,5.79,0,0,1,.14-.75,2.73,2.73,0,0,0-.14-.69c.05-1.2.11-2.15.2-2.85a2.21,2.21,0,0,0-.68-1A.84.84,0,0,1,475.47,90.77Z" transform="translate(-15.75 -9.41)"/></svg>