<svg id="Calque_1" data-name="Calque 1" xmlns="http://www.w3.org/2000/svg" viewBox="0 0 490.08 96.68"><defs><style>.cls-1{fill:#e61f52;}.cls-2{fill:#f6f6f6;}</style></defs><path class="cls-1" d="M16.09,17.69q0,1.13,6.65,6.29,6.82,3.64,8.73,3.65a.81.81,0,0,0,.71-.85q0-1-3.35-3C26.28,21.65,25,20.43,25,20.12V20h.17A16.83,16.83,0,0,0,32,22.76l.88-.17a3.75,3.75,0,0,1,1.41.51l1-.17c0,.28.46.45,1.39.51.24,0,.88-.06,1.92-.17.61.11,1,.17,1,.17a8.23,8.23,0,0,1,1.39-.17,1.24,1.24,0,0,1,.54.17l1-.17h.17a5.17,5.17,0,0,0,1.39.71,1.4,1.4,0,0,0,.54-.17,33.42,33.42,0,0,1,6.09,1.38,1.49,1.49,0,0,1,.71-.17,19.51,19.51,0,0,1,4.36,3c1,0,2.08.81,3.31,2.43,0,.46.59.92,1.76,1.39,2.11,2.15,3.27,3.79,3.48,4.9q.42.16,2.63,4.53c0,.55.47,3.23,1.39,8v1.05c-.28.38-.57,1.89-.88,4.53a.15.15,0,0,0-.17.17l.34.71-1.21,2.63a12.24,12.24,0,0,0-1.22,3.32,21.4,21.4,0,0,1-4.53,5.41,8.46,8.46,0,0,1-1.76,2.43q-1.81,1.11-4.36,3a9.24,9.24,0,0,1-3,.87A7.33,7.33,0,0,1,46.82,75c0,.25-.69.37-2.07.37H43a1.23,1.23,0,0,1-.7.34,9.45,9.45,0,0,1-1.39-.17,9.6,9.6,0,0,1-1.39.17l-.71-.34a27.89,27.89,0,0,1-3,.34,1.4,1.4,0,0,1-.51-.17,6.54,6.54,0,0,1-.71.17,31.4,31.4,0,0,0-3.14-.17l-.54-.71a7.15,7.15,0,0,0,1.59-3.14,34.33,34.33,0,0,0-.34-4.19,15,15,0,0,0,.17-1.93V61a15,15,0,0,0-.17-1.93,7.93,7.93,0,0,0,.34-2.26,2,2,0,0,1-.34-1l.34-1.22v-.17a4.46,4.46,0,0,0-.34-1.92l.17-.88A7.84,7.84,0,0,1,32,49.8c0-.19.06-.88.2-2.09a16.35,16.35,0,0,0-3-7.14,26.14,26.14,0,0,1-4.9-5.41v-.54Q28.7,38,30.93,39.35h.54L32,39q0-2.7-3.83-4.71-6.64-4.92-8.38-8.55c-.43,0-1.66-2.09-3.68-6.29l-.34-1.58Zm7.7,16.06.17.36v.17h-.17a.33.33,0,0,1-.37-.36Zm19-.34c.12,2.37.23,4,.34,4.9a9.62,9.62,0,0,0-.51,2.09,7,7,0,0,1,.51,2.27,22.11,22.11,0,0,1-.34,2.43A14.82,14.82,0,0,1,43,47.37c0,.47-.11.71-.34.71l.17.34a1.17,1.17,0,0,1-.17.53l.51,3.49L43,54.19a14.46,14.46,0,0,1,.17,2.27l-.34,1A1.4,1.4,0,0,0,43,58c-.11,1.28-.22,1.92-.34,1.92a1.9,1.9,0,0,1,.34.88c-.11,2.44-.17,4.12-.17,5.07h.68a13,13,0,0,1,2.64-.71c0-.23.22-.34.68-.34l.37.17a14.66,14.66,0,0,0,3.14-1.58l1.22-1c2.9-2,4.36-3.71,4.36-5.24,1.28-.91,1.92-2.82,1.92-5.75q.31,0,.51-1.59a9.26,9.26,0,0,0-1.21-5q0-2.2-5.58-8.21c-3.48-2.1-6.22-3.14-8.22-3.14Z" transform="translate(-15.75 -17.69)"/><path class="cls-2" d="M75.79,24.26c.09,0,.45.06,1.08.17a1.45,1.45,0,0,0,.7-.17c2.48.11,4.16.23,5,.37a2.08,2.08,0,0,1,1.08-.37h1.25c.2,0,.38.3.53.9a5.61,5.61,0,0,1-1.24,1.62c0,.4,0,1.41.17,3.06l-.17,1.61.17,1.08-.34,2.15a2.31,2.31,0,0,1,.34,1.08v.53a9.91,9.91,0,0,1-.17,1.62,1.4,1.4,0,0,1,.17.54c0,.09-.06.45-.17,1.07,0,.15,0,.76.17,1.82l-.17,1.24a11.67,11.67,0,0,1,.17,2,2,2,0,0,1-.34.88,15.19,15.19,0,0,1,.34,2.72,9.57,9.57,0,0,1-.34,1.78,16.79,16.79,0,0,1,.34,2.16,1.4,1.4,0,0,1-.17.54l.17,1.07v.37a2.31,2.31,0,0,1-.34,1.08l.17.9c-.11,1-.17,1.8-.17,2.32.22,1.44.34,2.28.34,2.52A3.4,3.4,0,0,1,84.06,62a8.5,8.5,0,0,0,.34,2,14,14,0,0,0-.17,2v1.64a15.37,15.37,0,0,0,.17,2.32,19.54,19.54,0,0,0-.34,2.32,6.38,6.38,0,0,0,1.41,2.53v.19c0,.27-1,.5-3,.71-.64-.11-1-.17-1.1-.17a1.52,1.52,0,0,0-.71.17c-2.47-.11-4.15-.23-5-.37a2,2,0,0,1-1.08.37H73.27q-.31,0-.54-.9A5.77,5.77,0,0,1,74,73.11c0-.4-.06-1.42-.17-3.06L74,68.44l-.17-1.08.36-2.15a1.88,1.88,0,0,1-.36-.91q.16-4.47.36-4.47a3,3,0,0,1-.36-1.28L74,57.48a15.19,15.19,0,0,1-.17-2.15,7.62,7.62,0,0,0,.36-1.08,13.91,13.91,0,0,1-.36-2.52,8.75,8.75,0,0,1,.36-1.79,14.53,14.53,0,0,1-.36-2.15,1.24,1.24,0,0,1,.17-.54l-.17-1.07v-.37a2.15,2.15,0,0,1,.36-1.08,28.1,28.1,0,0,1-.36-4.3l.17-.37a1.38,1.38,0,0,1-.17-.71,2.9,2.9,0,0,1,.36-1.44,10,10,0,0,0-.36-2A15.66,15.66,0,0,0,74,34V32.33A16.79,16.79,0,0,0,73.81,30a19.28,19.28,0,0,0,.36-2.32,6.06,6.06,0,0,0-1.44-2.53V25C72.73,24.7,73.75,24.47,75.79,24.26Z" transform="translate(-15.75 -17.69)"/><path class="cls-2" d="M106.18,24.15A16.35,16.35,0,0,1,113,25.9c.53,0,1.52.7,3,2.1q1.47.42,3.85,4.39A7.75,7.75,0,0,1,121,34.31v.51c0,.25-1.28,1.18-3.85,2.81,0,.24-.46.42-1.38.53,0,.42-.59.83-1.76,1.22,0,.47-.29.82-.88,1l-.34-.17a2.11,2.11,0,0,1-1,.34l-.19-.34a10.39,10.39,0,0,1,.36-1.59Q110,35,108.1,35c-1-.32-1.6-.61-1.75-.88l-2.1.2H103c-2.32.95-3.48,1.88-3.48,2.81s-.17,1.66-.17,1.92a18.36,18.36,0,0,0,6.83,4.19l.34-.17q.7,0,4,2.27c.92,0,2.74,1,5.44,3,.28,0,1.27.94,3,2.81q1.44.59,3.14,6v2.1A20.53,20.53,0,0,1,120,67.93a12.42,12.42,0,0,1-3,3.51c0,.75-1.81,1.86-5.43,3.31a2.55,2.55,0,0,0-1.73.71l-.88-.17a19.38,19.38,0,0,1-3.17.34l-1.73-.17-.71.17q-3.62,0-9.29-3.14c-2.68-1.85-4-3.32-4-4.39a9.61,9.61,0,0,1-1.58-2.64v-.17a56.56,56.56,0,0,1,5.94-4.72,7.72,7.72,0,0,1,2.47-2.1,1.1,1.1,0,0,1,1-.71c0,.17.17.35.53.54l-.19,1.22v1c0,.86.76,1.85,2.29,3,0,.4.64.81,1.92,1.24,0,.33,1.18.62,3.52.88,2.9-1.17,4.36-2.28,4.36-3.34.24-.28.37-.46.37-.54v-.51a1.27,1.27,0,0,0-.2-.7,1.33,1.33,0,0,0,.2-.71v-.17c-.44-1.74-1.09-2.61-2-2.61,0-.43-1.16-1.14-3.48-2.12q-.8-.74-5.78-2.27-.13,0-5.1-3.34c-.45,0-1-.52-1.72-1.56a8.08,8.08,0,0,1-3.18-4.39c-.58-.43-1-2.41-1.21-5.94q0-.15,1.75-5.61c.17,0,.76-.64,1.76-1.93A8,8,0,0,1,95,27.46c.45-.7,2.44-1.57,6-2.61a1.38,1.38,0,0,0,.71.17,1.91,1.91,0,0,0,1-.53h2.27Z" transform="translate(-15.75 -17.69)"/><path class="cls-2" d="M144.15,24.15q9.34,0,13,3.59A17.74,17.74,0,0,1,162.34,33v.74A32.8,32.8,0,0,1,158,36.58q-4.84,3.22-5.58,3.23a2.36,2.36,0,0,1-.37-.54c.08-1.08.2-1.62.37-1.62q-.73-2-4.33-3.25a23.51,23.51,0,0,0-3.06-.54l-.37.2-.34-.2q-3.85,0-6.31,4.33a25.56,25.56,0,0,0-.71,2.89l.17.34c-.11.36-.24.54-.37.54a5.88,5.88,0,0,0,.2.73q0,4.68-.54,4.68a1.4,1.4,0,0,0,.17.54L136.79,49a32.62,32.62,0,0,1,.34,4.67v.74a1.49,1.49,0,0,1-.17.71,1.56,1.56,0,0,1,.17.74c0,.07-.06.85-.17,2.32.15,0,.63,1.39,1.45,4.16,1.88,2.27,3.87,3.4,5.94,3.4l.34-.17.37.17a8.91,8.91,0,0,0,7.39-3.6,6.26,6.26,0,0,1-.37-2,1.25,1.25,0,0,1,.71-.34q8.84,5.33,9.55,6.12v.71a19.67,19.67,0,0,1-4.85,5q-4.19,3.58-11,3.59a11.65,11.65,0,0,0-2.15.37c-4.11-.36-6.94-1-8.47-1.81q-7-4.59-7-7.36a5.47,5.47,0,0,1-.91-2.35q-1.12-.91-1.61-9.18c0-1.13.06-3,.17-5.58a1.49,1.49,0,0,1-.17-.71.32.32,0,0,0,.37-.37c0-.35-.07-.53-.2-.53l.2-1.82V44.85a12,12,0,0,0-.37-2.35,22.71,22.71,0,0,1,2.89-10.43,7.25,7.25,0,0,1,2-2.35c1.12-.92,1.71-1.58,1.79-2A7,7,0,0,1,136.79,26c.93-1.21,3.32-1.81,7.19-1.81Z" transform="translate(-15.75 -17.69)"/><path class="cls-2" d="M170.55,24.15a14.66,14.66,0,0,1,2,.36,8.32,8.32,0,0,1,1.62-.19h.9a1.3,1.3,0,0,1,.71.19,4.36,4.36,0,0,1,1.44-.36c.48.09.71.21.71.36l2.35-.36,3.06.36,1.45-.36a21,21,0,0,0,4.5,1.07q0,.86,2,1.08,4.14,3.64,4.14,5c1.43,1.68,2.15,4.44,2.15,8.3a22.24,22.24,0,0,1-1.08,6.65v1.25a10.72,10.72,0,0,1-1.61,2.89,5.75,5.75,0,0,1-1.62,3.06c-.28,0-1.37,1-3.25,2.88a25,25,0,0,1,2.52,5.41A16.42,16.42,0,0,1,195,67.16c.26.06.81,1.15,1.64,3.26l2,3.6c.49.17.74.35.74.54v.7a.32.32,0,0,1-.37.37,10.08,10.08,0,0,1-1.44-.17l-.88.17-4-.37-4.34.37-.9-.17a5.7,5.7,0,0,1-1.25.17,2,2,0,0,1-.37-1.07c.85-.46,1.28-1,1.28-1.62v-.2q-1-1-4.34-9.34c-.24,0-.48-.48-.7-1.45l-.37-.17a31.28,31.28,0,0,1-3.8,2.33c0,.13,0,.19-.17.19a28.48,28.48,0,0,1,.37,4.85c0,.49-.07,1.57-.2,3.25a5.82,5.82,0,0,0,1.45,2.16v.36c0,.48-.84.71-2.52.71a10.3,10.3,0,0,1-1.79-.17l-.73.17a15.77,15.77,0,0,0-2-.17c-.24,0-.9.06-2,.17a6.54,6.54,0,0,0-.71-.17,10.43,10.43,0,0,1-1.81.17H167a.33.33,0,0,1-.37-.37A2.79,2.79,0,0,1,168,72.94l-.37-.91.37-3.42a2.08,2.08,0,0,1-.37-1.08c0-.72.16-1.07.37-1.07a8.79,8.79,0,0,1-.2-1.45,20.21,20.21,0,0,1,.2-2.35,17.69,17.69,0,0,1-.37-2q0-.93.37-6.29c-.29-3.72-.46-5.76-.54-6.12a17.8,17.8,0,0,0,.34-3.79l-.34-.71a3,3,0,0,0,.34-1.44v-.91l-.17-1.08A2.81,2.81,0,0,0,168,38.9a2.05,2.05,0,0,1-.37-1.08c0-1.51.06-3.37.17-5.58l-.34-2.15a2.14,2.14,0,0,0,.34-1.07V27.74a8.26,8.26,0,0,0-1.25-2.89v-.17c0-.24.16-.36.37-.36h1.79A10.8,10.8,0,0,0,170.55,24.15Zm7.36,10.08v.54a6.24,6.24,0,0,0,.37,1.61l-.37.91.37,2.35a20.69,20.69,0,0,0-.37,3.59l.37.71-.37,2.52a17.51,17.51,0,0,1,.37,2.72c-.25,0-.37.15-.37.34v.37l.2.9h.17q5-2.85,6.85-5.94a13.6,13.6,0,0,0,1.62-3.6q-.09-5.39-3.06-6.48a7,7,0,0,0-3.06-.91h-1.27a1.49,1.49,0,0,1-.71-.17C178.16,33.86,177.91,34,177.91,34.23Z" transform="translate(-15.75 -17.69)"/><path class="cls-2" d="M206.66,24.26c.09,0,.45.06,1.07.17a1.49,1.49,0,0,0,.71-.17c2.47.11,4.15.23,5,.37a2.08,2.08,0,0,1,1.08-.37h1.24q.31,0,.54.9a5.61,5.61,0,0,1-1.24,1.62c0,.4.05,1.41.17,3.06l-.17,1.61.17,1.08-.34,2.15a2.31,2.31,0,0,1,.34,1.08v.53a9.91,9.91,0,0,1-.17,1.62,1.4,1.4,0,0,1,.17.54c0,.09-.06.45-.17,1.07,0,.15.05.76.17,1.82l-.17,1.24a11.67,11.67,0,0,1,.17,2,2,2,0,0,1-.34.88,15.19,15.19,0,0,1,.34,2.72,9.57,9.57,0,0,1-.34,1.78,16.79,16.79,0,0,1,.34,2.16,1.4,1.4,0,0,1-.17.54l.17,1.07v.37a2.31,2.31,0,0,1-.34,1.08l.17.9a21.13,21.13,0,0,0-.17,2.32c.22,1.44.34,2.28.34,2.52a3.4,3.4,0,0,1-.34,1.08,8.5,8.5,0,0,0,.34,2,14,14,0,0,0-.17,2v1.64a15.37,15.37,0,0,0,.17,2.32,19.54,19.54,0,0,0-.34,2.32,6.26,6.26,0,0,0,1.41,2.53v.19c0,.27-1,.5-3,.71-.64-.11-1-.17-1.1-.17a1.49,1.49,0,0,0-.71.17c-2.47-.11-4.15-.23-5-.37a2,2,0,0,1-1.08.37h-1.24q-.31,0-.54-.9a5.61,5.61,0,0,1,1.24-1.62c0-.4-.05-1.42-.17-3.06l.17-1.61-.17-1.08.37-2.15a1.91,1.91,0,0,1-.37-.91c.12-3,.24-4.47.37-4.47a3,3,0,0,1-.37-1.28l.17-1.07a16.84,16.84,0,0,1-.17-2.15,7,7,0,0,0,.37-1.08,14.17,14.17,0,0,1-.37-2.52,9,9,0,0,1,.37-1.79,15.15,15.15,0,0,1-.37-2.15,1.4,1.4,0,0,1,.17-.54l-.17-1.07v-.37a2.18,2.18,0,0,1,.37-1.08,28.18,28.18,0,0,1-.37-4.3l.17-.37a1.49,1.49,0,0,1-.17-.71,2.91,2.91,0,0,1,.37-1.44,9,9,0,0,0-.37-2,14,14,0,0,0,.17-2V32.33a15.37,15.37,0,0,0-.17-2.32,18.11,18.11,0,0,0,.37-2.32,6.17,6.17,0,0,0-1.44-2.53V25C203.6,24.7,204.62,24.47,206.66,24.26Z" transform="translate(-15.75 -17.69)"/><path class="cls-2" d="M256.5,24.15c.08,0,.43.05,1.08.17a1.45,1.45,0,0,0,.7-.17c2.48.11,4.15.23,5,.36a2.09,2.09,0,0,1,1.07-.36h1.28c.21,0,.38.3.54.9,0,.17-.43.71-1.28,1.62,0,.39.07,1.4.2,3l-.2,1.61.2,1.08-.37,2.15a2.05,2.05,0,0,1,.37,1.07v.54a8.44,8.44,0,0,1-.2,1.62,1.34,1.34,0,0,1,.2.54c-.13.64-.2,1-.2,1.07.13,1.06.2,1.66.2,1.81l-.2,1.25a10.23,10.23,0,0,1,.2,2,1.81,1.81,0,0,1-.37.88,13.17,13.17,0,0,1,.37,2.69,8.09,8.09,0,0,1-.37,1.81,13.78,13.78,0,0,1,.37,2.16,1.17,1.17,0,0,1-.2.53l.2,1.08v.37a2,2,0,0,1-.37,1.07l.17.88c-.11,1-.17,1.81-.17,2.35a24.51,24.51,0,0,1,.37,2.5,3,3,0,0,1-.37,1.07,7.5,7.5,0,0,0,.37,2,13.38,13.38,0,0,0-.2,2v1.61a14.26,14.26,0,0,0,.2,2.32,17.1,17.1,0,0,0-.37,2.32,6.34,6.34,0,0,0,1.45,2.53v.17c0,.28-1,.52-3.06.73-.63-.13-1-.2-1.08-.2a1.33,1.33,0,0,0-.71.2c-2.47-.13-4.15-.25-5-.37a2,2,0,0,1-1.07.37H254q-.31,0-.54-.9a5.77,5.77,0,0,1,1.25-1.62c0-.4-.06-1.41-.17-3.06l.17-1.61-.17-1.08.37-2.15a1.81,1.81,0,0,1-.37-.88c.11-3,.23-4.5.37-4.5a2.73,2.73,0,0,1-.37-1.25l.17-1.07a17.4,17.4,0,0,1-.17-2.16,1.93,1.93,0,0,1,.37-.9,24.27,24.27,0,0,1-.37-2.86,9.33,9.33,0,0,1,.37-1.62,5,5,0,0,1-.2-1.44,1.4,1.4,0,0,1-.54-.17q-3,6.54-3.57,8.24c-.43,0-1,.93-1.81,2.69-.23,0-.41.72-.54,2.15a7.57,7.57,0,0,0-1.95,4.51,7.7,7.7,0,0,1,.34,1.41,7.1,7.1,0,0,1-2.16.54l-1.24-.17h-4.31c-.3,0-.48-.24-.53-.71a3.74,3.74,0,0,1,.53-1.44,37.68,37.68,0,0,0-3.59-7.71,4.67,4.67,0,0,0-1.79-3.59A2.75,2.75,0,0,0,232.26,52v-.17c0-.14.06-.2.2-.2l-1.28-3.4h-.34a8.15,8.15,0,0,1-.37,1.78,13.78,13.78,0,0,1,.37,2.16,1.06,1.06,0,0,1-.2.53l.2,1.08v.37a2,2,0,0,1-.37,1.07l.17.91a23.18,23.18,0,0,0-.17,2.32,24.11,24.11,0,0,1,.37,2.52,3.23,3.23,0,0,1-.37,1.08,7.36,7.36,0,0,0,.37,2,13.63,13.63,0,0,0-.2,2v1.61a14,14,0,0,0,.2,2.32,19.75,19.75,0,0,0-.37,2.35,6.08,6.08,0,0,0,1.45,2.5v.19c0,.29-1,.52-3.06.71-.09,0-.45-.06-1.08-.17a1.45,1.45,0,0,0-.7.17c-2.48-.11-4.16-.23-5.05-.37a1.92,1.92,0,0,1-1.07.37h-1.25c-.21,0-.38-.3-.54-.9a5.77,5.77,0,0,1,1.25-1.62c0-.4-.06-1.41-.17-3l.17-1.61-.17-1.08.37-2.15a2,2,0,0,1-.37-.91c.11-3,.24-4.47.37-4.47a2.9,2.9,0,0,1-.37-1.28l.17-1.07a17.4,17.4,0,0,1-.17-2.16,7.12,7.12,0,0,0,.37-1.07,13.27,13.27,0,0,1-.37-2.49,8.25,8.25,0,0,1,.37-1.82,13.73,13.73,0,0,1-.37-2.15,1.4,1.4,0,0,1,.17-.54l-.17-1.07v-.37a2.08,2.08,0,0,1,.37-1.08,27.06,27.06,0,0,1-.37-4.3l.17-.34a1.58,1.58,0,0,1-.17-.74,2.75,2.75,0,0,1,.37-1.41,9.42,9.42,0,0,0-.37-2,15.49,15.49,0,0,0,.17-2V32.39a17.05,17.05,0,0,0-.17-2.33,16.86,16.86,0,0,0,.37-2.32,6.37,6.37,0,0,0-1.45-2.52v-.17c0-.28,1-.53,3.06-.73a10.94,10.94,0,0,1,1.08.19,1.33,1.33,0,0,0,.71-.19q3.71.2,5,.36a2.12,2.12,0,0,1,1.08-.36h1.27c.11,0,.17.06.17.19l.37-.19h.88c.19,0,.36.17.53.53v.54c-.35.72-.71,1.08-1.07,1.08a45.75,45.75,0,0,0,3.43,8.27,28.86,28.86,0,0,1,2.15,4.64,14.43,14.43,0,0,1,1.61,3.6c1.44,2.49,2.15,3.93,2.15,4.3l.71,2.16h.17q2-3.09,2.15-4.48a3.37,3.37,0,0,0,.74-1.81c.43,0,.79-.6,1.08-1.79l-.17-.36a33.29,33.29,0,0,0,1.95-4.31,8.84,8.84,0,0,0,2.35-4.47c.49-.31.91-1.38,1.25-3.23a12.61,12.61,0,0,1,.9-2v-.17l-1.07-1.62.54-.9.87.19.37-.19.37.19Z" transform="translate(-15.75 -17.69)"/><path class="cls-2" d="M274.91,24.26c.09,0,.45.06,1.08.17a1.45,1.45,0,0,0,.7-.17c2.48.11,4.16.23,5,.37a2.08,2.08,0,0,1,1.08-.37h1.25c.2,0,.38.3.53.9a5.61,5.61,0,0,1-1.24,1.62c0,.4.06,1.41.17,3.06l-.17,1.61.17,1.08-.34,2.15a2.2,2.2,0,0,1,.34,1.08v.53a9.91,9.91,0,0,1-.17,1.62,1.4,1.4,0,0,1,.17.54c0,.09-.06.45-.17,1.07,0,.15.06.76.17,1.82l-.17,1.24a11.67,11.67,0,0,1,.17,2,1.9,1.9,0,0,1-.34.88,14.32,14.32,0,0,1,.34,2.72,8.77,8.77,0,0,1-.34,1.78,15.07,15.07,0,0,1,.34,2.16,1.4,1.4,0,0,1-.17.54l.17,1.07v.37a2.2,2.2,0,0,1-.34,1.08l.17.9c-.11,1-.17,1.8-.17,2.32.23,1.44.34,2.28.34,2.52a3.15,3.15,0,0,1-.34,1.08,9.11,9.11,0,0,0,.34,2,15.66,15.66,0,0,0-.17,2v1.64a16.79,16.79,0,0,0,.17,2.32,19.54,19.54,0,0,0-.34,2.32,6.38,6.38,0,0,0,1.41,2.53v.19c0,.27-1,.5-3,.71-.64-.11-1-.17-1.1-.17a1.52,1.52,0,0,0-.71.17c-2.47-.11-4.15-.23-5-.37a2,2,0,0,1-1.08.37h-1.24q-.31,0-.54-.9a5.77,5.77,0,0,1,1.25-1.62c0-.4-.06-1.42-.17-3.06l.17-1.61-.17-1.08.36-2.15a1.88,1.88,0,0,1-.36-.91q.17-4.47.36-4.47a3,3,0,0,1-.36-1.28l.17-1.07a15.19,15.19,0,0,1-.17-2.15,7.62,7.62,0,0,0,.36-1.08,13.91,13.91,0,0,1-.36-2.52,8.75,8.75,0,0,1,.36-1.79,14.53,14.53,0,0,1-.36-2.15,1.24,1.24,0,0,1,.17-.54l-.17-1.07v-.37a2.15,2.15,0,0,1,.36-1.08,28.1,28.1,0,0,1-.36-4.3l.17-.37a1.38,1.38,0,0,1-.17-.71,2.9,2.9,0,0,1,.36-1.44,10,10,0,0,0-.36-2,15.66,15.66,0,0,0,.17-2V32.33a16.79,16.79,0,0,0-.17-2.32,19.28,19.28,0,0,0,.36-2.32,6.06,6.06,0,0,0-1.44-2.53V25C271.85,24.7,272.87,24.47,274.91,24.26Z" transform="translate(-15.75 -17.69)"/><path class="cls-2" d="M316.68,24.15a10.72,10.72,0,0,1,1.08.17,1.52,1.52,0,0,0,.71-.17q3.7.17,5,.36a2.09,2.09,0,0,1,1.07-.36h1.28q.29,0,.54.9c0,.17-.43.71-1.28,1.62,0,.39.07,1.4.2,3l-.2,1.61.2,1.08-.37,2.15a2.05,2.05,0,0,1,.37,1.07v.54a8.44,8.44,0,0,1-.2,1.62,1.34,1.34,0,0,1,.2.54c0,.09-.07.45-.2,1.07,0,.15.07.76.2,1.81l-.2,1.25a10.23,10.23,0,0,1,.2,2,1.81,1.81,0,0,1-.37.88,13.17,13.17,0,0,1,.37,2.69,8.09,8.09,0,0,1-.37,1.81,13.78,13.78,0,0,1,.37,2.16,1.17,1.17,0,0,1-.2.53l.2,1.08v.37a2,2,0,0,1-.37,1.07l.17.88c-.11,1-.17,1.81-.17,2.35a24.51,24.51,0,0,1,.37,2.5,3,3,0,0,1-.37,1.07,7.5,7.5,0,0,0,.37,2,13.38,13.38,0,0,0-.2,2v1.61a14.26,14.26,0,0,0,.2,2.32,19,19,0,0,0-.37,2.32,6.34,6.34,0,0,0,1.45,2.53v.17c0,.28-1,.52-3.06.73a10.52,10.52,0,0,0-1.08-.2,1.33,1.33,0,0,0-.71.2c-2.47-.13-4.15-.25-5-.37a2,2,0,0,1-1.07.37h-1.25q-.32,0-.54-.9a5.54,5.54,0,0,1,1.08-1.45A27,27,0,0,1,312,68.64l-1.81-2a1.55,1.55,0,0,0-.88-1.61c-.25,0-.37-.29-.37-.88h.17A31,31,0,0,0,307,60c-.49-.63-1.81-2.84-3.94-6.63h.17c0-.3-.77-1.38-2.32-3.23a10.08,10.08,0,0,0-1.45-3.06h-.34v.71a7.88,7.88,0,0,1-.36,2.15,14.58,14.58,0,0,1,.36,2.16,1.13,1.13,0,0,1-.19.53l.19,1.08v.37a2.09,2.09,0,0,1-.36,1.07l.17.91a20.5,20.5,0,0,0-.17,2.32q.36,2.13.36,2.52a3.37,3.37,0,0,1-.36,1.08,7.1,7.1,0,0,0,.36,2,13.38,13.38,0,0,0-.19,2v1.61a14,14,0,0,0,.19,2.32,18.82,18.82,0,0,0-.36,2.35,6.07,6.07,0,0,0,1.44,2.5v.19c0,.29-1,.52-3.06.71-.62-.11-1-.17-1.07-.17a1.49,1.49,0,0,0-.71.17c-2.48-.11-4.16-.23-5-.37a2,2,0,0,1-1.08.37H288c-.2,0-.38-.3-.53-.9a5.61,5.61,0,0,1,1.24-1.62c0-.4-.05-1.41-.17-3l.17-1.61-.17-1.08.37-2.15a2.08,2.08,0,0,1-.37-.91c.12-3,.24-4.47.37-4.47a3,3,0,0,1-.37-1.28l.17-1.07a17.4,17.4,0,0,1-.17-2.16,7.12,7.12,0,0,0,.37-1.07,14.18,14.18,0,0,1-.37-2.49,8.91,8.91,0,0,1,.37-1.82,15.15,15.15,0,0,1-.37-2.15,1.4,1.4,0,0,1,.17-.54l-.17-1.07v-.37a2.18,2.18,0,0,1,.37-1.08,28.29,28.29,0,0,1-.37-4.3l.17-.34a1.58,1.58,0,0,1-.17-.74,2.85,2.85,0,0,1,.37-1.41,8.77,8.77,0,0,0-.37-2,13.85,13.85,0,0,0,.17-2V32.39a15.6,15.6,0,0,0-.17-2.33,16.86,16.86,0,0,0,.37-2.32,6.48,6.48,0,0,0-1.44-2.52v-.17c0-.28,1-.53,3.06-.73.07,0,.43.06,1.07.19a1.3,1.3,0,0,0,.71-.19q3.71.2,5,.36a2.15,2.15,0,0,1,1.08-.36h1.27q.31,0,.54.9a5.73,5.73,0,0,1-1.08,1.45v.17l3.23,5.74c0,.36.65,1.37,2,3a11.31,11.31,0,0,1,1.61,3.23,7.79,7.79,0,0,1,2,3.43c.44.08,1,1.09,1.79,3,.32,0,.86.72,1.61,2.15,1.08,1.15,1.62,1.94,1.62,2.35a5.81,5.81,0,0,0,1.64,3.06l.54-3.06a13.73,13.73,0,0,1-.37-2.15,1.4,1.4,0,0,1,.17-.54L314.7,46v-.37a2.08,2.08,0,0,1,.37-1.08,27.06,27.06,0,0,1-.37-4.3l.17-.37a1.49,1.49,0,0,1-.17-.71,2.91,2.91,0,0,1,.37-1.44,9.27,9.27,0,0,0-.37-2,16.08,16.08,0,0,0,.17-2V32.22a16.6,16.6,0,0,0-.17-2.33,19.14,19.14,0,0,0,.37-2.35,6.1,6.1,0,0,0-1.45-2.49v-.2C313.62,24.57,314.64,24.33,316.68,24.15Z" transform="translate(-15.75 -17.69)"/><path class="cls-2" d="M347.07,24.32q0,.36.54.36l1.07-.17a1.49,1.49,0,0,1,.71.17c1.3-.11,2.44-.17,3.4-.17,3,0,4.47.24,4.47.71A7.73,7.73,0,0,0,356.19,27c.41.75,1.19,3.67,2.32,8.75a79.44,79.44,0,0,1,2.32,8.41,32.64,32.64,0,0,1,1.45,5.72c.24,0,.37.24.37.73l-.2.71A51,51,0,0,1,365,59.38c.21,0,.38.77.54,2.32.26,0,.68,1.38,1.24,4.13a1.4,1.4,0,0,0-.17.54,29.13,29.13,0,0,1,1.25,3.94c.22,0,.34.13.34.34v1.44q0,.76,2,2.49c-.23.55-.46.85-.71.91l-1.07-.2-.91.2c-1.06-.13-1.71-.2-1.95-.2l-2.52.2c0-.25-.18-.37-.54-.37a6.38,6.38,0,0,1-1.62.37h-3.2q-.25,0-.54-.54v-.54c1.08-.73,1.62-1.27,1.62-1.61q-.68,0-1.62-5.38A10.61,10.61,0,0,1,356,64c-.25,0-.37-.11-.37-.34l.2-1.25-.37-.19a18.17,18.17,0,0,1-4.84,3.93c0,.29-2,1.83-5.89,4.65a6.12,6.12,0,0,1-2.33,2V73c0,.41.36,1,1.08,1.61V75c0,.23-.59.41-1.78.54a4,4,0,0,0-1.28-.37,1.94,1.94,0,0,1-1.07.37h-1.59a9.11,9.11,0,0,1-1.81-.2,4.81,4.81,0,0,1-1.25.2l-1.24-.2a1.81,1.81,0,0,1-.91.37c-1.3-.26-1.95-.5-1.95-.71v-.73c1.07-.57,1.61-1.1,1.61-1.59a29.39,29.39,0,0,1,1.25-4.48,17.48,17.48,0,0,1,1.24-4.84A30.07,30.07,0,0,1,336,58.67a42,42,0,0,1,1.81-6.09l-.2-1.25c.49,0,1.27-2.68,2.32-8A38.5,38.5,0,0,0,342.06,36c.24,0,.42-.71.53-2.15.16,0,.51-.95,1.08-2.86l-.17-.37V30.4a37.79,37.79,0,0,1,1.25-3.76c-.83-.8-1.25-1.27-1.25-1.42.17-.47.35-.71.54-.71h.34A26.77,26.77,0,0,0,347.07,24.32Zm3,18.6v.71a20.43,20.43,0,0,1-1.25,4.67l.2.34a8.66,8.66,0,0,0-.9,3.6c-.63,2.74-1.11,4.11-1.45,4.11v.34h.54c0-.51,1.49-1.65,4.47-3.4l1.45-1V52a7.08,7.08,0,0,1-1.08-3.57,22.13,22.13,0,0,1-1.44-5.55Z" transform="translate(-15.75 -17.69)"/><path class="cls-2" d="M407.76,24.15l.54.7v1.08a25.91,25.91,0,0,0,.2,3.23l-.37,1.61.37,4.31-.37.2h-.71A4.38,4.38,0,0,1,406,34l-1.62.2c-.7,0-2.13-.07-4.3-.2l-1.28.2a9.7,9.7,0,0,1-1.78-.37l-.71.54.17,1.24v1.62a2,2,0,0,0,.37,1.08l-.2,1.61.2.91-.37,2.32a2.77,2.77,0,0,1,.37,1.07,3,3,0,0,0-.37,1.45,16.83,16.83,0,0,1,.37,2.52v.17l-.37,1.25.37,2.35c-.13.62-.2,1-.2,1.07a8.44,8.44,0,0,1,.2,1.62c-.25,0-.37.16-.37.36l.17,1.08a23.18,23.18,0,0,0-.17,2.32,24.11,24.11,0,0,1,.37,2.52,3.23,3.23,0,0,1-.37,1.08,7,7,0,0,0,.37,2,13.63,13.63,0,0,0-.2,2v1.61a14,14,0,0,0,.2,2.32,17.71,17.71,0,0,0-.37,2.35,6.18,6.18,0,0,0,1.44,2.5v.19c0,.29-1,.52-3,.71-.63-.11-1-.17-1.08-.17a1.52,1.52,0,0,0-.71.17c-2.47-.11-4.15-.23-5-.37a2,2,0,0,1-1.08.37H385.7q-.31,0-.54-.9a5.77,5.77,0,0,1,1.25-1.62c0-.4-.06-1.41-.17-3l.17-1.61-.17-1.08.36-2.15a2,2,0,0,1-.36-.91q.17-4.47.36-4.47a3,3,0,0,1-.36-1.28l.17-1.07a15.65,15.65,0,0,1-.17-2.16,7.75,7.75,0,0,0,.36-1.07,19,19,0,0,1-.36-2.15A14.58,14.58,0,0,1,386.6,50l-.36-3.76a5.65,5.65,0,0,0,.36-2l-.36-2.32c.11-1.66.17-2.74.17-3.23l-.17-1.24c.35-1.89.53-3,.53-3.23a.32.32,0,0,1-.36-.37c-1.85.25-3,.43-3.4.54a9.91,9.91,0,0,0-1.62-.17H378.7a5,5,0,0,0-3.23,1.24l-.9-.53.2-1.25v-.2a2.11,2.11,0,0,0-.37-1.07l.37-2.33a8,8,0,0,1-.2-1.78v-.2a6.61,6.61,0,0,1,.37-1.61,8.92,8.92,0,0,1-.17-1.62c.17,0,.35-.18.53-.53l1.25.19h.17a1.64,1.64,0,0,0,.91-.19,4.76,4.76,0,0,1,.7.19l1.62-.19a44.45,44.45,0,0,0,4.84.36c0-.24.16-.36.37-.36s.91.06,2.15.19l2.15-.19,2.16.19c1.06-.13,1.72-.19,2-.19a6.41,6.41,0,0,1,1.42.36l1.81-.17,2.15.17.71-.17.91.17c1.54-.09,2.32-.21,2.32-.36l.9.19h.71A16.51,16.51,0,0,0,407.76,24.15Z" transform="translate(-15.75 -17.69)"/><path class="cls-2" d="M415.8,24.26c.1,0,.46.06,1.08.17a1.52,1.52,0,0,0,.71-.17c2.47.11,4.15.23,5,.37a2,2,0,0,1,1.07-.37H425q.32,0,.54.9a5.77,5.77,0,0,1-1.25,1.62c0,.4.06,1.41.17,3.06l-.17,1.61.17,1.08-.34,2.15a2.2,2.2,0,0,1,.34,1.08v.53a8.92,8.92,0,0,1-.17,1.62,1.24,1.24,0,0,1,.17.54,9.52,9.52,0,0,1-.17,1.07c0,.15.06.76.17,1.82l-.17,1.24a10.73,10.73,0,0,1,.17,2,1.9,1.9,0,0,1-.34.88,14.32,14.32,0,0,1,.34,2.72,8.77,8.77,0,0,1-.34,1.78,15.07,15.07,0,0,1,.34,2.16,1.24,1.24,0,0,1-.17.54l.17,1.07v.37a2.2,2.2,0,0,1-.34,1.08l.17.9c-.11,1-.17,1.8-.17,2.32.23,1.44.34,2.28.34,2.52a3.15,3.15,0,0,1-.34,1.08,9.81,9.81,0,0,0,.34,2,15.66,15.66,0,0,0-.17,2v1.64a16.79,16.79,0,0,0,.17,2.32,22.15,22.15,0,0,0-.34,2.32,6.27,6.27,0,0,0,1.42,2.53v.19c0,.27-1,.5-3,.71-.64-.11-1-.17-1.11-.17a1.45,1.45,0,0,0-.7.17c-2.48-.11-4.16-.23-5-.37a1.92,1.92,0,0,1-1.07.37h-1.25c-.21,0-.38-.3-.54-.9A5.77,5.77,0,0,1,414,73.11c0-.4-.06-1.42-.17-3.06l.17-1.61-.17-1.08.37-2.15a1.81,1.81,0,0,1-.37-.91c.11-3,.24-4.47.37-4.47a2.9,2.9,0,0,1-.37-1.28l.17-1.07a16.84,16.84,0,0,1-.17-2.15,7,7,0,0,0,.37-1.08,13.28,13.28,0,0,1-.37-2.52,8.32,8.32,0,0,1,.37-1.79,13.73,13.73,0,0,1-.37-2.15,1.4,1.4,0,0,1,.17-.54l-.17-1.07v-.37a2.08,2.08,0,0,1,.37-1.08,27,27,0,0,1-.37-4.3l.17-.37a1.49,1.49,0,0,1-.17-.71,2.81,2.81,0,0,1,.37-1.44,9.73,9.73,0,0,0-.37-2,15.66,15.66,0,0,0,.17-2V32.33a16.79,16.79,0,0,0-.17-2.32,18.11,18.11,0,0,0,.37-2.32,6.07,6.07,0,0,0-1.45-2.53V25C412.74,24.7,413.76,24.47,415.8,24.26Z" transform="translate(-15.75 -17.69)"/><path class="cls-2" d="M446.56,24.15a13.29,13.29,0,0,1,9,3.79q1.11,0,3.43,3.43.74,0,2,4.87.66.73,1.44,4.7v.74a2.09,2.09,0,0,1-.36,1.07l.36,2.52-.19,1.28.36,3.79-.36.91c.13,2.23.19,4.09.19,5.61-.45,5-1.17,8.16-2.18,9.37,0,1.09-1.8,3.27-5.4,6.51a13.66,13.66,0,0,1-7.79,2.72c0,.11-.24.17-.71.17a20.91,20.91,0,0,1-7.05-1.07A16.25,16.25,0,0,1,431,67.5a16.94,16.94,0,0,0-1.64-4,51.05,51.05,0,0,1-1.08-8.5c0-1.15.06-3,.17-5.6a1.52,1.52,0,0,1-.17-.71.33.33,0,0,0,.37-.37c0-.36-.07-.54-.2-.54l.2-1.81V44.93a11.72,11.72,0,0,0-.37-2.35q1.28-9,2.18-9a8.73,8.73,0,0,1,2.69-3.8c1.13-.92,1.74-1.58,1.81-2A7,7,0,0,1,438.8,26q1.41-1.82,7.22-1.81Zm-8.13,17,.2.34c-.13.38-.26.56-.37.56l.17.71c0,3.14-.18,4.7-.54,4.7a1.35,1.35,0,0,0,.17.54l-.17,1.08a30.44,30.44,0,0,1,.37,4.7v.73a1.28,1.28,0,0,1-.2.71,1.39,1.39,0,0,1,.2.74c0,.07-.07.86-.2,2.35a16.87,16.87,0,0,1,1.28,3.79q2.4,3.6,5.24,3.6h1.64l1.78-.17v.17c2.42-1.47,3.63-2.92,3.63-4.33a5.64,5.64,0,0,0,.9-2.89l-.19-.74q.2-.54.36-.54L452.53,56V53.23a.15.15,0,0,1,.17-.17c0-.13-.05-.2-.17-.2a4.33,4.33,0,0,0,.17-.71,9.54,9.54,0,0,0-.17-1.81,30.85,30.85,0,0,0,.17-3.26l-.17-1.27a6.16,6.16,0,0,0,.17-1.61v-.37a11.13,11.13,0,0,0-.36-1.45V40.94a7.66,7.66,0,0,0-2.69-5.41,7.92,7.92,0,0,0-4.17-1.44v-.2c-2.56,0-4.67,1.45-6.31,4.36A27.43,27.43,0,0,0,438.43,41.14Z" transform="translate(-15.75 -17.69)"/><path class="cls-2" d="M496.15,24.15c.07,0,.43.05,1.07.17a1.49,1.49,0,0,0,.71-.17q3.72.17,5,.36a2.15,2.15,0,0,1,1.08-.36h1.28c.18,0,.36.3.53.9,0,.17-.42.71-1.27,1.62,0,.39.07,1.4.2,3l-.2,1.61.2,1.08-.37,2.15a2.15,2.15,0,0,1,.37,1.07v.54a8.44,8.44,0,0,1-.2,1.62,1.34,1.34,0,0,1,.2.54c0,.09-.07.45-.2,1.07,0,.15.07.76.2,1.81l-.2,1.25a10.23,10.23,0,0,1,.2,2,1.91,1.91,0,0,1-.37.88,13.91,13.91,0,0,1,.37,2.69,8.73,8.73,0,0,1-.37,1.81,15.19,15.19,0,0,1,.37,2.16,1.17,1.17,0,0,1-.2.53l.2,1.08v.37a2.11,2.11,0,0,1-.37,1.07l.17.88c-.11,1-.17,1.81-.17,2.35.24,1.42.37,2.25.37,2.5a3.22,3.22,0,0,1-.37,1.07,7.09,7.09,0,0,0,.37,2,13.38,13.38,0,0,0-.2,2v1.61a14.26,14.26,0,0,0,.2,2.32,17.1,17.1,0,0,0-.37,2.32,6.45,6.45,0,0,0,1.44,2.53v.17c0,.28-1,.52-3.06.73-.62-.13-1-.2-1.07-.2a1.31,1.31,0,0,0-.71.2c-2.47-.13-4.15-.25-5-.37a2.08,2.08,0,0,1-1.08.37h-1.24q-.31,0-.54-.9a5.54,5.54,0,0,1,1.08-1.45,26.83,26.83,0,0,1-2.7-4.47l-1.81-2a1.54,1.54,0,0,0-.88-1.61c-.24,0-.36-.29-.36-.88h.17A30.5,30.5,0,0,0,486.43,60q-.74-.95-3.93-6.63h.17c0-.3-.78-1.38-2.32-3.23a10.36,10.36,0,0,0-1.45-3.06h-.34v.71a7.57,7.57,0,0,1-.37,2.15,13.78,13.78,0,0,1,.37,2.16,1.17,1.17,0,0,1-.2.53l.2,1.08v.37a2,2,0,0,1-.37,1.07l.17.91a23.18,23.18,0,0,0-.17,2.32,24.11,24.11,0,0,1,.37,2.52,3.23,3.23,0,0,1-.37,1.08,7.36,7.36,0,0,0,.37,2,13.63,13.63,0,0,0-.2,2v1.61a14,14,0,0,0,.2,2.32,19.75,19.75,0,0,0-.37,2.35,6.08,6.08,0,0,0,1.45,2.5v.19c0,.29-1,.52-3.06.71-.62-.11-1-.17-1.08-.17a1.52,1.52,0,0,0-.71.17c-2.47-.11-4.15-.23-5-.37a1.92,1.92,0,0,1-1.07.37h-1.25q-.31,0-.54-.9a5.77,5.77,0,0,1,1.25-1.62c0-.4-.06-1.41-.17-3l.17-1.61L468,67.39l.37-2.15a2,2,0,0,1-.37-.91c.11-3,.24-4.47.37-4.47a2.9,2.9,0,0,1-.37-1.28l.17-1.07a17.4,17.4,0,0,1-.17-2.16,8.79,8.79,0,0,0,.37-1.07,13.27,13.27,0,0,1-.37-2.49,8.25,8.25,0,0,1,.37-1.82,13.73,13.73,0,0,1-.37-2.15,1.4,1.4,0,0,1,.17-.54L468,46.21v-.37a2.08,2.08,0,0,1,.37-1.08,27.06,27.06,0,0,1-.37-4.3l.17-.34a1.58,1.58,0,0,1-.17-.74,2.75,2.75,0,0,1,.37-1.41,9.42,9.42,0,0,0-.37-2,15.49,15.49,0,0,0,.17-2V32.39a17.05,17.05,0,0,0-.17-2.33,18.73,18.73,0,0,0,.37-2.32,6.37,6.37,0,0,0-1.45-2.52v-.17c0-.28,1-.53,3.06-.73a10.94,10.94,0,0,1,1.08.19,1.33,1.33,0,0,0,.71-.19q3.7.2,5,.36a2.09,2.09,0,0,1,1.07-.36h1.28q.31,0,.54.9a5.73,5.73,0,0,1-1.08,1.45v.17l3.23,5.74q0,.54,1.95,3a11.75,11.75,0,0,1,1.62,3.23,8,8,0,0,1,2,3.43c.43.08,1,1.09,1.78,3,.33,0,.86.72,1.62,2.15,1.07,1.15,1.61,1.94,1.61,2.35A5.92,5.92,0,0,0,494,52.86l.53-3.06a14.53,14.53,0,0,1-.36-2.15,1.24,1.24,0,0,1,.17-.54L494.17,46v-.37a2.15,2.15,0,0,1,.36-1.08,28.2,28.2,0,0,1-.36-4.3l.17-.37a1.38,1.38,0,0,1-.17-.71,3,3,0,0,1,.36-1.44,9.53,9.53,0,0,0-.36-2,16.08,16.08,0,0,0,.17-2V32.22a16.6,16.6,0,0,0-.17-2.33,18.29,18.29,0,0,0,.36-2.35,6.09,6.09,0,0,0-1.44-2.49v-.2C493.09,24.57,494.11,24.33,496.15,24.15Z" transform="translate(-15.75 -17.69)"/><path class="cls-2" d="M48.48,81.8l.33.44V83a19.44,19.44,0,0,0,.11,2c-.14.7-.21,1.09-.21,1.18l.21,2.5-.32.21a1.6,1.6,0,0,1-1.19-.76,15.48,15.48,0,0,0-1.64.11c-1-.07-1.78-.11-2.48-.11l-.43.11c-.72-.11-1.08-.21-1.08-.32l-.54.32a8.67,8.67,0,0,0,.31,2.6l-.1,1,.1.54-.21,1.41a2.54,2.54,0,0,1,.21.75,1.9,1.9,0,0,0-.21.88v.11a11.91,11.91,0,0,1,.21,1.18v.44l-.21.75a11.6,11.6,0,0,0,.21,1.51c-.07.39-.1.61-.1.65a6.13,6.13,0,0,1,.1,1.09q-.21,0-.21.21l.11.65a14,14,0,0,0-.11,1.52c.14.86.21,1.37.21,1.51a1.9,1.9,0,0,1-.21.65,12.21,12.21,0,0,0,.21,1.3,8.71,8.71,0,0,0-.1,1.19v1.2a13.5,13.5,0,0,0,.1,1.51,5.06,5.06,0,0,0-.21,1.3,3.59,3.59,0,0,0,.86,1.51v.21c0,.16-.57.3-1.72.44-.51-.07-.8-.1-.86-.1l-.54.1-3.15-.21a2,2,0,0,1-.76.32v-.11c-.07,0-.1,0-.1.11-.58,0-.86-.25-.86-.65,0-.11.25-.43.75-1a9.08,9.08,0,0,0-2.26-6.61A19.82,19.82,0,0,1,30,103v-.33c1.81,1.38,3.19,2.36,4.11,2.92h.32l.33-.21c0-1.12-.8-2.09-2.39-2.92q-4.11-3.06-5.18-5.31-.43,0-2.29-3.88l-.21-1,.21-.1c0,.46,1.37,1.77,4.11,3.9,2.83,1.51,4.63,2.27,5.42,2.27a.52.52,0,0,0,.44-.55c0-.4-.69-1-2.06-1.84-1.59-1.33-2.39-2.08-2.39-2.27v-.11h.11a7.47,7.47,0,0,0,3.69,1.51c.48,0,.76-.46.86-1.4a1.79,1.79,0,0,1-.21-.86,7.41,7.41,0,0,1,.21-1.41c0-.12,0-.55-.11-1.3a18.83,18.83,0,0,0,.21-2.06,1.07,1.07,0,0,0-.31-.21c0,.14-.83.25-2.5.32l-1-.11c-1.64,0-2.72.29-3.25.86q-.5-.21-.54-.42v-.88a1.39,1.39,0,0,0-.21-.65c.14-.9.21-1.4.21-1.51-.07-.51-.11-.8-.11-.86a12.49,12.49,0,0,0,.21-1.72l-.1-.55c.11,0,.26-.14.44-.44l.54.11h.32a1.06,1.06,0,0,0,.54-.11,3.59,3.59,0,0,1,.43.11l1-.11a30.62,30.62,0,0,0,3.13.21.22.22,0,0,1,.23-.21l1.3.11,1.28-.11,1.53.11,1.3-.11a3.86,3.86,0,0,1,.86.21l1.07-.1,1.41.1.44-.1.55.1a5.89,5.89,0,0,0,1.51-.21l.65.11h.31A13.67,13.67,0,0,0,48.48,81.8ZM29.65,102.14l.11.22v.11h-.11a.19.19,0,0,1-.21-.21Z" transform="translate(-15.75 -17.69)"/><path class="cls-2" d="M69.71,82.4c.05,0,.27,0,.67.1a.89.89,0,0,0,.44-.1c1.54.07,2.57.14,3.11.22a1.32,1.32,0,0,1,.67-.22h.79c.12,0,.23.18.34.56a3.73,3.73,0,0,1-.79,1c0,.25,0,.87.12,1.88l-.12,1,.12.67-.23,1.34a1.31,1.31,0,0,1,.23.66v.34a5.24,5.24,0,0,1-.12,1,.83.83,0,0,1,.12.33,6,6,0,0,1-.12.67c0,.1,0,.47.12,1.13l-.12.77A6.41,6.41,0,0,1,75.06,95a1.2,1.2,0,0,1-.23.55,8.55,8.55,0,0,1,.23,1.67,5.37,5.37,0,0,1-.23,1.12,9.17,9.17,0,0,1,.23,1.34.74.74,0,0,1-.12.33l.12.67v.23a1.34,1.34,0,0,1-.23.67l.11.54a14.55,14.55,0,0,0-.11,1.46c.15.88.23,1.39.23,1.55a1.88,1.88,0,0,1-.23.66,4.51,4.51,0,0,0,.23,1.23,8.33,8.33,0,0,0-.12,1.24v1a8.93,8.93,0,0,0,.12,1.44,11.35,11.35,0,0,0-.23,1.44,3.78,3.78,0,0,0,.9,1.56v.11c0,.18-.64.33-1.9.46a5.24,5.24,0,0,0-.67-.13.76.76,0,0,0-.44.13c-1.53-.09-2.58-.16-3.13-.23a1.31,1.31,0,0,1-.67.23h-.77q-.2,0-.33-.57a3.41,3.41,0,0,1,.77-1c0-.24,0-.88-.11-1.9l.11-1-.11-.67.23-1.33a1.2,1.2,0,0,1-.23-.55,12.14,12.14,0,0,1,.23-2.79,1.75,1.75,0,0,1-.23-.78l.11-.66a10.7,10.7,0,0,1-.11-1.34l.23-.77v-.13q0-.15-.33-.33c-.13.26-.69.59-1.69,1a4.15,4.15,0,0,1-1.88,1,6.78,6.78,0,0,1-2.13,1.13,13.51,13.51,0,0,1-3.67,2h-.33a1,1,0,0,1-.11.34,4.49,4.49,0,0,0,.23,1.21,8.58,8.58,0,0,0-.12,1.23v1a8.75,8.75,0,0,0,.12,1.44,12.31,12.31,0,0,0-.23,1.46,3.68,3.68,0,0,0,.9,1.55v.12c0,.18-.64.33-1.9.44a6.42,6.42,0,0,0-.67-.1.92.92,0,0,0-.44.1c-1.53-.07-2.58-.14-3.13-.23a1.18,1.18,0,0,1-.67.23h-.77c-.13,0-.24-.19-.33-.56,0-.11.25-.44.77-1,0-.25,0-.88-.11-1.88l.11-1-.11-.66.23-1.34a1.27,1.27,0,0,1-.23-.56,12.09,12.09,0,0,1,.23-2.78,1.86,1.86,0,0,1-.23-.79l.11-.67a10.56,10.56,0,0,1-.11-1.33,3.72,3.72,0,0,0,.23-.67,8.78,8.78,0,0,1-.23-1.55,5.37,5.37,0,0,1,.23-1.12,9.4,9.4,0,0,1-.23-1.34.84.84,0,0,1,.11-.33l-.11-.67v-.23a1.34,1.34,0,0,1,.23-.67,17.41,17.41,0,0,1-.23-2.67l.11-.21a1,1,0,0,1-.11-.46,1.81,1.81,0,0,1,.23-.88,5.82,5.82,0,0,0-.23-1.23,9.36,9.36,0,0,0,.11-1.23v-1a10.19,10.19,0,0,0-.11-1.44,9.66,9.66,0,0,0,.23-1.44,4,4,0,0,0-.89-1.57V83c0-.18.63-.33,1.89-.46l.67.12a.81.81,0,0,0,.44-.12c1.54.08,2.57.16,3.11.23a1.34,1.34,0,0,1,.67-.23h.79c.13,0,.24.19.34.56,0,.11-.27.44-.79,1q0,.36.12,1.89l-.12,1,.12.66L58.57,89a1.34,1.34,0,0,1,.23.67V90a5.24,5.24,0,0,1-.12,1,.77.77,0,0,1,.12.34,6,6,0,0,0-.12.67c.08.64.12,1,.12,1.1l-.12.78a6.41,6.41,0,0,1,.12,1.23,1.27,1.27,0,0,1-.23.56,8.36,8.36,0,0,1,.23,1.67,5.44,5.44,0,0,1-.23,1.11,3.8,3.8,0,0,1,.11.89c.46,0,2.1-.85,4.9-2.56A4,4,0,0,0,65.36,96,4.94,4.94,0,0,0,67,95a6.3,6.3,0,0,1,1.56-.79l-.11-1.34v-.21a1,1,0,0,1,.11-.45.93.93,0,0,1-.11-.44,1.88,1.88,0,0,1,.23-.9,5.38,5.38,0,0,0-.23-1.21,10,10,0,0,0,.11-1.23v-1A10,10,0,0,0,68.48,86a10,10,0,0,0,.23-1.46A3.8,3.8,0,0,0,67.82,83v-.13C67.82,82.66,68.45,82.51,69.71,82.4Z" transform="translate(-15.75 -17.69)"/><path class="cls-2" d="M81.14,82.47a6.42,6.42,0,0,1,.67.1.92.92,0,0,0,.44-.1c1.53.07,2.58.14,3.13.22a1.29,1.29,0,0,1,.66-.22h.78c.13,0,.24.18.33.56a3.64,3.64,0,0,1-.77,1c0,.25,0,.88.1,1.9l-.1,1,.1.67-.21,1.33a1.4,1.4,0,0,1,.21.67v.34a5.89,5.89,0,0,1-.1,1,.79.79,0,0,1,.1.33,6.42,6.42,0,0,1-.1.67c0,.09,0,.47.1,1.13l-.1.77a7.12,7.12,0,0,1,.1,1.23,1.17,1.17,0,0,1-.21.54,9.22,9.22,0,0,1,.21,1.69,5.65,5.65,0,0,1-.21,1.11,9.64,9.64,0,0,1,.21,1.33.78.78,0,0,1-.1.34l.1.67V101a1.36,1.36,0,0,1-.21.66l.11.57c-.07.63-.11,1.11-.11,1.44q.21,1.34.21,1.56a2,2,0,0,1-.21.67,5.65,5.65,0,0,0,.21,1.23,9.08,9.08,0,0,0-.1,1.21v1a10.16,10.16,0,0,0,.1,1.44,12.58,12.58,0,0,0-.21,1.45,4,4,0,0,0,.88,1.56v.12c0,.17-.62.31-1.88.44-.4-.07-.63-.1-.68-.1a.89.89,0,0,0-.44.1c-1.54-.07-2.58-.14-3.13-.23a1.2,1.2,0,0,1-.67.23h-.77c-.13,0-.24-.19-.34-.56,0-.11.26-.44.78-1,0-.25,0-.88-.11-1.9l.11-1-.11-.67.23-1.34a1.15,1.15,0,0,1-.23-.56,12.09,12.09,0,0,1,.23-2.78,1.82,1.82,0,0,1-.23-.79l.11-.67a10.14,10.14,0,0,1-.11-1.33,5,5,0,0,0,.23-.67,8.74,8.74,0,0,1-.23-1.56,5.44,5.44,0,0,1,.23-1.11,9.17,9.17,0,0,1-.23-1.34.84.84,0,0,1,.11-.33l-.11-.67v-.23a1.34,1.34,0,0,1,.23-.67,17.41,17.41,0,0,1-.23-2.67l.11-.23a.87.87,0,0,1-.11-.44,1.82,1.82,0,0,1,.23-.89,5.82,5.82,0,0,0-.23-1.23A9.52,9.52,0,0,0,80,88.49v-1A10.45,10.45,0,0,0,79.91,86a11.93,11.93,0,0,0,.23-1.44,3.65,3.65,0,0,0-.9-1.56V82.9C79.24,82.74,79.87,82.59,81.14,82.47Z" transform="translate(-15.75 -17.69)"/><path class="cls-2" d="M100,82.4a10.12,10.12,0,0,1,4.24,1.09c.33,0,.94.43,1.84,1.3.61.17,1.41,1.08,2.39,2.72a4.85,4.85,0,0,1,.76,1.2V89a9.68,9.68,0,0,1-2.39,1.74c0,.15-.29.27-.86.34,0,.25-.36.51-1.09.75,0,.3-.18.51-.55.65l-.21-.1a1.33,1.33,0,0,1-.65.21l-.12-.21a6.55,6.55,0,0,1,.23-1c-.82-1.52-1.62-2.28-2.39-2.28-.64-.2-1-.38-1.09-.55l-1.3.13H98q-2.16.87-2.16,1.74c-.07.63-.1,1-.1,1.19a11.33,11.33,0,0,0,4.23,2.6l.21-.1a8.3,8.3,0,0,1,2.5,1.4c.57,0,1.7.62,3.37,1.85.18,0,.79.58,1.85,1.74.6.25,1.25,1.48,1.95,3.71v1.3a12.63,12.63,0,0,1-1.3,5.43,7.43,7.43,0,0,1-1.85,2.18c0,.47-1.12,1.15-3.37,2.06a1.54,1.54,0,0,0-1.07.44l-.55-.11a12.25,12.25,0,0,1-2,.21l-1.07-.1-.44.1a12.72,12.72,0,0,1-5.76-1.95c-1.67-1.15-2.5-2.06-2.5-2.72A6.19,6.19,0,0,1,89,108v-.1A32.64,32.64,0,0,1,92.71,105c.09-.25.6-.68,1.53-1.3a.68.68,0,0,1,.65-.44q0,.17.33.33l-.12.76V105c0,.54.47,1.15,1.42,1.85,0,.24.4.5,1.2.77,0,.2.72.38,2.18.54q2.7-1.08,2.7-2.07c.16-.18.23-.29.23-.33v-.32a.83.83,0,0,0-.12-.44.81.81,0,0,0,.12-.44v-.1c-.27-1.08-.67-1.62-1.21-1.62q0-.41-2.16-1.32a14,14,0,0,0-3.59-1.41c-.06,0-1.11-.69-3.16-2.07-.28,0-.64-.32-1.08-1a5,5,0,0,1-2-2.72c-.37-.27-.62-1.5-.76-3.69,0-.06.36-1.22,1.09-3.48.11,0,.47-.4,1.09-1.2a5.13,5.13,0,0,1,2-1.53q.42-.65,3.69-1.62a.93.93,0,0,0,.44.11,1.16,1.16,0,0,0,.65-.33h1.41Z" transform="translate(-15.75 -17.69)"/><path class="cls-2" d="M121.68,82.4a3.32,3.32,0,0,1,.77.1c1.11-.07,2-.1,2.79-.1h.46a9,9,0,0,1,1.21.1,1.24,1.24,0,0,1,.57-.1l.79.1a9.09,9.09,0,0,1,1.23-.1,7.19,7.19,0,0,0,1.33.22,4,4,0,0,1,.9-.22l.77.1c.16,0,.23,0,.23-.1q1.38.1,6.15.22c.15.52.26.78.34.78L139,85.52a4.42,4.42,0,0,1,.23,1.34l-.12.56a5.57,5.57,0,0,1,.12,1.13V89c0,.1-.11.21-.34.33h-.22c-.61-.6-1-.9-1.13-.9-.29.06-.44.14-.44.23l-.56-.1a3.88,3.88,0,0,0-.9.1l-.67-.1-.77.1a1.31,1.31,0,0,0-.67-.23h-.45c-.52,0-.78.1-.78.23a22.24,22.24,0,0,0-2.35-.23l-.57.13a.93.93,0,0,0-.54-.13.2.2,0,0,1-.23.23l.23,2.69a3,3,0,0,0-.12.78l.12.56-.12.44c0,1.26.16,1.9.33,1.9a6.19,6.19,0,0,0,.9-.11c.16,0,.57,0,1.23.11,1.12-.07,1.91-.11,2.35-.11l1.11.11a10.64,10.64,0,0,1,1.57-.11c1.11,0,1.67.15,1.67.44v.46c0,.07,0,.1-.11.1a9.44,9.44,0,0,1,.33,2.8c-.07,2.08-.21,3.13-.44,3.13h-.12c-.47-.6-1.51-.9-3.13-.9l-.67-.11-2.12.34a1.2,1.2,0,0,0-.55-.23l-.89.12-.67-.12a2.72,2.72,0,0,0-.79.33l.12.57v.56a.21.21,0,0,1-.23.23c.07,1.31.15,2.2.23,2.67l-.23.56a4.51,4.51,0,0,0,.23,1.23,8.33,8.33,0,0,0-.12,1.23v1a9,9,0,0,0,.12,1.46,11.67,11.67,0,0,0-.23,1.45,3.92,3.92,0,0,0,.9,1.56v.12c0,.14-.41.29-1.23.44s-1.61,0-2.46-.1-1.52.1-1.9.1c-1-.07-1.75-.1-2.23-.1l-.13-.23v-.23a3.93,3.93,0,0,0,.9-1.9c-.07-.88-.11-1.51-.11-1.9h.11c-.07-.37-.15-.56-.23-.56l.12-1.11v-3a5.24,5.24,0,0,0-.12-1,4.37,4.37,0,0,0,.23-1.46,1.34,1.34,0,0,1-.23-.67l.23-.77a2.72,2.72,0,0,0-.23-1.23,1.88,1.88,0,0,0,.23-.9,45.6,45.6,0,0,0-.23-4.69,5.29,5.29,0,0,0,.12-.9c0-.14,0-.81-.12-2a12.13,12.13,0,0,1,.23-1.23,3.92,3.92,0,0,0-.23-1.13c.08-2,.2-3.54.35-4.69a3.76,3.76,0,0,0-1.12-1.57A1.2,1.2,0,0,1,121.68,82.4Z" transform="translate(-15.75 -17.69)"/><path class="cls-2" d="M152.07,82.5c0,.15.11.23.33.23l.67-.11a.93.93,0,0,1,.44.11c.81-.07,1.51-.11,2.11-.11,1.85,0,2.78.15,2.78.44a4.88,4.88,0,0,0-.67,1.11,35,35,0,0,1,1.44,5.43,51.62,51.62,0,0,1,1.44,5.22,19.87,19.87,0,0,1,.9,3.55c.15,0,.23.16.23.46l-.13.44a30.81,30.81,0,0,1,1.57,5q.19,0,.33,1.44c.17,0,.42.86.77,2.57a.79.79,0,0,0-.1.33,18.28,18.28,0,0,1,.77,2.45q.21,0,.21.21v.89c0,.32.41.84,1.23,1.55-.14.34-.28.53-.44.56l-.66-.12-.57.12c-.65-.08-1.06-.12-1.21-.12l-1.56.12c0-.15-.11-.22-.34-.22a4,4,0,0,1-1,.22h-2q-.15,0-.33-.33v-.33c.67-.46,1-.79,1-1-.28,0-.61-1.11-1-3.34a6.61,6.61,0,0,1-.67-2.1.2.2,0,0,1-.23-.22l.13-.77-.23-.12a11.26,11.26,0,0,1-3,2.44q0,.27-3.65,2.88a3.91,3.91,0,0,1-1.44,1.23v.11c0,.26.22.59.66,1v.23c0,.14-.37.25-1.1.33a2.54,2.54,0,0,0-.8-.22,1.21,1.21,0,0,1-.66.22h-1a5.7,5.7,0,0,1-1.12-.12,3,3,0,0,1-.78.12l-.77-.12a1.15,1.15,0,0,1-.56.23c-.81-.16-1.21-.31-1.21-.44v-.46c.66-.35,1-.68,1-1a19.28,19.28,0,0,1,.77-2.78,11,11,0,0,1,.77-3,18.47,18.47,0,0,1,.78-2.89A26.09,26.09,0,0,1,146.3,100l-.12-.77q.45,0,1.44-5A24,24,0,0,0,149,89.73c.15,0,.26-.45.33-1.34a5.36,5.36,0,0,0,.67-1.78l-.11-.22v-.11a21.78,21.78,0,0,1,.78-2.34c-.52-.49-.78-.78-.78-.88.11-.29.22-.44.34-.44h.21C150.77,82.62,151.33,82.58,152.07,82.5ZM154,94.05v.44a13.09,13.09,0,0,1-.77,2.9l.12.21a5.27,5.27,0,0,0-.56,2.23q-.59,2.55-.9,2.55v.21h.33c0-.31.93-1,2.78-2.11l.9-.65v-.12a4.38,4.38,0,0,1-.67-2.22,13.83,13.83,0,0,1-.9-3.44Z" transform="translate(-15.75 -17.69)"/><path class="cls-2" d="M170.93,82.41l.67.11a.93.93,0,0,0,.44-.11c1.53.07,2.58.14,3.13.21a1.33,1.33,0,0,1,.66-.21h.78c.13,0,.24.18.33.55a3.64,3.64,0,0,1-.77,1c0,.26,0,.89.1,1.9l-.1,1,.1.67-.21,1.35a1.33,1.33,0,0,1,.21.67v.33a6.18,6.18,0,0,1-.1,1,.79.79,0,0,1,.1.33,6.42,6.42,0,0,0-.1.67c.07.64.1,1,.1,1.1l-.1.8a6.89,6.89,0,0,1,.1,1.21,1.18,1.18,0,0,1-.21.56,9,9,0,0,1,.21,1.67,5.64,5.64,0,0,1-.21,1.13,7.82,7.82,0,0,1,.21,1.56h-.1l.1.21v.56a9.34,9.34,0,0,1-.1,1.23.92.92,0,0,1,.1.44l-.1.67q1,4.69,3.79,4.7h.67c.07,0,.11,0,.11.1a4.37,4.37,0,0,1,1.23-.23v.13c1.18-.88,1.77-1.44,1.77-1.67l.9-2.47-.11-.22a5.19,5.19,0,0,0,.11-.67c-.07-.53-.11-.83-.11-.9l.11-.77a8.81,8.81,0,0,1-.23-1.57,5.53,5.53,0,0,1,.23-1.1,9.4,9.4,0,0,1-.23-1.34.74.74,0,0,1,.12-.33l-.12-.67v-.23a1.34,1.34,0,0,1,.23-.67,17.62,17.62,0,0,1-.23-2.67l.12-.23a.81.81,0,0,1-.12-.44,1.76,1.76,0,0,1,.23-.89,4.72,4.72,0,0,0-.23-1.24,8.1,8.1,0,0,0,.12-1.23v-1a8.75,8.75,0,0,0-.12-1.44,11.71,11.71,0,0,0,.23-1.46,3.78,3.78,0,0,0-.9-1.56v-.11c0-.17.64-.32,1.9-.44l.67.11a1,1,0,0,0,.46-.11c1.53.07,2.57.14,3.11.21a1.36,1.36,0,0,1,.67-.21h.79c.13,0,.24.18.33.55a3.49,3.49,0,0,1-.79,1c0,.26,0,.89.12,1.9l-.12,1,.12.67-.22,1.35a1.26,1.26,0,0,1,.22.67v.33a5.52,5.52,0,0,1-.12,1,.74.74,0,0,1,.12.33,6.47,6.47,0,0,0-.12.67c.08.64.12,1,.12,1.1l-.12.8.12.77q0,.24-.12,1.23c.08.74.12,1.29.12,1.67l-.12.44.12.56-.12.56.12.67-.12.44a1.85,1.85,0,0,1,.23.67,1.34,1.34,0,0,0-.23.67v1.23c-.27,3.12-.71,5-1.34,5.8,0,.68-1.11,2-3.34,4a8.37,8.37,0,0,1-4.79,1.68c0,.07-.15.11-.44.11a12.69,12.69,0,0,1-4.36-.67,10.91,10.91,0,0,1-4.91-3.9l-1.33-3.34q-.35-.83-.67-7.14c.15-.56.23-.86.23-.89A9.4,9.4,0,0,1,169.7,97a.79.79,0,0,1,.1-.33l-.1-.67v-.23a1.34,1.34,0,0,1,.23-.67,17.62,17.62,0,0,1-.23-2.67l.1-.23a.89.89,0,0,1-.1-.44,1.76,1.76,0,0,1,.23-.89,5.82,5.82,0,0,0-.23-1.24,9.09,9.09,0,0,0,.1-1.23v-1a10,10,0,0,0-.1-1.44,11.71,11.71,0,0,0,.23-1.46A3.89,3.89,0,0,0,169,83v-.11C169,82.68,169.66,82.53,170.93,82.41Z" transform="translate(-15.75 -17.69)"/><path class="cls-2" d="M196.87,82.4l1.8.1c.78-.07,1.64-.1,2.56-.1.75.16,1.13.31,1.13.43V83a3.89,3.89,0,0,0-.9,1.56,4.7,4.7,0,0,0,.23,1.34,12.84,12.84,0,0,0-.12,1.56v1a8.1,8.1,0,0,0,.12,1.23,4.72,4.72,0,0,0-.23,1.24,1.69,1.69,0,0,1,.23.79,14.16,14.16,0,0,0-.23,1.67c0,.16,0,.57.11,1.23a3.39,3.39,0,0,0-.11.77c.16,0,.23.1.23.23a5.29,5.29,0,0,1-.12.9,6,6,0,0,1,.12.66,11.79,11.79,0,0,0-.23,1.57,1.22,1.22,0,0,1,.23.67v.12c0,.09-.07.68-.23,1.77a5.49,5.49,0,0,1,.23.8l-.23.56.23,1.44-.12.67a1,1,0,0,0,.12.56l-.23,2.79.34.23a.83.83,0,0,0,.44-.12l.56.12a10.43,10.43,0,0,0,2.23-.23,1.72,1.72,0,0,0,.9.23h.45a1.22,1.22,0,0,0,.67-.23l.9.11.54-.11a4,4,0,0,0,.9.11,1,1,0,0,0,.46-.11l.54.23c.14,0,.52-.3,1.13-.89h.23q.15,0,.33.33v.44a5.48,5.48,0,0,1-.12,1.12l.12.67a4.37,4.37,0,0,1-.23,1.23l.23,2-.33.89c-3.39.1-5.41.17-6.05.23a.79.79,0,0,0-.33-.1,6,6,0,0,1-.9.1,4.21,4.21,0,0,0-1-.23,8,8,0,0,1-1.23.23l-1.11-.1a5.83,5.83,0,0,1-.9.1,1,1,0,0,1-.45-.1,9.21,9.21,0,0,1-1.22.1h-.45c-.75,0-1.69,0-2.8-.1a3.32,3.32,0,0,1-.77.1,1.22,1.22,0,0,1-.23-.67,5.66,5.66,0,0,0,1.12-1.45c-.15-1.31-.27-2.87-.35-4.7l.23-1.11-.23-1.45q.12-1.57.12-2l-.12-.68c.15-1.49.23-3.17.23-5a2.13,2.13,0,0,0-.23-.67,2.72,2.72,0,0,0,.23-1.23,7.47,7.47,0,0,0-.23-.88,5.37,5.37,0,0,1,.23-.68c-.06-.82-.13-1.23-.23-1.23l.12-1.11v-3a5.24,5.24,0,0,0-.12-1c.08-.37.16-.56.23-.56l-.11-.21c0-.26,0-.9.11-1.92a4.46,4.46,0,0,0-.9-1.77v-.23c0-.15.1-.23.23-.23C195,82.5,195.77,82.47,196.87,82.4Z" transform="translate(-15.75 -17.69)"/><path class="cls-2" d="M235.42,82.4l.34.43v.67a17.45,17.45,0,0,0,.12,2l-.23,1,.23,2.67-.23.12h-.44a2.59,2.59,0,0,1-.89-.79l-1,.13c-.43,0-1.32,0-2.67-.13l-.79.13a7,7,0,0,1-1.11-.23l-.44.33.11.77v1a1.22,1.22,0,0,0,.23.66l-.12,1,.12.56-.23,1.44a1.8,1.8,0,0,1,.23.67,1.87,1.87,0,0,0-.23.89,11.36,11.36,0,0,1,.23,1.57v.1l-.23.78.23,1.46a6.53,6.53,0,0,0-.12.66,5.34,5.34,0,0,1,.12,1c-.15,0-.23.1-.23.23l.11.66a14,14,0,0,0-.11,1.44c.15.88.23,1.41.23,1.57a2.13,2.13,0,0,1-.23.67,4.49,4.49,0,0,0,.23,1.21,8.58,8.58,0,0,0-.12,1.23v1a8.75,8.75,0,0,0,.12,1.44,12.31,12.31,0,0,0-.23,1.46,3.68,3.68,0,0,0,.9,1.55v.12c0,.18-.64.33-1.9.44a6.42,6.42,0,0,0-.67-.1.92.92,0,0,0-.44.1c-1.53-.07-2.58-.14-3.13-.23a1.18,1.18,0,0,1-.67.23h-.77c-.13,0-.24-.19-.33-.56,0-.11.25-.44.77-1,0-.25,0-.88-.11-1.88l.11-1-.11-.66.23-1.34a1.27,1.27,0,0,1-.23-.56,12.09,12.09,0,0,1,.23-2.78,1.86,1.86,0,0,1-.23-.79l.11-.67a10.56,10.56,0,0,1-.11-1.33,3.72,3.72,0,0,0,.23-.67,12.16,12.16,0,0,1-.23-1.34,9.13,9.13,0,0,1,.23-1.33l-.23-2.34a3.27,3.27,0,0,0,.23-1.23l-.23-1.44c.07-1,.11-1.7.11-2l-.11-.77c.23-1.17.34-1.84.34-2a.21.21,0,0,1-.23-.23c-1.15.15-1.85.26-2.11.33a5.89,5.89,0,0,0-1-.1h-1.67a3.08,3.08,0,0,0-2,.77l-.56-.34.13-.77v-.12a1.34,1.34,0,0,0-.23-.67l.23-1.44a4.92,4.92,0,0,1-.13-1.11v-.12a4.32,4.32,0,0,1,.23-1,6,6,0,0,1-.1-1q.15,0,.33-.33l.77.12h.11a1,1,0,0,0,.56-.12,3.07,3.07,0,0,1,.44.12l1-.12a27.69,27.69,0,0,0,3,.23c0-.15.1-.23.23-.23s.56,0,1.33.12l1.34-.12,1.33.12q1-.12,1.23-.12a4,4,0,0,1,.88.23l1.13-.11,1.33.11.44-.11.57.11c1-.06,1.44-.14,1.44-.23l.56.12h.44A10,10,0,0,0,235.42,82.4Z" transform="translate(-15.75 -17.69)"/><path class="cls-2" d="M249.61,82.4a10.16,10.16,0,0,1,4.24,1.09c.32,0,.94.43,1.84,1.3.61.17,1.41,1.08,2.39,2.72a4.85,4.85,0,0,1,.76,1.2V89a9.68,9.68,0,0,1-2.39,1.74c0,.15-.29.27-.86.34,0,.25-.37.51-1.09.75,0,.3-.19.51-.55.65l-.21-.1a1.36,1.36,0,0,1-.65.21L253,92.4a5.41,5.41,0,0,1,.23-1c-.83-1.52-1.62-2.28-2.4-2.28-.63-.2-1-.38-1.09-.55l-1.3.13h-.77q-2.16.87-2.16,1.74c-.07.63-.11,1-.11,1.19a11.43,11.43,0,0,0,4.24,2.6l.21-.1a8.43,8.43,0,0,1,2.5,1.4c.57,0,1.7.62,3.37,1.85.18,0,.79.58,1.85,1.74.59.25,1.24,1.48,1.95,3.71v1.3a12.78,12.78,0,0,1-1.3,5.43,7.58,7.58,0,0,1-1.85,2.18c0,.47-1.12,1.15-3.37,2.06a1.56,1.56,0,0,0-1.08.44l-.54-.11a12.36,12.36,0,0,1-2,.21l-1.07-.1-.44.1a12.78,12.78,0,0,1-5.77-1.95c-1.66-1.15-2.49-2.06-2.49-2.72a6,6,0,0,1-1-1.64v-.1a35.16,35.16,0,0,1,3.69-2.94,4.89,4.89,0,0,1,1.53-1.3.69.69,0,0,1,.65-.44c0,.11.12.22.34.33l-.13.76V105c0,.54.48,1.15,1.43,1.85,0,.24.4.5,1.19.77,0,.2.73.38,2.18.54,1.81-.72,2.71-1.41,2.71-2.07a1.09,1.09,0,0,0,.23-.33v-.32a.83.83,0,0,0-.12-.44.81.81,0,0,0,.12-.44v-.1c-.27-1.08-.67-1.62-1.21-1.62,0-.27-.72-.71-2.17-1.32a13.66,13.66,0,0,0-3.58-1.41c-.06,0-1.11-.69-3.17-2.07-.28,0-.63-.32-1.07-1a5.05,5.05,0,0,1-2-2.72q-.54-.41-.75-3.69c0-.06.36-1.22,1.09-3.48.1,0,.47-.4,1.09-1.2a5.13,5.13,0,0,1,2-1.53q.42-.65,3.69-1.62a.93.93,0,0,0,.44.11,1.19,1.19,0,0,0,.65-.33h1.41Z" transform="translate(-15.75 -17.69)"/><path class="cls-1" d="M273.52,82.4a10.58,10.58,0,0,1,1.23.22,5.16,5.16,0,0,1,1-.12h.56a.83.83,0,0,1,.44.12,2.72,2.72,0,0,1,.9-.22c.29,0,.44.13.44.22l1.45-.22,1.9.22.9-.22a13,13,0,0,0,2.79.66c0,.35.41.58,1.24.67,1.71,1.51,2.56,2.56,2.56,3.13q1.33,1.56,1.34,5.15a14.07,14.07,0,0,1-.67,4.13v.77a6.42,6.42,0,0,1-1,1.8c-.42,1.42-1,2.12-1.57,2.12,0,.25-.59.85-1.79,1.8,0,.36-.33.54-1,.54H284c0,.44-.37.73-1.11.9,0,.36-.63.7-1.9,1a6.22,6.22,0,0,1-2.91,2c0,.15,0,.23-.11.23a18.16,18.16,0,0,1,.23,3c0,.3,0,1-.12,2a3.57,3.57,0,0,0,.89,1.33v.23c0,.3-.52.44-1.56.44a6.27,6.27,0,0,1-1.11-.1l-.46.1a9.09,9.09,0,0,0-1.23-.1c-.15,0-.56,0-1.23.1a3,3,0,0,0-.44-.1,6.21,6.21,0,0,1-1.12.1h-.55a.2.2,0,0,1-.23-.23,1.72,1.72,0,0,1,.9-1.44l-.23-.56L272,110a1.31,1.31,0,0,1-.23-.67c0-.44.1-.66.23-.66a5.29,5.29,0,0,1-.12-.9,12.5,12.5,0,0,1,.12-1.46,12.13,12.13,0,0,1-.23-1.23c0-.39.08-1.69.23-3.9-.17-2.31-.29-3.58-.33-3.8a11.15,11.15,0,0,0,.21-2.35l-.21-.44a1.93,1.93,0,0,0,.21-.9v-.56l-.11-.67a1.83,1.83,0,0,0,.23-.9,1.31,1.31,0,0,1-.23-.66c0-.94,0-2.1.11-3.47l-.21-1.33a1.4,1.4,0,0,0,.21-.67v-.79a5.05,5.05,0,0,0-.78-1.8v-.1c0-.15.1-.23.23-.23h1.11A6.57,6.57,0,0,0,273.52,82.4Zm4.57,6.25V89a4,4,0,0,0,.22,1l-.22.56.22,1.46a13.34,13.34,0,0,0-.22,2.23l.22.44-.22,1.57a11.14,11.14,0,0,1,.22,1.68c-.15,0-.22.1-.22.22v.22l.12.57h.1a11.62,11.62,0,0,0,4.26-3.7,8.35,8.35,0,0,0,1-2.23c0-2.22-.67-3.57-1.9-4a4.32,4.32,0,0,0-1.9-.57H279a.92.92,0,0,1-.44-.1C278.24,88.42,278.09,88.54,278.09,88.65Z" transform="translate(-15.75 -17.69)"/><path class="cls-1" d="M304.22,82.4a8.24,8.24,0,0,1,5.61,2.35q.69,0,2.13,2.13c.3,0,.72,1,1.25,3a8.3,8.3,0,0,1,.89,2.92v.46a1.2,1.2,0,0,1-.23.66l.23,1.57-.12.79.23,2.35-.23.57q.12,2.07.12,3.48-.42,4.69-1.35,5.82c0,.68-1.12,2-3.36,4a8.53,8.53,0,0,1-4.83,1.69c0,.07-.15.1-.44.1a12.77,12.77,0,0,1-4.38-.67,10.1,10.1,0,0,1-5.15-4.37,9.66,9.66,0,0,0-1-2.46,32.53,32.53,0,0,1-.67-5.28c0-.71,0-1.87.11-3.48a.9.9,0,0,1-.11-.44c.16,0,.23-.07.23-.23s0-.33-.12-.33l.12-1.12V95.3a6.89,6.89,0,0,0-.23-1.46q.8-5.61,1.36-5.61a5.33,5.33,0,0,1,1.67-2.35c.7-.58,1.08-1,1.12-1.23a4.39,4.39,0,0,1,2.36-1.13c.58-.75,2.08-1.12,4.48-1.12Zm-5,10.54.12.21c-.08.24-.16.35-.23.35l.11.44c0,2-.11,2.92-.33,2.92a.82.82,0,0,0,.1.34l-.1.66a19.62,19.62,0,0,1,.22,2.92v.46a.83.83,0,0,1-.12.44.85.85,0,0,1,.12.46s0,.53-.12,1.45a10.26,10.26,0,0,1,.79,2.36c1,1.49,2.08,2.23,3.25,2.23h1l1.11-.1v.1c1.5-.91,2.25-1.81,2.25-2.69a3.42,3.42,0,0,0,.56-1.79l-.12-.46c.08-.22.16-.33.23-.33l-.11-.77v-1.69a.1.1,0,0,1,.11-.11c0-.08,0-.12-.11-.12a4,4,0,0,0,.11-.44,6.44,6.44,0,0,0-.11-1.13c.07-.7.11-1.37.11-2l-.11-.79a4,4,0,0,0,.11-1v-.23a7.35,7.35,0,0,0-.23-.89v-.9a4.76,4.76,0,0,0-1.67-3.36,4.88,4.88,0,0,0-2.58-.89v-.13c-1.6,0-2.9.9-3.92,2.71A15.49,15.49,0,0,0,299.18,92.94Z" transform="translate(-15.75 -17.69)"/><path class="cls-1" d="M318.74,82.47a6,6,0,0,1,.67.1.89.89,0,0,0,.44-.1c1.54.07,2.58.14,3.13.22a1.32,1.32,0,0,1,.67-.22h.77c.13,0,.24.18.34.56a3.56,3.56,0,0,1-.78,1c0,.25,0,.88.11,1.9l-.11,1,.11.67-.21,1.33a1.4,1.4,0,0,1,.21.67v.34a6,6,0,0,1-.11,1,.84.84,0,0,1,.11.33c0,.06,0,.28-.11.67,0,.09,0,.47.11,1.13l-.11.77a7.12,7.12,0,0,1,.11,1.23,1.17,1.17,0,0,1-.21.54,9.22,9.22,0,0,1,.21,1.69,5.65,5.65,0,0,1-.21,1.11,9.64,9.64,0,0,1,.21,1.33.82.82,0,0,1-.11.34l.11.67V101a1.36,1.36,0,0,1-.21.66l.1.57a13.82,13.82,0,0,0-.1,1.44q.21,1.34.21,1.56a2,2,0,0,1-.21.67,5.65,5.65,0,0,0,.21,1.23,9.39,9.39,0,0,0-.11,1.21v1a10.19,10.19,0,0,0,.11,1.44,12.58,12.58,0,0,0-.21,1.45,3.81,3.81,0,0,0,.88,1.56v.12c0,.17-.63.31-1.89.44a6.42,6.42,0,0,0-.68-.1.92.92,0,0,0-.44.1c-1.54-.07-2.58-.14-3.13-.23a1.18,1.18,0,0,1-.67.23h-.77c-.13,0-.24-.19-.33-.56,0-.11.25-.44.77-1,0-.25,0-.88-.11-1.9l.11-1-.11-.67.23-1.34a1.15,1.15,0,0,1-.23-.56,12.09,12.09,0,0,1,.23-2.78,1.82,1.82,0,0,1-.23-.79l.11-.67a10.14,10.14,0,0,1-.11-1.33,3.72,3.72,0,0,0,.23-.67,8.74,8.74,0,0,1-.23-1.56,5.44,5.44,0,0,1,.23-1.11,9.17,9.17,0,0,1-.23-1.34.84.84,0,0,1,.11-.33l-.11-.67v-.23a1.34,1.34,0,0,1,.23-.67,17.41,17.41,0,0,1-.23-2.67l.11-.23a.87.87,0,0,1-.11-.44,1.82,1.82,0,0,1,.23-.89,5.82,5.82,0,0,0-.23-1.23,9.52,9.52,0,0,0,.11-1.22v-1a10.45,10.45,0,0,0-.11-1.45,10.07,10.07,0,0,0,.23-1.44,3.75,3.75,0,0,0-.89-1.56V82.9C316.85,82.74,317.48,82.59,318.74,82.47Z" transform="translate(-15.75 -17.69)"/><path class="cls-1" d="M344.67,82.4c.05,0,.27,0,.67.1a.92.92,0,0,0,.44-.1c1.53.07,2.57.14,3.11.22a1.32,1.32,0,0,1,.67-.22h.79c.12,0,.23.18.33.56a3.49,3.49,0,0,1-.79,1c0,.25,0,.87.13,1.88l-.13,1,.13.67-.23,1.34a1.31,1.31,0,0,1,.23.66v.34a5.37,5.37,0,0,1-.13,1,.89.89,0,0,1,.13.33c0,.06,0,.29-.13.67,0,.1,0,.47.13,1.13l-.13.77A6.42,6.42,0,0,1,350,95a1.2,1.2,0,0,1-.23.55A8.55,8.55,0,0,1,350,97.2a5.37,5.37,0,0,1-.23,1.12,9.17,9.17,0,0,1,.23,1.34.78.78,0,0,1-.13.33l.13.67v.23a1.34,1.34,0,0,1-.23.67l.1.54a14,14,0,0,0-.1,1.46c.15.88.23,1.39.23,1.55a1.88,1.88,0,0,1-.23.66A4.14,4.14,0,0,0,350,107a7.34,7.34,0,0,0-.13,1.24v1a8,8,0,0,0,.13,1.44,9.66,9.66,0,0,0-.23,1.44,3.88,3.88,0,0,0,.89,1.56v.11c0,.18-.63.33-1.9.46a4.93,4.93,0,0,0-.66-.13.74.74,0,0,0-.44.13c-1.54-.09-2.58-.16-3.13-.23a1.34,1.34,0,0,1-.67.23h-.77c-.13,0-.24-.19-.34-.57a3.73,3.73,0,0,1,.67-.89,17.22,17.22,0,0,1-1.67-2.78l-1.12-1.23a1,1,0,0,0-.55-1c-.15,0-.23-.18-.23-.55H340a19.35,19.35,0,0,0-1.34-2.56c-.3-.39-1.12-1.76-2.44-4.12h.1a8,8,0,0,0-1.44-2,6.3,6.3,0,0,0-.89-1.9h-.21v.44a5,5,0,0,1-.23,1.34,9.13,9.13,0,0,1,.23,1.33.81.81,0,0,1-.13.34l.13.66V101a1.34,1.34,0,0,1-.23.67l.1.56a13.48,13.48,0,0,0-.1,1.44c.15.88.23,1.41.23,1.57a2.13,2.13,0,0,1-.23.67,4.11,4.11,0,0,0,.23,1.21,7.55,7.55,0,0,0-.13,1.23v1a7.79,7.79,0,0,0,.13,1.44,10.38,10.38,0,0,0-.23,1.46,3.77,3.77,0,0,0,.89,1.55v.12c0,.18-.63.33-1.89.44a6.42,6.42,0,0,0-.67-.1.89.89,0,0,0-.44.1c-1.54-.07-2.58-.14-3.13-.23a1.2,1.2,0,0,1-.67.23h-.77c-.13,0-.24-.19-.34-.56,0-.11.26-.44.78-1,0-.25,0-.88-.11-1.88l.11-1-.11-.66.23-1.34a1.27,1.27,0,0,1-.23-.56,12.09,12.09,0,0,1,.23-2.78,1.86,1.86,0,0,1-.23-.79l.11-.67a10.56,10.56,0,0,1-.11-1.33,5,5,0,0,0,.23-.67,8.78,8.78,0,0,1-.23-1.55,5.37,5.37,0,0,1,.23-1.12,9.4,9.4,0,0,1-.23-1.34.84.84,0,0,1,.11-.33l-.11-.67v-.23a1.34,1.34,0,0,1,.23-.67,17.41,17.41,0,0,1-.23-2.67l.11-.21a1,1,0,0,1-.11-.46,1.81,1.81,0,0,1,.23-.88,5.82,5.82,0,0,0-.23-1.23,9.36,9.36,0,0,0,.11-1.23v-1a10.19,10.19,0,0,0-.11-1.44,11.35,11.35,0,0,0,.23-1.44,3.89,3.89,0,0,0-.9-1.57V83c0-.18.64-.33,1.9-.46l.67.12a.83.83,0,0,0,.44-.12c1.53.08,2.57.16,3.11.23a1.34,1.34,0,0,1,.67-.23h.79c.13,0,.24.19.33.56a3.47,3.47,0,0,1-.66.9v.11l2,3.56A5.84,5.84,0,0,0,337,89.51a6.91,6.91,0,0,1,1,2,4.85,4.85,0,0,1,1.23,2.13c.27,0,.64.67,1.11,1.88.2,0,.54.44,1,1.33.67.72,1,1.2,1,1.46a3.65,3.65,0,0,0,1,1.9l.33-1.9a9.36,9.36,0,0,1-.23-1.33.82.82,0,0,1,.11-.34l-.11-.67v-.23a1.31,1.31,0,0,1,.23-.66,17.43,17.43,0,0,1-.23-2.68l.11-.22a.93.93,0,0,1-.11-.44,1.88,1.88,0,0,1,.23-.9,5.38,5.38,0,0,0-.23-1.21,10,10,0,0,0,.11-1.23v-1a10,10,0,0,0-.11-1.44,11.71,11.71,0,0,0,.23-1.46,3.7,3.7,0,0,0-.9-1.54v-.13C342.77,82.66,343.41,82.51,344.67,82.4Z" transform="translate(-15.75 -17.69)"/><path class="cls-1" d="M374,82.4l.33.43v.67a17.45,17.45,0,0,0,.12,2l-.22,1,.22,2.67-.22.12h-.44a2.6,2.6,0,0,1-.9-.79l-1,.13c-.44,0-1.33,0-2.67-.13l-.8.13a6.54,6.54,0,0,1-1.1-.23l-.44.33.1.77v1a1.22,1.22,0,0,0,.23.66l-.12,1,.12.56L367,94.19a1.63,1.63,0,0,1,.23.67,1.87,1.87,0,0,0-.23.89,9.93,9.93,0,0,1,.23,1.57v.1l-.23.78.23,1.46a6.53,6.53,0,0,0-.12.66,5.34,5.34,0,0,1,.12,1c-.15,0-.23.1-.23.23l.11.66a14,14,0,0,0-.11,1.44,13.69,13.69,0,0,1,.23,1.57,1.89,1.89,0,0,1-.23.67,4.49,4.49,0,0,0,.23,1.21,8.58,8.58,0,0,0-.12,1.23v1a8.75,8.75,0,0,0,.12,1.44,12.31,12.31,0,0,0-.23,1.46,3.78,3.78,0,0,0,.9,1.55v.12c0,.18-.63.33-1.9.44a6.42,6.42,0,0,0-.67-.1.92.92,0,0,0-.44.1c-1.53-.07-2.57-.14-3.12-.23a1.2,1.2,0,0,1-.67.23h-.78c-.13,0-.24-.19-.33-.56,0-.11.26-.44.77-1,0-.25,0-.88-.1-1.88l.1-1-.1-.66.23-1.34a1.16,1.16,0,0,1-.23-.56,11.4,11.4,0,0,1,.23-2.78,1.72,1.72,0,0,1-.23-.79l.1-.67a10.3,10.3,0,0,1-.1-1.33,5,5,0,0,0,.23-.67,10,10,0,0,1-.23-1.34,7.85,7.85,0,0,1,.23-1.33l-.23-2.34a3.48,3.48,0,0,0,.23-1.23l-.23-1.44c.07-1,.1-1.7.1-2l-.1-.77c.22-1.17.33-1.84.33-2a.21.21,0,0,1-.23-.23c-1.15.15-1.85.26-2.11.33a5.79,5.79,0,0,0-1-.1H356a3.05,3.05,0,0,0-2,.77l-.56-.34.12-.77v-.12a1.34,1.34,0,0,0-.23-.67l.23-1.44a5.53,5.53,0,0,1-.12-1.11v-.12a4.13,4.13,0,0,1,.22-1,6,6,0,0,1-.1-1c.1,0,.22-.11.33-.33l.78.12h.1a1,1,0,0,0,.56-.12,2.74,2.74,0,0,1,.44.12l1-.12a27.37,27.37,0,0,0,3,.23c0-.15.1-.23.23-.23s.56,0,1.34.12l1.33-.12,1.34.12q1-.12,1.23-.12a4.1,4.1,0,0,1,.88.23l1.12-.11,1.34.11.44-.11.56.11c1-.06,1.44-.14,1.44-.23l.56.12H372A10.17,10.17,0,0,0,374,82.4Z" transform="translate(-15.75 -17.69)"/><path class="cls-1" d="M377.35,82.4a3.32,3.32,0,0,1,.77.1c1.12-.07,2.05-.1,2.8-.1h.44a9.34,9.34,0,0,1,1.23.1,1.12,1.12,0,0,1,.56-.1l.77.1a9.6,9.6,0,0,1,1.23-.1,7.38,7.38,0,0,0,1.34.22,4.3,4.3,0,0,1,.9-.22l.77.1c.15,0,.23,0,.23-.1.91.07,3,.14,6.13.22.16.52.27.78.34.78l-.23,2.12a3.8,3.8,0,0,1,.23,1.34l-.11.56a6.32,6.32,0,0,1,.11,1.11V89c0,.12-.11.23-.34.33h-.22c-.6-.58-1-.88-1.11-.88-.31.06-.46.13-.46.22l-.54-.11a3.82,3.82,0,0,0-.9.11l-.67-.11-.79.11a1.24,1.24,0,0,0-.67-.22h-.44c-.51,0-.77.1-.77.22a18.42,18.42,0,0,0-2.36-.22l-.54.11a1.21,1.21,0,0,0-.56-.11c0,.15-.08.22-.23.22l.23,2.79a2.31,2.31,0,0,0-.23,1,9.34,9.34,0,0,0,.23,1.57l-.23,4.34a.74.74,0,0,1,.33.12c0-.24,1.08-.84,3.24-1.79A2.71,2.71,0,0,0,389,96a4.22,4.22,0,0,0,1.9-1.11,10.38,10.38,0,0,1,2.23-1h.34c.16,0,.27.18.33.55a1.28,1.28,0,0,0-.23.66v4.36l.23.78c-.29.66-.48,1-.56,1H393c-.47-.52-.8-.77-1-.77,0,.29-.55.62-1.57,1a4.19,4.19,0,0,1-1.9,1,17.6,17.6,0,0,1-3.11,1.67,2.17,2.17,0,0,1-1,.56.11.11,0,0,1-.12.12l.12,1.11v1l-.12,1.34.23.12a9.52,9.52,0,0,1,1.44-.23l.56.11.56-.11,1,.11c.23-.07.34-.14.34-.21l2.23.33c2.31-.17,3.46-.44,3.46-.79l.34-.21h.1c.23.07.34.29.34.67v1.55a3.68,3.68,0,0,0,.1.89c-.08,1.8-.19,2.69-.33,2.69l.12.21v.46c0,.29-.6.44-1.79.44a5.24,5.24,0,0,1-1.23-.11c-.7.07-1.37.11-2,.11h-.89c-1.16,0-2.35,0-3.57-.11a7.79,7.79,0,0,1-1.44.11l-.67-.11a.84.84,0,0,0-.33.11l-1-.11-2.23.11c-1-.07-1.75-.11-2.23-.11l-.12-.22v-.23a4,4,0,0,0,.89-1.9c-.07-.87-.1-1.5-.1-1.9h.1c-.07-.36-.14-.54-.23-.54l.13-1.13v-3a4.64,4.64,0,0,0-.13-1,4.22,4.22,0,0,0,.23-1.46,1.22,1.22,0,0,1-.23-.66l.23-.78a2.59,2.59,0,0,0-.23-1.23,1.71,1.71,0,0,0,.23-.89,42.88,42.88,0,0,0-.23-4.68,4.62,4.62,0,0,0,.13-.9c0-.14,0-.81-.13-2a12.13,12.13,0,0,1,.23-1.23,3.59,3.59,0,0,0-.23-1.13c.09-2,.2-3.52.34-4.67a3.62,3.62,0,0,0-1.11-1.57A1.28,1.28,0,0,1,377.35,82.4Z" transform="translate(-15.75 -17.69)"/><path class="cls-1" d="M398,82.4l1,.1c.77-.07,1.22-.1,1.34-.1s.46,0,1.1.1a5.9,5.9,0,0,1,.88-.1,6.42,6.42,0,0,1,.67.1,5.89,5.89,0,0,1,1-.1l.23.1a.92.92,0,0,1,.44-.1,9.37,9.37,0,0,0,2.55.43l2.55.67.56-.1A19.85,19.85,0,0,1,413,85.28c.68,0,1.45.67,2.33,2q1.2.06,3.33,4a6.76,6.76,0,0,1,1.12,2.45l.88,4.65v.44a7.52,7.52,0,0,0-.56,2.78.1.1,0,0,0-.11.11l.11.56a4.85,4.85,0,0,1-.65,1.44,14.82,14.82,0,0,1-2.45,4.55c-.37.11-.93.7-1.67,1.78q-.83,1.05-1.44,1.11a5.8,5.8,0,0,1-3.44,1.77,4.36,4.36,0,0,1-3,1c0,.14-.56.21-1.67.21H405l-.34.23a5.52,5.52,0,0,1-.88-.1,5.86,5.86,0,0,1-.89.1l-.44-.23a15.73,15.73,0,0,1-1.9.23l-.21-.1a3.31,3.31,0,0,1-.44.1c-.71-.07-1.37-.1-2-.1a1.25,1.25,0,0,1-.22-.57,3.14,3.14,0,0,0,1-1.88c-.11-1.58-.18-2.39-.21-2.44a14.43,14.43,0,0,0,.1-1.55V105.7a14.44,14.44,0,0,0-.1-1.56,4.55,4.55,0,0,0,.21-1.44.19.19,0,0,1-.21-.21v-.23l.21-1a10.1,10.1,0,0,0-.21-1.22,1.36,1.36,0,0,0,.21-.66,19.5,19.5,0,0,0-.34-4.89,1.25,1.25,0,0,0,.23-.67,5.68,5.68,0,0,0-.23-2,6.7,6.7,0,0,0,.34-1.45l-.21-1.11c.14-2.26.21-3.89.21-4.87a5.61,5.61,0,0,0-1.11-1.34V83C397.8,82.58,398,82.4,398,82.4Zm6.89,6.09v.11l.21,3a1.83,1.83,0,0,0-.21.77c0,.26.07.88.21,1.88a5.5,5.5,0,0,1-.21,1.44,6.39,6.39,0,0,1,.11,1c0,.89-.08,1.34-.23,1.34l.33,2v.11a4.17,4.17,0,0,1-.1,1,6.27,6.27,0,0,1,.1,1.11v.33c0,.37-.07.55-.21.55a.84.84,0,0,0,.11.33,3.4,3.4,0,0,1-.11.79c0,.11,0,.62.11,1.55-.07,1.16-.11,2-.11,2.55h.21a7.77,7.77,0,0,1,.9-.23c.07,0,.1,0,.1.12,1.53-.51,2.34-.77,2.45-.77q4.43-2.83,4.43-4.55c.34,0,.71-.67,1.12-2l-.12-.21v-.56a14.76,14.76,0,0,0,.45-1.44,6,6,0,0,0-.79-3.32c-.14-1-1.21-2.63-3.21-4.79A10.26,10.26,0,0,0,404.93,88.49Z" transform="translate(-15.75 -17.69)"/><path class="cls-1" d="M443.57,82.4a8.23,8.23,0,0,1,5.6,2.35q.69,0,2.13,2.13c.31,0,.72,1,1.25,3a8.45,8.45,0,0,1,.9,2.92v.46a1.28,1.28,0,0,1-.23.66l.23,1.57-.13.79.23,2.35-.23.57c.08,1.38.13,2.54.13,3.48q-.43,4.69-1.36,5.82c0,.68-1.12,2-3.36,4a8.5,8.5,0,0,1-4.83,1.69c0,.07-.15.1-.44.1a12.77,12.77,0,0,1-4.38-.67,10.1,10.1,0,0,1-5.15-4.37,9.66,9.66,0,0,0-1-2.46,31.66,31.66,0,0,1-.66-5.28c0-.71,0-1.87.1-3.48a.89.89,0,0,1-.1-.44c.15,0,.22-.07.22-.23s0-.33-.12-.33l.12-1.12V95.3a7.41,7.41,0,0,0-.22-1.46q.78-5.61,1.35-5.61a5.41,5.41,0,0,1,1.67-2.35c.7-.58,1.08-1,1.12-1.23a4.39,4.39,0,0,1,2.36-1.13c.59-.75,2.08-1.12,4.48-1.12Zm-5.05,10.54.12.21c-.08.24-.15.35-.22.35l.1.44c0,2-.11,2.92-.33,2.92a.82.82,0,0,0,.1.34l-.1.66a19.66,19.66,0,0,1,.23,2.92v.46a.76.76,0,0,1-.13.44.78.78,0,0,1,.13.46s0,.53-.13,1.45a10.26,10.26,0,0,1,.79,2.36c1,1.49,2.08,2.23,3.26,2.23h1l1.1-.1v.1c1.5-.91,2.25-1.81,2.25-2.69a3.44,3.44,0,0,0,.57-1.79l-.13-.46c.08-.22.16-.33.23-.33l-.1-.77v-1.69c0-.07,0-.11.1-.11s0-.12-.1-.12a3,3,0,0,0,.1-.44,6.4,6.4,0,0,0-.1-1.13,20.22,20.22,0,0,0,.1-2l-.1-.79a4.06,4.06,0,0,0,.1-1v-.23a7.35,7.35,0,0,0-.23-.89v-.9a4.72,4.72,0,0,0-1.67-3.36,4.85,4.85,0,0,0-2.58-.89v-.13c-1.6,0-2.9.9-3.92,2.71A15.49,15.49,0,0,0,438.52,92.94Z" transform="translate(-15.75 -17.69)"/><path class="cls-1" d="M458.09,82.41l.66.11a.9.9,0,0,0,.44-.11c1.54.07,2.58.14,3.13.21a1.4,1.4,0,0,1,.67-.21h.77c.13,0,.24.18.34.55a3.56,3.56,0,0,1-.78,1c0,.26,0,.89.11,1.9l-.11,1,.11.67-.21,1.35a1.33,1.33,0,0,1,.21.67v.33a6.37,6.37,0,0,1-.11,1,.84.84,0,0,1,.11.33c-.07.39-.11.61-.11.67.07.64.11,1,.11,1.1l-.11.8a6.89,6.89,0,0,1,.11,1.21,1.18,1.18,0,0,1-.21.56,9,9,0,0,1,.21,1.67,5.64,5.64,0,0,1-.21,1.13,7.82,7.82,0,0,1,.21,1.56h-.11l.11.21v.56a9.65,9.65,0,0,1-.11,1.23.93.93,0,0,1,.11.44l-.11.67q1,4.69,3.8,4.7h.67c.07,0,.1,0,.1.1a4.58,4.58,0,0,1,1.24-.23v.13c1.18-.88,1.77-1.44,1.77-1.67l.9-2.47-.11-.22c.07-.39.11-.61.11-.67-.07-.53-.11-.83-.11-.9l.11-.77a8,8,0,0,1-.23-1.57,4.86,4.86,0,0,1,.23-1.1,8.07,8.07,0,0,1-.23-1.34.74.74,0,0,1,.12-.33l-.12-.67v-.23a1.25,1.25,0,0,1,.23-.67,16.42,16.42,0,0,1-.23-2.67l.12-.23a.81.81,0,0,1-.12-.44,1.67,1.67,0,0,1,.23-.89,4.72,4.72,0,0,0-.23-1.24,8.1,8.1,0,0,0,.12-1.23v-1a8.75,8.75,0,0,0-.12-1.44,11.71,11.71,0,0,0,.23-1.46,3.89,3.89,0,0,0-.9-1.56v-.11c0-.17.63-.32,1.9-.44l.67.11a.91.91,0,0,0,.45-.11q2.31.11,3.12.21a1.33,1.33,0,0,1,.66-.21h.79c.13,0,.24.18.34.55a3.73,3.73,0,0,1-.79,1c0,.26,0,.89.12,1.9l-.12,1,.12.67-.23,1.35a1.28,1.28,0,0,1,.23.67v.33a5.52,5.52,0,0,1-.12,1,.74.74,0,0,1,.12.33,6.47,6.47,0,0,0-.12.67c.08.64.12,1,.12,1.1l-.12.8.12.77q0,.24-.12,1.23c.08.74.12,1.29.12,1.67l-.12.44.12.56L478,99l.12.67-.12.44a1.85,1.85,0,0,1,.23.67,1.25,1.25,0,0,0-.23.67v1.23q-.41,4.68-1.34,5.8c0,.68-1.11,2-3.34,4a8.43,8.43,0,0,1-4.8,1.68c0,.07-.14.11-.44.11a12.73,12.73,0,0,1-4.36-.67,10.89,10.89,0,0,1-4.9-3.9l-1.34-3.34a43.57,43.57,0,0,1-.66-7.14c.15-.56.22-.86.22-.89a8.8,8.8,0,0,1-.22-1.34.79.79,0,0,1,.1-.33l-.1-.67v-.23a1.32,1.32,0,0,1,.22-.67,17.53,17.53,0,0,1-.22-2.67l.1-.23a.89.89,0,0,1-.1-.44,1.75,1.75,0,0,1,.22-.89,6.09,6.09,0,0,0-.22-1.24,9.09,9.09,0,0,0,.1-1.23v-1a10,10,0,0,0-.1-1.44,10.9,10.9,0,0,0,.22-1.46,3.88,3.88,0,0,0-.89-1.56v-.11C456.19,82.68,456.82,82.53,458.09,82.41Z" transform="translate(-15.75 -17.69)"/><path class="cls-1" d="M502.17,82.4l.34.43v.67a17.45,17.45,0,0,0,.12,2l-.23,1,.23,2.67-.23.12H502a2.7,2.7,0,0,1-.9-.79l-1,.13c-.43,0-1.32,0-2.67-.13l-.79.13a7,7,0,0,1-1.11-.23l-.44.33.11.77v1a1.15,1.15,0,0,0,.23.66l-.13,1,.13.56-.23,1.44a1.8,1.8,0,0,1,.23.67,1.76,1.76,0,0,0-.23.89,11.36,11.36,0,0,1,.23,1.57v.1l-.23.78.23,1.46a5.27,5.27,0,0,0-.13.66,4.72,4.72,0,0,1,.13,1c-.16,0-.23.1-.23.23l.1.66a13.48,13.48,0,0,0-.1,1.44c.15.88.23,1.41.23,1.57a2.13,2.13,0,0,1-.23.67,4.11,4.11,0,0,0,.23,1.21,7.55,7.55,0,0,0-.13,1.23v1a7.79,7.79,0,0,0,.13,1.44,10.38,10.38,0,0,0-.23,1.46,3.77,3.77,0,0,0,.89,1.55v.12c0,.18-.63.33-1.89.44a6.42,6.42,0,0,0-.67-.1.89.89,0,0,0-.44.1c-1.54-.07-2.58-.14-3.13-.23a1.18,1.18,0,0,1-.67.23h-.77c-.13,0-.24-.19-.34-.56,0-.11.26-.44.78-1,0-.25,0-.88-.11-1.88l.11-1-.11-.66.23-1.34a1.27,1.27,0,0,1-.23-.56,12.09,12.09,0,0,1,.23-2.78,1.86,1.86,0,0,1-.23-.79l.11-.67a10.56,10.56,0,0,1-.11-1.33,3.72,3.72,0,0,0,.23-.67,12.16,12.16,0,0,1-.23-1.34,9.13,9.13,0,0,1,.23-1.33l-.23-2.34a3.27,3.27,0,0,0,.23-1.23l-.23-1.44c.07-1,.11-1.7.11-2l-.11-.77c.23-1.17.34-1.84.34-2a.2.2,0,0,1-.23-.23c-1.15.15-1.85.26-2.11.33a5.89,5.89,0,0,0-1-.1h-1.67a3.06,3.06,0,0,0-2,.77l-.56-.34.12-.77v-.12a1.32,1.32,0,0,0-.22-.67l.22-1.44a5.53,5.53,0,0,1-.12-1.11v-.12a4.32,4.32,0,0,1,.23-1,6.15,6.15,0,0,1-.11-1c.11,0,.22-.11.34-.33l.77.12h.11a1,1,0,0,0,.56-.12l.44.12,1-.12a27.69,27.69,0,0,0,3,.23c0-.15.1-.23.22-.23s.57,0,1.34.12l1.34-.12,1.33.12q1-.12,1.23-.12a4.1,4.1,0,0,1,.88.23l1.13-.11,1.33.11.44-.11.56.11c1-.06,1.45-.14,1.45-.23l.56.12h.44A10.08,10.08,0,0,0,502.17,82.4Z" transform="translate(-15.75 -17.69)"/></svg>