<svg id="Calque_1" data-name="Calque 1" xmlns="http://www.w3.org/2000/svg" viewBox="0 0 670.8 57.46"><defs><style>.cls-1{fill:#f6f6f6;}.cls-2{fill:#e61f52;}</style></defs><path class="cls-1" d="M16.09,18.34h.17a2.56,2.56,0,0,0,1,1.87Q20.19,25,27.39,27.74a2,2,0,0,0,1,.17c.41,0,.75-.28,1-.85v-.51c0-.21-.79-1-2.38-2.4-1.81-1.93-2.79-3.18-2.92-3.74l.34-.2q.83,1.59,5.67,2.92A7.75,7.75,0,0,1,31.5,23c.56.22.85.39.85.51l1.18-.17H34c4.35,0,7,.28,7.88.85h.88a10.83,10.83,0,0,1,1.36-.34,15.72,15.72,0,0,1,6.68,1.72q.82,0,3.06,2a9.21,9.21,0,0,1,3.42,3.94,8.61,8.61,0,0,1,1.73,2.58v.51a6.48,6.48,0,0,1-2.92,1.86c-.3.61-1.16,1.13-2.57,1.56q0,.63-1.53,1c0,.64-.8,1.1-2.41,1.36l-.17-.34a9.86,9.86,0,0,1,.34-1.7q-1.47-2.94-3.43-3.59l-2.88-1a2.13,2.13,0,0,1-.51.34H40.22c-1.95,1.19-2.92,2-2.92,2.37-.11,1.42-.17,2.17-.17,2.24q4.5,4.2,8.21,4.45a37.81,37.81,0,0,0,5.84,3.09L53.9,48.1q5.66,4.62,5.66,7.88c.11,0,.34.22.68.68l-.17.87v1.7Q59.2,67.29,58,67.28q0,1.64-4.61,5.63Q50,75,48.26,75q0,.26-.51.51l-.85-.17a20.88,20.88,0,0,1-3.25.34c-.25,0-.88-.06-1.9-.17l-.68.17q-3.66,0-9.4-3.26-4.11-2.85-4.11-4.61A6.1,6.1,0,0,1,26.2,65a96.38,96.38,0,0,0,7.67-6.15c.93-.79,1.56-1.19,1.9-1.19l.34.51v.85a7.9,7.9,0,0,1-.17,1.53,6,6,0,0,0,2.41,2.92c0,.45.57.79,1.7,1,0,.45,1.25.8,3.77,1q4.44-1.68,4.44-3.43c.23,0,.34-.29.34-.88a1.46,1.46,0,0,0-.17-.68l.17-1a3.74,3.74,0,0,0-2-2.91A8.57,8.57,0,0,0,43.31,55q-.54-.76-6-2.41-2.55-1.53-5.12-3.4-.63,0-3.09-2.91-2.2-.89-7.17-6.86a16.11,16.11,0,0,1-3.59-4.1v-.51Q24,39.21,25,39.21c.51,0,.8-.56.85-1.7q0-1.15-5.46-6a31,31,0,0,1-3.09-5.64c-.25,0-.59-1.25-1-3.76a12.65,12.65,0,0,1-.51-2.24V18.68C15.79,18.45,15.9,18.34,16.09,18.34Zm1.73,15.58.17.34v.17h-.17c-.25,0-.37-.12-.37-.34Z" transform="translate(-15.75 -18.2)"/><path class="cls-1" d="M93.74,24.15a10.72,10.72,0,0,1,1.08.17,1.52,1.52,0,0,0,.71-.17q3.7.17,5,.36a2.15,2.15,0,0,1,1.08-.36h1.27q.28,0,.54.9a5.85,5.85,0,0,1-1.27,1.62c0,.39.06,1.4.19,3l-.19,1.61.19,1.08L102,34.54a2.12,2.12,0,0,1,.36,1.07v.54a8.32,8.32,0,0,1-.19,1.62,1.28,1.28,0,0,1,.19.54,9.58,9.58,0,0,1-.19,1.07c0,.15.06.76.19,1.81l-.19,1.25a10.22,10.22,0,0,1,.19,2,1.87,1.87,0,0,1-.36.88,13.76,13.76,0,0,1,.36,2.69A8.5,8.5,0,0,1,102,49.8a14.58,14.58,0,0,1,.36,2.16,1.13,1.13,0,0,1-.19.53l.19,1.08v.37A2.09,2.09,0,0,1,102,55l.17.88a21.25,21.25,0,0,0-.17,2.35c.24,1.42.36,2.25.36,2.5a3.13,3.13,0,0,1-.36,1.07,7.24,7.24,0,0,0,.36,2,13.15,13.15,0,0,0-.19,2v1.61a14.23,14.23,0,0,0,.19,2.32A18.15,18.15,0,0,0,102,72a6.33,6.33,0,0,0,1.44,2.53v.17c0,.28-1,.52-3.06.73a10.52,10.52,0,0,0-1.08-.2,1.27,1.27,0,0,0-.7.2c-2.48-.13-4.16-.25-5-.37a2.08,2.08,0,0,1-1.08.37H91.22c-.2,0-.38-.3-.53-.9a5.61,5.61,0,0,1,1.24-1.62c0-.4-.06-1.41-.17-3.06l.17-1.61-.17-1.08L92.13,65a1.81,1.81,0,0,1-.37-.88c.11-3,.24-4.5.37-4.5a2.73,2.73,0,0,1-.37-1.25l.17-1.07a17.4,17.4,0,0,1-.17-2.16l.37-1.24v-.2q0-.26-.54-.54c-.21.42-1.11,1-2.72,1.62-1.43,1.07-2.44,1.61-3,1.61a10.93,10.93,0,0,1-3.42,1.81q-.86,1-5.92,3.23H76a1.63,1.63,0,0,1-.17.54,6.58,6.58,0,0,0,.37,2,12.36,12.36,0,0,0-.2,2v1.61a13,13,0,0,0,.2,2.32,17.71,17.71,0,0,0-.37,2.35,6.18,6.18,0,0,0,1.44,2.5v.19c0,.29-1,.52-3.06.71-.62-.11-1-.17-1.07-.17a1.49,1.49,0,0,0-.71.17c-2.47-.11-4.15-.23-5-.37a2,2,0,0,1-1.08.37H65q-.32,0-.54-.9a5.54,5.54,0,0,1,1.25-1.62c0-.4-.06-1.41-.17-3l.17-1.61-.17-1.08.36-2.15a2,2,0,0,1-.36-.91q.17-4.47.36-4.47a3,3,0,0,1-.36-1.28l.17-1.07a15.65,15.65,0,0,1-.17-2.16,7.75,7.75,0,0,0,.36-1.07,13.91,13.91,0,0,1-.36-2.49A8.67,8.67,0,0,1,65.93,50a14.53,14.53,0,0,1-.36-2.15,1.24,1.24,0,0,1,.17-.54l-.17-1.07v-.37a2.15,2.15,0,0,1,.36-1.08,28.2,28.2,0,0,1-.36-4.3l.17-.34a1.47,1.47,0,0,1-.17-.74A2.84,2.84,0,0,1,65.93,38a9.69,9.69,0,0,0-.36-2,15.49,15.49,0,0,0,.17-2V32.39a17.05,17.05,0,0,0-.17-2.33,17.89,17.89,0,0,0,.36-2.32,6.48,6.48,0,0,0-1.44-2.52v-.17c0-.28,1-.53,3.06-.73.07,0,.43.06,1.07.19a1.3,1.3,0,0,0,.71-.19c2.47.13,4.15.25,5,.36a2.15,2.15,0,0,1,1.08-.36H76.7c.2,0,.38.3.53.9,0,.17-.42.71-1.27,1.62,0,.39.06,1.41.2,3.05L76,31.51l.2,1.07-.37,2.16a2.11,2.11,0,0,1,.37,1.07v.54A8.53,8.53,0,0,1,76,38a1.17,1.17,0,0,1,.2.53,8.76,8.76,0,0,0-.2,1.08c.13,1,.2,1.63.2,1.78L76,42.61a10.23,10.23,0,0,1,.2,2,2.08,2.08,0,0,1-.37.91,13.53,13.53,0,0,1,.37,2.69A8.84,8.84,0,0,1,75.79,50,6.46,6.46,0,0,1,76,51.42q1.13,0,7.9-4.14A6.44,6.44,0,0,0,86.72,46a7.81,7.81,0,0,0,2.69-1.62,10.37,10.37,0,0,1,2.52-1.27L91.76,41v-.34a1.68,1.68,0,0,1,.17-.74,1.49,1.49,0,0,1-.17-.71,2.91,2.91,0,0,1,.37-1.44,9.27,9.27,0,0,0-.37-2,16.08,16.08,0,0,0,.17-2V32.22a16.6,16.6,0,0,0-.17-2.33,17.23,17.23,0,0,0,.37-2.35,6.2,6.2,0,0,0-1.44-2.49v-.2C90.69,24.57,91.7,24.33,93.74,24.15Z" transform="translate(-15.75 -18.2)"/><path class="cls-1" d="M127.33,24.15a13.33,13.33,0,0,1,9,3.79q1.09,0,3.42,3.43.74,0,2,4.87.66.73,1.45,4.7v.74a2.11,2.11,0,0,1-.37,1.07l.37,2.52-.2,1.28.37,3.79-.37.91c.13,2.23.2,4.09.2,5.61-.46,5-1.18,8.16-2.18,9.37,0,1.09-1.81,3.27-5.41,6.51a13.63,13.63,0,0,1-7.79,2.72c0,.11-.24.17-.71.17a20.91,20.91,0,0,1-7-1.07,16.25,16.25,0,0,1-8.3-7.06,16.51,16.51,0,0,0-1.64-4,51.05,51.05,0,0,1-1.08-8.5c0-1.15.06-3,.17-5.6a1.52,1.52,0,0,1-.17-.71.33.33,0,0,0,.37-.37c0-.36-.06-.54-.2-.54l.2-1.81V44.93a11.72,11.72,0,0,0-.37-2.35q1.27-9,2.18-9a8.81,8.81,0,0,1,2.69-3.8c1.14-.92,1.74-1.58,1.82-2A7,7,0,0,1,119.57,26c1-1.21,3.35-1.81,7.22-1.81Zm-8.13,17,.2.34c-.13.38-.25.56-.37.56l.17.71c0,3.14-.18,4.7-.53,4.7a1.21,1.21,0,0,0,.17.54l-.17,1.08a31.7,31.7,0,0,1,.36,4.7v.73a1.28,1.28,0,0,1-.19.71A1.38,1.38,0,0,1,119,56c0,.07-.06.86-.19,2.35a17.14,17.14,0,0,1,1.27,3.79q2.4,3.6,5.24,3.6H127l1.79-.17v.17c2.41-1.47,3.62-2.92,3.62-4.33a5.57,5.57,0,0,0,.91-2.89l-.2-.74c.13-.36.25-.54.37-.54L133.31,56V53.23a.15.15,0,0,1,.17-.17c0-.13-.06-.2-.17-.2a6,6,0,0,0,.17-.71,10.43,10.43,0,0,0-.17-1.81c.11-1.13.17-2.22.17-3.26l-.17-1.27a6.62,6.62,0,0,0,.17-1.61v-.37a12.24,12.24,0,0,0-.37-1.45V40.94a7.66,7.66,0,0,0-2.69-5.41,7.91,7.91,0,0,0-4.16-1.44v-.2q-3.86,0-6.32,4.36A27.43,27.43,0,0,0,119.2,41.14Z" transform="translate(-15.75 -18.2)"/><path class="cls-1" d="M151.63,24.15a14.66,14.66,0,0,1,2,.36,8.32,8.32,0,0,1,1.62-.19h.9a1.3,1.3,0,0,1,.71.19,4.41,4.41,0,0,1,1.45-.36c.47.09.7.21.7.36l2.35-.36,3.06.36,1.45-.36a21,21,0,0,0,4.5,1.07q0,.86,2,1.08,4.14,3.64,4.14,5c1.43,1.68,2.15,4.44,2.15,8.3a22.24,22.24,0,0,1-1.08,6.65v1.25a10.18,10.18,0,0,1-1.61,2.89,5.81,5.81,0,0,1-1.61,3.06c-.29,0-1.37,1-3.26,2.88a25,25,0,0,1,2.52,5.41,16.22,16.22,0,0,1,2.52,5.38c.26.06.81,1.15,1.64,3.26l2,3.6c.49.17.73.35.73.54v.7a.32.32,0,0,1-.37.37,10.08,10.08,0,0,1-1.44-.17l-.88.17-4-.37-4.34.37-.9-.17a5.62,5.62,0,0,1-1.25.17,2.11,2.11,0,0,1-.37-1.07c.85-.46,1.28-1,1.28-1.62v-.2q-1-1-4.33-9.34c-.25,0-.49-.48-.71-1.45l-.37-.17a31.28,31.28,0,0,1-3.8,2.33c0,.13-.05.19-.17.19a28.48,28.48,0,0,1,.37,4.85c0,.49-.06,1.57-.2,3.25a5.82,5.82,0,0,0,1.45,2.16v.36c0,.48-.84.71-2.52.71a10.39,10.39,0,0,1-1.79-.17l-.73.17a15.62,15.62,0,0,0-2-.17c-.24,0-.9.06-2,.17a6,6,0,0,0-.71-.17,10.34,10.34,0,0,1-1.81.17H148a.32.32,0,0,1-.36-.37,2.77,2.77,0,0,1,1.44-2.32l-.37-.91.37-3.42a2.08,2.08,0,0,1-.37-1.08c0-.72.16-1.07.37-1.07a8.79,8.79,0,0,1-.2-1.45,20.21,20.21,0,0,1,.2-2.35,17.69,17.69,0,0,1-.37-2q0-.93.37-6.29-.42-5.58-.54-6.12a17,17,0,0,0,.34-3.79l-.34-.71a3,3,0,0,0,.34-1.44v-.91l-.17-1.08a2.81,2.81,0,0,0,.37-1.44,2.05,2.05,0,0,1-.37-1.08c0-1.51.06-3.37.17-5.58l-.34-2.15a2.14,2.14,0,0,0,.34-1.07V27.74a8.16,8.16,0,0,0-1.24-2.89v-.17c0-.24.16-.36.36-.36h1.79A10.8,10.8,0,0,0,151.63,24.15ZM159,34.23v.54a6.72,6.72,0,0,0,.37,1.61l-.37.91.37,2.35a21.72,21.72,0,0,0-.37,3.59l.37.71L159,46.46a17.51,17.51,0,0,1,.37,2.72c-.24,0-.37.15-.37.34v.37l.2.9h.17q5-2.85,6.86-5.94a13.59,13.59,0,0,0,1.61-3.6q-.09-5.39-3.06-6.48a7,7,0,0,0-3.06-.91h-1.27a1.49,1.49,0,0,1-.71-.17C159.24,33.86,159,34,159,34.23Z" transform="translate(-15.75 -18.2)"/><path class="cls-1" d="M218,24.15l.54.7v1.08a28,28,0,0,0,.2,3.23l-.37,1.61.37,4.31-.37.2h-.71A4.38,4.38,0,0,1,216.26,34l-1.62.2c-.7,0-2.13-.07-4.3-.2l-1.28.2a9.7,9.7,0,0,1-1.78-.37l-.71.54.17,1.24v1.62a2,2,0,0,0,.37,1.08l-.2,1.61.2.91-.37,2.32a2.77,2.77,0,0,1,.37,1.07,3,3,0,0,0-.37,1.45,16.83,16.83,0,0,1,.37,2.52v.17l-.37,1.25.37,2.35c-.13.62-.2,1-.2,1.07a8.44,8.44,0,0,1,.2,1.62c-.25,0-.37.16-.37.36l.17,1.08a23.18,23.18,0,0,0-.17,2.32,24.11,24.11,0,0,1,.37,2.52,3.23,3.23,0,0,1-.37,1.08,7.36,7.36,0,0,0,.37,2,13.63,13.63,0,0,0-.2,2v1.61a14,14,0,0,0,.2,2.32,17.71,17.71,0,0,0-.37,2.35,6.08,6.08,0,0,0,1.45,2.5v.19c0,.29-1,.52-3.06.71-.63-.11-1-.17-1.08-.17a1.52,1.52,0,0,0-.71.17c-2.47-.11-4.15-.23-5-.37a1.94,1.94,0,0,1-1.07.37H196q-.31,0-.54-.9a5.77,5.77,0,0,1,1.25-1.62c0-.4-.06-1.41-.17-3l.17-1.61-.17-1.08.37-2.15a2,2,0,0,1-.37-.91c.11-3,.23-4.47.37-4.47a2.9,2.9,0,0,1-.37-1.28l.17-1.07a17.4,17.4,0,0,1-.17-2.16,8.79,8.79,0,0,0,.37-1.07,17.76,17.76,0,0,1-.37-2.15,13.78,13.78,0,0,1,.37-2.16l-.37-3.76a5.66,5.66,0,0,0,.37-2l-.37-2.32c.11-1.66.17-2.74.17-3.23l-.17-1.24c.36-1.89.54-3,.54-3.23a.32.32,0,0,1-.37-.37c-1.85.25-3,.43-3.4.54a9.92,9.92,0,0,0-1.61-.17H189a5,5,0,0,0-3.23,1.24l-.91-.53.2-1.25v-.2a2,2,0,0,0-.37-1.07l.37-2.33a8.67,8.67,0,0,1-.2-1.78v-.2a6.61,6.61,0,0,1,.37-1.61,9.91,9.91,0,0,1-.17-1.62c.17,0,.35-.18.54-.53l1.24.19H187a1.64,1.64,0,0,0,.91-.19,4.71,4.71,0,0,1,.71.19l1.61-.19a44.45,44.45,0,0,0,4.84.36c0-.24.16-.36.37-.36s.91.06,2.15.19l2.16-.19,2.15.19c1.06-.13,1.72-.19,2-.19a6.41,6.41,0,0,1,1.42.36l1.81-.17,2.15.17.71-.17.91.17c1.54-.09,2.32-.21,2.32-.36l.91.19h.7A16.43,16.43,0,0,0,218,24.15Z" transform="translate(-15.75 -18.2)"/><path class="cls-2" d="M237.75,18.2q0,1.15,6.69,6.31,6.87,3.72,8.78,3.71a.84.84,0,0,0,.7-.87q0-1-3.34-3-3.86-3.25-3.85-3.68v-.17h.17a17.07,17.07,0,0,0,6.85,2.81,1.31,1.31,0,0,0,.54-.17c2.57.22,5,.34,7.37.34l.7.17a2.91,2.91,0,0,1,1.25-.34l.88.34,2.26-.34c1.87.22,3,.34,3.51.34l.88-.34,4.93,1.21c0,.55.64.91,1.93,1.08A16.59,16.59,0,0,1,282.58,31a14.57,14.57,0,0,1,1.76,6,1.52,1.52,0,0,0-.17.71v.34a2,2,0,0,0,.34,1.05q-.31.33-.54,4.59a3.9,3.9,0,0,0-.71,2.09V47a18,18,0,0,1-1.75,3.31c-.7,2.12-1.51,3.17-2.44,3.17,0,.36-.94,1.3-2.83,2.81,0,.62-.7,1-2.1,1.07q0,.95-1.92,1.59c0,.43-1.06,1-3.17,1.56a8,8,0,0,0-1.42,1.58,17.64,17.64,0,0,1-3.34,1.76v.17c.24,2.28.37,3.63.37,4-.12,2.49-.17,4-.17,4.39a8.57,8.57,0,0,0,1.38,2.12V75c0,.47-.82.71-2.46.71a15.29,15.29,0,0,1-1.92-.17l-.71.17-2.1-.17c-.24,0-.89.06-1.92.17a7.2,7.2,0,0,0-.71-.17,16.4,16.4,0,0,1-2.3.17h-.53a.3.3,0,0,1-.34-.34A2.46,2.46,0,0,1,254.29,73l-.2-.88V70.22a13.05,13.05,0,0,1,.2-2,2,2,0,0,1-.37-1,1.91,1.91,0,0,1,.37-.88l-.2-1.75c.14-1.46.2-2.22.2-2.3a19,19,0,0,1-.37-1.92l.37-6.32-.37-4.39.17-.37q-.87-5.37-3-7.56,0-.33-3.34-3.51A9.68,9.68,0,0,0,246,35.76v-.51q4.42,3.36,6.69,4.73h.51a1.63,1.63,0,0,0,.53-.34c0-1.82-1.28-3.4-3.85-4.76q-6.68-5-8.44-8.61-.68,0-3.71-6.32l-.34-1.58Zm7.73,16.17.2.34v.17h-.2a.3.3,0,0,1-.34-.34Zm18.81-.71a6.49,6.49,0,0,0,.54,1.93l-.34.87.17,2.47c0,.24-.06,1.54-.17,3.88l.34.71a17.85,17.85,0,0,0-.34,2.63,24.21,24.21,0,0,1,.34,2.63c-.17,0-.35.23-.54.68.15.59.33.88.54.88a24.45,24.45,0,0,0,6.85-5.61,28.63,28.63,0,0,0,1.76-4Q272.93,34,269.75,34a3.46,3.46,0,0,0-2.63-.88h-1.75c-.14,0-.2,0-.2-.17C265,33,264.7,33.21,264.29,33.66Z" transform="translate(-15.75 -18.2)"/><path class="cls-1" d="M292.72,24.15a14.66,14.66,0,0,1,2,.36,8.4,8.4,0,0,1,1.62-.19h.91a1.27,1.27,0,0,1,.7.19,4.46,4.46,0,0,1,1.45-.36c.47.09.71.21.71.36l2.35-.36,3.05.36,1.45-.36a21,21,0,0,0,4.5,1.07q0,.86,2,1.08,4.14,3.64,4.14,5c1.43,1.68,2.15,4.44,2.15,8.3a22.54,22.54,0,0,1-1.07,6.65v1.25A10.38,10.38,0,0,1,317,50.43a5.81,5.81,0,0,1-1.61,3.06c-.29,0-1.37,1-3.26,2.88a24,24,0,0,1,2.52,5.41,16.22,16.22,0,0,1,2.52,5.38c.27.06.81,1.15,1.64,3.26l2,3.6c.49.17.73.35.73.54v.7a.32.32,0,0,1-.36.37,10,10,0,0,1-1.45-.17l-.88.17-4-.37-4.33.37-.91-.17a5.62,5.62,0,0,1-1.25.17,2.09,2.09,0,0,1-.36-1.07c.85-.46,1.27-1,1.27-1.62v-.2q-1-1-4.33-9.34c-.25,0-.48-.48-.71-1.45l-.37-.17a31.21,31.21,0,0,1-3.79,2.33c0,.13-.06.19-.17.19a29.61,29.61,0,0,1,.36,4.85c0,.49-.06,1.57-.19,3.25a5.67,5.67,0,0,0,1.44,2.16v.36c0,.48-.84.71-2.52.71a10.19,10.19,0,0,1-1.78-.17l-.74.17a15.49,15.49,0,0,0-2-.17c-.25,0-.91.06-2,.17a6.68,6.68,0,0,0-.7-.17,10.54,10.54,0,0,1-1.82.17h-.87a.32.32,0,0,1-.37-.37,2.77,2.77,0,0,1,1.44-2.32l-.37-.91.37-3.42a2.18,2.18,0,0,1-.37-1.08c0-.72.16-1.07.37-1.07A8.79,8.79,0,0,1,290,65a20.21,20.21,0,0,1,.2-2.35c-.24-1.15-.37-1.81-.37-2,0-.62.13-2.72.37-6.29q-.42-5.58-.54-6.12a17,17,0,0,0,.34-3.79l-.34-.71a3,3,0,0,0,.34-1.44v-.91l-.17-1.08a2.81,2.81,0,0,0,.37-1.44,2.15,2.15,0,0,1-.37-1.08c0-1.51.06-3.37.17-5.58l-.34-2.15A2.14,2.14,0,0,0,290,29V27.74a8.16,8.16,0,0,0-1.24-2.89v-.17c0-.24.16-.36.37-.36h1.78A10.71,10.71,0,0,0,292.72,24.15Zm7.37,10.08v.54a6.55,6.55,0,0,0,.36,1.61l-.36.91.36,2.35a21.59,21.59,0,0,0-.36,3.59l.36.71-.36,2.52a18.42,18.42,0,0,1,.36,2.72c-.24,0-.36.15-.36.34v.37l.19.9h.17q5-2.85,6.86-5.94a13.28,13.28,0,0,0,1.61-3.6q-.07-5.39-3.06-6.48a7,7,0,0,0-3.06-.91h-1.27a1.52,1.52,0,0,1-.71-.17C300.33,33.86,300.09,34,300.09,34.23Z" transform="translate(-15.75 -18.2)"/><path class="cls-1" d="M326.14,24.15a5.15,5.15,0,0,1,1.25.17c1.79-.12,3.29-.17,4.5-.17h.71a13.85,13.85,0,0,1,2,.17,1.77,1.77,0,0,1,.91-.17l1.24.17a14.32,14.32,0,0,1,2-.17,12.06,12.06,0,0,0,2.16.36,7.21,7.21,0,0,1,1.44-.36l1.25.17c.24,0,.37-.06.37-.17q2.2.17,9.88.36c.24.83.42,1.25.54,1.25L354,29.19a6.2,6.2,0,0,1,.37,2.15l-.17.9a10.39,10.39,0,0,1,.17,1.79v.71q0,.28-.54.54h-.37c-1-1-1.56-1.42-1.78-1.42-.49.09-.74.21-.74.34L350,34a6.3,6.3,0,0,0-1.44.17L347.52,34l-1.27.17a2.09,2.09,0,0,0-1.08-.34h-.71c-.83,0-1.24.15-1.24.34a31,31,0,0,0-3.8-.34l-.88.17a1.94,1.94,0,0,0-.9-.17c0,.23-.12.34-.37.34l.37,4.5a3.89,3.89,0,0,0-.37,1.62,15.84,15.84,0,0,0,.37,2.52l-.37,7a1.24,1.24,0,0,1,.54.2q0-.6,5.21-2.89a4.42,4.42,0,0,0,1.81-1.07c.57,0,1.59-.6,3.06-1.79a15.67,15.67,0,0,1,3.6-1.61H352c.26,0,.44.29.53.87a2.15,2.15,0,0,0-.36,1.08v7l.36,1.25c-.47,1.08-.77,1.61-.9,1.61h-.37c-.76-.83-1.29-1.24-1.62-1.24,0,.47-.87,1-2.52,1.61-1.45,1.08-2.47,1.62-3,1.62a30.06,30.06,0,0,1-5,2.69,3.52,3.52,0,0,1-1.61.9.18.18,0,0,1-.2.2l.2,1.79v1.61l-.2,2.15.37.2a16,16,0,0,1,2.32-.37l.91.17.9-.17,1.62.17c.36-.11.54-.22.54-.34l3.59.54c3.72-.28,5.58-.71,5.58-1.27l.54-.34h.17c.36.11.54.47.54,1.07V68a5.63,5.63,0,0,0,.17,1.44c-.13,2.89-.31,4.33-.54,4.33l.2.34v.74c0,.47-1,.71-2.89.71a8.61,8.61,0,0,1-2-.17c-1.14.11-2.21.17-3.23.17h-1.45c-1.87,0-3.78-.06-5.75-.17a12.88,12.88,0,0,1-2.32.17c-.64-.12-1-.17-1.07-.17a1.17,1.17,0,0,0-.54.17l-1.62-.17c-2.07.11-3.27.17-3.59.17-1.63-.12-2.83-.17-3.6-.17l-.2-.37v-.37a6.31,6.31,0,0,0,1.45-3.06c-.12-1.4-.17-2.42-.17-3.06h.17c-.12-.58-.24-.87-.37-.87l.2-1.82V61a8.44,8.44,0,0,0-.2-1.61,7.57,7.57,0,0,0,.37-2.35A2,2,0,0,1,327,56l.37-1.25a4.42,4.42,0,0,0-.37-2,2.94,2.94,0,0,0,.37-1.44,74.06,74.06,0,0,0-.37-7.54,8.58,8.58,0,0,0,.2-1.44c0-.23-.07-1.3-.2-3.23a17.69,17.69,0,0,1,.37-2,6.42,6.42,0,0,0-.37-1.81q.19-4.77.54-7.54a5.94,5.94,0,0,0-1.79-2.52A2.11,2.11,0,0,1,326.14,24.15Z" transform="translate(-15.75 -18.2)"/><path class="cls-1" d="M376.64,24.15a16.38,16.38,0,0,1,6.82,1.75q.8,0,3,2.1c1,.28,2.27,1.74,3.86,4.39a7.75,7.75,0,0,1,1.21,1.92v.51c0,.25-1.28,1.18-3.85,2.81,0,.24-.46.42-1.39.53,0,.42-.58.83-1.75,1.22,0,.47-.29.82-.88,1l-.34-.17a2.17,2.17,0,0,1-1.05.34l-.2-.34a11.09,11.09,0,0,1,.37-1.59q-2-3.68-3.85-3.68c-1-.32-1.6-.61-1.75-.88l-2.1.2h-1.25c-2.32.95-3.48,1.88-3.48,2.81s-.17,1.66-.17,1.92a18.36,18.36,0,0,0,6.83,4.19l.34-.17q.7,0,4,2.27,1.38,0,5.43,3c.29,0,1.28.94,3,2.81q1.44.59,3.14,6v2.1a20.53,20.53,0,0,1-2.09,8.75,12.42,12.42,0,0,1-3,3.51c0,.75-1.81,1.86-5.44,3.31a2.55,2.55,0,0,0-1.72.71l-.88-.17a19.38,19.38,0,0,1-3.17.34l-1.73-.17-.71.17q-3.63,0-9.29-3.14c-2.68-1.85-4-3.32-4-4.39a9.61,9.61,0,0,1-1.58-2.64v-.17a56.56,56.56,0,0,1,5.94-4.72,7.72,7.72,0,0,1,2.47-2.1,1.1,1.1,0,0,1,1-.71q0,.26.54.54l-.2,1.22v1c0,.86.77,1.85,2.3,3,0,.4.64.81,1.92,1.24,0,.33,1.17.62,3.52.88,2.9-1.17,4.36-2.28,4.36-3.34.24-.28.37-.46.37-.54v-.51a1.27,1.27,0,0,0-.2-.7,1.33,1.33,0,0,0,.2-.71v-.17c-.44-1.74-1.09-2.61-2-2.61,0-.43-1.16-1.14-3.48-2.12q-.79-.74-5.78-2.27-.14,0-5.1-3.34c-.45,0-1-.52-1.72-1.56A8,8,0,0,1,360,43.4c-.58-.43-1-2.41-1.21-5.94q0-.15,1.75-5.61c.17,0,.76-.64,1.76-1.93a8,8,0,0,1,3.14-2.46c.45-.7,2.44-1.57,5.95-2.61a1.38,1.38,0,0,0,.71.17,1.91,1.91,0,0,0,1-.53h2.27Z" transform="translate(-15.75 -18.2)"/><path class="cls-1" d="M397.17,24.15a5,5,0,0,1,1.24.17c1.8-.12,3.3-.17,4.51-.17h.71a13.85,13.85,0,0,1,2,.17,1.75,1.75,0,0,1,.9-.17l1.25.17a14.32,14.32,0,0,1,2-.17,12.14,12.14,0,0,0,2.15.36,7.4,7.4,0,0,1,1.45-.36l1.25.17c.24,0,.36-.06.36-.17,1.48.11,4.77.23,9.89.36.24.83.42,1.25.54,1.25L425,29.19a6.2,6.2,0,0,1,.37,2.15l-.17.9a10.39,10.39,0,0,1,.17,1.79v.71q0,.28-.54.54h-.37c-1-1-1.56-1.42-1.79-1.42-.49.09-.73.21-.73.34l-.88-.17a6.3,6.3,0,0,0-1.44.17L418.55,34l-1.27.17a2.09,2.09,0,0,0-1.08-.34h-.71c-.83,0-1.24.15-1.24.34a31.19,31.19,0,0,0-3.8-.34l-.88.17a2,2,0,0,0-.9-.17c0,.23-.13.34-.37.34l.37,4.5a3.89,3.89,0,0,0-.37,1.62,15.84,15.84,0,0,0,.37,2.52l-.37,7a1.24,1.24,0,0,1,.54.2c0-.4,1.73-1.36,5.21-2.89a4.48,4.48,0,0,0,1.81-1.07c.57,0,1.59-.6,3.06-1.79a15.91,15.91,0,0,1,3.59-1.61h.54q.4,0,.54.87a2.18,2.18,0,0,0-.37,1.08v7l.37,1.25c-.47,1.08-.77,1.61-.91,1.61h-.36c-.76-.83-1.3-1.24-1.62-1.24,0,.47-.88,1-2.52,1.61q-2.18,1.62-3.06,1.62a29.28,29.28,0,0,1-5,2.69,3.52,3.52,0,0,1-1.61.9.18.18,0,0,1-.2.2l.2,1.79v1.61l-.2,2.15.37.2a16,16,0,0,1,2.32-.37l.9.17.91-.17,1.62.17c.35-.11.53-.22.53-.34l3.6.54c3.72-.28,5.58-.71,5.58-1.27l.54-.34h.17c.36.11.54.47.54,1.07V68a5.63,5.63,0,0,0,.17,1.44c-.14,2.89-.32,4.33-.54,4.33l.2.34v.74c0,.47-1,.71-2.89.71a8.78,8.78,0,0,1-2-.17c-1.13.11-2.2.17-3.22.17h-1.45c-1.87,0-3.78-.06-5.75-.17a13,13,0,0,1-2.32.17,10.72,10.72,0,0,0-1.08-.17,1.17,1.17,0,0,0-.53.17l-1.62-.17c-2.08.11-3.27.17-3.6.17-1.62-.12-2.82-.17-3.59-.17L397,75v-.37a6.36,6.36,0,0,0,1.44-3.06c-.11-1.4-.17-2.42-.17-3.06h.17q-.17-.87-.36-.87l.19-1.82V61a8.31,8.31,0,0,0-.19-1.61,7.4,7.4,0,0,0,.36-2.35,2,2,0,0,1-.36-1.08l.36-1.25a4.43,4.43,0,0,0-.36-2,2.93,2.93,0,0,0,.36-1.44,74.18,74.18,0,0,0-.36-7.54,8.29,8.29,0,0,0,.19-1.44c0-.23-.06-1.3-.19-3.23a19.08,19.08,0,0,1,.36-2,6.19,6.19,0,0,0-.36-1.81q.19-4.77.53-7.54a5.88,5.88,0,0,0-1.78-2.52A2,2,0,0,1,397.17,24.15Z" transform="translate(-15.75 -18.2)"/><path class="cls-1" d="M459.05,24.15c.07,0,.43.05,1.07.17a1.49,1.49,0,0,0,.71-.17c2.48.11,4.15.23,5,.36a2.09,2.09,0,0,1,1.07-.36h1.28c.18,0,.36.3.53.9,0,.17-.42.71-1.27,1.62,0,.39.07,1.4.2,3l-.2,1.61.2,1.08-.37,2.15a2.15,2.15,0,0,1,.37,1.07v.54a8.44,8.44,0,0,1-.2,1.62,1.34,1.34,0,0,1,.2.54c0,.09-.07.45-.2,1.07,0,.15.07.76.2,1.81l-.2,1.25a10.23,10.23,0,0,1,.2,2,1.91,1.91,0,0,1-.37.88,13.91,13.91,0,0,1,.37,2.69,8.73,8.73,0,0,1-.37,1.81,15.19,15.19,0,0,1,.37,2.16,1.17,1.17,0,0,1-.2.53l.2,1.08v.37a2.11,2.11,0,0,1-.37,1.07l.17.88c-.11,1-.17,1.81-.17,2.35.24,1.42.37,2.25.37,2.5a3.22,3.22,0,0,1-.37,1.07,7.09,7.09,0,0,0,.37,2,13.38,13.38,0,0,0-.2,2v1.61a14.26,14.26,0,0,0,.2,2.32,17.1,17.1,0,0,0-.37,2.32,6.45,6.45,0,0,0,1.44,2.53v.17c0,.28-1,.52-3.05.73-.63-.13-1-.2-1.08-.2a1.31,1.31,0,0,0-.71.2c-2.47-.13-4.15-.25-5-.37a2.05,2.05,0,0,1-1.08.37h-1.24q-.31,0-.54-.9a5.54,5.54,0,0,1,1.08-1.45,26.29,26.29,0,0,1-2.69-4.47l-1.82-2a1.54,1.54,0,0,0-.88-1.61c-.24,0-.36-.29-.36-.88h.17A30.5,30.5,0,0,0,449.33,60q-.74-.95-3.93-6.63h.17c0-.3-.78-1.38-2.32-3.23a10.36,10.36,0,0,0-1.45-3.06h-.34v.71a7.57,7.57,0,0,1-.37,2.15,13.78,13.78,0,0,1,.37,2.16,1.17,1.17,0,0,1-.2.53l.2,1.08v.37a2,2,0,0,1-.37,1.07l.17.91a23.18,23.18,0,0,0-.17,2.32,24.11,24.11,0,0,1,.37,2.52,3.23,3.23,0,0,1-.37,1.08,7.36,7.36,0,0,0,.37,2,13.63,13.63,0,0,0-.2,2v1.61a14,14,0,0,0,.2,2.32,19.75,19.75,0,0,0-.37,2.35,6.08,6.08,0,0,0,1.45,2.5v.19c0,.29-1,.52-3.06.71-.62-.11-1-.17-1.08-.17a1.52,1.52,0,0,0-.71.17c-2.47-.11-4.15-.23-5-.37a1.92,1.92,0,0,1-1.07.37h-1.25q-.31,0-.54-.9A5.77,5.77,0,0,1,431,73.11c0-.4-.06-1.41-.17-3l.17-1.61-.17-1.08.37-2.15a2,2,0,0,1-.37-.91c.11-3,.24-4.47.37-4.47a2.9,2.9,0,0,1-.37-1.28l.17-1.07a17.4,17.4,0,0,1-.17-2.16,8.79,8.79,0,0,0,.37-1.07,13.27,13.27,0,0,1-.37-2.49,8.25,8.25,0,0,1,.37-1.82,13.73,13.73,0,0,1-.37-2.15,1.4,1.4,0,0,1,.17-.54l-.17-1.07v-.37a2.08,2.08,0,0,1,.37-1.08,27.06,27.06,0,0,1-.37-4.3l.17-.34a1.58,1.58,0,0,1-.17-.74,2.75,2.75,0,0,1,.37-1.41,9.42,9.42,0,0,0-.37-2,15.49,15.49,0,0,0,.17-2V32.39a17.05,17.05,0,0,0-.17-2.33,18.73,18.73,0,0,0,.37-2.32,6.37,6.37,0,0,0-1.45-2.52v-.17c0-.28,1-.53,3.06-.73a10.94,10.94,0,0,1,1.08.19,1.33,1.33,0,0,0,.71-.19q3.71.2,5,.36a2.12,2.12,0,0,1,1.07-.36H442q.31,0,.54.9a5.73,5.73,0,0,1-1.08,1.45v.17l3.23,5.74q0,.54,1.95,3a11.75,11.75,0,0,1,1.62,3.23,8,8,0,0,1,2,3.43c.44.08,1,1.09,1.78,3,.33,0,.86.72,1.62,2.15,1.08,1.15,1.61,1.94,1.61,2.35a5.92,5.92,0,0,0,1.65,3.06l.53-3.06a14.53,14.53,0,0,1-.36-2.15,1.24,1.24,0,0,1,.17-.54L457.07,46v-.37a2.15,2.15,0,0,1,.36-1.08,28.2,28.2,0,0,1-.36-4.3l.17-.37a1.38,1.38,0,0,1-.17-.71,3,3,0,0,1,.36-1.44,9.53,9.53,0,0,0-.36-2,16.08,16.08,0,0,0,.17-2V32.22a16.6,16.6,0,0,0-.17-2.33,18.29,18.29,0,0,0,.36-2.35A6.09,6.09,0,0,0,456,25.05v-.2C456,24.57,457,24.33,459.05,24.15Z" transform="translate(-15.75 -18.2)"/><path class="cls-1" d="M506.34,24.15l.54.7v1.08a28,28,0,0,0,.2,3.23l-.37,1.61.37,4.31-.37.2H506A4.38,4.38,0,0,1,504.56,34l-1.62.2c-.69,0-2.13-.07-4.3-.2l-1.27.2a9.67,9.67,0,0,1-1.79-.37l-.71.54.17,1.24v1.62a2.06,2.06,0,0,0,.37,1.08l-.2,1.61.2.91L495,43.15a2.77,2.77,0,0,1,.37,1.07,3.09,3.09,0,0,0-.37,1.45,16.83,16.83,0,0,1,.37,2.52v.17L495,49.61l.37,2.35c-.13.62-.2,1-.2,1.07a7.71,7.71,0,0,1,.2,1.62c-.24,0-.37.16-.37.36l.17,1.08a23.18,23.18,0,0,0-.17,2.32,24.11,24.11,0,0,1,.37,2.52A3.23,3.23,0,0,1,495,62a7.36,7.36,0,0,0,.37,2,13.63,13.63,0,0,0-.2,2v1.61a14,14,0,0,0,.2,2.32,19.75,19.75,0,0,0-.37,2.35,6.08,6.08,0,0,0,1.45,2.5v.19c0,.29-1,.52-3.06.71-.62-.11-1-.17-1.08-.17a1.52,1.52,0,0,0-.71.17c-2.47-.11-4.15-.23-5-.37a1.92,1.92,0,0,1-1.07.37h-1.25q-.31,0-.54-.9A5.77,5.77,0,0,1,485,73.11c0-.4-.06-1.41-.17-3l.17-1.61-.17-1.08.37-2.15a2,2,0,0,1-.37-.91c.11-3,.24-4.47.37-4.47a2.9,2.9,0,0,1-.37-1.28l.17-1.07a17.4,17.4,0,0,1-.17-2.16,8.79,8.79,0,0,0,.37-1.07,17.76,17.76,0,0,1-.37-2.15,13.78,13.78,0,0,1,.37-2.16l-.37-3.76a5.66,5.66,0,0,0,.37-2l-.37-2.32c.11-1.66.17-2.74.17-3.23l-.17-1.24c.36-1.89.54-3,.54-3.23a.32.32,0,0,1-.37-.37c-1.85.25-3,.43-3.4.54A9.92,9.92,0,0,0,480,34.2h-2.69a5,5,0,0,0-3.23,1.24l-.91-.53.2-1.25v-.2a2,2,0,0,0-.37-1.07l.37-2.33a8.67,8.67,0,0,1-.2-1.78v-.2a6.61,6.61,0,0,1,.37-1.61,9.91,9.91,0,0,1-.17-1.62c.17,0,.35-.18.54-.53l1.24.19h.17a1.64,1.64,0,0,0,.91-.19,4.71,4.71,0,0,1,.71.19l1.61-.19a44.43,44.43,0,0,0,4.85.36c0-.24.16-.36.36-.36s.91.06,2.16.19l2.15-.19,2.15.19c1.06-.13,1.72-.19,2-.19a6.41,6.41,0,0,1,1.42.36l1.81-.17,2.15.17.71-.17.91.17c1.55-.09,2.32-.21,2.32-.36l.91.19h.7A16.43,16.43,0,0,0,506.34,24.15Z" transform="translate(-15.75 -18.2)"/><path class="cls-1" d="M527.78,24.32q0,.36.54.36l1.08-.17a1.45,1.45,0,0,1,.7.17c1.31-.11,2.44-.17,3.4-.17,3,0,4.48.24,4.48.71A7.58,7.58,0,0,0,536.9,27q.63,1.13,2.32,8.75a79,79,0,0,1,2.33,8.41A33.44,33.44,0,0,1,543,49.89c.24,0,.37.24.37.73l-.2.71a51,51,0,0,1,2.52,8.05c.21,0,.39.77.54,2.32.26,0,.68,1.38,1.24,4.13a1.4,1.4,0,0,0-.17.54,27.77,27.77,0,0,1,1.25,3.94c.23,0,.34.13.34.34v1.44q0,.76,2,2.49c-.22.55-.46.85-.71.91l-1.07-.2-.91.2c-1.06-.13-1.71-.2-1.95-.2l-2.52.2c0-.25-.18-.37-.54-.37a6.24,6.24,0,0,1-1.61.37h-3.2q-.26,0-.54-.54v-.54c1.07-.73,1.61-1.27,1.61-1.61q-.67,0-1.61-5.38a10.5,10.5,0,0,1-1.08-3.4c-.24,0-.37-.11-.37-.34l.2-1.25-.37-.19a18,18,0,0,1-4.84,3.93c0,.29-2,1.83-5.89,4.65a6.15,6.15,0,0,1-2.32,2V73c0,.41.36,1,1.07,1.61V75c0,.23-.59.41-1.78.54a4,4,0,0,0-1.28-.37,1.92,1.92,0,0,1-1.07.37h-1.59a9.19,9.19,0,0,1-1.81-.2,4.81,4.81,0,0,1-1.25.2l-1.24-.2a1.81,1.81,0,0,1-.91.37c-1.3-.26-1.95-.5-1.95-.71v-.73c1.07-.57,1.61-1.1,1.61-1.59a30.81,30.81,0,0,1,1.25-4.48,17.48,17.48,0,0,1,1.24-4.84,30.07,30.07,0,0,1,1.25-4.64,42,42,0,0,1,1.81-6.09l-.2-1.25c.5,0,1.27-2.68,2.33-8A39.56,39.56,0,0,0,522.77,36c.24,0,.42-.71.54-2.15.15,0,.51-.95,1.07-2.86l-.17-.37V30.4a37.79,37.79,0,0,1,1.25-3.76c-.83-.8-1.25-1.27-1.25-1.42.17-.47.35-.71.54-.71h.34A26.58,26.58,0,0,0,527.78,24.32Zm3,18.6v.71a20.41,20.41,0,0,1-1.24,4.67l.19.34a8.66,8.66,0,0,0-.9,3.6c-.63,2.74-1.11,4.11-1.45,4.11v.34H528c0-.51,1.49-1.65,4.48-3.4l1.44-1V52a7.17,7.17,0,0,1-1.08-3.57,22.13,22.13,0,0,1-1.44-5.55Z" transform="translate(-15.75 -18.2)"/><path class="cls-1" d="M588.47,24.15l.54.7v1.08a28,28,0,0,0,.2,3.23l-.37,1.61.37,4.31-.37.2h-.71A4.38,4.38,0,0,1,586.69,34l-1.62.2c-.69,0-2.13-.07-4.3-.2l-1.28.2a9.7,9.7,0,0,1-1.78-.37l-.71.54.17,1.24v1.62a2.06,2.06,0,0,0,.37,1.08l-.2,1.61.2.91-.37,2.32a2.77,2.77,0,0,1,.37,1.07,3.09,3.09,0,0,0-.37,1.45,16.83,16.83,0,0,1,.37,2.52v.17l-.37,1.25.37,2.35c-.13.62-.2,1-.2,1.07a8.44,8.44,0,0,1,.2,1.62c-.24,0-.37.16-.37.36l.17,1.08a23.18,23.18,0,0,0-.17,2.32,24.11,24.11,0,0,1,.37,2.52,3.23,3.23,0,0,1-.37,1.08,7.36,7.36,0,0,0,.37,2,13.63,13.63,0,0,0-.2,2v1.61a14,14,0,0,0,.2,2.32,19.75,19.75,0,0,0-.37,2.35,6.08,6.08,0,0,0,1.45,2.5v.19c0,.29-1,.52-3.06.71-.63-.11-1-.17-1.08-.17a1.52,1.52,0,0,0-.71.17c-2.47-.11-4.15-.23-5-.37a1.94,1.94,0,0,1-1.07.37h-1.25q-.31,0-.54-.9a5.77,5.77,0,0,1,1.25-1.62c0-.4-.06-1.41-.17-3l.17-1.61L567,67.39l.37-2.15a2,2,0,0,1-.37-.91c.11-3,.23-4.47.37-4.47a2.9,2.9,0,0,1-.37-1.28l.17-1.07a17.4,17.4,0,0,1-.17-2.16,8.79,8.79,0,0,0,.37-1.07,17.76,17.76,0,0,1-.37-2.15,13.78,13.78,0,0,1,.37-2.16L567,46.21a5.66,5.66,0,0,0,.37-2L567,41.9c.11-1.66.17-2.74.17-3.23L567,37.43c.36-1.89.54-3,.54-3.23a.32.32,0,0,1-.37-.37c-1.85.25-3,.43-3.4.54a9.92,9.92,0,0,0-1.61-.17h-2.69a5,5,0,0,0-3.23,1.24l-.91-.53.2-1.25v-.2a2,2,0,0,0-.37-1.07l.37-2.33a8.67,8.67,0,0,1-.2-1.78v-.2a6.61,6.61,0,0,1,.37-1.61,9.91,9.91,0,0,1-.17-1.62c.17,0,.35-.18.54-.53l1.24.19h.17a1.64,1.64,0,0,0,.91-.19,4.71,4.71,0,0,1,.71.19l1.61-.19a44.45,44.45,0,0,0,4.84.36c0-.24.16-.36.37-.36s.91.06,2.15.19l2.16-.19,2.15.19c1.06-.13,1.72-.19,2-.19a6.41,6.41,0,0,1,1.42.36l1.81-.17,2.15.17.71-.17.91.17c1.54-.09,2.32-.21,2.32-.36l.91.19h.7A16.43,16.43,0,0,0,588.47,24.15Z" transform="translate(-15.75 -18.2)"/><path class="cls-1" d="M596.51,24.26c.1,0,.46.06,1.08.17a1.49,1.49,0,0,0,.71-.17c2.47.11,4.15.23,5,.37a2.08,2.08,0,0,1,1.08-.37h1.24q.32,0,.54.9A5.54,5.54,0,0,1,605,26.78c0,.4.06,1.41.17,3.06L605,31.45l.17,1.08-.34,2.15a2.2,2.2,0,0,1,.34,1.08v.53a8.92,8.92,0,0,1-.17,1.62,1.24,1.24,0,0,1,.17.54,9.52,9.52,0,0,1-.17,1.07c0,.15.06.76.17,1.82L605,42.58a10.73,10.73,0,0,1,.17,2,1.9,1.9,0,0,1-.34.88,14.32,14.32,0,0,1,.34,2.72,8.77,8.77,0,0,1-.34,1.78,15.07,15.07,0,0,1,.34,2.16,1.24,1.24,0,0,1-.17.54l.17,1.07v.37a2.2,2.2,0,0,1-.34,1.08l.17.9c-.11,1-.17,1.8-.17,2.32.23,1.44.34,2.28.34,2.52a3.15,3.15,0,0,1-.34,1.08,9.81,9.81,0,0,0,.34,2,15.66,15.66,0,0,0-.17,2v1.64a16.79,16.79,0,0,0,.17,2.32,22.15,22.15,0,0,0-.34,2.32,6.39,6.39,0,0,0,1.42,2.53v.19c0,.27-1,.5-3,.71-.64-.11-1-.17-1.1-.17a1.49,1.49,0,0,0-.71.17c-2.48-.11-4.16-.23-5-.37a2,2,0,0,1-1.08.37H594c-.2,0-.38-.3-.53-.9a5.61,5.61,0,0,1,1.24-1.62c0-.4-.05-1.42-.17-3.06l.17-1.61-.17-1.08.37-2.15a1.91,1.91,0,0,1-.37-.91c.12-3,.24-4.47.37-4.47a3,3,0,0,1-.37-1.28l.17-1.07a16.84,16.84,0,0,1-.17-2.15,7,7,0,0,0,.37-1.08,14.17,14.17,0,0,1-.37-2.52,9,9,0,0,1,.37-1.79,15.15,15.15,0,0,1-.37-2.15,1.4,1.4,0,0,1,.17-.54l-.17-1.07v-.37a2.18,2.18,0,0,1,.37-1.08,28.18,28.18,0,0,1-.37-4.3l.17-.37a1.49,1.49,0,0,1-.17-.71,2.91,2.91,0,0,1,.37-1.44,9,9,0,0,0-.37-2,14,14,0,0,0,.17-2V32.33a15.37,15.37,0,0,0-.17-2.32,18.11,18.11,0,0,0,.37-2.32,6.17,6.17,0,0,0-1.44-2.53V25C593.46,24.7,594.48,24.47,596.51,24.26Z" transform="translate(-15.75 -18.2)"/><path class="cls-1" d="M627.27,24.15a13.29,13.29,0,0,1,9,3.79q1.11,0,3.43,3.43.74,0,2,4.87.66.73,1.45,4.7v.74a2.11,2.11,0,0,1-.37,1.07l.37,2.52-.2,1.28.37,3.79-.37.91c.13,2.23.2,4.09.2,5.61-.46,5-1.18,8.16-2.18,9.37,0,1.09-1.81,3.27-5.41,6.51a13.63,13.63,0,0,1-7.79,2.72c0,.11-.24.17-.71.17a20.91,20.91,0,0,1-7.05-1.07,16.25,16.25,0,0,1-8.3-7.06,16.51,16.51,0,0,0-1.64-4A51.05,51.05,0,0,1,609,55c0-1.15.06-3,.17-5.6a1.52,1.52,0,0,1-.17-.71.33.33,0,0,0,.37-.37c0-.36-.07-.54-.2-.54l.2-1.81V44.93a11.72,11.72,0,0,0-.37-2.35q1.28-9,2.18-9a8.81,8.81,0,0,1,2.69-3.8c1.14-.92,1.74-1.58,1.82-2A7,7,0,0,1,619.51,26c1-1.21,3.35-1.81,7.22-1.81Zm-8.13,17,.2.34c-.13.38-.25.56-.37.56l.17.71c0,3.14-.18,4.7-.54,4.7a1.35,1.35,0,0,0,.17.54l-.17,1.08a30.44,30.44,0,0,1,.37,4.7v.73a1.21,1.21,0,0,1-.2.71,1.3,1.3,0,0,1,.2.74c0,.07-.06.86-.2,2.35a16.31,16.31,0,0,1,1.28,3.79q2.4,3.6,5.24,3.6h1.64l1.79-.17v.17c2.41-1.47,3.62-2.92,3.62-4.33a5.66,5.66,0,0,0,.91-2.89l-.2-.74c.13-.36.25-.54.37-.54L633.25,56V53.23a.15.15,0,0,1,.17-.17c0-.13-.06-.2-.17-.2a6,6,0,0,0,.17-.71,10.43,10.43,0,0,0-.17-1.81c.11-1.13.17-2.22.17-3.26l-.17-1.27a6.62,6.62,0,0,0,.17-1.61v-.37a12.24,12.24,0,0,0-.37-1.45V40.94a7.66,7.66,0,0,0-2.69-5.41,7.92,7.92,0,0,0-4.17-1.44v-.2c-2.56,0-4.67,1.45-6.31,4.36A27.43,27.43,0,0,0,619.14,41.14Z" transform="translate(-15.75 -18.2)"/><path class="cls-1" d="M676.86,24.15c.07,0,.43.05,1.08.17a1.45,1.45,0,0,0,.7-.17c2.48.11,4.15.23,5,.36a2.09,2.09,0,0,1,1.07-.36H686q.29,0,.54.9c0,.17-.43.71-1.28,1.62,0,.39.07,1.4.2,3l-.2,1.61.2,1.08-.37,2.15a2.05,2.05,0,0,1,.37,1.07v.54a8.44,8.44,0,0,1-.2,1.62,1.34,1.34,0,0,1,.2.54c0,.09-.07.45-.2,1.07,0,.15.07.76.2,1.81l-.2,1.25a10.23,10.23,0,0,1,.2,2,1.81,1.81,0,0,1-.37.88,13.17,13.17,0,0,1,.37,2.69,8.09,8.09,0,0,1-.37,1.81,13.78,13.78,0,0,1,.37,2.16,1.17,1.17,0,0,1-.2.53l.2,1.08v.37A2,2,0,0,1,685.1,55l.17.88c-.11,1-.17,1.81-.17,2.35a24.51,24.51,0,0,1,.37,2.5,3,3,0,0,1-.37,1.07,7.09,7.09,0,0,0,.37,2,13.38,13.38,0,0,0-.2,2v1.61a14.26,14.26,0,0,0,.2,2.32A17.1,17.1,0,0,0,685.1,72a6.34,6.34,0,0,0,1.45,2.53v.17c0,.28-1,.52-3.06.73-.63-.13-1-.2-1.08-.2a1.33,1.33,0,0,0-.71.2c-2.47-.13-4.15-.25-5-.37a2.05,2.05,0,0,1-1.07.37h-1.25q-.32,0-.54-.9a5.54,5.54,0,0,1,1.08-1.45,27,27,0,0,1-2.69-4.47l-1.82-2A1.55,1.55,0,0,0,669.5,65c-.25,0-.37-.29-.37-.88h.17A31,31,0,0,0,667.15,60q-.75-.95-3.94-6.63h.17c0-.3-.78-1.38-2.32-3.23a10.08,10.08,0,0,0-1.45-3.06h-.34v.71A7.57,7.57,0,0,1,658.9,50a13.78,13.78,0,0,1,.37,2.16,1.06,1.06,0,0,1-.2.53l.2,1.08v.37a2,2,0,0,1-.37,1.07l.17.91a23.18,23.18,0,0,0-.17,2.32,24.11,24.11,0,0,1,.37,2.52A3.23,3.23,0,0,1,658.9,62a7.36,7.36,0,0,0,.37,2,13.63,13.63,0,0,0-.2,2v1.61a14,14,0,0,0,.2,2.32,19.75,19.75,0,0,0-.37,2.35,6.08,6.08,0,0,0,1.45,2.5v.19c0,.29-1,.52-3.06.71-.62-.11-1-.17-1.08-.17a1.45,1.45,0,0,0-.7.17c-2.48-.11-4.16-.23-5-.37a2,2,0,0,1-1.08.37h-1.25c-.21,0-.38-.3-.54-.9a5.77,5.77,0,0,1,1.25-1.62c0-.4-.06-1.41-.17-3l.17-1.61-.17-1.08.37-2.15a2,2,0,0,1-.37-.91c.11-3,.24-4.47.37-4.47a2.9,2.9,0,0,1-.37-1.28l.17-1.07a17.4,17.4,0,0,1-.17-2.16,7.12,7.12,0,0,0,.37-1.07,13.27,13.27,0,0,1-.37-2.49,8.25,8.25,0,0,1,.37-1.82,13.73,13.73,0,0,1-.37-2.15,1.4,1.4,0,0,1,.17-.54l-.17-1.07v-.37a2.08,2.08,0,0,1,.37-1.08,27.06,27.06,0,0,1-.37-4.3l.17-.34a1.58,1.58,0,0,1-.17-.74,2.75,2.75,0,0,1,.37-1.41,9.42,9.42,0,0,0-.37-2,15.49,15.49,0,0,0,.17-2V32.39a17.05,17.05,0,0,0-.17-2.33,16.86,16.86,0,0,0,.37-2.32,6.37,6.37,0,0,0-1.45-2.52v-.17c0-.28,1-.53,3.06-.73a10.94,10.94,0,0,1,1.08.19,1.33,1.33,0,0,0,.71-.19q3.7.2,5,.36a2.15,2.15,0,0,1,1.08-.36h1.27q.32,0,.54.9a5.73,5.73,0,0,1-1.08,1.45v.17l3.23,5.74c0,.36.65,1.37,2,3a11.61,11.61,0,0,1,1.61,3.23,7.89,7.89,0,0,1,2,3.43c.44.08,1,1.09,1.79,3,.32,0,.86.72,1.61,2.15,1.08,1.15,1.61,1.94,1.61,2.35a5.92,5.92,0,0,0,1.65,3.06l.54-3.06a13.73,13.73,0,0,1-.37-2.15,1.24,1.24,0,0,1,.17-.54L674.88,46v-.37a2.08,2.08,0,0,1,.37-1.08,27.06,27.06,0,0,1-.37-4.3l.17-.37a1.38,1.38,0,0,1-.17-.71,2.91,2.91,0,0,1,.37-1.44,10,10,0,0,0-.37-2,16.08,16.08,0,0,0,.17-2V32.22a16.6,16.6,0,0,0-.17-2.33,19.14,19.14,0,0,0,.37-2.35,6.1,6.1,0,0,0-1.45-2.49v-.2C673.8,24.57,674.82,24.33,676.86,24.15Z" transform="translate(-15.75 -18.2)"/></svg>