<svg id="Calque_1" data-name="Calque 1" xmlns="http://www.w3.org/2000/svg" viewBox="0 0 602.85 96.85"><defs><style>.cls-1{fill:#f6f6f6;}.cls-2{fill:#e61f52;}</style></defs><path class="cls-1" d="M16.09,17.52q0,1.13,6.63,6.29,6.86,3.64,8.72,3.65a.83.83,0,0,0,.71-.88q0-1-3.32-2.94C26.28,21.48,25,20.26,25,20v-.17h.17A16.83,16.83,0,0,0,32,22.59l.88-.2c.81.17,1.21.35,1.21.54l.88-.17q7.53.16,10.82.17a5.78,5.78,0,0,0,.68-.17,2.15,2.15,0,0,0,1,.34h1.75a52,52,0,0,1,5.24,1.75,16.45,16.45,0,0,1,5.92,5.92l1.22,3.68a25.09,25.09,0,0,1-1.05,7.48,19.65,19.65,0,0,0-2.09,3.51,1.3,1.3,0,0,0-.51.17,22.73,22.73,0,0,1,3.82,5.92,12.67,12.67,0,0,1,2.46,5.78c.12,0,.29.22.51.68v2.26l.34.54v2.1q0,2.83-2.77,7.5c-2.33,2.32-4.53,3.49-6.63,3.49a5.56,5.56,0,0,1-2.1.87H52.4a13.25,13.25,0,0,1-1.93-.17,4.33,4.33,0,0,1-1.93.34h-1c-.12,0-.17,0-.17-.17l-1.39.34c-2-.11-3.47-.17-4.53-.17H37.73a16.09,16.09,0,0,0-2.27.17,6.35,6.35,0,0,0-1.56-.17c-.19,0-.88.06-2.09.17-.53-.22-.82-.46-.88-.7v-.34c.47-.44.93-1.78,1.39-4V69a6.35,6.35,0,0,0-.17-1.56,9.88,9.88,0,0,0,.17-1.76,6.33,6.33,0,0,0-.17-1.55,11.53,11.53,0,0,0,.17-1.93L32.15,61l.17-.34A4.24,4.24,0,0,1,32,59.21a7.12,7.12,0,0,0,.34-1.56,3,3,0,0,0-.17-1.39,15.27,15.27,0,0,0,.17-1.93V52.07A18.28,18.28,0,0,0,32,49.63c0-.19.05-.88.17-2.09a16.41,16.41,0,0,0-3-7.17A25.52,25.52,0,0,1,24.3,35v-.51q4.39,3.34,6.63,4.7h.51a1.61,1.61,0,0,0,.54-.33c0-1.82-1.29-3.39-3.85-4.73q-6.63-4.94-8.36-8.56c-.45,0-1.68-2.08-3.68-6.26l-.34-1.58Zm7.67,16.06.2.34v.17h-.2a.31.31,0,0,1-.34-.34Zm19,.17a.31.31,0,0,1-.34.34l.17.36v.17a9.28,9.28,0,0,1-.17,1.56,2.15,2.15,0,0,1,.34,1v2.26c0,.68-.06,1.62-.17,2.81a1.35,1.35,0,0,1,.17.51,5.45,5.45,0,0,0-.17,1.41v.51h.17q7.66-3.28,7.67-7.33v-.17c0-1.15-1.1-2.26-3.31-3.31h-.88a8.88,8.88,0,0,0-1.73.17Zm-.17,23.9.17,1.22v.53a16.59,16.59,0,0,1-.17,2.44,11.73,11.73,0,0,1,.17,2.1,3.51,3.51,0,0,1-.34,1c.22,0,.34.15.34.34l1.75-.17h1.56a.15.15,0,0,1,.17.17c3.72-.54,5.58-1.19,5.58-1.92a5.24,5.24,0,0,0,2.43-4.53c-.15,0-.37-.3-.68-.88V56.6c-.56,0-1.26-.93-2.09-2.8a2,2,0,0,0-1.59-1,24.79,24.79,0,0,1-3.48,2.09Z" transform="translate(-15.75 -17.52)"/><path class="cls-1" d="M85.81,24.32q0,.36.54.36l1.08-.17a1.52,1.52,0,0,1,.71.17c1.3-.11,2.43-.17,3.39-.17,3,0,4.48.24,4.48.71A7.58,7.58,0,0,0,94.93,27c.42.75,1.19,3.67,2.33,8.75a82,82,0,0,1,2.32,8.41A31.67,31.67,0,0,1,101,49.89c.25,0,.37.24.37.73l-.2.71a51,51,0,0,1,2.52,8.05c.21,0,.39.77.54,2.32.26,0,.68,1.38,1.25,4.13a1.24,1.24,0,0,0-.17.54,28.92,28.92,0,0,1,1.24,3.94c.23,0,.34.13.34.34v1.44c0,.51.66,1.34,2,2.49-.23.55-.47.85-.71.91l-1.08-.2-.91.2c-1-.13-1.7-.2-2-.2l-2.52.2c0-.25-.18-.37-.54-.37a6.24,6.24,0,0,1-1.61.37h-3.2q-.25,0-.54-.54v-.54c1.08-.73,1.61-1.27,1.61-1.61q-.67,0-1.61-5.38A10.78,10.78,0,0,1,94.76,64c-.24,0-.36-.11-.36-.34l.19-1.25-.36-.19a18.25,18.25,0,0,1-4.85,3.93c0,.29-2,1.83-5.89,4.65a6.06,6.06,0,0,1-2.32,2V73c0,.41.36,1,1.08,1.61V75c0,.23-.6.41-1.79.54a4,4,0,0,0-1.27-.37,2,2,0,0,1-1.08.37H76.53a9.2,9.2,0,0,1-1.82-.2,4.74,4.74,0,0,1-1.24.2l-1.25-.2a1.81,1.81,0,0,1-.91.37c-1.3-.26-2-.5-2-.71v-.73c1.08-.57,1.61-1.1,1.61-1.59a30.81,30.81,0,0,1,1.25-4.48,17.62,17.62,0,0,1,1.25-4.84,29.41,29.41,0,0,1,1.24-4.64,42.86,42.86,0,0,1,1.82-6.09l-.2-1.25q.73,0,2.32-8A38.75,38.75,0,0,0,80.8,36c.25,0,.43-.71.54-2.15.15,0,.51-.95,1.08-2.86l-.17-.37V30.4a36,36,0,0,1,1.24-3.76c-.83-.8-1.24-1.27-1.24-1.42.17-.47.35-.71.53-.71h.34A26.58,26.58,0,0,0,85.81,24.32Zm3,18.6v.71A20.41,20.41,0,0,1,87.6,48.3l.2.34a8.54,8.54,0,0,0-.91,3.6q-.93,4.11-1.44,4.11v.34H86c0-.51,1.5-1.65,4.48-3.4l1.44-1V52a7.07,7.07,0,0,1-1.07-3.57,21.77,21.77,0,0,1-1.45-5.55Z" transform="translate(-15.75 -17.52)"/><path class="cls-1" d="M131,24.15a16.39,16.39,0,0,1,6.83,1.75q.79,0,3,2.1c1,.28,2.27,1.74,3.85,4.39a7.62,7.62,0,0,1,1.22,1.92v.51c0,.25-1.28,1.18-3.85,2.81,0,.24-.46.42-1.39.53,0,.42-.58.83-1.75,1.22,0,.47-.3.82-.88,1l-.34-.17a2.17,2.17,0,0,1-1,.34l-.2-.34a11.09,11.09,0,0,1,.37-1.59q-2-3.68-3.85-3.68c-1-.32-1.61-.61-1.76-.88l-2.09.2h-1.25c-2.32.95-3.48,1.88-3.48,2.81s-.17,1.66-.17,1.92A18.33,18.33,0,0,0,131,43.23l.34-.17q.72,0,4,2.27,1.4,0,5.44,3c.29,0,1.28.94,3,2.81q1.44.59,3.14,6v2.1a20.4,20.4,0,0,1-2.1,8.75,12.24,12.24,0,0,1-3,3.51c0,.75-1.81,1.86-5.44,3.31a2.53,2.53,0,0,0-1.72.71l-.88-.17a19.38,19.38,0,0,1-3.17.34l-1.73-.17-.71.17q-3.63,0-9.29-3.14c-2.68-1.85-4-3.32-4-4.39a9.76,9.76,0,0,1-1.59-2.64v-.17a58.94,58.94,0,0,1,6-4.72,7.63,7.63,0,0,1,2.46-2.1,1.12,1.12,0,0,1,1-.71q0,.26.54.54l-.2,1.22v1c0,.86.77,1.85,2.3,3,0,.4.64.81,1.92,1.24,0,.33,1.17.62,3.51.88q4.36-1.76,4.36-3.34c.25-.28.37-.46.37-.54v-.51a1.2,1.2,0,0,0-.2-.7,1.25,1.25,0,0,0,.2-.71v-.17q-.65-2.61-1.95-2.61c0-.43-1.16-1.14-3.48-2.12q-.79-.74-5.78-2.27-.15,0-5.1-3.34c-.45,0-1-.52-1.73-1.56a8.06,8.06,0,0,1-3.17-4.39q-.87-.65-1.22-5.94,0-.15,1.76-5.61c.17,0,.75-.64,1.76-1.93a8,8,0,0,1,3.14-2.46q.67-1,6-2.61a1.35,1.35,0,0,0,.7.17,1.9,1.9,0,0,0,1-.53h2.27Z" transform="translate(-15.75 -17.52)"/><path class="cls-1" d="M151.55,24.15a5.08,5.08,0,0,1,1.24.17c1.8-.12,3.3-.17,4.5-.17H158a14.08,14.08,0,0,1,2,.17,1.72,1.72,0,0,1,.9-.17l1.25.17a14.32,14.32,0,0,1,2-.17,12,12,0,0,0,2.15.36,7.4,7.4,0,0,1,1.45-.36l1.24.17c.25,0,.37-.06.37-.17,1.47.11,4.77.23,9.88.36.25.83.43,1.25.54,1.25l-.37,3.43a5.69,5.69,0,0,1,.37,2.15l-.17.9a9.48,9.48,0,0,1,.17,1.79v.71q0,.28-.54.54h-.36c-1-1-1.56-1.42-1.79-1.42-.49.09-.73.21-.73.34l-.88-.17a6.46,6.46,0,0,0-1.45.17L172.93,34l-1.28.17a2,2,0,0,0-1.07-.34h-.71c-.83,0-1.25.15-1.25.34a30.7,30.7,0,0,0-3.79-.34L164,34a2,2,0,0,0-.91-.17c0,.23-.12.34-.36.34l.36,4.5a4,4,0,0,0-.36,1.62,16.68,16.68,0,0,0,.36,2.52l-.36,7a1.17,1.17,0,0,1,.53.2q0-.6,5.21-2.89a4.43,4.43,0,0,0,1.82-1.07c.56,0,1.58-.6,3.06-1.79a15.5,15.5,0,0,1,3.59-1.61h.54q.39,0,.54.87a2.08,2.08,0,0,0-.37,1.08v7l.37,1.25c-.47,1.08-.78,1.61-.91,1.61h-.37c-.75-.83-1.29-1.24-1.61-1.24,0,.47-.88,1-2.52,1.61q-2.17,1.62-3.06,1.62a30.22,30.22,0,0,1-5,2.69,3.57,3.57,0,0,1-1.62.9c0,.14-.06.2-.19.2l.19,1.79v1.61l-.19,2.15.36.2a16.1,16.1,0,0,1,2.33-.37l.9.17.91-.17,1.61.17c.36-.11.54-.22.54-.34l3.6.54c3.72-.28,5.58-.71,5.58-1.27l.53-.34h.17c.36.11.54.47.54,1.07V68a6.11,6.11,0,0,0,.17,1.44c-.13,2.89-.31,4.33-.54,4.33l.2.34v.74c0,.47-1,.71-2.89.71a8.74,8.74,0,0,1-2-.17c-1.13.11-2.21.17-3.23.17H170c-1.87,0-3.79-.06-5.75-.17a13,13,0,0,1-2.32.17,10.72,10.72,0,0,0-1.08-.17,1.24,1.24,0,0,0-.54.17l-1.61-.17c-2.08.11-3.28.17-3.6.17-1.62-.12-2.82-.17-3.59-.17l-.2-.37v-.37a6.36,6.36,0,0,0,1.44-3.06c-.11-1.4-.17-2.42-.17-3.06h.17c-.11-.58-.23-.87-.37-.87l.2-1.82V61a7.7,7.7,0,0,0-.2-1.61,6.94,6.94,0,0,0,.37-2.35,2.06,2.06,0,0,1-.37-1.08l.37-1.25a4.28,4.28,0,0,0-.37-2,2.83,2.83,0,0,0,.37-1.44,71.29,71.29,0,0,0-.37-7.54,7.62,7.62,0,0,0,.2-1.44c0-.23-.06-1.3-.2-3.23,0-.17.13-.83.37-2a5.74,5.74,0,0,0-.37-1.81q.21-4.77.54-7.54a5.88,5.88,0,0,0-1.78-2.52A2,2,0,0,1,151.55,24.15Z" transform="translate(-15.75 -17.52)"/><path class="cls-1" d="M184.88,24.15l1.61.17c1.25-.12,2-.17,2.16-.17s.74.05,1.78.17a8.72,8.72,0,0,1,1.42-.17,9.52,9.52,0,0,1,1.07.17,8.92,8.92,0,0,1,1.62-.17l.36.17a1.41,1.41,0,0,1,.71-.17,15,15,0,0,0,4.11.7l4.11,1.08.9-.17a32.37,32.37,0,0,1,4.28,3c1.09,0,2.35,1.08,3.76,3.23,1.29,0,3.07,2.2,5.36,6.43,1.2,2,1.81,3.31,1.81,3.93l1.42,7.51v.71c-.31.28-.61,1.77-.91,4.47a.15.15,0,0,0-.17.17l.17.91a7.83,7.83,0,0,1-1,2.32,23.78,23.78,0,0,1-3.94,7.33c-.6.17-1.5,1.13-2.69,2.86-.88,1.14-1.66,1.73-2.32,1.79-1.94,1.79-3.79,2.75-5.55,2.86a7,7,0,0,1-4.81,1.61c0,.23-.9.34-2.69.34h-1.25l-.54.37a9.49,9.49,0,0,1-1.41-.17,10.34,10.34,0,0,1-1.45.17l-.71-.37a26.87,26.87,0,0,1-3,.37l-.34-.17a7.2,7.2,0,0,1-.71.17c-1.14-.11-2.21-.17-3.23-.17a1.93,1.93,0,0,1-.37-.9,5,5,0,0,0,1.61-3c-.17-2.55-.28-3.87-.33-3.94a24,24,0,0,0,.16-2.49V61.7a24.17,24.17,0,0,0-.16-2.52,7.56,7.56,0,0,0,.33-2.32.3.3,0,0,1-.33-.34v-.37l.33-1.62a16.78,16.78,0,0,0-.33-2A2.29,2.29,0,0,0,186,51.5c0-4.28-.17-6.91-.53-7.87a2.15,2.15,0,0,0,.36-1.08,9.64,9.64,0,0,0-.36-3.2A11.79,11.79,0,0,0,186,37l-.33-1.78c.22-3.65.33-6.26.33-7.85a9.14,9.14,0,0,0-1.78-2.15v-.17C184.49,24.45,184.73,24.15,184.88,24.15ZM196,34v.17l.34,4.85a2.87,2.87,0,0,0-.34,1.24,29.2,29.2,0,0,0,.34,3,9,9,0,0,1-.34,2.32,10.36,10.36,0,0,1,.17,1.62c0,1.43-.12,2.15-.37,2.15l.54,3.23v.17a6.85,6.85,0,0,1-.17,1.61,10.39,10.39,0,0,1,.17,1.79v.54c0,.58-.11.87-.34.87a1.35,1.35,0,0,0,.17.54,5.79,5.79,0,0,1-.17,1.28c0,.17.06,1,.17,2.49C196,63.74,196,65.11,196,66h.34a11.66,11.66,0,0,1,1.44-.36c.12,0,.17.06.17.19,2.46-.83,3.77-1.24,3.94-1.24Q209,60,209,57.22c.54,0,1.15-1.07,1.81-3.23l-.2-.34v-.9c.49-1.44.74-2.21.74-2.32a9.84,9.84,0,0,0-1.28-5.36q-.33-2.49-5.18-7.7Q199.92,34,196,34Z" transform="translate(-15.75 -17.52)"/><path class="cls-1" d="M258.23,24.15a13.29,13.29,0,0,1,9,3.79q1.11,0,3.43,3.43.74,0,2,4.87c.43.49.92,2.06,1.44,4.7v.74a2.09,2.09,0,0,1-.36,1.07l.36,2.52L274,46.55l.36,3.79-.36.91c.13,2.23.19,4.09.19,5.61q-.67,7.56-2.18,9.37c0,1.09-1.8,3.27-5.41,6.51a13.61,13.61,0,0,1-7.78,2.72c0,.11-.24.17-.71.17A20.91,20.91,0,0,1,251,74.56a16.21,16.21,0,0,1-8.3-7.06,16.94,16.94,0,0,0-1.64-4A50,50,0,0,1,240,55c0-1.15.06-3,.17-5.6a1.52,1.52,0,0,1-.17-.71.33.33,0,0,0,.37-.37c0-.36-.07-.54-.2-.54l.2-1.81V44.93a11.72,11.72,0,0,0-.37-2.35q1.27-9,2.18-9a8.73,8.73,0,0,1,2.69-3.8c1.13-.92,1.74-1.58,1.81-2a7,7,0,0,1,3.8-1.81q1.41-1.82,7.22-1.81Zm-8.13,17,.2.34c-.13.38-.26.56-.37.56l.17.71c0,3.14-.18,4.7-.54,4.7a1.35,1.35,0,0,0,.17.54l-.17,1.08a30.44,30.44,0,0,1,.37,4.7v.73a1.28,1.28,0,0,1-.2.71,1.39,1.39,0,0,1,.2.74c0,.07-.07.86-.2,2.35A16.87,16.87,0,0,1,251,62.09q2.4,3.6,5.24,3.6h1.64l1.78-.17v.17c2.42-1.47,3.63-2.92,3.63-4.33a5.64,5.64,0,0,0,.9-2.89l-.19-.74q.19-.54.36-.54L264.2,56V53.23a.15.15,0,0,1,.17-.17c0-.13-.05-.2-.17-.2a4.33,4.33,0,0,0,.17-.71,9.54,9.54,0,0,0-.17-1.81,30.85,30.85,0,0,0,.17-3.26l-.17-1.27a6.16,6.16,0,0,0,.17-1.61v-.37a11.13,11.13,0,0,0-.36-1.45V40.94a7.66,7.66,0,0,0-2.69-5.41,7.94,7.94,0,0,0-4.17-1.44v-.2q-3.85,0-6.31,4.36A27.43,27.43,0,0,0,250.1,41.14Z" transform="translate(-15.75 -17.52)"/><path class="cls-1" d="M307.82,24.15c.07,0,.43.05,1.07.17a1.49,1.49,0,0,0,.71-.17q3.72.17,5,.36a2.15,2.15,0,0,1,1.08-.36H317q.29,0,.54.9c0,.17-.42.71-1.27,1.62,0,.39.06,1.4.2,3l-.2,1.61.2,1.08-.37,2.15a2.15,2.15,0,0,1,.37,1.07v.54a8.44,8.44,0,0,1-.2,1.62,1.34,1.34,0,0,1,.2.54c0,.09-.07.45-.2,1.07,0,.15.06.76.2,1.81l-.2,1.25a10.23,10.23,0,0,1,.2,2,1.91,1.91,0,0,1-.37.88,13.91,13.91,0,0,1,.37,2.69,8.73,8.73,0,0,1-.37,1.81,15.19,15.19,0,0,1,.37,2.16,1.17,1.17,0,0,1-.2.53l.2,1.08v.37a2.11,2.11,0,0,1-.37,1.07l.17.88c-.11,1-.17,1.81-.17,2.35.24,1.42.37,2.25.37,2.5a3.22,3.22,0,0,1-.37,1.07,6.71,6.71,0,0,0,.37,2,12.15,12.15,0,0,0-.2,2v1.61a13.23,13.23,0,0,0,.2,2.32,17.1,17.1,0,0,0-.37,2.32,6.45,6.45,0,0,0,1.44,2.53v.17c0,.28-1,.52-3.06.73-.62-.13-1-.2-1.07-.2a1.31,1.31,0,0,0-.71.2c-2.47-.13-4.15-.25-5-.37a2.08,2.08,0,0,1-1.08.37H305.3q-.32,0-.54-.9a5.63,5.63,0,0,1,1.07-1.45,27.7,27.7,0,0,1-2.69-4.47l-1.81-2a1.54,1.54,0,0,0-.88-1.61c-.24,0-.36-.29-.36-.88h.17A30.5,30.5,0,0,0,298.1,60q-.74-.95-3.93-6.63h.17c0-.3-.78-1.38-2.33-3.23a10.2,10.2,0,0,0-1.44-3.06h-.34v.71a7.57,7.57,0,0,1-.37,2.15,13.78,13.78,0,0,1,.37,2.16,1.17,1.17,0,0,1-.2.53l.2,1.08v.37a2,2,0,0,1-.37,1.07l.17.91a23.18,23.18,0,0,0-.17,2.32,24.11,24.11,0,0,1,.37,2.52,3.23,3.23,0,0,1-.37,1.08,7.36,7.36,0,0,0,.37,2,13.63,13.63,0,0,0-.2,2v1.61a14,14,0,0,0,.2,2.32,19.75,19.75,0,0,0-.37,2.35,6.08,6.08,0,0,0,1.45,2.5v.19c0,.29-1,.52-3.06.71-.63-.11-1-.17-1.08-.17a1.52,1.52,0,0,0-.71.17c-2.47-.11-4.15-.23-5-.37a1.94,1.94,0,0,1-1.07.37H279.1q-.32,0-.54-.9a5.77,5.77,0,0,1,1.25-1.62c0-.4-.06-1.41-.17-3l.17-1.61-.17-1.08.37-2.15a2,2,0,0,1-.37-.91c.11-3,.23-4.47.37-4.47a2.9,2.9,0,0,1-.37-1.28l.17-1.07a17.4,17.4,0,0,1-.17-2.16,8.79,8.79,0,0,0,.37-1.07,13.27,13.27,0,0,1-.37-2.49A8.25,8.25,0,0,1,280,50a13.73,13.73,0,0,1-.37-2.15,1.4,1.4,0,0,1,.17-.54l-.17-1.07v-.37a2.08,2.08,0,0,1,.37-1.08,27.06,27.06,0,0,1-.37-4.3l.17-.34a1.58,1.58,0,0,1-.17-.74A2.75,2.75,0,0,1,280,38a10.17,10.17,0,0,0-.37-2,15.49,15.49,0,0,0,.17-2V32.39a17.05,17.05,0,0,0-.17-2.33,18.73,18.73,0,0,0,.37-2.32,6.37,6.37,0,0,0-1.45-2.52v-.17c0-.28,1-.53,3.06-.73.08,0,.43.06,1.08.19a1.33,1.33,0,0,0,.71-.19q3.7.2,5,.36a2.09,2.09,0,0,1,1.07-.36h1.28q.32,0,.54.9a5.73,5.73,0,0,1-1.08,1.45v.17l3.23,5.74q0,.54,2,3A11.75,11.75,0,0,1,297,38.84a8,8,0,0,1,2,3.43c.43.08,1,1.09,1.78,3,.33,0,.86.72,1.62,2.15,1.07,1.15,1.61,1.94,1.61,2.35a6,6,0,0,0,1.64,3.06l.54-3.06a15.15,15.15,0,0,1-.37-2.15,1.4,1.4,0,0,1,.17-.54L305.83,46v-.37a2.18,2.18,0,0,1,.37-1.08,28.29,28.29,0,0,1-.37-4.3l.17-.37a1.49,1.49,0,0,1-.17-.71,3,3,0,0,1,.37-1.44,8.63,8.63,0,0,0-.37-2,14.32,14.32,0,0,0,.17-2V32.22a15.22,15.22,0,0,0-.17-2.33,17.23,17.23,0,0,0,.37-2.35,6.2,6.2,0,0,0-1.44-2.49v-.2C304.76,24.57,305.78,24.33,307.82,24.15Z" transform="translate(-15.75 -17.52)"/><path class="cls-1" d="M352.59,24.32q0,.36.54.36l1.08-.17a1.45,1.45,0,0,1,.7.17c1.31-.11,2.44-.17,3.4-.17,3,0,4.48.24,4.48.71A7.58,7.58,0,0,0,361.71,27q.63,1.13,2.32,8.75a79,79,0,0,1,2.33,8.41,33.44,33.44,0,0,1,1.44,5.72c.24,0,.37.24.37.73l-.2.71a51,51,0,0,1,2.52,8.05c.21,0,.39.77.54,2.32.26,0,.68,1.38,1.24,4.13a1.4,1.4,0,0,0-.17.54,27.77,27.77,0,0,1,1.25,3.94c.23,0,.34.13.34.34v1.44q0,.76,2,2.49c-.22.55-.46.85-.71.91l-1.07-.2-.91.2c-1.06-.13-1.71-.2-2-.2l-2.52.2c0-.25-.18-.37-.54-.37a6.24,6.24,0,0,1-1.61.37h-3.2q-.26,0-.54-.54v-.54c1.07-.73,1.61-1.27,1.61-1.61q-.68,0-1.61-5.38a10.5,10.5,0,0,1-1.08-3.4c-.24,0-.37-.11-.37-.34l.2-1.25-.37-.19a18,18,0,0,1-4.84,3.93c0,.29-2,1.83-5.89,4.65a6.15,6.15,0,0,1-2.32,2V73c0,.41.36,1,1.07,1.61V75c0,.23-.59.41-1.78.54a4,4,0,0,0-1.28-.37,1.92,1.92,0,0,1-1.07.37H343.3a9.19,9.19,0,0,1-1.81-.2,4.81,4.81,0,0,1-1.25.2l-1.24-.2a1.81,1.81,0,0,1-.91.37c-1.3-.26-1.95-.5-1.95-.71v-.73c1.07-.57,1.61-1.1,1.61-1.59A30.81,30.81,0,0,1,339,68.15a17.48,17.48,0,0,1,1.24-4.84,30.07,30.07,0,0,1,1.25-4.64,42,42,0,0,1,1.81-6.09l-.2-1.25c.5,0,1.27-2.68,2.33-8A39.56,39.56,0,0,0,347.58,36c.24,0,.42-.71.54-2.15.15,0,.51-.95,1.07-2.86l-.17-.37V30.4a37.79,37.79,0,0,1,1.25-3.76c-.83-.8-1.25-1.27-1.25-1.42.17-.47.35-.71.54-.71h.34A26.58,26.58,0,0,0,352.59,24.32Zm3,18.6v.71a20.41,20.41,0,0,1-1.24,4.67l.19.34a8.66,8.66,0,0,0-.9,3.6c-.63,2.74-1.11,4.11-1.45,4.11v.34h.54c0-.51,1.49-1.65,4.48-3.4l1.44-1V52a7.17,7.17,0,0,1-1.08-3.57,22.13,22.13,0,0,1-1.44-5.55Z" transform="translate(-15.75 -17.52)"/><path class="cls-2" d="M380.26,18.59q0,1.14,6.6,6.23,6.79,3.66,8.67,3.66a.83.83,0,0,0,.7-.88q0-1-3.31-3-3.8-3.19-3.8-3.62v-.17h.17a16.9,16.9,0,0,0,6.77,2.78,1.16,1.16,0,0,0,.51-.2l3.29.37a1.4,1.4,0,0,0,.54-.17l5.18.34a2.17,2.17,0,0,1,1.05-.34h.88a1.19,1.19,0,0,1,.67.17,1.41,1.41,0,0,1,.71-.17,1.13,1.13,0,0,1,1.05.68v.33L408.72,26a29.09,29.09,0,0,0,1.73,4.53,7.67,7.67,0,0,1,1.05,2.78A7.64,7.64,0,0,1,413.4,37a16.08,16.08,0,0,0,1.55,3c0,.55,1.15,2.8,3.32,6.77a3.85,3.85,0,0,0,.85,2.43h.17A17.83,17.83,0,0,1,421,45.64,6.66,6.66,0,0,1,422.77,42a7.07,7.07,0,0,1,1.39-3.83q0-1,2.23-4.16c.33-1,.56-1.5.71-1.56l-.17-.34q1-.83,2.24-5.55c.13,0,.2-.06.2-.17V26l-1.05-1.55c.17-.46.34-.68.51-.68h1.05a15.47,15.47,0,0,0,3.11-.37c.1,0,.56.06,1.39.2l.88-.2,5,.37a3,3,0,0,1,1.22-.54v.17a.15.15,0,0,0,.17-.17,1.23,1.23,0,0,1,1.39,1.38c-.81.59-1.22,1.11-1.22,1.56.13,1.76.2,3,.2,3.66l-.37.7a2,2,0,0,1,.37.85c0,.12-.13,1.1-.37,2.95.24,0,.37.16.37.37v.85a12.48,12.48,0,0,1-.2,1.92l.2.34-.2,1a8.28,8.28,0,0,0,.2,1.73,13.47,13.47,0,0,0-.2,2.06c.13.61.2,1,.2,1.05a3.83,3.83,0,0,0-.37,1.39,13.31,13.31,0,0,1,.37,2.44,15.12,15.12,0,0,1-.37,1.89,18,18,0,0,0,.37,1.93l-.2.68A12.38,12.38,0,0,1,442,54a1.78,1.78,0,0,0-.37.87c0,.1.06.56.17,1.39a2,2,0,0,0-.34,1.05v.34l.54,3a2.7,2.7,0,0,0-.37,1.38c0,1.15.16,1.73.37,1.73l-.2.88v3.28a12.59,12.59,0,0,0,.2,1.93,6.35,6.35,0,0,0-.37,2.24,5.62,5.62,0,0,0,1.39,2.6v.17c0,.25-1,.48-2.95.71l-1.22-.17a1.46,1.46,0,0,0-.68.17L433,75.15a2,2,0,0,1-1,.34h-1.19q-.54-.17-.54-1a6.48,6.48,0,0,0,1.22-1.73,13.91,13.91,0,0,0-.34-3.11,2.91,2.91,0,0,0,.34-1c-.12-.83-.17-1.29-.17-1.39l.34-2.26c-.23-.57-.4-.85-.51-.85l.51-4.53a2.83,2.83,0,0,1-.34-1.39v-.51a.15.15,0,0,1,.17-.17l-.17-.34V55.35a2.88,2.88,0,0,1,.34-1.38,16,16,0,0,1-.34-2.78,8.63,8.63,0,0,1,.34-1.73c-.12-1-.29-1.55-.51-1.55h-.34a13.74,13.74,0,0,1-1.22,2.94c-.78,1.63-1.53,3.42-2.27,5.38-.53,0-1.1.81-1.72,2.44-.12,0-.3.28-.54.85l.2.37a23.69,23.69,0,0,0-2.1,4.84,2.18,2.18,0,0,0-.17,1l.34,1.21a4.23,4.23,0,0,1-2.24.68l-.88-.17h-3.28a1.38,1.38,0,0,1-.71-.17,1.32,1.32,0,0,1-.68.17q-.25,0-.54-.51v-.34a12.42,12.42,0,0,1,.34-1.38,29.15,29.15,0,0,0-3.45-7.65,6.92,6.92,0,0,0-1.39-3.46c-.17,0-.46-.58-.88-1.75-.34,0-.62-.23-.85-.68v-.17a.15.15,0,0,1,.17-.17l-1.21-3.48h-.34a7.87,7.87,0,0,0-.37,1.72,6.69,6.69,0,0,0,.37,1.93l-.17.68a16,16,0,0,1,.17,2.09c-.25,0-.37.17-.37.51.13,1,.2,1.6.2,1.73-.25,0-.37.16-.37.37v1.73a4,4,0,0,1,.54,2.07c-.12.35-.24.53-.37.53.13,2.14.2,3.69.2,4.68v2.43a8.34,8.34,0,0,0,.17,1.56,6.41,6.41,0,0,0-.37,2.43,5.82,5.82,0,0,0,1.38,2.41V75c0,.26-1,.49-3.11.68-.6-.11-.95-.17-1.05-.17l-.85.17-5-.34a2,2,0,0,1-1.05.34h-1.38q-.35,0-.51-1a10.82,10.82,0,0,0,1.38-1.56,18.62,18.62,0,0,0-.34-3.28l.34-.88-.17-1.56a14.58,14.58,0,0,1,.34-2.06l-.51-1,.34-2.61c-.11-2.85-.17-5.1-.17-6.77a1.87,1.87,0,0,0,.34-.87q-.51-4.39-1.21-8-.6-3.06-5.19-7.31c0-.07-.7-1-2.09-2.77v-.51a76.23,76.23,0,0,0,6.6,4.67h.51l.53-.34q0-2.66-3.82-4.67-6.6-4.91-8.33-8.5-.65,0-3.65-6.26l-.34-1.56Zm7.65,16,.17.37v.17h-.17c-.25,0-.37-.12-.37-.34Z" transform="translate(-15.75 -17.52)"/><path class="cls-1" d="M465.17,24.32c0,.24.18.36.53.36l1.08-.17a1.52,1.52,0,0,1,.71.17c1.3-.11,2.43-.17,3.4-.17,3,0,4.47.24,4.47.71A7.58,7.58,0,0,0,474.28,27c.42.75,1.19,3.67,2.33,8.75a82,82,0,0,1,2.32,8.41,31.67,31.67,0,0,1,1.44,5.72c.25,0,.37.24.37.73l-.2.71a51,51,0,0,1,2.52,8.05c.21,0,.39.77.54,2.32.27,0,.68,1.38,1.25,4.13a1.24,1.24,0,0,0-.17.54,28.92,28.92,0,0,1,1.24,3.94c.23,0,.34.13.34.34v1.44c0,.51.67,1.34,2,2.49-.23.55-.47.85-.71.91l-1.08-.2-.9.2c-1.06-.13-1.71-.2-2-.2l-2.52.2c0-.25-.18-.37-.54-.37a6.24,6.24,0,0,1-1.61.37h-3.2q-.25,0-.54-.54v-.54c1.08-.73,1.61-1.27,1.61-1.61q-.68,0-1.61-5.38a10.78,10.78,0,0,1-1.08-3.4c-.24,0-.36-.11-.36-.34l.19-1.25-.36-.19a18.08,18.08,0,0,1-4.85,3.93c0,.29-2,1.83-5.89,4.65a6.06,6.06,0,0,1-2.32,2V73c0,.41.36,1,1.08,1.61V75c0,.23-.6.41-1.79.54a4,4,0,0,0-1.27-.37,2,2,0,0,1-1.08.37h-1.58a9.28,9.28,0,0,1-1.82-.2,4.74,4.74,0,0,1-1.24.2l-1.25-.2a1.82,1.82,0,0,1-.9.37c-1.31-.26-2-.5-2-.71v-.73q1.62-.85,1.62-1.59a30,30,0,0,1,1.24-4.48,17.62,17.62,0,0,1,1.25-4.84,29.41,29.41,0,0,1,1.24-4.64,42.86,42.86,0,0,1,1.82-6.09l-.2-1.25q.74,0,2.32-8A38.75,38.75,0,0,0,460.15,36c.25,0,.43-.71.54-2.15.15,0,.51-.95,1.08-2.86l-.17-.37V30.4a36,36,0,0,1,1.24-3.76c-.83-.8-1.24-1.27-1.24-1.42.17-.47.35-.71.54-.71h.33A26.74,26.74,0,0,0,465.17,24.32Zm3,18.6v.71A21,21,0,0,1,467,48.3l.2.34a8.54,8.54,0,0,0-.91,3.6q-.93,4.11-1.44,4.11v.34h.54c0-.51,1.49-1.65,4.47-3.4l1.44-1V52a7.07,7.07,0,0,1-1.07-3.57,22.19,22.19,0,0,1-1.45-5.55Z" transform="translate(-15.75 -17.52)"/><path class="cls-1" d="M521.75,24.15c.07,0,.43.05,1.08.17a1.45,1.45,0,0,0,.7-.17c2.48.11,4.15.23,5,.36a2.09,2.09,0,0,1,1.07-.36h1.28c.19,0,.36.3.53.9,0,.17-.42.71-1.27,1.62,0,.39.07,1.4.2,3l-.2,1.61.2,1.08L530,34.54a2.05,2.05,0,0,1,.37,1.07v.54a8.44,8.44,0,0,1-.2,1.62,1.34,1.34,0,0,1,.2.54c0,.09-.07.45-.2,1.07,0,.15.07.76.2,1.81l-.2,1.25a10.23,10.23,0,0,1,.2,2,1.81,1.81,0,0,1-.37.88,13.17,13.17,0,0,1,.37,2.69A8.09,8.09,0,0,1,530,49.8a13.78,13.78,0,0,1,.37,2.16,1.17,1.17,0,0,1-.2.53l.2,1.08v.37A2,2,0,0,1,530,55l.17.88c-.11,1-.17,1.81-.17,2.35a24.51,24.51,0,0,1,.37,2.5,3,3,0,0,1-.37,1.07,7.09,7.09,0,0,0,.37,2,13.38,13.38,0,0,0-.2,2v1.61a14.26,14.26,0,0,0,.2,2.32A17.1,17.1,0,0,0,530,72a6.45,6.45,0,0,0,1.44,2.53v.17c0,.28-1,.52-3,.73-.63-.13-1-.2-1.08-.2a1.33,1.33,0,0,0-.71.2c-2.47-.13-4.15-.25-5-.37a2.05,2.05,0,0,1-1.08.37h-1.24q-.32,0-.54-.9a5.54,5.54,0,0,1,1.08-1.45,27,27,0,0,1-2.69-4.47l-1.82-2a1.55,1.55,0,0,0-.87-1.61c-.25,0-.37-.29-.37-.88h.17A31,31,0,0,0,512,60q-.75-.95-3.94-6.63h.17c0-.3-.78-1.38-2.32-3.23a10.08,10.08,0,0,0-1.45-3.06h-.34v.71a7.57,7.57,0,0,1-.37,2.15,13.78,13.78,0,0,1,.37,2.16,1.06,1.06,0,0,1-.2.53l.2,1.08v.37a2,2,0,0,1-.37,1.07l.17.91a23.18,23.18,0,0,0-.17,2.32,24.11,24.11,0,0,1,.37,2.52,3.23,3.23,0,0,1-.37,1.08,7.36,7.36,0,0,0,.37,2,13.63,13.63,0,0,0-.2,2v1.61a14,14,0,0,0,.2,2.32,19.75,19.75,0,0,0-.37,2.35,6.08,6.08,0,0,0,1.45,2.5v.19c0,.29-1,.52-3.06.71-.62-.11-1-.17-1.08-.17a1.45,1.45,0,0,0-.7.17c-2.48-.11-4.16-.23-5-.37a1.92,1.92,0,0,1-1.07.37H493c-.21,0-.38-.3-.54-.9a5.77,5.77,0,0,1,1.25-1.62c0-.4-.06-1.41-.17-3l.17-1.61-.17-1.08.37-2.15a2,2,0,0,1-.37-.91c.11-3,.24-4.47.37-4.47a2.9,2.9,0,0,1-.37-1.28l.17-1.07a17.4,17.4,0,0,1-.17-2.16,7.12,7.12,0,0,0,.37-1.07,13.27,13.27,0,0,1-.37-2.49,8.25,8.25,0,0,1,.37-1.82,13.73,13.73,0,0,1-.37-2.15,1.4,1.4,0,0,1,.17-.54l-.17-1.07v-.37a2.08,2.08,0,0,1,.37-1.08,27.06,27.06,0,0,1-.37-4.3l.17-.34a1.58,1.58,0,0,1-.17-.74,2.75,2.75,0,0,1,.37-1.41,9.42,9.42,0,0,0-.37-2,15.49,15.49,0,0,0,.17-2V32.39a17.05,17.05,0,0,0-.17-2.33,16.86,16.86,0,0,0,.37-2.32,6.37,6.37,0,0,0-1.45-2.52v-.17c0-.28,1-.53,3.06-.73a10.94,10.94,0,0,1,1.08.19,1.33,1.33,0,0,0,.71-.19q3.71.2,5,.36a2.12,2.12,0,0,1,1.08-.36h1.27q.32,0,.54.9a5.73,5.73,0,0,1-1.08,1.45v.17l3.23,5.74c0,.36.65,1.37,2,3A11.61,11.61,0,0,1,511,38.84a7.89,7.89,0,0,1,2,3.43c.44.08,1,1.09,1.79,3,.32,0,.86.72,1.61,2.15,1.08,1.15,1.61,1.94,1.61,2.35a5.92,5.92,0,0,0,1.65,3.06l.54-3.06a13.73,13.73,0,0,1-.37-2.15,1.24,1.24,0,0,1,.17-.54L519.77,46v-.37a2.08,2.08,0,0,1,.37-1.08,27.06,27.06,0,0,1-.37-4.3l.17-.37a1.38,1.38,0,0,1-.17-.71,2.91,2.91,0,0,1,.37-1.44,10,10,0,0,0-.37-2,16.08,16.08,0,0,0,.17-2V32.22a16.6,16.6,0,0,0-.17-2.33,19.14,19.14,0,0,0,.37-2.35,6.1,6.1,0,0,0-1.45-2.49v-.2C518.69,24.57,519.71,24.33,521.75,24.15Z" transform="translate(-15.75 -17.52)"/><path class="cls-1" d="M553.58,24.15c1.95.11,3.69.17,5.24.17A17.56,17.56,0,0,1,565.67,27L567,28.65q2.1,0,4.87,4.36v.71a32.36,32.36,0,0,1-4.33,2.89q-4.85,3.26-5.61,3.25a1.74,1.74,0,0,1-.37-.54c.08-1.09.2-1.64.37-1.64-.47-1.32-1.92-2.4-4.33-3.23a22.83,22.83,0,0,0-3.09-.56l-.34.2-.37-.2q-3.86,0-6.31,4.36a24.76,24.76,0,0,0-.74,2.89l.17.34c-.11.38-.23.56-.34.56a6,6,0,0,0,.17.71c0,3.14-.18,4.7-.54,4.7a1.35,1.35,0,0,0,.17.54l-.17,1.08a30.44,30.44,0,0,1,.37,4.7v.73a1.28,1.28,0,0,1-.2.71,1.39,1.39,0,0,1,.2.74c0,.07-.07.86-.2,2.35a16.87,16.87,0,0,1,1.28,3.79A10.18,10.18,0,0,0,549.79,65l.34-.2a5.31,5.31,0,0,0,2.72.91H553a1.56,1.56,0,0,0,.74-.17,1.49,1.49,0,0,0,.71.17,8.28,8.28,0,0,0,5.07-1.44c.11,0,.17.06.17.19a7.07,7.07,0,0,0,2.89-5.8c.13,0,.25-.72.37-2.15,0-.51-.54-.81-1.62-.91-1.08.11-1.74.17-2,.17l-.74-.34c-2.4.53-3.59,1.07-3.59,1.62,0,.11-.07.16-.2.16h-.54q-.42,0-.54-.9l.37-1.25c-.13-1.83-.2-3.09-.2-3.79,0-.15.07-.76.2-1.81a2.87,2.87,0,0,1-.37-1.45v-.37a2.91,2.91,0,0,1,.37-1.44l1.78.2h4.36a1.69,1.69,0,0,1,.88.17l1.11-.17h3.42l1.08.17a1.45,1.45,0,0,1,.74-.17l.34.17.36-.17,1.08.17,1.64-.17c1.23.11,2.19.17,2.89.17a1.24,1.24,0,0,1,.54-.17l.37.53a2.89,2.89,0,0,1-1.45,2.16,1.4,1.4,0,0,0,.17.54c-.11,2.32-.17,3.83-.17,4.53l.17,1.27-.53,2.15a3,3,0,0,1,.36,1.45,19,19,0,0,1-2.52,7.76l-2.55,3.45c-.28,0-.94.6-2,1.79q-5.1,3.26-9.4,3.25c0,.17-1.2.3-3.6.37a16.34,16.34,0,0,1-14.1-7q-.51,0-1.81-4.33-1.14-.91-1.62-9.21c0-1.15.06-3,.17-5.6a1.52,1.52,0,0,1-.17-.71.33.33,0,0,0,.37-.37c0-.36-.07-.54-.2-.54l.2-1.81V44.93a11.72,11.72,0,0,0-.37-2.35,23,23,0,0,1,2.89-10.48,7.92,7.92,0,0,1,2-2.35c1.14-.92,1.74-1.58,1.82-2A7,7,0,0,1,546.16,26c1-1.21,3.35-1.81,7.22-1.81Z" transform="translate(-15.75 -17.52)"/><path class="cls-1" d="M608.92,43.88c.24,0,.37.16.37.34l-.2.37A83.13,83.13,0,0,1,612,54.48L614.67,65a11.84,11.84,0,0,1,1.07,2.52,10,10,0,0,1-.19,1.08A9.74,9.74,0,0,1,617,73.11a4,4,0,0,1,1.61,1.62v.19c-.11.36-.47.54-1.07.54h-.91c-.85-.24-1.32-.37-1.41-.37-.36.12-.54.24-.54.37-1.21-.13-2.11-.2-2.69-.2s-1.57.07-3.23.2l-.37-.2-1.08.2h-1.24q-.28,0-.54-.54v-.36a4.34,4.34,0,0,0,1.25-2,43.67,43.67,0,0,0-1.62-5l.17-1.08c-.58,0-.94-1.25-1.07-3.76l-.37-.17h-.54q-.74,1.38-4.64,3.93a9.83,9.83,0,0,1-3.06,2.16q-.18.9-3.6,3c0,.17-.47.59-1.42,1.25v.17c0,.15.42.63,1.25,1.45v.36c0,.23-.18.34-.54.34a14,14,0,0,0-2.32.2,14.89,14.89,0,0,0-2.52-.2,1.72,1.72,0,0,1-2.32-.17l-.91.54a10.76,10.76,0,0,1-1.44-.37h-.17a1.21,1.21,0,0,1-.71.37q-2,0-2-.9a16.5,16.5,0,0,0,2-3.4c.47-2.55,1.07-4,1.78-4.48l6.46-5.38c.25-.47,1.5-1.49,3.77-3.06,0-.2.89-1,2.69-2.52,0-.19,1.25-1.08,3.76-2.69q.18-.54,1.08-.54a9.21,9.21,0,0,1,4.67,1.45,1.24,1.24,0,0,1,.54.17v-.17c-1.79-2.36-2.69-4-2.69-4.84a16.44,16.44,0,0,0,2.52-2.7,15.28,15.28,0,0,0,2.86-2.35A1.75,1.75,0,0,0,608.92,43.88ZM593.85,24.15q.54.17.54.36a46.23,46.23,0,0,0,4.84-.36l1.08.17h2.86a9.92,9.92,0,0,0,1.61-.17,1.08,1.08,0,0,1,.91,1.07,4.81,4.81,0,0,0-1.08,2q1.78,6,2.86,10.94a26.79,26.79,0,0,1,1.28,4.13c.23,0,.34.24.34.71q-5.93,2.69-7,2.69a14.8,14.8,0,0,1-2.52-3.6Q597.11,48,594.73,48a18.29,18.29,0,0,1-6.09,2v.2a2.27,2.27,0,0,1,1.08.17,1.49,1.49,0,0,1,.71-.17c2.75.32,4.13.79,4.13,1.42V52a40.77,40.77,0,0,1-4.47,5.74c0,.46-1.26,1.89-3.77,4.31l-4,4.64H582a22.29,22.29,0,0,1,1.62-5.55,96.21,96.21,0,0,1,2.49-9.51,64.4,64.4,0,0,1,2.15-8.07v-.17L588.1,43a5.23,5.23,0,0,1,1.25-2.32l-.17-1.08q1.22-2.2,2.69-10c.28,0,.59-.78.91-2.33.11,0,.17-.06.17-.19v-.17a7.61,7.61,0,0,0-1.08-2.16v-.17A14,14,0,0,1,593.85,24.15Z" transform="translate(-15.75 -17.52)"/><path class="cls-1" d="M33.93,82.4l.77.1c.36,0,.9,0,1.62-.1a.79.79,0,0,1,.33.1,5.22,5.22,0,0,1,.86-.1c.47,0,1.37.07,2.71.21l.65-.11a9.57,9.57,0,0,0,1.41.11L43,82.5a1.73,1.73,0,0,0,.65.21l.86-.1a15.6,15.6,0,0,0,2.94.88A9.6,9.6,0,0,1,51.7,87.7a9.25,9.25,0,0,0,.54,1.85v2a6.53,6.53,0,0,1-1.3,3.57,2.58,2.58,0,0,1-.86,1.41q1,.84,3.46,5.51a8,8,0,0,0,.65,2.18c0,1.08.11,1.62.32,1.62a9.29,9.29,0,0,1-2.48,6.4l-2,1.2a8.51,8.51,0,0,0-2.6.75H46.07a.92.92,0,0,1-.44-.1,16.12,16.12,0,0,1-3.79.31l-.53-.1c-.15,0-.23,0-.23.1l-1.3-.1H38a14.87,14.87,0,0,0-1.63.1,4,4,0,0,0-1-.1l-1.42.1-.32-.44v-.21a4.82,4.82,0,0,0,.76-2.39v-1.07a9.8,9.8,0,0,1,.1-1.51,6.13,6.13,0,0,1-.1-1.09,5.33,5.33,0,0,1,.1-.86l-.21-1.85c.07-.84.14-2.43.21-4.76a5.88,5.88,0,0,1-.1-1,4.16,4.16,0,0,1,.21-1l-.11-.65c0-.1,0-.46.11-1.09a.19.19,0,0,1-.21-.22v-1.4a3.6,3.6,0,0,0-.11-.88,3.43,3.43,0,0,0,.11-.86v-.21a15.32,15.32,0,0,0-.11-1.64,8.84,8.84,0,0,0,.21-1.3l-.21-1.4c.06-.29.13-.43.21-.43s0-.36-.1-.88a28,28,0,0,1,.21-2.81c0-.16-.33-.6-1-1.3v-.32Zm6.83,6.82-.1.22v.76a3.74,3.74,0,0,0,.21,1.41l-.21,4.11.21.1C43.52,94.66,45,93.4,45.42,92V90.85a3.83,3.83,0,0,0-2.18-1.63l-1.51.1A5.58,5.58,0,0,0,40.76,89.22Zm4.33,11.47a9.05,9.05,0,0,1-2.38,1.53l-2,1.41v2.06l-.1.65a1.08,1.08,0,0,1,.1.54v.32l-.1,1.09c.07,0,.1,0,.1.1l1.08-.1h.44l.65.1c2.46-.37,3.69-.84,3.69-1.4a2.86,2.86,0,0,0,1.17-2.6c-.24,0-.42-.47-.52-1.41a2.4,2.4,0,0,1-1.09-1.64A1.82,1.82,0,0,0,45.09,100.69Z" transform="translate(-15.75 -17.52)"/><path class="cls-1" d="M58.71,82.4a1.89,1.89,0,0,1,.67.22.93.93,0,0,0,.46-.12c1,.08,1.74.12,2.33.12A12.17,12.17,0,0,0,64,82.4a1.28,1.28,0,0,1,1.23.66v.23l-.23.78a11.59,11.59,0,0,1,1.56,3.12c.23.07.52.71.9,1.9.32,0,.87,1,1.67,3.13h.23a12.12,12.12,0,0,1,1.79-3.46,8.85,8.85,0,0,1,1-2.11,10.24,10.24,0,0,1,1.34-2.58c-.07-.26-.11-.41-.11-.44q.34-1.23,1.11-1.23a12.08,12.08,0,0,0,1.79.22c.66,0,1.4,0,2.24-.12l.56.12a1.72,1.72,0,0,1,.77-.22c1,.26,1.45.45,1.46.56-1.33,1.09-2,2-2,2.79q-2.64,5.2-3.59,7.7a7.29,7.29,0,0,0-1.33,2.92,15.81,15.81,0,0,0-1.67,3.13c-.16.29-.27.44-.34.44l.11.77v.23a1.34,1.34,0,0,1-.23.67l.12.56a12.5,12.5,0,0,0-.12,1.46c.15.89.23,1.41.23,1.56a1.91,1.91,0,0,1-.23.67,5.53,5.53,0,0,0,.23,1.23,9.65,9.65,0,0,0-.11,1.23v1a10.25,10.25,0,0,0,.11,1.46,9.91,9.91,0,0,0-.23,1.45,4,4,0,0,0,.89,1.56v.12c0,.17-.63.31-1.89.44a6.42,6.42,0,0,0-.67-.1,1,1,0,0,0-.46.1c-1.53-.07-2.58-.14-3.13-.23a1.15,1.15,0,0,1-.67.23h-.77c-.13,0-.24-.19-.33-.56,0-.11.25-.44.77-1,0-.25,0-.88-.1-1.9l.1-1-.1-.67.22-1.35a1.16,1.16,0,0,1-.22-.55,12.64,12.64,0,0,1,.22-2.79,1.86,1.86,0,0,1-.22-.79l.1-.67a10.44,10.44,0,0,1-.1-1.34,4.17,4.17,0,0,0,.22-.67,21.81,21.81,0,0,0-1.91-4.69,14.94,14.94,0,0,1-.67-1.69,15.76,15.76,0,0,1-1.9-4.13,24.84,24.84,0,0,1-2-4c-.17,0-.43-.65-.79-1.9A11,11,0,0,0,57.15,83C57.15,82.83,57.67,82.64,58.71,82.4Z" transform="translate(-15.75 -17.52)"/><path class="cls-2" d="M93.06,78.7q0,.72,4.15,3.92,4.26,2.31,5.45,2.31a.54.54,0,0,0,.44-.55c0-.41-.7-1-2.08-1.86a11.57,11.57,0,0,1-2.39-2.29v-.1h.11A10.74,10.74,0,0,0,103,81.87a.84.84,0,0,0,.33-.11c1.6.14,3.12.21,4.57.21l.44.11a1.86,1.86,0,0,1,.78-.21l.54.21,1.41-.21c1.16.14,1.89.21,2.18.21l.54-.21,3.06.75c0,.34.4.57,1.2.67a10.41,10.41,0,0,1,2.84,3.38A9,9,0,0,1,122,90.38a.87.87,0,0,0-.1.44V91a1.3,1.3,0,0,0,.21.65,10,10,0,0,0-.33,2.84,2.38,2.38,0,0,0-.44,1.3v.78a10.9,10.9,0,0,1-1.09,2.05c-.44,1.32-.94,2-1.52,2,0,.23-.58.81-1.75,1.74,0,.39-.44.61-1.3.67q0,.59-1.2,1c0,.27-.66.59-2,1a5.91,5.91,0,0,0-.88,1,11.33,11.33,0,0,1-2.07,1.09v.1c.15,1.42.23,2.26.23,2.52-.07,1.54-.11,2.45-.11,2.72a5.25,5.25,0,0,0,.86,1.32v.21c0,.29-.51.44-1.53.44a9.29,9.29,0,0,1-1.19-.11l-.44.11-1.3-.11c-.15,0-.55,0-1.2.11a3.5,3.5,0,0,0-.44-.11,9.81,9.81,0,0,1-1.42.11h-.33a.19.19,0,0,1-.21-.21,1.52,1.52,0,0,1,.87-1.42l-.12-.55V111a8.23,8.23,0,0,1,.12-1.21,1.2,1.2,0,0,1-.22-.65,1.1,1.1,0,0,1,.22-.54l-.12-1.09c.08-.91.12-1.38.12-1.43a10.42,10.42,0,0,1-.22-1.19l.22-3.92-.22-2.73.1-.23a8.9,8.9,0,0,0-1.84-4.69,12.74,12.74,0,0,0-2.08-2.18,6,6,0,0,0-1.09-1.53v-.31a50.6,50.6,0,0,0,4.15,2.93h.32A1,1,0,0,0,103,92c0-1.12-.8-2.11-2.39-3-2.77-2-4.51-3.83-5.24-5.35-.28,0-1-1.3-2.3-3.92l-.21-1Zm4.8,10L98,89v.11h-.12a.19.19,0,0,1-.21-.21Zm11.67-.44a4.07,4.07,0,0,0,.33,1.2l-.21.54.11,1.53c0,.15,0,1-.11,2.41l.21.44a11.54,11.54,0,0,0-.21,1.63,13.92,13.92,0,0,1,.21,1.64q-.15,0-.33.42.14.54.33.54a14.9,14.9,0,0,0,4.26-3.48,18.83,18.83,0,0,0,1.09-2.51c-.21-2.76-1-4.15-2.29-4.15a2.15,2.15,0,0,0-1.63-.54H110.2c-.08,0-.13,0-.13-.11S109.79,88,109.53,88.3Z" transform="translate(-15.75 -17.52)"/><path class="cls-2" d="M134.93,82.5c0,.15.11.23.33.23l.67-.11a.9.9,0,0,1,.44.11c.81-.07,1.51-.11,2.11-.11,1.85,0,2.78.15,2.78.44a4.88,4.88,0,0,0-.67,1.11A35,35,0,0,1,142,89.6a49.08,49.08,0,0,1,1.44,5.22,19.87,19.87,0,0,1,.9,3.55c.15,0,.23.16.23.46l-.13.44a30.81,30.81,0,0,1,1.57,5q.19,0,.33,1.44c.17,0,.42.86.78,2.57a.84.84,0,0,0-.11.33,18.28,18.28,0,0,1,.77,2.45c.14,0,.22.08.22.21v.89c0,.32.41.84,1.23,1.55-.14.34-.29.53-.44.56l-.67-.12-.56.12c-.66-.08-1.06-.12-1.22-.12l-1.56.12c0-.15-.11-.22-.34-.22a4,4,0,0,1-1,.22h-2c-.11,0-.22-.11-.34-.33v-.33c.67-.46,1-.79,1-1-.28,0-.61-1.11-1-3.34a6.61,6.61,0,0,1-.67-2.1.2.2,0,0,1-.22-.22l.12-.77-.23-.12a11.1,11.1,0,0,1-3,2.44c0,.18-1.21,1.14-3.65,2.88a3.73,3.73,0,0,1-1.44,1.23v.11c0,.26.22.59.66,1v.23c0,.14-.36.25-1.1.33a2.57,2.57,0,0,0-.79-.22,1.26,1.26,0,0,1-.67.22h-1a5.7,5.7,0,0,1-1.12-.12,3,3,0,0,1-.77.12l-.78-.12a1.15,1.15,0,0,1-.56.23c-.81-.16-1.21-.31-1.21-.44v-.46c.66-.35,1-.68,1-1a19.28,19.28,0,0,1,.77-2.78,10.78,10.78,0,0,1,.78-3,17.83,17.83,0,0,1,.77-2.89,26.09,26.09,0,0,1,1.12-3.78l-.12-.77q.47,0,1.44-5a24,24,0,0,0,1.34-4.55c.15,0,.26-.45.33-1.34.1,0,.32-.59.67-1.78l-.11-.22v-.11a21.78,21.78,0,0,1,.78-2.34c-.52-.49-.78-.78-.78-.88.11-.29.22-.44.34-.44h.21C133.63,82.62,134.19,82.58,134.93,82.5Zm1.88,11.55v.44a13.09,13.09,0,0,1-.77,2.9l.12.21a5.27,5.27,0,0,0-.56,2.23q-.58,2.55-.9,2.55v.21H135c0-.31.93-1,2.78-2.11l.9-.65v-.12a4.38,4.38,0,0,1-.67-2.22,13.83,13.83,0,0,1-.9-3.44Z" transform="translate(-15.75 -17.52)"/><path class="cls-2" d="M154.35,82.4a9.75,9.75,0,0,1,1.23.22,5.34,5.34,0,0,1,1-.12h.56a.83.83,0,0,1,.44.12,2.62,2.62,0,0,1,.89-.22c.3,0,.44.13.44.22l1.46-.22,1.9.22.9-.22a12.89,12.89,0,0,0,2.79.66c0,.35.41.58,1.23.67,1.71,1.51,2.57,2.56,2.57,3.13q1.33,1.56,1.34,5.15a14.07,14.07,0,0,1-.67,4.13v.77a6.69,6.69,0,0,1-1,1.8,3.59,3.59,0,0,1-1,1.9,8.5,8.5,0,0,0-2,1.79,15.33,15.33,0,0,1,1.57,3.36,10.08,10.08,0,0,1,1.56,3.34c.16,0,.5.71,1,2l1.21,2.23c.31.11.46.22.46.33v.44a.2.2,0,0,1-.23.23,5.74,5.74,0,0,1-.89-.1l-.55.1-2.46-.23-2.69.23-.56-.1a3.4,3.4,0,0,1-.78.1,1.29,1.29,0,0,1-.22-.67c.52-.28.79-.61.79-1v-.12q-.62-.61-2.69-5.8c-.16,0-.3-.3-.44-.9l-.23-.1a20.54,20.54,0,0,1-2.36,1.44c0,.08,0,.12-.1.12a18.16,18.16,0,0,1,.23,3c0,.3,0,1-.13,2a3.6,3.6,0,0,0,.9,1.33v.23c0,.3-.52.44-1.56.44a6.11,6.11,0,0,1-1.11-.1l-.46.1a9.09,9.09,0,0,0-1.23-.1c-.15,0-.56,0-1.23.1a3,3,0,0,0-.44-.1,6.29,6.29,0,0,1-1.12.1h-.55a.2.2,0,0,1-.23-.23,1.72,1.72,0,0,1,.9-1.44l-.23-.56.23-2.13a1.31,1.31,0,0,1-.23-.67c0-.44.1-.66.23-.66a5.29,5.29,0,0,1-.12-.9,12.5,12.5,0,0,1,.12-1.46,12.13,12.13,0,0,1-.23-1.23c0-.39.08-1.69.23-3.9-.18-2.31-.29-3.58-.34-3.8a10,10,0,0,0,.22-2.35l-.22-.44a1.82,1.82,0,0,0,.22-.9v-.56l-.11-.67a1.83,1.83,0,0,0,.23-.9,1.31,1.31,0,0,1-.23-.66c0-.94,0-2.1.11-3.47l-.22-1.33a1.32,1.32,0,0,0,.22-.67v-.79a5.05,5.05,0,0,0-.78-1.8v-.1c0-.15.1-.23.23-.23h1.11A6.46,6.46,0,0,0,154.35,82.4Zm4.57,6.25V89a4.21,4.21,0,0,0,.23,1l-.23.56.23,1.46a13.48,13.48,0,0,0-.23,2.23l.23.44-.23,1.57a10.3,10.3,0,0,1,.23,1.68c-.15,0-.23.1-.23.22v.22l.13.57h.1a11.7,11.7,0,0,0,4.26-3.7,8.35,8.35,0,0,0,1-2.23c0-2.22-.67-3.57-1.9-4a4.32,4.32,0,0,0-1.9-.57h-.79a.92.92,0,0,1-.44-.1C159.08,88.42,158.92,88.54,158.92,88.65Z" transform="translate(-15.75 -17.52)"/><path class="cls-2" d="M176.77,82.41c.38.07.6.11.66.11a.9.9,0,0,0,.44-.11c1.54.07,2.58.14,3.13.21a1.4,1.4,0,0,1,.67-.21h.77c.13,0,.24.18.34.55a3.56,3.56,0,0,1-.78,1c0,.26,0,.89.11,1.9l-.11,1,.11.67-.21,1.35a1.33,1.33,0,0,1,.21.67v.33a6.37,6.37,0,0,1-.11,1,.84.84,0,0,1,.11.33c-.07.39-.11.61-.11.67.07.64.11,1,.11,1.1l-.11.8a6.89,6.89,0,0,1,.11,1.21,1.18,1.18,0,0,1-.21.56,9,9,0,0,1,.21,1.67,5.64,5.64,0,0,1-.21,1.13,7.82,7.82,0,0,1,.21,1.56H182l.11.21v.56a9.65,9.65,0,0,1-.11,1.23.93.93,0,0,1,.11.44L182,103q1,4.69,3.8,4.7h.67c.07,0,.1,0,.1.1a4.57,4.57,0,0,1,1.23-.23v.13c1.19-.88,1.78-1.44,1.78-1.67l.9-2.47-.11-.22c.07-.39.11-.61.11-.67-.07-.53-.11-.83-.11-.9l.11-.77a8,8,0,0,1-.23-1.57,4.86,4.86,0,0,1,.23-1.1,8.07,8.07,0,0,1-.23-1.34.74.74,0,0,1,.12-.33l-.12-.67v-.23a1.25,1.25,0,0,1,.23-.67,16.42,16.42,0,0,1-.23-2.67l.12-.23a.81.81,0,0,1-.12-.44,1.67,1.67,0,0,1,.23-.89,4.72,4.72,0,0,0-.23-1.24,8.1,8.1,0,0,0,.12-1.23v-1a8.75,8.75,0,0,0-.12-1.44,11.71,11.71,0,0,0,.23-1.46,4,4,0,0,0-.9-1.56v-.11c0-.17.63-.32,1.9-.44l.67.11a.94.94,0,0,0,.45-.11c1.54.07,2.58.14,3.11.21a1.4,1.4,0,0,1,.67-.21h.79c.13,0,.24.18.34.55a3.73,3.73,0,0,1-.79,1c0,.26,0,.89.12,1.9l-.12,1,.12.67-.23,1.35a1.28,1.28,0,0,1,.23.67v.33a5.52,5.52,0,0,1-.12,1,.74.74,0,0,1,.12.33,6.47,6.47,0,0,0-.12.67c.08.64.12,1,.12,1.1l-.12.8.12.77q0,.24-.12,1.23c.08.74.12,1.29.12,1.67l-.12.44.12.56-.12.56.12.67-.12.44a1.85,1.85,0,0,1,.23.67,1.25,1.25,0,0,0-.23.67v1.23q-.41,4.68-1.34,5.8c0,.68-1.11,2-3.34,4a8.43,8.43,0,0,1-4.8,1.68c0,.07-.14.11-.44.11a12.73,12.73,0,0,1-4.36-.67,10.89,10.89,0,0,1-4.9-3.9l-1.34-3.34a44.22,44.22,0,0,1-.67-7.14c.16-.56.23-.86.23-.89a9.4,9.4,0,0,1-.23-1.34.84.84,0,0,1,.11-.33l-.11-.67v-.23a1.34,1.34,0,0,1,.23-.67,17.62,17.62,0,0,1-.23-2.67l.11-.23a.9.9,0,0,1-.11-.44,1.76,1.76,0,0,1,.23-.89,5.21,5.21,0,0,0-.23-1.24,7.9,7.9,0,0,0,.11-1.23v-1a8.73,8.73,0,0,0-.11-1.44,10,10,0,0,0,.23-1.46,3.88,3.88,0,0,0-.89-1.56v-.11C174.87,82.68,175.5,82.53,176.77,82.41Z" transform="translate(-15.75 -17.52)"/><path class="cls-2" d="M209.28,78.79c0,.47,1.38,1.77,4.12,3.89C216.22,84.2,218,85,218.81,85a.5.5,0,0,0,.42-.54c0-.4-.68-1-2-1.85-1.58-1.32-2.38-2.08-2.38-2.27v-.1h.11a10.31,10.31,0,0,0,4.22,1.72l.44-.1.75.1.21-.1a2.46,2.46,0,0,0,.76.22.83.83,0,0,0,.44-.12c1.56.08,2.64.16,3.23.23a1.89,1.89,0,0,1,.88-.33c.58,0,.86.25.86.75-.5.52-.75.88-.75,1.09.07,1,.1,1.62.1,1.72s0,.46-.1,1.09l.1.65a11.67,11.67,0,0,0-.21,1.52q.21,0,.21.21v.54a9.21,9.21,0,0,1-.1,1.2.68.68,0,0,1,.1.31l-.1.76c.07.63.1,1,.1,1.09a5.69,5.69,0,0,0-.1.65,9.38,9.38,0,0,1,.1,1.39,1.17,1.17,0,0,0-.21.54,8.59,8.59,0,0,1,.21,1.64,5.58,5.58,0,0,1-.21,1.07l.21,1.41a.68.68,0,0,1-.1.31l.1.65v.23a1.33,1.33,0,0,1-.21.65l.11.65a13.48,13.48,0,0,0-.11,1.39c0,.16.07.71.21,1.64a6.26,6.26,0,0,0-.21.75,5.36,5.36,0,0,0,.21,1.2,8.58,8.58,0,0,0-.1,1.17v1.2a13.5,13.5,0,0,0,.1,1.51,5.06,5.06,0,0,0-.21,1.3,3,3,0,0,0,.86,1.51v.21c0,.16-.58.3-1.74.44-.5-.07-.79-.1-.86-.1l-.54.1-3.13-.21a2,2,0,0,1-.76.32v-.11c-.07,0-.1,0-.1.11a.76.76,0,0,1-.86-.86c.13,0,.41-.33.86-1a6.74,6.74,0,0,1-.23-2l.23-.66a1.28,1.28,0,0,1-.23-.65c.15-.86.23-1.37.23-1.51a1.14,1.14,0,0,1-.23-.54c0-.44.08-1.48.23-3.15l-.23-.1.23-3.24a39,39,0,0,0-.86-5.62,15.2,15.2,0,0,0-3-3.68,18.55,18.55,0,0,0-1.3-1.74v-.31q2.72,2.07,4.11,2.91h.33l.32-.21c0-1.11-.79-2.09-2.37-2.93-2.75-2-4.48-3.79-5.21-5.29-.27,0-1-1.3-2.27-3.89l-.21-1Zm4.77,9.95.1.21v.11h-.1a.19.19,0,0,1-.21-.21Z" transform="translate(-15.75 -17.52)"/><path class="cls-2" d="M249.17,82.4l.33.43v.67a15.51,15.51,0,0,0,.13,2l-.23,1,.23,2.67-.23.12H249a2.7,2.7,0,0,1-.9-.79l-1,.13c-.43,0-1.32,0-2.67-.13l-.79.13a6.74,6.74,0,0,1-1.11-.23l-.44.33.11.77v1a1.21,1.21,0,0,0,.22.66l-.12,1,.12.56-.22,1.44a1.73,1.73,0,0,1,.22.67,1.86,1.86,0,0,0-.22.89,10.78,10.78,0,0,1,.22,1.57v.1l-.22.78.22,1.46a6.53,6.53,0,0,0-.12.66,5.34,5.34,0,0,1,.12,1,.22.22,0,0,0-.22.23l.1.66a13.48,13.48,0,0,0-.1,1.44,15.16,15.16,0,0,1,.22,1.57,2,2,0,0,1-.22.67,4.65,4.65,0,0,0,.22,1.21,8.58,8.58,0,0,0-.12,1.23v1a8.75,8.75,0,0,0,.12,1.44,11.39,11.39,0,0,0-.22,1.46,3.77,3.77,0,0,0,.89,1.55v.12c0,.18-.63.33-1.9.44a6.44,6.44,0,0,0-.66-.1.89.89,0,0,0-.44.1c-1.54-.07-2.58-.14-3.13-.23a1.2,1.2,0,0,1-.67.23h-.77c-.13,0-.24-.19-.34-.56,0-.11.26-.44.78-1,0-.25,0-.88-.11-1.88l.11-1-.11-.66.23-1.34a1.27,1.27,0,0,1-.23-.56,12.09,12.09,0,0,1,.23-2.78,1.86,1.86,0,0,1-.23-.79l.11-.67a10.56,10.56,0,0,1-.11-1.33,5,5,0,0,0,.23-.67,12.16,12.16,0,0,1-.23-1.34,9.13,9.13,0,0,1,.23-1.33l-.23-2.34a3.48,3.48,0,0,0,.23-1.23l-.23-1.44c.07-1,.11-1.7.11-2l-.11-.77c.22-1.17.33-1.84.33-2-.15,0-.22-.08-.22-.23-1.15.15-1.86.26-2.11.33a6,6,0,0,0-1-.1h-1.67a3.05,3.05,0,0,0-2,.77l-.56-.34.12-.77v-.12a1.25,1.25,0,0,0-.23-.67l.23-1.44a5.53,5.53,0,0,1-.12-1.11v-.12a3.83,3.83,0,0,1,.23-1,6.15,6.15,0,0,1-.11-1c.11,0,.22-.11.34-.33l.77.12h.1a1.05,1.05,0,0,0,.57-.12l.44.12,1-.12a27.72,27.72,0,0,0,3,.23c0-.15.1-.23.23-.23s.56,0,1.34.12l1.33-.12,1.34.12q1-.12,1.23-.12a4.1,4.1,0,0,1,.88.23l1.12-.11,1.34.11.44-.11.56.11c1-.06,1.44-.14,1.44-.23l.57.12h.44A10.16,10.16,0,0,0,249.17,82.4Z" transform="translate(-15.75 -17.52)"/><path class="cls-2" d="M262.48,82.5c0,.15.11.23.33.23l.67-.11a.93.93,0,0,1,.44.11c.81-.07,1.51-.11,2.11-.11,1.85,0,2.77.15,2.77.44a5.05,5.05,0,0,0-.66,1.11,37.79,37.79,0,0,1,1.44,5.43A51.62,51.62,0,0,1,271,94.82a21.74,21.74,0,0,1,.9,3.55c.15,0,.22.16.22.46l-.12.44a30.81,30.81,0,0,1,1.57,5c.12,0,.24.48.33,1.44.16,0,.42.86.77,2.57a.79.79,0,0,0-.1.33,18.28,18.28,0,0,1,.77,2.45q.21,0,.21.21v.89c0,.32.41.84,1.23,1.55-.14.34-.28.53-.44.56l-.66-.12-.57.12c-.65-.08-1.06-.12-1.21-.12l-1.56.12c0-.15-.12-.22-.34-.22a4,4,0,0,1-1,.22h-2q-.15,0-.33-.33v-.33c.67-.46,1-.79,1-1-.28,0-.61-1.11-1-3.34a6.34,6.34,0,0,1-.67-2.1.2.2,0,0,1-.23-.22l.13-.77-.23-.12a11.43,11.43,0,0,1-3,2.44q0,.27-3.66,2.88a3.73,3.73,0,0,1-1.44,1.23v.11c0,.26.23.59.67,1v.23q0,.21-1.11.33a2.44,2.44,0,0,0-.79-.22,1.21,1.21,0,0,1-.66.22h-1a5.63,5.63,0,0,1-1.12-.12,3.09,3.09,0,0,1-.78.12l-.77-.12a1.19,1.19,0,0,1-.56.23c-.81-.16-1.22-.31-1.22-.44v-.46c.67-.35,1-.68,1-1a17.88,17.88,0,0,1,.77-2.78,11,11,0,0,1,.77-3,18.47,18.47,0,0,1,.78-2.89,26.09,26.09,0,0,1,1.12-3.78l-.12-.77q.45,0,1.44-5a24.79,24.79,0,0,0,1.34-4.55c.15,0,.26-.45.33-1.34a5.36,5.36,0,0,0,.67-1.78l-.11-.22v-.11a23,23,0,0,1,.77-2.34c-.51-.49-.77-.78-.77-.88.11-.29.22-.44.34-.44h.21C261.18,82.62,261.74,82.58,262.48,82.5Zm1.88,11.55v.44a12.59,12.59,0,0,1-.78,2.9l.13.21a5.29,5.29,0,0,0-.57,2.23c-.38,1.7-.68,2.55-.89,2.55v.21h.33c0-.31.93-1,2.78-2.11l.9-.65v-.12a4.38,4.38,0,0,1-.67-2.22,13.83,13.83,0,0,1-.9-3.44Z" transform="translate(-15.75 -17.52)"/><path class="cls-2" d="M290.55,82.4c1.21.07,2.29.1,3.25.1a10.94,10.94,0,0,1,4.25,1.69l.8,1c.86,0,1.87.9,3,2.71v.44a20,20,0,0,1-2.69,1.79,14.11,14.11,0,0,1-3.48,2,1.44,1.44,0,0,1-.23-.33c0-.68.12-1,.23-1-.29-.82-1.19-1.49-2.69-2a13.5,13.5,0,0,0-1.92-.35l-.21.13-.23-.13q-2.38,0-3.92,2.71a16.65,16.65,0,0,0-.45,1.79l.1.21c-.07.24-.14.35-.21.35a3.5,3.5,0,0,0,.11.44c0,2-.11,2.92-.34,2.92a.87.87,0,0,0,.11.34l-.11.66a18.41,18.41,0,0,1,.23,2.92v.46a.83.83,0,0,1-.12.44.85.85,0,0,1,.12.46s0,.53-.12,1.45a10.85,10.85,0,0,1,.79,2.36,6.23,6.23,0,0,0,1.35,1.79l.21-.12a3.43,3.43,0,0,0,1.69.56h.11a.91.91,0,0,0,.45-.1.92.92,0,0,0,.44.1,5.18,5.18,0,0,0,3.15-.89c.07,0,.11,0,.11.12a4.4,4.4,0,0,0,1.79-3.6c.08,0,.16-.45.23-1.34,0-.32-.34-.5-1-.56s-1.08.1-1.24.1l-.45-.21c-1.49.33-2.23.66-2.23,1,0,.07-.05.11-.13.11H291c-.18,0-.29-.19-.34-.56l.23-.78c-.08-1.13-.12-1.92-.12-2.35,0-.1,0-.47.12-1.13a1.82,1.82,0,0,1-.23-.89V97a1.88,1.88,0,0,1,.23-.9l1.11.12h2.71a1.09,1.09,0,0,1,.54.11l.69-.11h2.12l.67.11a1,1,0,0,1,.46-.11l.21.11.23-.11.67.11,1-.11c.76.07,1.36.11,1.79.11a.84.84,0,0,1,.33-.11l.23.34a1.8,1.8,0,0,1-.89,1.33.78.78,0,0,0,.1.34c-.07,1.44-.1,2.38-.1,2.81l.1.79-.33,1.34a1.82,1.82,0,0,1,.23.89,11.83,11.83,0,0,1-1.57,4.82L299.62,111q-.27,0-1.23,1.11a11,11,0,0,1-5.84,2c0,.11-.74.19-2.23.23a10.15,10.15,0,0,1-8.75-4.37c-.21,0-.59-.9-1.13-2.69-.47-.38-.8-2.28-1-5.72,0-.71,0-1.87.1-3.48a.89.89,0,0,1-.1-.44.2.2,0,0,0,.23-.23c0-.22,0-.33-.13-.33l.13-1.12V95.3a7.63,7.63,0,0,0-.23-1.46,14.32,14.32,0,0,1,1.79-6.51,4.78,4.78,0,0,1,1.23-1.45c.71-.58,1.08-1,1.13-1.23a4.37,4.37,0,0,1,2.35-1.13c.59-.75,2.08-1.12,4.49-1.12Z" transform="translate(-15.75 -17.52)"/><path class="cls-2" d="M316.51,82.5c0,.15.11.23.34.23l.66-.11a.9.9,0,0,1,.44.11c.81-.07,1.51-.11,2.11-.11,1.85,0,2.78.15,2.78.44a4.88,4.88,0,0,0-.67,1.11,35,35,0,0,1,1.44,5.43,46.78,46.78,0,0,1,1.44,5.22,19.87,19.87,0,0,1,.9,3.55c.15,0,.23.16.23.46l-.12.44a32.43,32.43,0,0,1,1.56,5q.19,0,.33,1.44c.17,0,.43.86.78,2.57a.84.84,0,0,0-.11.33,18.5,18.5,0,0,1,.78,2.45q.21,0,.21.21v.89c0,.32.41.84,1.23,1.55-.14.34-.29.53-.44.56l-.67-.12-.56.12c-.66-.08-1.06-.12-1.22-.12l-1.56.12c0-.15-.11-.22-.33-.22a4,4,0,0,1-1,.22h-2c-.11,0-.22-.11-.34-.33v-.33c.67-.46,1-.79,1-1-.29,0-.62-1.11-1-3.34a6.72,6.72,0,0,1-.66-2.1c-.16,0-.23-.08-.23-.22l.12-.77-.23-.12a11.18,11.18,0,0,1-3,2.44q0,.27-3.66,2.88a3.73,3.73,0,0,1-1.44,1.23v.11c0,.26.22.59.67,1v.23q0,.21-1.11.33a2.57,2.57,0,0,0-.79-.22,1.26,1.26,0,0,1-.67.22h-1a5.72,5.72,0,0,1-1.13-.12,3,3,0,0,1-.77.12l-.78-.12a1.15,1.15,0,0,1-.56.23c-.81-.16-1.21-.31-1.21-.44v-.46c.67-.35,1-.68,1-1a19.28,19.28,0,0,1,.77-2.78,10.78,10.78,0,0,1,.78-3,19.11,19.11,0,0,1,.77-2.89,26.94,26.94,0,0,1,1.13-3.78l-.13-.77q.47,0,1.44-5a24,24,0,0,0,1.34-4.55c.15,0,.26-.45.33-1.34.1,0,.32-.59.67-1.78l-.1-.22v-.11a20.26,20.26,0,0,1,.77-2.34c-.52-.49-.77-.78-.77-.88.1-.29.21-.44.33-.44h.21C315.22,82.62,315.77,82.58,316.51,82.5Zm1.88,11.55v.44a13.09,13.09,0,0,1-.77,2.9l.12.21a5.42,5.42,0,0,0-.56,2.23q-.58,2.55-.9,2.55v.21h.34c0-.31.92-1,2.77-2.11l.9-.65v-.12a4.38,4.38,0,0,1-.67-2.22,13.35,13.35,0,0,1-.89-3.44Z" transform="translate(-15.75 -17.52)"/><path class="cls-2" d="M335.37,82.4a6.42,6.42,0,0,0,.67.1,1,1,0,0,0,.46-.1c1.53.07,2.58.14,3.13.22a1.21,1.21,0,0,1,.66-.22h.78c.13,0,.24.18.33.56a3.64,3.64,0,0,1-.77,1c0,.25,0,.88.1,1.9l-.1,1,.1.67-.22,1.35a1.32,1.32,0,0,1,.22.67v.33a6,6,0,0,1-.1,1,.79.79,0,0,1,.1.33c-.07.4-.1.62-.1.67.07.65.1,1,.1,1.12s0,.36-.1.9a3.71,3.71,0,0,1,.1.9h.13c0-.18.29-.52.88-1q0-.5,3.13-4.91c0-.39.33-.87,1-1.46a4.7,4.7,0,0,1,1-1.67,8.07,8.07,0,0,0,1.1-1.9c-.09,0-.38-.29-.87-.89v-.23c0-.15.08-.23.21-.23h.12c.07,0,.1,0,.1.12l.9-.22c.81.07,1.52.1,2.13.1h.88a6.19,6.19,0,0,0,1-.1l.21.1.56-.1.56.1.67-.1a3,3,0,0,1,.44.1.9.9,0,0,1,.35-.1c.59.09.88.24.88.43a15.48,15.48,0,0,0-2.79,3.36c-.32,0-.54.38-.67,1.13a4.93,4.93,0,0,0-1.23,1.77,8.58,8.58,0,0,0-1.78,2.69A6.7,6.7,0,0,0,348,94.24a1.59,1.59,0,0,0-.66,1.11v.12a7.23,7.23,0,0,1,1,2.46c.35,0,.84.89,1.46,2.68a4.1,4.1,0,0,0,.89,1.46,6.45,6.45,0,0,0,.67,1.44v.23c0,.07,0,.1-.1.1a26.74,26.74,0,0,1,2.79,5.38c.07,0,.11,0,.11.1l-.11.23a5.4,5.4,0,0,1,.67,1.67c.92,1.34,1.56,2,1.9,2,.1,0,.21.11.33.35v.33c0,.14-.07.21-.23.21h-1.9a12.38,12.38,0,0,0-2,.13,10.85,10.85,0,0,0-2-.13l-.77.13a.81.81,0,0,0-.34-.13,4.79,4.79,0,0,1-1,.13c-.31-.09-.46-.24-.46-.46a3.1,3.1,0,0,1,.9-1.11v-.12a21.16,21.16,0,0,1-1.57-3.67q-.46-.9-.66-.9a4.79,4.79,0,0,1-.46-1.35c.08,0,.12,0,.12-.11q-.45,0-.45-.33a.77.77,0,0,0,.12-.34c-.13,0-.47-.71-1-2.12a10.44,10.44,0,0,1-1.57-3.13h-.21a6.17,6.17,0,0,0-1.12,1.67,5.62,5.62,0,0,0-1.57,2.46,2.14,2.14,0,0,1-.22,1.12,5.78,5.78,0,0,0,.22,1.23,9.34,9.34,0,0,0-.1,1.23v1a10.24,10.24,0,0,0,.1,1.46,10.85,10.85,0,0,0-.22,1.45,4.3,4.3,0,0,0,.89,1.56v.12c0,.17-.63.31-1.9.44a6.44,6.44,0,0,0-.66-.1.89.89,0,0,0-.44.1c-1.55-.07-2.59-.14-3.13-.23a1.25,1.25,0,0,1-.67.23h-.79c-.13,0-.24-.19-.34-.56,0-.11.26-.44.78-1,0-.25,0-.88-.11-1.9l.11-1-.11-.67.23-1.35a1.2,1.2,0,0,1-.23-.55,12.14,12.14,0,0,1,.23-2.79,1.9,1.9,0,0,1-.23-.79l.11-.67a10.7,10.7,0,0,1-.11-1.34,5,5,0,0,0,.23-.67,8.61,8.61,0,0,1-.23-1.56,5.42,5.42,0,0,1,.23-1.13,9.13,9.13,0,0,1-.23-1.33.87.87,0,0,1,.11-.34l-.11-.66v-.23a1.34,1.34,0,0,1,.23-.67,17.77,17.77,0,0,1-.23-2.69l.11-.23a.9.9,0,0,1-.11-.44,1.76,1.76,0,0,1,.23-.89,5.82,5.82,0,0,0-.23-1.24,9.36,9.36,0,0,0,.11-1.23v-1a10.47,10.47,0,0,0-.11-1.46,11.35,11.35,0,0,0,.23-1.44,3.78,3.78,0,0,0-.9-1.56v-.13C333.47,82.67,334.11,82.52,335.37,82.4Z" transform="translate(-15.75 -17.52)"/><path class="cls-2" d="M361.48,82.47a6.44,6.44,0,0,1,.66.1.89.89,0,0,0,.44-.1c1.54.07,2.58.14,3.13.22a1.32,1.32,0,0,1,.67-.22h.77c.13,0,.24.18.34.56a3.56,3.56,0,0,1-.78,1c0,.25,0,.88.11,1.9l-.11,1,.11.67-.21,1.33a1.4,1.4,0,0,1,.21.67v.34a6,6,0,0,1-.11,1,.84.84,0,0,1,.11.33c0,.06,0,.28-.11.67,0,.09,0,.47.11,1.13l-.11.77a7.12,7.12,0,0,1,.11,1.23,1.17,1.17,0,0,1-.21.54,9.22,9.22,0,0,1,.21,1.69,5.65,5.65,0,0,1-.21,1.11,9.64,9.64,0,0,1,.21,1.33.82.82,0,0,1-.11.34l.11.67V101a1.36,1.36,0,0,1-.21.66l.1.57a13.82,13.82,0,0,0-.1,1.44q.21,1.34.21,1.56a2,2,0,0,1-.21.67,5.65,5.65,0,0,0,.21,1.23,9.39,9.39,0,0,0-.11,1.21v1a10.19,10.19,0,0,0,.11,1.44,12.58,12.58,0,0,0-.21,1.45,3.81,3.81,0,0,0,.88,1.56v.12c0,.17-.63.31-1.88.44a6.81,6.81,0,0,0-.69-.1.92.92,0,0,0-.44.1c-1.53-.07-2.58-.14-3.13-.23a1.15,1.15,0,0,1-.66.23h-.78c-.13,0-.24-.19-.33-.56,0-.11.26-.44.77-1,0-.25,0-.88-.1-1.9l.1-1-.1-.67.22-1.34a1.12,1.12,0,0,1-.22-.56,12.59,12.59,0,0,1,.22-2.78,1.79,1.79,0,0,1-.22-.79l.1-.67a9.94,9.94,0,0,1-.1-1.33,4.17,4.17,0,0,0,.22-.67,8.48,8.48,0,0,1-.22-1.56,5.19,5.19,0,0,1,.22-1.11,8.62,8.62,0,0,1-.22-1.34.79.79,0,0,1,.1-.33l-.1-.67v-.23a1.32,1.32,0,0,1,.22-.67,17.33,17.33,0,0,1-.22-2.67l.1-.23a.87.87,0,0,1-.1-.44,1.81,1.81,0,0,1,.22-.89,6.09,6.09,0,0,0-.22-1.23,9.21,9.21,0,0,0,.1-1.22v-1a10.4,10.4,0,0,0-.1-1.45,11,11,0,0,0,.22-1.44,3.75,3.75,0,0,0-.89-1.56V82.9C359.58,82.74,360.21,82.59,361.48,82.47Z" transform="translate(-15.75 -17.52)"/></svg>