<svg id="Calque_1" data-name="Calque 1" xmlns="http://www.w3.org/2000/svg" viewBox="0 0 655.3 58.14"><defs><style>.cls-1{fill:#f6f6f6;}.cls-2{fill:#e61f52;}</style></defs><path class="cls-1" d="M14,21.42q0,1.17,6.69,6.32,6.87,3.71,8.77,3.71a.85.85,0,0,0,.71-.88q0-1-3.34-3Q22.95,24.32,23,23.89v-.17h.17A17.21,17.21,0,0,0,30,26.52a1.4,1.4,0,0,0,.54-.17q3.85.34,7.36.34l.71.17a2.91,2.91,0,0,1,1.25-.34l.88.34L43,26.52c1.87.23,3,.34,3.51.34l.88-.34a27.3,27.3,0,0,0,4.76,1.05c0,.36.35.71,1.05,1l.37-.17q4.31,2.28,6.65,9.32a13.58,13.58,0,0,0,.37,2.47,1.45,1.45,0,0,0-.17.7v.34a2,2,0,0,0,.34,1q-.31.34-.54,4.59a3.49,3.49,0,0,0-.71,2.46v.88a11,11,0,0,1-1.75,3.15c-.59,2.22-1.4,3.34-2.44,3.34,0,.3-.84,1.18-2.46,2.63.45,0,.91.88,1.39,2.63.26.06.62,1,1.07,2.84,1.06.92,1.94,2.68,2.64,5.26a19.43,19.43,0,0,1,1.92,3.69l1.22,2.29c0,.55.47,1.13,1.41,1.76v.51c0,.17-.17.34-.53.53a8.23,8.23,0,0,1-1.39-.17l-.88.17-4.39-.34-3.88.34-1.22-.17-1.07.17a1.91,1.91,0,0,1-.34-.53v-.51c.81-.67,1.22-1.25,1.22-1.76q-1.14-1.24-3.86-8.27c-.75-2-1.34-3-1.75-3-1.87,1.39-3.1,2.09-3.68,2.09l-.2.34c.24,2.29.37,3.64.37,4-.12,2.49-.17,4-.17,4.39a10.28,10.28,0,0,0,1.38,2.13v.34c0,.47-.82.7-2.46.7a13.83,13.83,0,0,1-1.93-.17l-.7.17-2.1-.17c-.24,0-.89.06-1.93.17a6.68,6.68,0,0,0-.7-.17,15,15,0,0,1-2.3.17h-.54c-.22,0-.33-.11-.33-.34a2.46,2.46,0,0,1,1.41-2.29l-.2-.88V73.45a13,13,0,0,1,.2-2,2,2,0,0,1-.37-1,1.89,1.89,0,0,1,.37-.87l-.2-1.76c.13-1.45.2-2.22.2-2.29a19.5,19.5,0,0,1-.37-1.93l.37-6.31-.37-4.39.17-.37q-.87-5.39-3-7.56c0-.23-1.12-1.4-3.34-3.52A10.07,10.07,0,0,0,22.24,39v-.51a80.73,80.73,0,0,0,6.69,4.73h.5a1.38,1.38,0,0,0,.54-.34q0-2.72-3.85-4.76-6.68-5-8.44-8.61-.67,0-3.71-6.31l-.34-1.59ZM21.7,37.59l.2.34v.17h-.2a.3.3,0,0,1-.34-.34Zm18.81-.88a6,6,0,0,0,.54,2.1l-.34.88c0,.07,0,.84.17,2.29-.12,2.15-.17,3.5-.17,4.05l.34.71a17.85,17.85,0,0,0-.34,2.63A24,24,0,0,1,41.05,52c-.17,0-.35.22-.54.68.15.58.33.88.54.88A25.64,25.64,0,0,0,47.9,48a29.86,29.86,0,0,0,1.76-4.05q-.51-6.69-3.69-6.69a3.46,3.46,0,0,0-2.63-.87H42.09a1.45,1.45,0,0,1-.7-.17Z" transform="translate(-13.63 -20.74)"/><path class="cls-1" d="M67.1,27.37a5.7,5.7,0,0,1,1.25.17c1.79-.11,3.29-.17,4.5-.17h.71a15.49,15.49,0,0,1,2,.17,1.88,1.88,0,0,1,.91-.17l1.24.17a16.07,16.07,0,0,1,2-.17,12.19,12.19,0,0,0,2.15.37,6.81,6.81,0,0,1,1.44-.37l1.25.17c.24,0,.37-.06.37-.17,1.47.11,4.76.24,9.88.37.25.83.42,1.24.54,1.24l-.37,3.43a6.2,6.2,0,0,1,.37,2.15l-.17.91a10.28,10.28,0,0,1,.17,1.78V38q0,.28-.54.54H94.4c-1-1-1.56-1.42-1.78-1.42-.49.1-.74.21-.74.34L91,37.25a6.3,6.3,0,0,0-1.44.17l-1.08-.17-1.27.17a2.19,2.19,0,0,0-1.08-.34h-.71c-.83,0-1.24.15-1.24.34a33.29,33.29,0,0,0-3.8-.34l-.87.17a2,2,0,0,0-.91-.17c0,.23-.12.34-.37.34l.37,4.51a3.81,3.81,0,0,0-.37,1.61,15.84,15.84,0,0,0,.37,2.52l-.37,7a1.2,1.2,0,0,1,.54.19c0-.39,1.74-1.36,5.21-2.89a4.29,4.29,0,0,0,1.81-1.07c.57,0,1.59-.6,3.06-1.79a16.2,16.2,0,0,1,3.6-1.61H93c.26,0,.44.29.53.88a2.09,2.09,0,0,0-.36,1.07v7l.36,1.24q-.7,1.62-.9,1.62h-.37c-.76-.83-1.29-1.25-1.61-1.25,0,.47-.88,1-2.53,1.62-1.45,1.07-2.47,1.61-3,1.61a29.26,29.26,0,0,1-5,2.69,3.62,3.62,0,0,1-1.61.91.18.18,0,0,1-.2.2l.2,1.78V66.9l-.2,2.16.37.19a15.49,15.49,0,0,1,2.32-.36l.91.17.9-.17,1.62.17c.36-.12.54-.23.54-.34l3.59.53q5.58-.42,5.58-1.27l.54-.34h.17q.54.17.54,1.08v2.49a5.57,5.57,0,0,0,.17,1.44c-.13,2.89-.31,4.34-.54,4.34l.2.34v.73c0,.47-1,.71-2.89.71a8.61,8.61,0,0,1-2-.17c-1.14.11-2.21.17-3.23.17H85.59c-1.87,0-3.78-.06-5.74-.17a13.08,13.08,0,0,1-2.33.17c-.64-.11-1-.17-1.07-.17a1.35,1.35,0,0,0-.54.17l-1.62-.17c-2.07.11-3.27.17-3.59.17-1.63-.11-2.83-.17-3.6-.17l-.2-.37v-.37a6.33,6.33,0,0,0,1.45-3c-.12-1.4-.17-2.42-.17-3.06h.17c-.12-.59-.24-.88-.37-.88l.2-1.81V64.21A8.44,8.44,0,0,0,68,62.6a7.5,7.5,0,0,0,.37-2.35A2,2,0,0,1,68,59.17l.37-1.24a4.49,4.49,0,0,0-.37-2,2.91,2.91,0,0,0,.37-1.44A73.86,73.86,0,0,0,68,47a8.66,8.66,0,0,0,.2-1.45c0-.22-.07-1.3-.2-3.23a17.69,17.69,0,0,1,.37-2A6.52,6.52,0,0,0,68,38.5q.19-4.76.54-7.53a5.89,5.89,0,0,0-1.79-2.53A2.15,2.15,0,0,1,67.1,27.37Z" transform="translate(-13.63 -20.74)"/><path class="cls-1" d="M117.6,27.37a16.35,16.35,0,0,1,6.82,1.75q.8,0,3,2.1c1,.28,2.27,1.75,3.86,4.39a7.94,7.94,0,0,1,1.21,1.93v.51c0,.24-1.28,1.18-3.85,2.8,0,.24-.46.42-1.39.54,0,.41-.58.82-1.75,1.22,0,.47-.29.82-.88,1l-.34-.17a2.14,2.14,0,0,1-1,.34l-.19-.34a10.13,10.13,0,0,1,.36-1.58c-1.32-2.46-2.6-3.68-3.85-3.68-1-.33-1.6-.62-1.75-.88l-2.1.2h-1.25q-3.48,1.41-3.48,2.8c-.11,1-.17,1.66-.17,1.93a18.49,18.49,0,0,0,6.83,4.19l.34-.17q.7,0,4,2.26,1.38,0,5.43,3c.29,0,1.28.93,3,2.8q1.44.6,3.14,6V62.4a20.49,20.49,0,0,1-2.09,8.75,12.14,12.14,0,0,1-3,3.51c0,.76-1.81,1.86-5.43,3.32a2.51,2.51,0,0,0-1.73.71l-.88-.17a20.57,20.57,0,0,1-3.17.34l-1.73-.17-.71.17q-3.62,0-9.29-3.15-4-2.77-4-4.39a9.64,9.64,0,0,1-1.58-2.63v-.17c.09-.25,2.07-1.82,5.94-4.73a7.72,7.72,0,0,1,2.47-2.1,1.1,1.1,0,0,1,1-.71q0,.26.54.54l-.2,1.22v1c0,.87.77,1.86,2.3,3,0,.4.64.81,1.92,1.25,0,.32,1.17.61,3.52.88,2.9-1.17,4.36-2.29,4.36-3.35a1.6,1.6,0,0,0,.37-.53V64.5a1.31,1.31,0,0,0-.2-.71,1.31,1.31,0,0,0,.2-.71v-.17c-.44-1.74-1.09-2.6-2-2.6q0-.66-3.48-2.13-.8-.74-5.78-2.26-.14,0-5.1-3.35c-.45,0-1-.52-1.72-1.55a8.12,8.12,0,0,1-3.18-4.39c-.58-.44-1-2.42-1.21-6q0-.13,1.75-5.61c.17,0,.76-.64,1.76-1.92a8,8,0,0,1,3.14-2.47c.45-.7,2.44-1.56,6-2.6a1.49,1.49,0,0,0,.71.17,1.87,1.87,0,0,0,1-.54h2.27Z" transform="translate(-13.63 -20.74)"/><path class="cls-1" d="M140.82,27.4c.62.11,1,.17,1.07.17a1.49,1.49,0,0,0,.71-.17c2.48.11,4.16.22,5,.34a2.2,2.2,0,0,1,1.08-.34H150c.2,0,.38.29.53.88a5.8,5.8,0,0,1-1.24,1.61c0,.41.05,1.43.17,3.06l-.17,1.61.17,1.08-.34,2.18a2.19,2.19,0,0,1,.34,1.08v.53a10.36,10.36,0,0,1-.17,1.62,1.31,1.31,0,0,1,.17.54,9.52,9.52,0,0,0-.17,1.07c.11,1,.17,1.64.17,1.79l-.17,1.27a11.49,11.49,0,0,1,.17,2,2,2,0,0,1-.34.91,15.12,15.12,0,0,1,.34,2.69,9.46,9.46,0,0,1-.34,1.81,13.31,13.31,0,0,1,.34,2.52h-.17l.17.34v.91a16.08,16.08,0,0,1-.17,2,1.52,1.52,0,0,1,.17.71l-.17,1.08q1.63,7.56,6.12,7.56h1.07a.15.15,0,0,1,.17.17,7,7,0,0,1,2-.37v.2c1.91-1.42,2.86-2.31,2.86-2.69l1.45-4-.17-.37c.11-.62.17-1,.17-1.07-.11-.85-.17-1.33-.17-1.45l.17-1.24a13.28,13.28,0,0,1-.37-2.52,8.32,8.32,0,0,1,.37-1.79,13.73,13.73,0,0,1-.37-2.15,1.24,1.24,0,0,1,.2-.54l-.2-1.07V49a2.08,2.08,0,0,1,.37-1.08,27.36,27.36,0,0,1-.37-4.3l.2-.37a1.31,1.31,0,0,1-.2-.71,2.81,2.81,0,0,1,.37-1.44,7.09,7.09,0,0,0-.37-2,13.38,13.38,0,0,0,.2-2V35.47a13.89,13.89,0,0,0-.2-2.32,17.71,17.71,0,0,0,.37-2.35,6.23,6.23,0,0,0-1.45-2.52v-.17c0-.29,1-.52,3.06-.71a9.17,9.17,0,0,1,1.08.17,1.58,1.58,0,0,0,.74-.17c2.47.11,4.14.22,5,.34a2.14,2.14,0,0,1,1.07-.34h1.28c.21,0,.39.29.54.88A6,6,0,0,1,173,29.89c0,.41.07,1.43.2,3.06l-.2,1.61.2,1.08-.37,2.18a2,2,0,0,1,.37,1.08v.53a8.81,8.81,0,0,1-.2,1.62,1.16,1.16,0,0,1,.2.54c-.13.62-.2,1-.2,1.07.13,1,.2,1.64.2,1.79l-.2,1.27.2,1.25c0,.26-.07.92-.2,2,.13,1.19.2,2.09.2,2.69l-.2.71.2.9-.2.91.2,1.08-.2.7a2.8,2.8,0,0,1,.37,1.08A2.08,2.08,0,0,0,173,58.1v2c-.43,5-1.15,8.14-2.15,9.34q0,1.65-5.38,6.46a13.54,13.54,0,0,1-7.73,2.72c0,.11-.24.17-.71.17a20.55,20.55,0,0,1-7-1.08q-4-1.27-7.91-6.28L139.91,66q-.54-1.34-1.07-11.5c.24-.91.36-1.39.36-1.45a14.53,14.53,0,0,1-.36-2.15,1.24,1.24,0,0,1,.17-.54l-.17-1.07V49a2.15,2.15,0,0,1,.36-1.08,28.51,28.51,0,0,1-.36-4.3l.17-.37a1.38,1.38,0,0,1-.17-.71,2.9,2.9,0,0,1,.36-1.44,9.38,9.38,0,0,0-.36-2,15.77,15.77,0,0,0,.17-2V35.47a16.35,16.35,0,0,0-.17-2.32,18.82,18.82,0,0,0,.36-2.35,6.22,6.22,0,0,0-1.44-2.52v-.17C137.76,27.82,138.78,27.59,140.82,27.4Z" transform="translate(-13.63 -20.74)"/><path class="cls-1" d="M215.81,27.37c.08,0,.43.06,1.08.17a1.52,1.52,0,0,0,.71-.17c2.47.11,4.14.24,5,.37a2,2,0,0,1,1.07-.37H225c.21,0,.39.3.54.91a6,6,0,0,1-1.28,1.61c0,.4.07,1.41.2,3l-.2,1.61.2,1.08-.37,2.15a2.08,2.08,0,0,1,.37,1.08v.54a8.44,8.44,0,0,1-.2,1.61,1.44,1.44,0,0,1,.2.54c-.13.64-.2,1-.2,1.08.13,1,.2,1.66.2,1.81l-.2,1.24a10.33,10.33,0,0,1,.2,2,1.78,1.78,0,0,1-.37.87,13.25,13.25,0,0,1,.37,2.69,8.14,8.14,0,0,1-.37,1.82,13.73,13.73,0,0,1,.37,2.15,1.24,1.24,0,0,1-.2.54l.2,1.07v.37a2.08,2.08,0,0,1-.37,1.08l.17.88c-.11,1-.17,1.8-.17,2.35a24.1,24.1,0,0,1,.37,2.49,2.88,2.88,0,0,1-.37,1.07,7.72,7.72,0,0,0,.37,2,13.14,13.14,0,0,0-.2,2v1.61a14.48,14.48,0,0,0,.2,2.33,16.86,16.86,0,0,0-.37,2.32,6.37,6.37,0,0,0,1.45,2.52V78c0,.28-1,.53-3.06.74a8.42,8.42,0,0,0-1.08-.2,1.25,1.25,0,0,0-.71.2c-2.47-.14-4.15-.26-5-.37a2.11,2.11,0,0,1-1.07.37h-1.25c-.21,0-.39-.31-.54-.91A5.77,5.77,0,0,1,214,76.16c0-.39-.06-1.41-.17-3l.17-1.62-.17-1.07.37-2.16a1.78,1.78,0,0,1-.37-.87c.11-3,.23-4.51.37-4.51a2.69,2.69,0,0,1-.37-1.24l.17-1.08a17.4,17.4,0,0,1-.17-2.15,2,2,0,0,1,.37-.91,24,24,0,0,1-.37-2.86A9.11,9.11,0,0,1,214.2,53a5.08,5.08,0,0,1-.2-1.45,1.24,1.24,0,0,1-.54-.17q-3,6.54-3.57,8.24c-.43,0-1,.94-1.81,2.69q-.35,0-.54,2.16a7.52,7.52,0,0,0-1.95,4.5,7.73,7.73,0,0,1,.34,1.42,7.5,7.5,0,0,1-2.16.53l-1.24-.17h-4.31c-.3,0-.48-.23-.53-.7a3.89,3.89,0,0,1,.53-1.45,37.64,37.64,0,0,0-3.59-7.7,4.68,4.68,0,0,0-1.79-3.6,2.76,2.76,0,0,0-1.27-2.15V55a.18.18,0,0,1,.2-.2l-1.28-3.4h-.34a8.32,8.32,0,0,1-.37,1.79,13.73,13.73,0,0,1,.37,2.15,1.12,1.12,0,0,1-.2.54l.2,1.07v.37a2.08,2.08,0,0,1-.37,1.08l.17.9a23.34,23.34,0,0,0-.17,2.33,23.36,23.36,0,0,1,.37,2.52,3.2,3.2,0,0,1-.37,1.07,7.58,7.58,0,0,0,.37,2,13.65,13.65,0,0,0-.2,2v1.61a14.1,14.1,0,0,0,.2,2.33,19.14,19.14,0,0,0-.37,2.35A6.1,6.1,0,0,0,191.23,78v.2c0,.28-1,.52-3.06.71-.09,0-.45-.06-1.08-.17a1.35,1.35,0,0,0-.7.17c-2.48-.12-4.16-.24-5-.37a2.06,2.06,0,0,1-1.08.37H179c-.21,0-.38-.31-.54-.91a5.77,5.77,0,0,1,1.25-1.62c0-.39-.06-1.4-.17-3l.17-1.61-.17-1.08.37-2.15a1.93,1.93,0,0,1-.37-.9c.11-3,.24-4.48.37-4.48a2.87,2.87,0,0,1-.37-1.27l.17-1.08a17.4,17.4,0,0,1-.17-2.15,6.64,6.64,0,0,0,.37-1.08,13.27,13.27,0,0,1-.37-2.49,8.09,8.09,0,0,1,.37-1.81,13.78,13.78,0,0,1-.37-2.16,1.32,1.32,0,0,1,.17-.53l-.17-1.08v-.37a2,2,0,0,1,.37-1.07,27.18,27.18,0,0,1-.37-4.31l.17-.34a1.54,1.54,0,0,1-.17-.73,2.79,2.79,0,0,1,.37-1.42,9.12,9.12,0,0,0-.37-2,15.62,15.62,0,0,0,.17-2V35.61a16.91,16.91,0,0,0-.17-2.32,17.1,17.1,0,0,0,.37-2.32,6.34,6.34,0,0,0-1.45-2.53v-.16c0-.29,1-.53,3.06-.74.08,0,.44.07,1.08.2a1.33,1.33,0,0,0,.71-.2c2.47.13,4.14.25,5,.37a2.08,2.08,0,0,1,1.08-.37h1.27c.11,0,.17.07.17.2l.37-.2h.88c.19,0,.36.18.53.54v.53c-.35.72-.71,1.08-1.07,1.08A45.75,45.75,0,0,0,195,38a29.31,29.31,0,0,1,2.15,4.65,14.25,14.25,0,0,1,1.61,3.59c1.44,2.49,2.15,3.93,2.15,4.31l.71,2.15h.17q2-3.09,2.15-4.48a3.37,3.37,0,0,0,.74-1.81c.44,0,.79-.59,1.08-1.78l-.17-.37a32.68,32.68,0,0,0,1.95-4.31,8.84,8.84,0,0,0,2.35-4.47c.49-.3.91-1.38,1.25-3.23a12.61,12.61,0,0,1,.9-2v-.17L211,28.44l.54-.9.87.2.37-.2.37.2Z" transform="translate(-13.63 -20.74)"/><path class="cls-1" d="M234.22,27.48c.09,0,.45.06,1.08.17a1.35,1.35,0,0,0,.7-.17c2.48.12,4.16.24,5,.37a2.18,2.18,0,0,1,1.08-.37h1.25c.2,0,.38.3.53.91A5.5,5.5,0,0,1,242.66,30c0,.4.06,1.42.17,3.06l-.17,1.62.17,1.07-.34,2.15a2.2,2.2,0,0,1,.34,1.08v.54a9.92,9.92,0,0,1-.17,1.61,1.4,1.4,0,0,1,.17.54c0,.1-.06.45-.17,1.08,0,.15.06.75.17,1.81l-.17,1.25a11.67,11.67,0,0,1,.17,2,1.9,1.9,0,0,1-.34.88,14.23,14.23,0,0,1,.34,2.71,8.83,8.83,0,0,1-.34,1.79,14.81,14.81,0,0,1,.34,2.15,1.4,1.4,0,0,1-.17.54l.17,1.08v.36a2.2,2.2,0,0,1-.34,1.08l.17.91c-.11,1-.17,1.79-.17,2.32.23,1.43.34,2.27.34,2.52a3.12,3.12,0,0,1-.34,1.07,9.39,9.39,0,0,0,.34,2,15.38,15.38,0,0,0-.17,2v1.64a17.05,17.05,0,0,0,.17,2.33,19.26,19.26,0,0,0-.34,2.32A6.41,6.41,0,0,0,243.9,78v.2c0,.26-1,.5-3,.71a10.24,10.24,0,0,0-1.1-.17,1.41,1.41,0,0,0-.71.17c-2.47-.12-4.15-.24-5-.37a2.06,2.06,0,0,1-1.08.37H231.7c-.21,0-.39-.31-.54-.91a5.77,5.77,0,0,1,1.25-1.62c0-.39-.06-1.41-.17-3l.17-1.62-.17-1.07.36-2.16a1.85,1.85,0,0,1-.36-.9c.11-3,.23-4.48.36-4.48a3,3,0,0,1-.36-1.27l.17-1.08a15.19,15.19,0,0,1-.17-2.15,7.19,7.19,0,0,0,.36-1.08,13.91,13.91,0,0,1-.36-2.52,8.7,8.7,0,0,1,.36-1.78,14.53,14.53,0,0,1-.36-2.15,1.17,1.17,0,0,1,.17-.54l-.17-1.08V49A2.09,2.09,0,0,1,232.6,48a28.33,28.33,0,0,1-.36-4.31l.17-.37a1.35,1.35,0,0,1-.17-.7,3,3,0,0,1,.36-1.45,10.19,10.19,0,0,0-.36-2,15.38,15.38,0,0,0,.17-1.95V35.55a16.91,16.91,0,0,0-.17-2.32,19,19,0,0,0,.36-2.32,6,6,0,0,0-1.44-2.52v-.2C231.16,27.93,232.18,27.69,234.22,27.48Z" transform="translate(-13.63 -20.74)"/><path class="cls-1" d="M276,27.37c.08,0,.44.06,1.08.17a1.52,1.52,0,0,0,.71-.17c2.47.11,4.14.24,5,.37a2,2,0,0,1,1.07-.37h1.28c.19,0,.37.3.54.91a6,6,0,0,1-1.28,1.61c0,.4.07,1.41.2,3l-.2,1.61.2,1.08-.37,2.15a2.08,2.08,0,0,1,.37,1.08v.54a8.44,8.44,0,0,1-.2,1.61,1.44,1.44,0,0,1,.2.54c0,.09-.07.45-.2,1.08,0,.15.07.75.2,1.81l-.2,1.24a10.33,10.33,0,0,1,.2,2,1.78,1.78,0,0,1-.37.87,13.25,13.25,0,0,1,.37,2.69,8.14,8.14,0,0,1-.37,1.82,13.73,13.73,0,0,1,.37,2.15,1.24,1.24,0,0,1-.2.54l.2,1.07v.37a2.08,2.08,0,0,1-.37,1.08l.17.88c-.11,1-.17,1.8-.17,2.35A24.1,24.1,0,0,1,284.6,64a2.88,2.88,0,0,1-.37,1.07,7.72,7.72,0,0,0,.37,2,13.14,13.14,0,0,0-.2,2v1.61a14.48,14.48,0,0,0,.2,2.33,18.73,18.73,0,0,0-.37,2.32,6.37,6.37,0,0,0,1.45,2.52V78c0,.28-1,.53-3.06.74a8.11,8.11,0,0,0-1.08-.2,1.25,1.25,0,0,0-.71.2c-2.47-.14-4.15-.26-5-.37a2.11,2.11,0,0,1-1.07.37h-1.25c-.21,0-.39-.31-.54-.91A5.93,5.93,0,0,1,274,76.33a26.54,26.54,0,0,1-2.69-4.47l-1.81-2a1.58,1.58,0,0,0-.88-1.62c-.25,0-.37-.29-.37-.87h.17a30.75,30.75,0,0,0-2.15-4.14c-.49-.62-1.81-2.83-3.94-6.63h.17c0-.3-.77-1.37-2.32-3.22a9.86,9.86,0,0,0-1.45-3.06h-.34V51A8,8,0,0,1,258,53.2a14.53,14.53,0,0,1,.36,2.15,1.2,1.2,0,0,1-.19.54L258.4,57v.37a2.15,2.15,0,0,1-.36,1.08l.17.9a20.64,20.64,0,0,0-.17,2.33,25,25,0,0,1,.36,2.52,3.34,3.34,0,0,1-.36,1.07,7.3,7.3,0,0,0,.36,2,13.39,13.39,0,0,0-.19,2v1.61a14.08,14.08,0,0,0,.19,2.33,18.29,18.29,0,0,0-.36,2.35A6.09,6.09,0,0,0,259.48,78v.2c0,.28-1,.52-3.06.71a9.52,9.52,0,0,0-1.07-.17,1.38,1.38,0,0,0-.71.17c-2.48-.12-4.16-.24-5-.37a2.06,2.06,0,0,1-1.08.37h-1.25c-.2,0-.38-.31-.53-.91A5.61,5.61,0,0,1,248,76.33c0-.39,0-1.4-.17-3l.17-1.61-.17-1.08.37-2.15a2,2,0,0,1-.37-.9c.12-3,.24-4.48.37-4.48a3,3,0,0,1-.37-1.27l.17-1.08a17.4,17.4,0,0,1-.17-2.15,6.64,6.64,0,0,0,.37-1.08,14.18,14.18,0,0,1-.37-2.49,8.73,8.73,0,0,1,.37-1.81,15.19,15.19,0,0,1-.37-2.16,1.32,1.32,0,0,1,.17-.53l-.17-1.08v-.37a2.11,2.11,0,0,1,.37-1.07,28.41,28.41,0,0,1-.37-4.31l.17-.34a1.54,1.54,0,0,1-.17-.73,2.89,2.89,0,0,1,.37-1.42,8.51,8.51,0,0,0-.37-2,14,14,0,0,0,.17-2V35.61a15.47,15.47,0,0,0-.17-2.32,17.1,17.1,0,0,0,.37-2.32,6.45,6.45,0,0,0-1.44-2.53v-.16c0-.29,1-.53,3.06-.74.07,0,.43.07,1.07.2a1.31,1.31,0,0,0,.71-.2c2.47.13,4.14.25,5,.37a2.08,2.08,0,0,1,1.08-.37h1.27q.31,0,.54.9a5.54,5.54,0,0,1-1.08,1.45v.17l3.23,5.75c0,.36.65,1.37,2,3a11.06,11.06,0,0,1,1.61,3.23,7.69,7.69,0,0,1,2,3.42c.44.08,1,1.09,1.79,3,.32,0,.86.72,1.61,2.16,1.08,1.15,1.62,1.93,1.62,2.35a5.88,5.88,0,0,0,1.64,3.06l.54-3.06a13.78,13.78,0,0,1-.37-2.16,1.32,1.32,0,0,1,.17-.53L274,49.26v-.37a2,2,0,0,1,.37-1.07,27.18,27.18,0,0,1-.37-4.31l.17-.37a1.45,1.45,0,0,1-.17-.7,3,3,0,0,1,.37-1.45,9.67,9.67,0,0,0-.37-2,16.07,16.07,0,0,0,.17-2V35.44a16.46,16.46,0,0,0-.17-2.32,19.75,19.75,0,0,0,.37-2.35,6,6,0,0,0-1.45-2.49v-.2C272.93,27.79,274,27.56,276,27.37Z" transform="translate(-13.63 -20.74)"/><path class="cls-1" d="M307.82,27.37c1.95.11,3.7.17,5.24.17a17.7,17.7,0,0,1,6.86,2.72l1.27,1.61c1.4,0,3,1.46,4.87,4.36v.71a31.19,31.19,0,0,1-4.33,2.89q-4.85,3.26-5.61,3.26a2.15,2.15,0,0,1-.37-.54c.08-1.1.2-1.64.37-1.64-.47-1.33-1.91-2.4-4.33-3.23a21.32,21.32,0,0,0-3.09-.57l-.34.2-.37-.2c-2.56,0-4.67,1.46-6.31,4.36a27.43,27.43,0,0,0-.74,2.89l.17.34c-.11.38-.22.57-.34.57a7.2,7.2,0,0,0,.17.71c0,3.13-.18,4.7-.54,4.7a1.32,1.32,0,0,0,.17.53l-.17,1.08a30.53,30.53,0,0,1,.37,4.7v.74a1.25,1.25,0,0,1-.2.71,1.25,1.25,0,0,1,.2.73c0,.08-.06.86-.2,2.35a16.84,16.84,0,0,1,1.28,3.8A10.52,10.52,0,0,0,304,68.21l.34-.2a5.41,5.41,0,0,0,2.72.9h.17a1.61,1.61,0,0,1,1.44,0,8.24,8.24,0,0,0,5.07-1.44c.11,0,.17.07.17.2a7.06,7.06,0,0,0,2.89-5.81c.13,0,.25-.71.37-2.15,0-.51-.54-.81-1.62-.91-1.07.12-1.73.17-2,.17l-.74-.34c-2.39.53-3.59,1.07-3.59,1.62,0,.11-.07.17-.2.17h-.54c-.28,0-.46-.3-.54-.91l.37-1.24c-.13-1.83-.2-3.1-.2-3.8,0-.15.07-.75.2-1.81a3,3,0,0,1-.37-1.45v-.36a3.09,3.09,0,0,1,.37-1.45l1.79.2h4.36a1.82,1.82,0,0,1,.88.17l1.1-.17h3.43l1.07.17a1.58,1.58,0,0,1,.74-.17l.34.17.37-.17,1.07.17,1.65-.17c1.22.11,2.19.17,2.88.17a1.4,1.4,0,0,1,.54-.17l.37.54a2.89,2.89,0,0,1-1.44,2.15,1.24,1.24,0,0,0,.17.54c-.12,2.32-.17,3.83-.17,4.53l.17,1.27-.54,2.16a2.91,2.91,0,0,1,.37,1.44A18.92,18.92,0,0,1,325,70l-2.55,3.46c-.29,0-.95.59-2,1.78q-5.08,3.26-9.4,3.26c0,.17-1.2.29-3.59.37a16.36,16.36,0,0,1-14.11-7.06q-.51,0-1.81-4.33c-.76-.6-1.29-3.67-1.61-9.2,0-1.16.05-3,.17-5.61a1.38,1.38,0,0,1-.17-.71.32.32,0,0,0,.36-.37c0-.36-.06-.54-.19-.54l.19-1.81V48.16a12.17,12.17,0,0,0-.36-2.35,22.79,22.79,0,0,1,2.88-10.48,7.68,7.68,0,0,1,2-2.35c1.13-.93,1.73-1.59,1.81-2,1.57-1.2,2.83-1.81,3.79-1.81q1.43-1.82,7.23-1.81Z" transform="translate(-13.63 -20.74)"/><path class="cls-2" d="M347.93,20.74q0,1.14,6.62,6.29,6.85,3.64,8.72,3.65a.82.82,0,0,0,.71-.88q0-1-3.31-2.94-3.82-3.22-3.82-3.68V23H357a16.78,16.78,0,0,0,6.79,2.8l.88-.2c.81.17,1.22.35,1.22.54l.88-.17q7.53.16,10.81.17a5.3,5.3,0,0,0,.68-.17,2,2,0,0,0,1.05.34h1.76a51.39,51.39,0,0,1,5.24,1.76A16.37,16.37,0,0,1,392.25,34l1.21,3.68a25.3,25.3,0,0,1-1,7.47,19.67,19.67,0,0,0-2.1,3.52,1.23,1.23,0,0,0-.51.17,22.26,22.26,0,0,1,3.82,5.91,12.83,12.83,0,0,1,2.47,5.78c.11,0,.28.23.51.68v2.27L397,64v2.09q0,2.83-2.78,7.51-3.48,3.48-6.62,3.48a5.64,5.64,0,0,1-2.1.88h-1.22a14.7,14.7,0,0,1-1.92-.17,4.54,4.54,0,0,1-1.93.34h-1.05a.15.15,0,0,1-.17-.17l-1.39.34c-2-.12-3.47-.17-4.53-.17h-3.68a14.69,14.69,0,0,0-2.26.17,6,6,0,0,0-1.56-.17c-.19,0-.89,0-2.1.17-.53-.23-.82-.47-.87-.71v-.34q.71-.66,1.38-4v-1a6,6,0,0,0-.17-1.56,8.93,8.93,0,0,0,.17-1.75,5.9,5.9,0,0,0-.17-1.56,10.41,10.41,0,0,0,.17-1.93L364,64.19l.17-.34a4.61,4.61,0,0,1-.34-1.42,6.55,6.55,0,0,0,.34-1.56,2.86,2.86,0,0,0-.17-1.39,13.59,13.59,0,0,0,.17-1.92V55.29a16.61,16.61,0,0,0-.34-2.43c0-.19.06-.89.17-2.1a16.23,16.23,0,0,0-3-7.16,25.49,25.49,0,0,1-4.87-5.41v-.51c2.92,2.23,5.13,3.79,6.63,4.7h.5a1.38,1.38,0,0,0,.54-.34q0-2.72-3.85-4.73-6.63-4.94-8.35-8.55c-.46,0-1.68-2.09-3.68-6.26l-.34-1.59ZM355.6,36.8l.2.34v.17h-.2a.3.3,0,0,1-.34-.34Zm19,.17a.3.3,0,0,1-.34.34l.17.37v.17a9.29,9.29,0,0,1-.17,1.55,2,2,0,0,1,.34,1.05v2.27c0,.68-.06,1.61-.17,2.8a1.4,1.4,0,0,1,.17.51,6,6,0,0,0-.17,1.42V48h.17q7.68-3.28,7.68-7.34v-.17q0-1.73-3.32-3.31h-.88a9.63,9.63,0,0,0-1.72.17Zm-.17,23.9.17,1.22v.54a16.35,16.35,0,0,1-.17,2.43,11.9,11.9,0,0,1,.17,2.1,3.18,3.18,0,0,1-.34,1c.23,0,.34.15.34.34l1.76-.17h1.55c.12,0,.17.05.17.17q5.58-.83,5.58-1.93a5.2,5.2,0,0,0,2.44-4.53c-.15,0-.38-.29-.68-.88V59.82c-.57,0-1.27-.93-2.1-2.8A2,2,0,0,0,381.77,56a25.48,25.48,0,0,1-3.49,2.1Z" transform="translate(-13.63 -20.74)"/><path class="cls-1" d="M401.56,27.37a5.62,5.62,0,0,1,1.25.17c1.79-.11,3.29-.17,4.5-.17H408a15.49,15.49,0,0,1,2,.17,1.88,1.88,0,0,1,.91-.17l1.25.17a16.08,16.08,0,0,1,2-.17,12.33,12.33,0,0,0,2.15.37,7,7,0,0,1,1.44-.37l1.25.17c.25,0,.37-.06.37-.17,1.47.11,4.77.24,9.88.37.25.83.43,1.24.54,1.24l-.37,3.43a5.93,5.93,0,0,1,.37,2.15l-.17.91a10.28,10.28,0,0,1,.17,1.78V38q0,.28-.54.54h-.37c-1-1-1.55-1.42-1.78-1.42-.49.1-.74.21-.74.34l-.87-.17a6.32,6.32,0,0,0-1.45.17L423,37.25l-1.28.17a2.18,2.18,0,0,0-1.07-.34h-.71c-.83,0-1.25.15-1.25.34a33.27,33.27,0,0,0-3.79-.34l-.88.17a2,2,0,0,0-.91-.17c0,.23-.12.34-.37.34l.37,4.51a4,4,0,0,0-.37,1.61,17.16,17.16,0,0,0,.37,2.52l-.37,7a1.13,1.13,0,0,1,.54.19c0-.39,1.74-1.36,5.21-2.89a4.36,4.36,0,0,0,1.82-1.07c.56,0,1.58-.6,3.05-1.79a16.2,16.2,0,0,1,3.6-1.61h.54c.26,0,.44.29.54.88a2,2,0,0,0-.37,1.07v7l.37,1.24c-.47,1.08-.78,1.62-.91,1.62h-.37c-.75-.83-1.29-1.25-1.61-1.25q-.06.71-2.52,1.62c-1.46,1.07-2.48,1.61-3.06,1.61a29.41,29.41,0,0,1-5,2.69,3.72,3.72,0,0,1-1.62.91.18.18,0,0,1-.2.2l.2,1.78V66.9l-.2,2.16.37.19a15.68,15.68,0,0,1,2.32-.36l.91.17.91-.17,1.61.17c.36-.12.54-.23.54-.34l3.6.53c3.72-.28,5.57-.7,5.57-1.27l.54-.34h.17q.54.17.54,1.08v2.49a6,6,0,0,0,.17,1.44c-.13,2.89-.31,4.34-.54,4.34l.2.34v.73c0,.47-1,.71-2.89.71a8.61,8.61,0,0,1-2-.17c-1.13.11-2.21.17-3.23.17h-1.44c-1.87,0-3.79-.06-5.75-.17a13,13,0,0,1-2.32.17c-.65-.11-1-.17-1.08-.17a1.4,1.4,0,0,0-.54.17l-1.61-.17c-2.08.11-3.28.17-3.6.17-1.62-.11-2.82-.17-3.6-.17l-.19-.37v-.37a6.38,6.38,0,0,0,1.44-3c-.11-1.4-.17-2.42-.17-3.06h.17c-.11-.59-.24-.88-.37-.88l.2-1.81V64.21a8.44,8.44,0,0,0-.2-1.61,7.17,7.17,0,0,0,.37-2.35,2,2,0,0,1-.37-1.08l.37-1.24a4.36,4.36,0,0,0-.37-2,2.81,2.81,0,0,0,.37-1.44,71.1,71.1,0,0,0-.37-7.53,8.66,8.66,0,0,0,.2-1.45c0-.22-.07-1.3-.2-3.23a17.69,17.69,0,0,1,.37-2,6.15,6.15,0,0,0-.37-1.81q.19-4.76.54-7.53a5.84,5.84,0,0,0-1.78-2.53A2.12,2.12,0,0,1,401.56,27.37Z" transform="translate(-13.63 -20.74)"/><path class="cls-1" d="M450.64,27.54c0,.24.18.37.54.37l1.08-.17a1.41,1.41,0,0,1,.71.17c1.3-.12,2.43-.17,3.39-.17,3,0,4.48.23,4.48.7a7.8,7.8,0,0,0-1.08,1.79q.63,1.13,2.32,8.75a79,79,0,0,1,2.33,8.41,32.75,32.75,0,0,1,1.44,5.72c.25,0,.37.25.37.74l-.2.71a50.69,50.69,0,0,1,2.52,8c.21,0,.39.77.54,2.32.26,0,.68,1.38,1.25,4.14a1.17,1.17,0,0,0-.17.53,29.36,29.36,0,0,1,1.24,3.94c.23,0,.34.13.34.34v1.45c0,.5.66,1.34,2,2.49-.22.54-.46.85-.7.9l-1.08-.19-.91.19c-1-.13-1.71-.19-1.95-.19l-2.52.19q0-.36-.54-.36a6.55,6.55,0,0,1-1.61.36h-3.2c-.17,0-.35-.18-.54-.53v-.54c1.07-.74,1.61-1.28,1.61-1.62q-.67,0-1.61-5.38a10.67,10.67,0,0,1-1.08-3.4c-.24,0-.37-.11-.37-.34l.2-1.24-.37-.2a18.19,18.19,0,0,1-4.84,3.94q0,.42-5.89,4.64A6.06,6.06,0,0,1,446,76v.17c0,.42.36,1,1.07,1.62v.37c0,.22-.59.4-1.78.53a4.16,4.16,0,0,0-1.27-.36,2,2,0,0,1-1.08.36h-1.59a9.14,9.14,0,0,1-1.81-.19,4.74,4.74,0,0,1-1.24.19l-1.25-.19a1.88,1.88,0,0,1-.91.36c-1.3-.26-1.95-.5-1.95-.7v-.74c1.08-.57,1.61-1.1,1.61-1.59a30.87,30.87,0,0,1,1.25-4.47,17.17,17.17,0,0,1,1.25-4.84,29.09,29.09,0,0,1,1.24-4.65,43.57,43.57,0,0,1,1.81-6.09l-.19-1.24q.73,0,2.32-8.05a38.56,38.56,0,0,0,2.15-7.33c.25,0,.43-.72.54-2.15.15,0,.51-1,1.07-2.86l-.17-.37v-.17a36.47,36.47,0,0,1,1.25-3.77c-.83-.79-1.25-1.26-1.25-1.42.17-.47.35-.7.54-.7H448C448.56,27.74,449.45,27.67,450.64,27.54Zm3,18.61v.7a20.49,20.49,0,0,1-1.24,4.68l.2.34a8.53,8.53,0,0,0-.91,3.59c-.62,2.74-1.11,4.11-1.45,4.11v.34h.54q0-.77,4.48-3.4l1.44-1v-.2a7.07,7.07,0,0,1-1.07-3.56,21.77,21.77,0,0,1-1.45-5.55Z" transform="translate(-13.63 -20.74)"/><path class="cls-1" d="M495.84,27.37a16.39,16.39,0,0,1,6.83,1.75q.79,0,3,2.1c1,.28,2.27,1.75,3.85,4.39a7.8,7.8,0,0,1,1.22,1.93v.51c0,.24-1.28,1.18-3.85,2.8,0,.24-.46.42-1.39.54,0,.41-.58.82-1.75,1.22,0,.47-.3.82-.88,1l-.34-.17a2.17,2.17,0,0,1-1.05.34l-.2-.34a9.5,9.5,0,0,1,.37-1.58c-1.32-2.46-2.61-3.68-3.85-3.68-1-.33-1.61-.62-1.76-.88l-2.09.2h-1.25q-3.48,1.41-3.48,2.8c-.12,1-.17,1.66-.17,1.93a18.47,18.47,0,0,0,6.82,4.19l.34-.17q.7,0,4,2.26,1.4,0,5.44,3c.28,0,1.28.93,3,2.8q1.45.6,3.15,6V62.4a20.37,20.37,0,0,1-2.1,8.75,12,12,0,0,1-3,3.51c0,.76-1.81,1.86-5.44,3.32a2.52,2.52,0,0,0-1.73.71l-.87-.17a20.67,20.67,0,0,1-3.18.34l-1.72-.17-.71.17q-3.63,0-9.29-3.15-4-2.77-4-4.39a9.79,9.79,0,0,1-1.59-2.63v-.17a58,58,0,0,1,5.95-4.73,7.63,7.63,0,0,1,2.46-2.1A1.12,1.12,0,0,1,487.6,61q0,.26.54.54l-.2,1.22v1c0,.87.77,1.86,2.29,3,0,.4.65.81,1.93,1.25,0,.32,1.17.61,3.51.88Q500,67.13,500,65.54c.25-.28.37-.46.37-.53V64.5a1.23,1.23,0,0,0-.2-.71,1.23,1.23,0,0,0,.2-.71v-.17c-.43-1.74-1.08-2.6-1.95-2.6,0-.44-1.16-1.15-3.49-2.13-.52-.49-2.45-1.24-5.77-2.26q-.15,0-5.1-3.35c-.45,0-1-.52-1.73-1.55a8.1,8.1,0,0,1-3.17-4.39c-.59-.44-1-2.42-1.22-6q0-.13,1.76-5.61c.17,0,.75-.64,1.75-1.92a8.08,8.08,0,0,1,3.15-2.47c.45-.7,2.43-1.56,5.94-2.6a1.52,1.52,0,0,0,.71.17,1.86,1.86,0,0,0,1.05-.54h2.27Z" transform="translate(-13.63 -20.74)"/><path class="cls-1" d="M549.37,27.37l.54.71v1.07a27.78,27.78,0,0,0,.19,3.23L549.74,34l.36,4.3-.36.2H549a4.19,4.19,0,0,1-1.45-1.28l-1.61.2c-.7,0-2.13-.06-4.31-.2l-1.27.2a8.72,8.72,0,0,1-1.78-.37l-.71.54.17,1.25v1.61a2,2,0,0,0,.37,1.08l-.2,1.61.2.91-.37,2.32a2.93,2.93,0,0,1,.37,1.08,2.91,2.91,0,0,0-.37,1.44,18.78,18.78,0,0,1,.37,2.52v.17l-.37,1.25.37,2.35a8.11,8.11,0,0,0-.2,1.08,8.44,8.44,0,0,1,.2,1.61c-.25,0-.37.16-.37.37l.17,1.07a20.64,20.64,0,0,0-.17,2.33c.24,1.41.37,2.25.37,2.52a3.46,3.46,0,0,1-.37,1.07,6.77,6.77,0,0,0,.37,2,12.36,12.36,0,0,0-.2,2v1.61a13.1,13.1,0,0,0,.2,2.33,17.23,17.23,0,0,0-.37,2.35A6.2,6.2,0,0,0,539.51,78v.2c0,.28-1,.52-3.06.71a9.52,9.52,0,0,0-1.07-.17,1.38,1.38,0,0,0-.71.17c-2.47-.12-4.15-.24-5-.37a2.06,2.06,0,0,1-1.08.37h-1.24c-.21,0-.39-.31-.54-.91A5.61,5.61,0,0,1,528,76.33c0-.39,0-1.4-.17-3l.17-1.61-.17-1.08.37-2.15a2,2,0,0,1-.37-.9c.12-3,.24-4.48.37-4.48a3,3,0,0,1-.37-1.27l.17-1.08a17.4,17.4,0,0,1-.17-2.15,6.64,6.64,0,0,0,.37-1.08,19.88,19.88,0,0,1-.37-2.15,15.15,15.15,0,0,1,.37-2.15l-.37-3.77a5.39,5.39,0,0,0,.37-2l-.37-2.32c.12-1.67.17-2.74.17-3.23l-.17-1.25c.36-1.89.54-3,.54-3.23a.33.33,0,0,1-.37-.37q-2.78.38-3.39.54a10,10,0,0,0-1.62-.17h-2.69a5,5,0,0,0-3.23,1.25l-.9-.54.19-1.25v-.19a2.15,2.15,0,0,0-.36-1.08l.36-2.32a8.8,8.8,0,0,1-.19-1.79v-.19a6.89,6.89,0,0,1,.36-1.62,9.92,9.92,0,0,1-.17-1.61q.25,0,.54-.54l1.25.2h.17a1.6,1.6,0,0,0,.9-.2,5.15,5.15,0,0,1,.71.2l1.62-.2a44.76,44.76,0,0,0,4.84.37c0-.25.16-.37.37-.37s.9.07,2.15.2l2.15-.2,2.15.2c1.06-.13,1.72-.2,2-.2a5.93,5.93,0,0,1,1.41.37l1.82-.17,2.15.17.71-.17.9.17c1.55-.1,2.32-.22,2.32-.37l.91.2h.71A16.58,16.58,0,0,0,549.37,27.37Z" transform="translate(-13.63 -20.74)"/><path class="cls-1" d="M570.81,27.54c0,.24.18.37.53.37l1.08-.17a1.41,1.41,0,0,1,.71.17c1.3-.12,2.43-.17,3.4-.17,3,0,4.47.23,4.47.7a7.53,7.53,0,0,0-1.07,1.79q.62,1.13,2.32,8.75a79.44,79.44,0,0,1,2.32,8.41A31.88,31.88,0,0,1,586,53.11c.25,0,.37.25.37.74l-.2.71c.5.86,1.34,3.55,2.52,8,.21,0,.39.77.54,2.32.27,0,.68,1.38,1.25,4.14a1.32,1.32,0,0,0-.17.53,29.36,29.36,0,0,1,1.24,3.94c.23,0,.34.13.34.34v1.45c0,.5.67,1.34,2,2.49-.23.54-.47.85-.71.9l-1.08-.19-.9.19c-1.06-.13-1.71-.19-2-.19l-2.52.19q0-.36-.54-.36a6.55,6.55,0,0,1-1.61.36h-3.2c-.17,0-.35-.18-.54-.53v-.54q1.62-1.11,1.62-1.62-.69,0-1.62-5.38a10.5,10.5,0,0,1-1.07-3.4c-.25,0-.37-.11-.37-.34l.2-1.24-.37-.2a18.27,18.27,0,0,1-4.85,3.94q0,.42-5.89,4.64a6.06,6.06,0,0,1-2.32,2v.17q0,.63,1.08,1.62v.37c0,.22-.6.4-1.79.53a4.16,4.16,0,0,0-1.27-.36,2,2,0,0,1-1.08.36h-1.58a9.23,9.23,0,0,1-1.82-.19,4.68,4.68,0,0,1-1.24.19l-1.25-.19a1.88,1.88,0,0,1-.9.36c-1.31-.26-2-.5-2-.7v-.74q1.62-.85,1.62-1.59a30.09,30.09,0,0,1,1.24-4.47,17.53,17.53,0,0,1,1.25-4.84,29.09,29.09,0,0,1,1.24-4.65,42.86,42.86,0,0,1,1.82-6.09l-.2-1.24q.73,0,2.32-8.05a37.8,37.8,0,0,0,2.15-7.33c.25,0,.43-.72.54-2.15.15,0,.51-1,1.08-2.86l-.17-.37v-.17a34.79,34.79,0,0,1,1.24-3.77c-.83-.79-1.24-1.26-1.24-1.42.17-.47.35-.7.54-.7h.34C568.72,27.74,569.62,27.67,570.81,27.54Zm3,18.61v.7a21,21,0,0,1-1.25,4.68l.2.34a8.53,8.53,0,0,0-.91,3.59q-.93,4.11-1.44,4.11v.34H571q0-.77,4.47-3.4l1.44-1v-.2a7.07,7.07,0,0,1-1.07-3.56,22.19,22.19,0,0,1-1.45-5.55Z" transform="translate(-13.63 -20.74)"/><path class="cls-1" d="M602.1,27.37a12.64,12.64,0,0,1,2,.37,8.44,8.44,0,0,1,1.62-.2h.9a1.31,1.31,0,0,1,.71.2,4.23,4.23,0,0,1,1.45-.37c.47.09.7.22.7.37l2.35-.37,3.06.37,1.45-.37a21,21,0,0,0,4.5,1.07q0,.86,2,1.08,4.14,3.66,4.14,5,2.14,2.52,2.15,8.3A22.36,22.36,0,0,1,628,49.52v1.24a10.28,10.28,0,0,1-1.61,2.89,5.71,5.71,0,0,1-1.62,3.06q-.42,0-3.25,2.89A24.74,24.74,0,0,1,624.05,65a16.13,16.13,0,0,1,2.52,5.38c.26,0,.81,1.14,1.64,3.25l2,3.6c.49.17.73.35.73.54v.71a.33.33,0,0,1-.37.37,10.08,10.08,0,0,1-1.44-.17l-.88.17-4-.37-4.34.37-.9-.17a5.62,5.62,0,0,1-1.25.17,2.18,2.18,0,0,1-.37-1.08c.85-.45,1.28-1,1.28-1.62V76q-1-1-4.34-9.35c-.24,0-.48-.48-.7-1.44l-.37-.17a32.43,32.43,0,0,1-3.8,2.32c0,.13-.05.2-.17.2a28.36,28.36,0,0,1,.37,4.84c0,.49-.06,1.58-.2,3.26a5.87,5.87,0,0,0,1.45,2.15v.37c0,.47-.84.71-2.52.71a10.39,10.39,0,0,1-1.79-.17l-.73.17a14,14,0,0,0-2-.17c-.24,0-.9,0-2,.17a4.33,4.33,0,0,0-.71-.17,10.34,10.34,0,0,1-1.81.17h-.88a.33.33,0,0,1-.36-.37,2.79,2.79,0,0,1,1.44-2.33l-.37-.9.37-3.43a2,2,0,0,1-.37-1.07c0-.72.16-1.08.37-1.08a8.53,8.53,0,0,1-.2-1.45,20.39,20.39,0,0,1,.2-2.35,17.69,17.69,0,0,1-.37-2q0-.93.37-6.29Q599.16,52,599,51.5a18,18,0,0,0,.34-3.8L599,47a3,3,0,0,0,.34-1.44v-.91l-.17-1.07a2.87,2.87,0,0,0,.37-1.45,2,2,0,0,1-.37-1.07c0-1.51.06-3.37.17-5.58L599,33.32a2.2,2.2,0,0,0,.34-1.08V31a8,8,0,0,0-1.24-2.89v-.17c0-.25.16-.37.36-.37h1.79A10.8,10.8,0,0,0,602.1,27.37Zm7.36,10.08V38a6.72,6.72,0,0,0,.37,1.61l-.37.91.37,2.35a21.93,21.93,0,0,0-.37,3.6l.37.7-.37,2.53a17.43,17.43,0,0,1,.37,2.71c-.24,0-.37.16-.37.34v.37l.2.91h.17q5-2.87,6.85-6a13.29,13.29,0,0,0,1.62-3.6q-.09-5.37-3.06-6.48a7,7,0,0,0-3.06-.91h-1.27a1.38,1.38,0,0,1-.71-.17C609.71,37.08,609.46,37.26,609.46,37.45Z" transform="translate(-13.63 -20.74)"/><path class="cls-1" d="M653,27.37a16.42,16.42,0,0,1,6.83,1.75q.78,0,3,2.1c1,.28,2.26,1.75,3.85,4.39a7.8,7.8,0,0,1,1.22,1.93v.51c0,.24-1.29,1.18-3.85,2.8,0,.24-.47.42-1.39.54,0,.41-.59.82-1.76,1.22,0,.47-.29.82-.87,1l-.34-.17a2.17,2.17,0,0,1-1,.34l-.2-.34a9.5,9.5,0,0,1,.37-1.58c-1.32-2.46-2.61-3.68-3.85-3.68-1-.33-1.61-.62-1.76-.88l-2.1.2h-1.24c-2.32.94-3.49,1.87-3.49,2.8s-.17,1.66-.17,1.93A18.57,18.57,0,0,0,653,46.46l.34-.17q.71,0,4,2.26,1.39,0,5.44,3c.28,0,1.27.93,3,2.8,1,.4,2,2.39,3.15,6V62.4a20.37,20.37,0,0,1-2.1,8.75,12,12,0,0,1-3,3.51c0,.76-1.82,1.86-5.44,3.32a2.52,2.52,0,0,0-1.73.71l-.88-.17a20.57,20.57,0,0,1-3.17.34l-1.73-.17-.7.17q-3.63,0-9.29-3.15-4-2.77-4-4.39c-.16,0-.68-.88-1.59-2.63v-.17c.09-.25,2.08-1.82,5.95-4.73a7.63,7.63,0,0,1,2.46-2.1,1.12,1.12,0,0,1,1-.71q0,.26.54.54l-.2,1.22v1c0,.87.76,1.86,2.29,3,0,.4.64.81,1.93,1.25,0,.32,1.17.61,3.51.88q4.36-1.76,4.36-3.35c.25-.28.37-.46.37-.53V64.5a1.31,1.31,0,0,0-.2-.71,1.31,1.31,0,0,0,.2-.71v-.17c-.44-1.74-1.09-2.6-2-2.6,0-.44-1.17-1.15-3.49-2.13-.53-.49-2.45-1.24-5.78-2.26q-.14,0-5.09-3.35c-.46,0-1-.52-1.73-1.55a8.1,8.1,0,0,1-3.17-4.39c-.59-.44-1-2.42-1.22-6,0-.09.58-2,1.76-5.61.17,0,.75-.64,1.75-1.92a8.08,8.08,0,0,1,3.15-2.47c.45-.7,2.43-1.56,5.94-2.6a1.52,1.52,0,0,0,.71.17,1.92,1.92,0,0,0,1-.54h2.26Z" transform="translate(-13.63 -20.74)"/></svg>